<svg width="34" height="27" viewBox="0 0 34 27" fill="none" xmlns="http://www.w3.org/2000/svg">
<path fill-rule="evenodd" clip-rule="evenodd" d="M0.0140631 20.6878C0.0140631 20.6878 0.0140631 20.6878 0.0140631 20.6949C0.0140631 20.6949 0.0140631 20.6984 0.0140631 20.7019C0.348053 22.0519 0.857826 23.3773 1.55393 24.65C1.56096 24.6336 1.5844 24.609 1.62424 24.5762C0.989078 23.2449 0.447664 21.9101 0 20.5718C0 20.6351 -4.28925e-07 20.6386 0.0105466 20.6913L0.0140631 20.6878ZM0.0421865 20.266C0.377348 19.6823 0.89064 19.0167 1.58206 18.269C2.26644 19.8722 3.02935 21.4871 3.87077 23.1137C3.00122 23.6551 2.30746 24.1004 1.78948 24.4496C1.11681 23.0574 0.534382 21.664 0.0421865 20.2695V20.266ZM2.15511 17.7382C2.87466 19.3788 3.67037 21.03 4.54226 22.6918C5.83604 21.9066 7.25403 21.0558 8.79624 20.1394C7.79779 18.33 6.85441 16.544 5.96612 14.7815C4.56219 15.8151 3.29185 16.8007 2.15511 17.7382ZM6.9259 14.1205C8.60639 13.0213 10.342 11.9267 12.1326 10.8369C13.1662 12.6182 14.228 14.4428 15.3178 16.3108C13.4428 17.403 11.6147 18.473 9.83337 19.5206C8.81617 17.6925 7.84701 15.8924 6.9259 14.1205ZM13.2682 10.1795C14.3182 11.949 15.3917 13.7655 16.4886 15.6288C18.3659 14.5436 20.2035 13.4877 22.0012 12.4611C20.9019 10.6752 19.8015 8.94896 18.6999 7.28253C16.921 8.19661 15.1104 9.16225 13.2682 10.1795ZM19.7581 6.77275C21.3449 6.06493 22.8273 5.44734 24.2055 4.91999C25.286 6.35204 26.3407 7.85793 27.3696 9.43764C26.0477 10.1736 24.6063 10.9822 23.0453 11.8635C21.9508 10.1033 20.8539 8.40638 19.7546 6.77275H19.7581ZM30.4458 7.82746C30.5161 7.79933 30.5161 7.79933 30.5478 7.80285C29.7743 6.57588 28.8638 5.47898 27.8477 4.52623C27.8477 4.52623 27.8477 4.52623 27.8442 4.52623C27.802 4.48756 27.795 4.48756 27.7458 4.4524C28.695 5.50008 29.5962 6.62627 30.4493 7.83098L30.4458 7.82746ZM24.9543 4.68795C26.0208 6.07079 27.0579 7.52511 28.0657 9.05092C28.9657 8.56575 29.6958 8.18372 30.256 7.9048C29.3771 6.64619 28.4489 5.46023 27.4716 4.34693C27.338 4.34693 27.2219 4.34693 27.1165 4.34693C26.4204 4.34693 26.2516 4.3856 24.9578 4.68795H24.9543ZM15.9682 2.06525C16.9104 3.12464 17.9042 4.31998 18.9495 5.65125C20.5316 4.99265 22.0105 4.42779 23.3863 3.95669C22.3129 2.85042 21.2558 1.88126 20.2152 1.04922C18.8863 1.27891 17.4718 1.61876 15.9718 2.06877L15.9682 2.06525ZM24.1352 3.7563C23.0547 2.69925 21.993 1.78048 20.95 1C22.0222 1.07031 22.0574 1.07383 22.8836 1.30235C23.6676 1.63282 24.427 2.02306 25.1582 2.46956C25.8614 2.94417 25.9071 2.98285 26.7051 3.62622C26.0067 3.55356 25.15 3.59692 24.1352 3.7563Z" fill="#2B8C8D"/>
<path fill-rule="evenodd" clip-rule="evenodd" d="M11.0815 20.9146C12.1808 22.6982 13.28 24.4221 14.3793 26.0862C16.1652 25.1698 17.9746 24.2018 19.8075 23.1822C18.7575 21.415 17.684 19.5997 16.5871 17.7364C14.7097 18.824 12.8745 19.8822 11.0815 20.9111V20.9146ZM27.7002 19.8247C28.3541 21.3834 28.9119 22.8318 29.3736 24.1701C30.5034 23.0896 31.496 22.0291 32.3514 20.9884C32.1335 19.6736 31.8053 18.2802 31.367 16.8083C30.2795 17.7669 29.0584 18.7712 27.7037 19.8212L27.7002 19.8247ZM31.9049 16.2598C32.5425 15.4559 33.0018 14.734 33.2831 14.0942C33.4554 15.1032 33.4624 15.1594 33.5292 15.9997C33.5643 16.854 33.5292 17.7083 33.4343 18.5556C33.2304 19.3818 33.2163 19.4134 32.7487 20.3767C32.5776 19.09 32.2964 17.7189 31.9049 16.2634V16.2598ZM17.7613 17.0614C19.634 15.9622 21.4598 14.8876 23.2388 13.8375C24.263 15.668 25.2345 17.4692 26.1533 19.2411C24.4775 20.3357 22.7431 21.4302 20.9501 22.5248C19.9165 20.7459 18.8547 18.9247 17.7649 17.0614H17.7613ZM24.2829 13.2223C25.8228 12.3035 27.2385 11.4527 28.5299 10.6699C29.4018 12.3317 30.1998 13.9817 30.9241 15.62C29.7873 16.5575 28.5182 17.5407 27.1166 18.5696C26.2259 16.8142 25.2814 15.0317 24.2829 13.2223ZM29.2014 10.248C30.0428 11.8723 30.8069 13.4871 31.4936 15.0926C32.185 14.345 32.696 13.6735 33.0264 13.0782C32.5343 11.6836 31.953 10.2949 31.2827 8.91207C30.7623 9.26129 30.0686 9.70661 29.2014 10.248ZM31.4409 8.78902C31.5006 8.73628 31.5006 8.73628 31.5112 8.71167C32.2073 9.98435 32.7171 11.3098 33.0546 12.6633V12.6703C33.0651 12.7266 33.0651 12.7336 33.0686 12.7934C32.6186 11.4551 32.076 10.1215 31.4409 8.79253V8.78902Z" fill="#C6E6EF"/>
<path fill-rule="evenodd" clip-rule="evenodd" d="M4.95712 8.51499C5.46337 9.85564 6.06456 11.3053 6.76066 12.8639C8.39663 11.7717 10.0947 10.683 11.8549 9.59782C10.9853 8.07201 10.1873 6.6716 9.46071 5.39658C7.89037 6.40909 6.39034 7.44974 4.96063 8.5185L4.95712 8.51499ZM0.225004 19.5859C0.225004 19.5859 0.225004 19.5859 0.225004 19.5824C0.225004 19.5824 0.225004 19.5788 0.225004 19.5753C0.225004 19.5753 0.225004 19.5824 0.225004 19.5859ZM1.16721 12.3787C2.02738 11.3311 3.02349 10.267 4.15554 9.18648C4.61258 10.5318 5.16806 11.9815 5.82197 13.5354C4.46726 14.5831 3.24498 15.5909 2.15511 16.5589C1.71683 15.0729 1.38752 13.6795 1.16721 12.3787ZM20.6511 0.604698C21.3718 0.675011 21.4316 0.682043 21.9871 0.819155C21.1609 0.548447 20.3101 0.344537 19.4488 0.200394C19.9656 0.326959 20.0183 0.348053 20.6546 0.604698H20.6511ZM0 15.7714V17.5257C0.056251 18.2218 0.0773437 18.3378 0.232034 19.2624C0.515632 18.6202 0.976187 17.9042 1.6137 17.1144C1.21994 15.6589 0.939859 14.2819 0.77345 12.9834C0.305863 13.9467 0.288285 13.9748 0.0843757 14.8116C0.0492188 15.1315 0.0175784 15.4514 0 15.7714ZM8.66616 2.04261C8.66616 2.04261 8.68374 2.0391 8.69429 2.05668C9.8615 1.49651 11.031 1.01135 12.2029 0.601182C10.9971 0.938688 9.80876 1.41682 8.66616 2.04261ZM8.79624 2.17972C10.165 1.52346 11.5326 0.957438 12.899 0.481649C13.4475 0.737122 14.0827 1.17189 14.8045 1.78597C13.2108 2.45395 11.6076 3.20279 9.99509 4.03249C9.49821 3.23795 9.09859 2.62036 8.79624 2.17972ZM0.305866 13.4018C0.478134 12.5475 0.7172 11.7107 1.01955 10.8916C0.875406 11.4014 0.868375 11.4541 0.783999 12.1326C0.485166 12.8076 0.45704 12.8674 0.305866 13.4018ZM15.9331 0H17.5187C17.7823 0.0105471 18.046 0.0316411 18.3097 0.0562509C19.048 0.217972 19.0796 0.232035 19.9234 0.611729C18.6132 0.780482 17.2233 1.06174 15.7538 1.45549C14.9967 0.883609 14.3217 0.491024 13.7287 0.277739C14.4424 0.144143 14.4987 0.137111 15.0753 0.0632821C15.36 0.0351566 15.6483 0.0140627 15.9366 0H15.9331ZM3.02349 7.07707C2.40824 7.95248 1.88441 8.88062 1.44846 9.84743C1.23049 10.5541 1.23049 10.5892 1.13557 11.5209C1.93011 10.4732 2.86177 9.40797 3.93054 8.32514C3.80163 7.38763 3.78991 6.61066 3.89538 5.99424C3.42779 6.5462 3.39615 6.58136 3.02349 7.08059V7.07707ZM4.92548 4.82703C5.87002 4.00436 6.86965 3.22857 7.92435 2.49965C7.92904 2.48325 7.92904 2.47387 7.92435 2.47153C6.8134 3.15357 5.81494 3.94811 4.92196 4.82703H4.92548ZM10.4697 4.80946C12.1268 3.94694 13.7791 3.15708 15.4268 2.43988C16.3503 3.53912 17.3206 4.77313 18.3378 6.1419C16.5706 7.02082 14.7823 7.95599 12.9729 8.94742C12.0705 7.4427 11.2361 6.06338 10.4697 4.80946ZM4.4825 5.37197C5.57705 4.41101 6.74426 3.50397 7.98412 2.65083C8.23022 3.12427 8.57476 3.7735 9.01773 4.59852C7.50833 5.58291 6.06925 6.60128 4.70047 7.65365C4.51297 6.73488 4.44148 5.97432 4.48601 5.37197H4.4825Z" fill="#00424B"/>
</svg>
