<svg width="32" height="27" viewBox="0 0 32 27" fill="none" xmlns="http://www.w3.org/2000/svg">
<path fill-rule="evenodd" clip-rule="evenodd" d="M0.0131626 21.0519C0.0131626 21.0519 0.0131626 21.0519 0.0131626 21.0591C0.0131626 21.0591 0.0131626 21.0627 0.0131626 21.0662C0.325768 22.44 0.802902 23.7888 1.45444 25.0838C1.46102 25.0671 1.48295 25.0421 1.52025 25.0087C0.925749 23.654 0.419001 22.2957 0 20.9339C0 20.9983 -4.01462e-07 21.0018 0.00987135 21.0555L0.0131626 21.0519ZM0.0394854 20.6226C0.353188 20.0287 0.833614 19.3514 1.48076 18.5906C2.12133 20.2219 2.83538 21.8652 3.62293 23.5204C2.80906 24.0714 2.15972 24.5245 1.67491 24.8799C1.04531 23.4632 0.500167 22.0453 0.0394854 20.6262V20.6226ZM2.01713 18.0504C2.6906 19.7199 3.43537 21.4001 4.25143 23.0911C5.46237 22.2922 6.78957 21.4264 8.23304 20.4938C7.29851 18.6526 6.41554 16.8352 5.58412 15.0416C4.27008 16.0934 3.08108 17.0963 2.01713 18.0504ZM6.48245 14.369C8.05535 13.2505 9.6798 12.1366 11.3558 11.0276C12.3232 12.8402 13.317 14.697 14.3371 16.5979C12.5821 17.7093 10.871 18.7981 9.20376 19.8642C8.25169 18.0038 7.34458 16.1721 6.48245 14.369ZM12.4187 10.3586C13.4014 12.1593 14.4062 14.0077 15.4328 15.9038C17.19 14.7995 18.9099 13.7251 20.5925 12.6804C19.5636 10.863 18.5337 9.10645 17.5026 7.41068C15.8376 8.34085 14.1429 9.32349 12.4187 10.3586ZM18.4931 6.89194C19.9782 6.17165 21.3658 5.54319 22.6557 5.00656C23.667 6.46382 24.6541 7.99621 25.6172 9.60373C24.3799 10.3526 23.0308 11.1755 21.5698 12.0722C20.5453 10.2811 19.5186 8.55431 18.4898 6.89194H18.4931ZM28.4964 7.9652C28.5623 7.93658 28.5623 7.93658 28.5919 7.94016C27.8679 6.69159 27.0157 5.57539 26.0647 4.60587C26.0647 4.60587 26.0647 4.60587 26.0614 4.60587C26.0219 4.56652 26.0153 4.56652 25.9693 4.53074C26.8577 5.59686 27.7012 6.74287 28.4997 7.96878L28.4964 7.9652ZM23.3566 4.77044C24.3547 6.17762 25.3254 7.65753 26.2687 9.2102C27.1111 8.71649 27.7945 8.32773 28.3188 8.04391C27.4961 6.76314 26.6274 5.55631 25.7126 4.42342C25.5876 4.42342 25.479 4.42342 25.3803 4.42342C24.7287 4.42342 24.5708 4.46277 23.3598 4.77044H23.3566ZM14.9458 2.10158C15.8277 3.17962 16.7578 4.39599 17.7362 5.75069C19.217 5.0805 20.6012 4.5057 21.889 4.02631C20.8842 2.90057 19.8949 1.91435 18.9209 1.06766C17.677 1.3014 16.3531 1.64723 14.9491 2.10516L14.9458 2.10158ZM22.5898 3.82239C21.5785 2.74673 20.5848 1.8118 19.6086 1.01758C20.6122 1.08913 20.6451 1.09271 21.4184 1.32525C22.1522 1.66154 22.863 2.05865 23.5474 2.513C24.2055 2.99597 24.2483 3.03532 24.9953 3.69002C24.3415 3.61608 23.5397 3.6602 22.5898 3.82239Z" fill="#83BCE7"/>
<path fill-rule="evenodd" clip-rule="evenodd" d="M10.3723 21.283C11.4011 23.098 12.43 24.8522 13.4588 26.5455C15.1305 25.613 16.824 24.628 18.5395 23.5905C17.5567 21.7922 16.552 19.9449 15.5253 18.0488C13.7682 19.1555 12.0505 20.2323 10.3723 21.2794V21.283ZM25.9269 20.1739C26.5389 21.76 27.061 23.2339 27.4932 24.5958C28.5505 23.4963 29.4796 22.417 30.2803 21.3581C30.0763 20.0201 29.7692 18.6022 29.3589 17.1044C28.341 18.0798 27.1981 19.1018 25.9301 20.1703L25.9269 20.1739ZM29.8624 16.5463C30.4591 15.7282 30.8891 14.9936 31.1523 14.3425C31.3135 15.3692 31.3201 15.4265 31.3826 16.2815C31.4156 17.1509 31.3826 18.0202 31.2938 18.8824C31.1029 19.7231 31.0898 19.7553 30.6521 20.7356C30.492 19.4262 30.2287 18.031 29.8624 16.5498V16.5463ZM16.6244 17.3619C18.3772 16.2434 20.0861 15.1498 21.7511 14.0813C22.7098 15.944 23.6191 17.7769 24.479 19.58C22.9105 20.6939 21.2871 21.8077 19.6089 22.9215C18.6415 21.1112 17.6478 19.2581 16.6277 17.3619H16.6244ZM22.7284 13.4552C24.1697 12.5203 25.4947 11.6545 26.7034 10.8579C27.5195 12.5489 28.2665 14.228 28.9443 15.8951C27.8804 16.8492 26.6925 17.8497 25.3806 18.8967C24.547 17.1103 23.6629 15.2965 22.7284 13.4552ZM27.3319 10.4286C28.1195 12.0815 28.8346 13.7248 29.4774 15.3585C30.1245 14.5977 30.6028 13.9144 30.9121 13.3086C30.4514 11.8895 29.9074 10.4763 29.28 9.06916C28.793 9.42453 28.1436 9.87769 27.3319 10.4286ZM29.428 8.94394C29.484 8.89028 29.484 8.89028 29.4938 8.86523C30.1454 10.1603 30.6225 11.5091 30.9384 12.8864V12.8936C30.9483 12.9508 30.9483 12.958 30.9516 13.0188C30.5304 11.6569 30.0225 10.2998 29.428 8.94752V8.94394Z" fill="#B7E0F9"/>
<path fill-rule="evenodd" clip-rule="evenodd" d="M4.63972 8.66486C5.11357 10.0291 5.67626 11.5042 6.32779 13.0903C7.85901 11.9789 9.44836 10.871 11.0958 9.76675C10.282 8.21408 9.53501 6.78902 8.85496 5.49156C7.38516 6.5219 5.98118 7.58085 4.64301 8.66843L4.63972 8.66486ZM0.210597 19.9306C0.210597 19.9306 0.210597 19.9306 0.210597 19.927C0.210597 19.927 0.210597 19.9234 0.210597 19.9199C0.210597 19.9199 0.210597 19.927 0.210597 19.9306ZM1.09247 12.5966C1.89757 11.5305 2.8299 10.4477 3.88947 9.34817C4.31725 10.7172 4.83716 12.1923 5.44921 13.7736C4.18123 14.8397 3.03721 15.8653 2.01713 16.8503C1.6069 15.3382 1.29868 13.9203 1.09247 12.5966ZM19.3289 0.615341C20.0035 0.686892 20.0594 0.694047 20.5793 0.833572C19.806 0.5581 19.0097 0.350601 18.2035 0.203921C18.6872 0.332713 18.7366 0.354178 19.3322 0.615341H19.3289ZM0 16.0489V17.8341C0.0526493 18.5425 0.0723915 18.6606 0.217177 19.6015C0.482618 18.948 0.913684 18.2193 1.51038 17.4156C1.14183 15.9345 0.879682 14.5333 0.723927 13.2119C0.28628 14.1922 0.269827 14.2208 0.0789733 15.0723C0.0460675 15.3978 0.0164529 15.7234 0 16.0489ZM8.11129 2.07856C8.11129 2.07856 8.12774 2.07499 8.13761 2.09287C9.23009 1.52285 10.3248 1.02915 11.4216 0.611763C10.2929 0.955209 9.18073 1.44176 8.11129 2.07856ZM8.23304 2.21809C9.51417 1.55028 10.7942 0.97429 12.0731 0.490126C12.5865 0.750096 13.181 1.19252 13.8566 1.8174C12.3649 2.49714 10.8644 3.25916 9.35513 4.10346C8.89006 3.29494 8.51603 2.66648 8.23304 2.21809ZM0.286282 13.6377C0.44752 12.7683 0.671279 11.9169 0.95427 11.0833C0.819356 11.602 0.812775 11.6557 0.733801 12.3462C0.454102 13.0331 0.427777 13.0939 0.286282 13.6377ZM14.9129 0H16.397C16.6438 0.0107327 16.8906 0.032198 17.1374 0.0572409C17.8284 0.221809 17.858 0.236119 18.6477 0.622496C17.4214 0.794219 16.1206 1.08042 14.7451 1.48111C14.0365 0.899161 13.4047 0.499666 12.8497 0.282627C13.5177 0.14668 13.5704 0.139525 14.11 0.0643959C14.3766 0.0357754 14.6464 0.0143102 14.9162 0H14.9129ZM2.8299 7.20163C2.25405 8.09245 1.76375 9.03692 1.35572 10.0208C1.15171 10.7398 1.15171 10.7756 1.06286 11.7237C1.80653 10.6576 2.67854 9.57356 3.67887 8.47167C3.55822 7.51765 3.54725 6.72701 3.64597 6.09974C3.20832 6.66142 3.1787 6.6972 2.8299 7.20521V7.20163ZM4.61011 4.91199C5.49418 4.07484 6.4298 3.28539 7.41698 2.54365C7.42136 2.52695 7.42136 2.51741 7.41698 2.51503C6.37715 3.20907 5.44262 4.0176 4.60682 4.91199H4.61011ZM9.79936 4.89411C11.3503 4.01641 12.8969 3.21265 14.4391 2.48283C15.3034 3.60141 16.2116 4.85714 17.1637 6.25C15.5096 7.14439 13.8358 8.09602 12.1423 9.1049C11.2977 7.5737 10.5167 6.1701 9.79936 4.89411ZM4.19549 5.46652C5.21996 4.48865 6.31244 3.56564 7.47291 2.69748C7.70326 3.17926 8.02573 3.83992 8.44035 4.67945C7.02759 5.68117 5.68064 6.71747 4.39951 7.78835C4.22401 6.85342 4.1571 6.07947 4.19879 5.46652H4.19549Z" fill="#5785C4"/>
</svg>
