<svg width="161" height="48" viewBox="0 0 161 48" fill="none" xmlns="http://www.w3.org/2000/svg">
<path d="M5.28906 31.6765H6.5758V37.0344H5.28906V31.6765Z" fill="#164854"/>
<path d="M10.3974 36.1028C10.0985 35.6598 9.89111 35.3434 9.88408 35.3434H9.87705C9.87705 35.3434 9.65556 35.6563 9.34266 36.1098L8.71336 37.0344H7.15942L9.1493 34.2781L7.25083 31.6765H8.8118L9.42352 32.566C9.7083 32.9633 9.95088 33.3148 9.95791 33.3148H9.96494C9.96494 33.3148 10.211 32.9562 10.4642 32.566L11.0372 31.6765H12.5771L10.7032 34.2781L12.6474 37.0344H11.0337L10.3974 36.0992V36.1028Z" fill="#164854"/>
<path d="M20.2553 35.4524C19.8581 36.493 18.8702 37.1434 17.7065 37.1434C16.1068 37.1434 14.9291 36.0184 14.9291 34.3414C14.9291 32.6644 16.1068 31.571 17.7065 31.571C18.9405 31.571 19.844 32.2531 20.2026 33.1179L18.9334 33.4625C18.6592 33.0336 18.2233 32.7804 17.6467 32.7804C16.7748 32.7804 16.2228 33.4238 16.2228 34.359C16.2228 35.2942 16.8135 35.927 17.6397 35.927C18.3428 35.927 18.7788 35.5578 18.9932 35.1149L20.2553 35.4524Z" fill="#164854"/>
<path d="M23.4862 31.571C25.1245 31.571 26.3093 32.7207 26.3093 34.359C26.3093 35.9973 25.121 37.1469 23.4862 37.1469C21.8514 37.1469 20.6631 35.9973 20.6631 34.359C20.6631 32.7207 21.8514 31.571 23.4862 31.571ZM23.4862 35.927C24.3756 35.927 25.0155 35.3152 25.0155 34.359C25.0155 33.4027 24.3721 32.7804 23.4862 32.7804C22.6002 32.7804 21.9569 33.3922 21.9569 34.359C21.9569 35.3258 22.6002 35.927 23.4862 35.927Z" fill="#164854"/>
<path d="M28.2465 33.8385H28.2219C28.2219 33.8385 28.236 34.5029 28.236 35.2025V37.0413H26.9492V31.6833H28.25L30.5317 34.8229H30.5563C30.5563 34.8229 30.5493 34.1268 30.5493 33.5431V31.6833H31.836V37.0413H30.5282L28.2465 33.842V33.8385Z" fill="#164854"/>
<path d="M36.7509 37.0379C36.7509 36.7321 36.758 36.7004 36.758 36.6618H36.7439C36.438 36.9219 35.8544 37.1434 35.2357 37.1434C33.7415 37.1434 32.4794 36.0184 32.4794 34.3484C32.4794 32.6785 33.6571 31.571 35.2568 31.571C36.4732 31.571 37.4084 32.2461 37.7529 33.1179L36.4837 33.4625C36.2763 33.1179 35.879 32.7804 35.197 32.7804C34.3321 32.7804 33.7731 33.4238 33.7731 34.359C33.7731 35.2942 34.3919 35.927 35.3411 35.927C36.0759 35.927 36.5365 35.6071 36.7052 35.375V35.1219H35.3587V33.9266H37.9006V37.0344H36.7509V37.0379Z" fill="#164854"/>
<path d="M40.5267 35.2694H39.9536V37.0378H38.6669V31.6799H40.7025C42.049 31.6799 42.84 32.3831 42.84 33.494C42.84 34.2288 42.4814 34.7737 41.831 35.0163L43.0544 37.0378H41.5322L40.5302 35.2694H40.5267ZM40.7868 34.2429C41.2614 34.2429 41.5216 34.0073 41.5216 33.5538C41.5216 33.1003 41.2755 32.8436 40.7798 32.8436H39.9536V34.2429H40.7868Z" fill="#164854"/>
<path d="M43.603 31.6765H47.5054V32.8718H44.8863V33.7894H46.8164V34.8617H44.8863V35.8426H47.5441V37.0379H43.603V31.68V31.6765Z" fill="#164854"/>
<path d="M49.2984 35.368C49.4039 35.7723 49.7801 36.0114 50.3637 36.0114C50.8523 36.0114 51.1512 35.8426 51.1512 35.4981C51.1512 34.9848 50.5078 35.0164 49.8504 34.8547C49.1226 34.6789 48.2191 34.3414 48.2191 33.2094C48.2191 32.0773 49.0453 31.571 50.2476 31.571C51.341 31.571 52.1215 32.014 52.4203 32.9703L51.1969 33.3008C51.0668 32.9105 50.7609 32.6961 50.223 32.6961C49.7344 32.6961 49.5269 32.8859 49.5269 33.1707C49.5269 33.6207 50.0402 33.691 50.7891 33.8457C51.5766 34.0004 52.452 34.3344 52.452 35.491C52.452 36.6477 51.6785 37.1434 50.3707 37.1434C49.4355 37.1434 48.3808 36.8586 48.075 35.6949L49.2984 35.3645V35.368Z" fill="#164854"/>
<path d="M54.0972 35.368C54.2027 35.7723 54.5789 36.0114 55.1625 36.0114C55.6512 36.0114 55.95 35.8426 55.95 35.4981C55.95 34.9848 55.3066 35.0164 54.6492 34.8547C53.9215 34.6789 53.0179 34.3414 53.0179 33.2094C53.0179 32.0773 53.8441 31.571 55.0465 31.571C56.1398 31.571 56.9203 32.014 57.2192 32.9703L55.9957 33.3008C55.8656 32.9105 55.5598 32.6961 55.0219 32.6961C54.5332 32.6961 54.3258 32.8859 54.3258 33.1707C54.3258 33.6207 54.839 33.691 55.5879 33.8457C56.3754 34.0004 57.2508 34.3344 57.2508 35.491C57.2508 36.6477 56.4774 37.1434 55.1695 37.1434C54.2343 37.1434 53.1796 36.8586 52.8738 35.6949L54.0972 35.3645V35.368Z" fill="#164854"/>
<path d="M60.5063 31.571C62.1446 31.571 63.3294 32.7207 63.3294 34.359C63.3294 35.9973 62.1411 37.1469 60.5063 37.1469C58.8715 37.1469 57.6832 35.9973 57.6832 34.359C57.6832 32.7207 58.8715 31.571 60.5063 31.571ZM60.5063 35.927C61.3958 35.927 62.0356 35.3152 62.0356 34.359C62.0356 33.4027 61.3923 32.7804 60.5063 32.7804C59.6204 32.7804 58.977 33.3922 58.977 34.359C58.977 35.3258 59.6204 35.927 60.5063 35.927Z" fill="#164854"/>
<path d="M69.141 34.1831C69.6614 34.3378 70.1149 34.7632 70.1149 35.4769C70.1149 36.3031 69.5243 37.0378 68.1918 37.0378H65.889V31.6799H68.2024C69.1657 31.6799 69.8336 32.3303 69.8336 33.0721C69.8336 33.6698 69.4364 34.046 69.1446 34.1515V34.1831H69.141ZM67.9527 33.7999C68.3043 33.7999 68.5328 33.5854 68.5328 33.2725C68.5328 32.9596 68.3113 32.7452 67.9422 32.7452H67.1687V33.7999H67.9492H67.9527ZM68.0758 35.9726C68.5188 35.9726 68.7578 35.7195 68.7578 35.3609C68.7578 34.9776 68.4977 34.7491 68.0758 34.7491H67.1723V35.9726H68.0758Z" fill="#164854"/>
<path d="M72.5864 35.2694H72.0133V37.0378H70.7266V31.6799H72.7621C74.1086 31.6799 74.8997 32.3831 74.8997 33.494C74.8997 34.2288 74.5411 34.7737 73.8907 35.0163L75.1141 37.0378H73.5918L72.5899 35.2694H72.5864ZM72.8465 34.2429C73.3211 34.2429 73.5813 34.0073 73.5813 33.5538C73.5813 33.1003 73.3352 32.8436 72.8395 32.8436H72.0133V34.2429H72.8465Z" fill="#164854"/>
<path d="M77.1073 36.1484L76.7874 37.0378H75.4338L77.5011 31.6799H78.9636L81.0378 37.0378H79.6597L79.3398 36.1484H77.1108H77.1073ZM78.5312 33.9124C78.3624 33.4694 78.2394 33.1319 78.2323 33.1249H78.2077C78.2077 33.1249 78.0776 33.4624 77.9089 33.9054L77.5257 34.9776H78.9108L78.5276 33.9124H78.5312Z" fill="#164854"/>
<path d="M82.5673 35.368C82.6728 35.7723 83.049 36.0114 83.6326 36.0114C84.1213 36.0114 84.4201 35.8426 84.4201 35.4981C84.4201 34.9848 83.7767 35.0164 83.1193 34.8547C82.3915 34.6789 81.488 34.3414 81.488 33.2094C81.488 32.0773 82.3142 31.571 83.5166 31.571C84.6099 31.571 85.3904 32.014 85.6893 32.9703L84.4658 33.3008C84.3357 32.9105 84.0299 32.6961 83.492 32.6961C83.0033 32.6961 82.7959 32.8859 82.7959 33.1707C82.7959 33.6207 83.3091 33.691 84.058 33.8457C84.8455 34.0004 85.7209 34.3344 85.7209 35.491C85.7209 36.6477 84.9474 37.1434 83.6396 37.1434C82.7044 37.1434 81.6497 36.8586 81.3439 35.6949L82.5673 35.3645V35.368Z" fill="#164854"/>
<path d="M86.3643 31.6765H87.651V37.0344H86.3643V31.6765Z" fill="#164854"/>
<path d="M88.5052 31.6765H89.792V35.8426H92.1967V37.0379H88.5052V31.68V31.6765Z" fill="#164854"/>
<path d="M92.8611 31.6765H96.7635V32.8718H94.1443V33.7894H96.0744V34.8617H94.1443V35.8426H96.8022V37.0379H92.8611V31.68V31.6765Z" fill="#164854"/>
<path d="M97.5547 31.6765H98.8414V37.0344H97.5547V31.6765Z" fill="#164854"/>
<path d="M101.559 35.2694H100.986V37.0378H99.6991V31.6799H101.735C103.081 31.6799 103.869 32.3831 103.869 33.494C103.869 34.2288 103.51 34.7737 102.86 35.0163L104.083 37.0378H102.561L101.559 35.2694ZM101.819 34.2429C102.294 34.2429 102.554 34.0073 102.554 33.5538C102.554 33.1003 102.308 32.8436 101.812 32.8436H100.986V34.2429H101.819Z" fill="#164854"/>
<path d="M107.177 31.571C108.815 31.571 110 32.7207 110 34.359C110 35.9973 108.812 37.1469 107.177 37.1469C105.542 37.1469 104.35 35.9973 104.35 34.359C104.35 32.7207 105.539 31.571 107.177 31.571ZM107.177 35.927C108.066 35.927 108.706 35.3152 108.706 34.359C108.706 33.4027 108.063 32.7804 107.177 32.7804C106.291 32.7804 105.644 33.3922 105.644 34.359C105.644 35.3258 106.287 35.927 107.177 35.927Z" fill="#164854"/>
<path d="M114.838 31.6765C116.437 31.6765 117.664 32.7629 117.664 34.3801C117.664 35.9973 116.43 37.0379 114.848 37.0379H112.56V31.68H114.841L114.838 31.6765ZM114.771 35.8426C115.565 35.8426 116.371 35.4383 116.371 34.3801C116.371 33.3219 115.565 32.8718 114.771 32.8718H113.846V35.8426H114.771Z" fill="#164854"/>
<path d="M118.308 31.6765H122.21V32.8718H119.591V33.7894H121.521V34.8617H119.591V35.8426H122.249V37.0379H118.308V31.68V31.6765Z" fill="#164854"/>
<path d="M128.971 37.0379C128.971 36.7321 128.978 36.7004 128.978 36.6618H128.964C128.658 36.9219 128.074 37.1434 127.456 37.1434C125.961 37.1434 124.699 36.0184 124.699 34.3484C124.699 32.6785 125.877 31.571 127.477 31.571C128.693 31.571 129.628 32.2461 129.973 33.1179L128.704 33.4625C128.496 33.1179 128.099 32.7804 127.417 32.7804C126.552 32.7804 125.993 33.4238 125.993 34.359C125.993 35.2942 126.612 35.927 127.561 35.927C128.296 35.927 128.756 35.6071 128.925 35.375V35.1219H127.579V33.9266H130.12V37.0344H128.971V37.0379Z" fill="#164854"/>
<path d="M130.883 31.6765H134.786V32.8718H132.167V33.7894H134.097V34.8617H132.167V35.8426H134.824V37.0379H130.883V31.68V31.6765Z" fill="#164854"/>
<path d="M136.579 35.368C136.684 35.7723 137.06 36.0114 137.644 36.0114C138.133 36.0114 138.431 35.8426 138.431 35.4981C138.431 34.9848 137.788 35.0164 137.131 34.8547C136.403 34.6789 135.499 34.3414 135.499 33.2094C135.499 32.0773 136.326 31.571 137.528 31.571C138.621 31.571 139.402 32.014 139.701 32.9703L138.477 33.3008C138.347 32.9105 138.041 32.6961 137.503 32.6961C137.015 32.6961 136.807 32.8859 136.807 33.1707C136.807 33.6207 137.32 33.691 138.069 33.8457C138.857 34.0004 139.732 34.3344 139.732 35.491C139.732 36.6477 138.959 37.1434 137.651 37.1434C136.716 37.1434 135.661 36.8586 135.355 35.6949L136.579 35.3645V35.368Z" fill="#164854"/>
<path d="M143.079 32.8718V37.0379H141.792V32.8718H140.154V31.6765H144.717V32.8718H143.079Z" fill="#164854"/>
<path d="M145.888 36.1483L145.565 37.0378H144.211L146.278 31.6799H147.741L149.815 37.0378H148.437L148.114 36.1483H145.885H145.888ZM145.712 31.1737L145.53 30.249C145.6 30.1647 145.874 30.0029 146.271 30.0029C146.771 30.0029 147.076 30.2314 147.59 30.2314C147.882 30.2314 148.124 30.1154 148.254 30.017L148.437 30.9416C148.367 31.026 148.085 31.1877 147.702 31.1877C147.203 31.1877 146.89 30.9592 146.394 30.9592C146.103 30.9592 145.835 31.0647 145.712 31.1737ZM147.312 33.9124C147.143 33.4694 147.02 33.1319 147.013 33.1249H146.989C146.989 33.1249 146.858 33.4624 146.69 33.9053L146.307 34.9776H147.692L147.308 33.9124H147.312Z" fill="#164854"/>
<path d="M152.723 31.571C154.361 31.571 155.546 32.7207 155.546 34.359C155.546 35.9973 154.358 37.1469 152.723 37.1469C151.088 37.1469 149.896 35.9973 149.896 34.359C149.896 32.7207 151.084 31.571 152.723 31.571ZM152.723 35.927C153.612 35.927 154.252 35.3152 154.252 34.359C154.252 33.4027 153.609 32.7804 152.723 32.7804C151.837 32.7804 151.19 33.3922 151.19 34.359C151.19 35.3258 151.833 35.927 152.723 35.927Z" fill="#164854"/>
<path d="M3.00732 42.0581V46.2242H1.72058V42.0581H0.0822754V40.8628H4.64563V42.0581H3.00732Z" fill="#164854"/>
<path d="M7.16973 44.456H6.59668V46.2244H5.30994V40.8665H7.34552C8.69202 40.8665 9.48305 41.5696 9.48305 42.6805C9.48305 43.4153 9.12445 43.9603 8.47405 44.2028L9.69751 46.2244H8.17522L7.17325 44.456H7.16973ZM7.42989 43.4294C7.90451 43.4294 8.16467 43.1938 8.16467 42.7403C8.16467 42.2868 7.91857 42.0301 7.42286 42.0301H6.59668V43.4294H7.42989Z" fill="#164854"/>
<path d="M10.2461 40.8628H11.5328V46.2207H10.2461V40.8628Z" fill="#164854"/>
<path d="M15.6428 43.366C16.1631 43.5206 16.6166 43.946 16.6166 44.6597C16.6166 45.4859 16.026 46.2207 14.6935 46.2207H12.3907V40.8628H14.7041C15.6674 40.8628 16.3353 41.5132 16.3353 42.255C16.3353 42.8527 15.9381 43.2288 15.6463 43.3343V43.366H15.6428ZM14.458 42.9828C14.8095 42.9828 15.0381 42.7683 15.0381 42.4554C15.0381 42.1425 14.8166 41.928 14.4474 41.928H13.674V42.9828H14.4545H14.458ZM14.581 45.159C15.024 45.159 15.2631 44.9058 15.2631 44.5472C15.2631 44.164 15.0029 43.9355 14.581 43.9355H13.6775V45.159H14.581Z" fill="#164854"/>
<path d="M21.8512 43.8335C21.8512 45.4472 20.916 46.3297 19.5168 46.3297C18.1175 46.3297 17.1824 45.4508 17.1824 43.8335V40.8628H18.4832V43.7949C18.4832 44.7125 18.8347 45.1133 19.5309 45.1133C20.227 45.1133 20.5785 44.716 20.5785 43.7949V40.8628H21.8477V43.8335H21.8512Z" fill="#164854"/>
<path d="M25.3951 42.0581V46.2242H24.1084V42.0581H22.4701V40.8628H27.0335V42.0581H25.3951Z" fill="#164854"/>
<path d="M28.2041 45.3349L27.8842 46.2243H26.5306L28.5979 40.8664H30.0604L32.1346 46.2243H30.7565L30.4366 45.3349H28.2076H28.2041ZM29.628 43.0989C29.4592 42.6559 29.3362 42.3184 29.3291 42.3114H29.3045C29.3045 42.3114 29.1744 42.6489 29.0057 43.0919L28.6225 44.1641H30.0077L29.6244 43.0989H29.628ZM28.7244 40.4516L29.5823 39.0664L30.5842 39.3793L29.8635 40.4516H28.7244Z" fill="#164854"/>
<path d="M34.522 44.456H33.949V46.2244H32.6622V40.8665H34.6978C36.0443 40.8665 36.8354 41.5696 36.8354 42.6805C36.8354 43.4153 36.4767 43.9603 35.8263 44.2028L37.0498 46.2244H35.5275L34.5255 44.456H34.522ZM34.7822 43.4294C35.2568 43.4294 35.517 43.1938 35.517 42.7403C35.517 42.2868 35.2709 42.0301 34.7752 42.0301H33.949V43.4294H34.7822Z" fill="#164854"/>
<path d="M37.5981 40.8628H38.8849V46.2207H37.5981V40.8628Z" fill="#164854"/>
<path d="M41.0891 45.3349L40.7692 46.2244H39.4156L41.4829 40.8665H42.9454L45.0197 46.2244H43.6415L43.3216 45.3349H41.0926H41.0891ZM42.513 43.0989C42.3442 42.6559 42.2212 42.3184 42.2141 42.3114H42.1895C42.1895 42.3114 42.0594 42.6489 41.8907 43.0919L41.5075 44.1642H42.8927L42.5095 43.0989H42.513Z" fill="#164854"/>
<path d="M48.7499 43.0216H48.7253C48.7253 43.0216 48.7394 43.686 48.7394 44.3857V46.2244H47.4526V40.8665H48.7534L51.0351 44.006H51.0597C51.0597 44.006 51.0527 43.3099 51.0527 42.7263V40.8665H52.3394V46.2244H51.0316L48.7499 43.0251V43.0216Z" fill="#164854"/>
<path d="M54.5472 45.3349L54.2273 46.2244H52.8738L54.941 40.8665H56.4035L58.4778 46.2244H57.0996L56.7797 45.3349H54.5508H54.5472ZM55.9711 43.0989C55.8023 42.6559 55.6793 42.3184 55.6723 42.3114H55.6477C55.6477 42.3114 55.5176 42.6489 55.3488 43.0919L54.9656 44.1642H56.3508L55.9676 43.0989H55.9711Z" fill="#164854"/>
<path d="M62.2607 45.3349L61.9408 46.2244H60.5873L62.6545 40.8665H64.117L66.1913 46.2244H64.8131L64.4932 45.3349H62.2643H62.2607ZM63.6846 43.0989C63.5158 42.6559 63.3928 42.3184 63.3858 42.3114H63.3612C63.3612 42.3114 63.2311 42.6489 63.0623 43.0919L62.6791 44.1642H64.0643L63.6811 43.0989H63.6846Z" fill="#164854"/>
<path d="M68.9966 40.8628C70.5963 40.8628 71.8197 41.9491 71.8197 43.5664C71.8197 45.1836 70.5857 46.2242 69.0037 46.2242H66.715V40.8663H68.9966V40.8628ZM68.9298 45.0289C69.7244 45.0289 70.5295 44.6246 70.5295 43.5664C70.5295 42.5081 69.7244 42.0581 68.9298 42.0581H68.0052V45.0289H68.9298Z" fill="#164854"/>
<path d="M76.5766 44.913C76.5766 43.6438 76.5907 43.0145 76.5907 43.0075H76.5766C76.5766 43.0075 76.3094 43.4962 76.0493 43.9567L75.5289 44.8989H74.8082L74.2879 43.9743C74.0207 43.4997 73.7676 43.0181 73.7605 43.011H73.7359C73.7359 43.011 73.75 43.6474 73.75 44.9165V46.2244H72.4633V40.8665H73.8273L75.1738 43.2642H75.1985L76.552 40.8665H77.8598V46.2244H76.5731V44.9165L76.5766 44.913Z" fill="#164854"/>
<path d="M78.7209 40.8628H80.0077V46.2207H78.7209V40.8628Z" fill="#164854"/>
<path d="M82.1558 43.0216H82.1312C82.1312 43.0216 82.1453 43.686 82.1453 44.3857V46.2244H80.8585V40.8665H82.1593L84.441 44.006H84.4621C84.4621 44.006 84.4551 43.3099 84.4551 42.7263V40.8665H85.7418V46.2244H84.434L82.1523 43.0251L82.1558 43.0216Z" fill="#164854"/>
<path d="M86.6034 40.8628H87.8901V46.2207H86.6034V40.8628Z" fill="#164854"/>
<path d="M89.75 44.5545C89.8554 44.9588 90.2316 45.1979 90.8152 45.1979C91.3039 45.1979 91.6027 45.0291 91.6027 44.6846C91.6027 44.1713 90.9593 44.2029 90.3019 44.0412C89.5742 43.8654 88.6706 43.5279 88.6706 42.3959C88.6706 41.2638 89.4968 40.7576 90.6992 40.7576C91.7926 40.7576 92.573 41.2005 92.8719 42.1568L91.6484 42.4873C91.5183 42.097 91.2125 41.8826 90.6746 41.8826C90.1859 41.8826 89.9785 42.0724 89.9785 42.3572C89.9785 42.8072 90.4918 42.8775 91.2406 43.0322C92.0281 43.1869 92.9035 43.5209 92.9035 44.6776C92.9035 45.8342 92.1301 46.3299 90.8222 46.3299C89.8871 46.3299 88.8324 46.0452 88.5265 44.8815L89.75 44.551V44.5545Z" fill="#164854"/>
<path d="M96.2504 42.0581V46.2242H94.9636V42.0581H93.3253V40.8628H97.8887V42.0581H96.2504Z" fill="#164854"/>
<path d="M100.413 44.456H99.8397V46.2244H98.553V40.8665H100.589C101.935 40.8665 102.723 41.5696 102.723 42.6805C102.723 43.4153 102.364 43.9603 101.714 44.2028L102.937 46.2244H101.415L100.413 44.456ZM100.673 43.4294C101.148 43.4294 101.408 43.1938 101.408 42.7403C101.408 42.2868 101.162 42.0301 100.666 42.0301H99.8397V43.4294H100.673Z" fill="#164854"/>
<path d="M104.938 45.3349L104.614 46.2244H103.261L105.328 40.8665H106.79L108.865 46.2244H107.486L107.163 45.3349H104.934H104.938ZM106.361 43.0989C106.193 42.6559 106.07 42.3184 106.063 42.3114H106.038C106.038 42.3114 105.908 42.6489 105.739 43.0919L105.356 44.1642H106.741L106.358 43.0989H106.361Z" fill="#164854"/>
<path d="M114.275 44.6389C113.976 45.4194 113.34 45.9784 112.559 46.2069C112.721 46.337 112.82 46.5198 112.82 46.7799C112.82 47.2792 112.461 47.585 111.642 47.585C111.375 47.585 111.076 47.5464 110.939 47.4936V46.7131C111.023 46.7448 111.199 46.7729 111.445 46.7729C111.811 46.7729 111.951 46.7131 111.951 46.5971C111.951 46.4424 111.691 46.3686 110.988 46.3756V46.2385C109.779 45.9467 108.952 44.9307 108.952 43.5279C108.952 41.8967 110.13 40.7576 111.73 40.7576C112.964 40.7576 113.867 41.4396 114.226 42.3045L112.957 42.649C112.683 42.2201 112.243 41.967 111.67 41.967C110.798 41.967 110.246 42.6103 110.246 43.5455C110.246 44.4807 110.837 45.1135 111.663 45.1135C112.366 45.1135 112.806 44.7444 113.017 44.3014L114.279 44.6389H114.275Z" fill="#164854"/>
<path d="M116.114 45.3349L115.791 46.2243H114.437L116.504 40.8664H117.967L120.041 46.2243H118.663L118.339 45.3349H116.11H116.114ZM115.938 40.3602L115.755 39.4355C115.826 39.3512 116.1 39.1895 116.497 39.1895C116.996 39.1895 117.302 39.418 117.816 39.418C118.107 39.418 118.35 39.302 118.48 39.2035L118.663 40.1281C118.593 40.2125 118.311 40.3742 117.928 40.3742C117.429 40.3742 117.116 40.1457 116.62 40.1457C116.328 40.1457 116.061 40.2512 115.938 40.3602ZM117.538 43.0989C117.369 42.6559 117.246 42.3184 117.239 42.3114H117.214C117.214 42.3114 117.084 42.6489 116.916 43.0919L116.532 44.1641H117.918L117.534 43.0989H117.538Z" fill="#164854"/>
<path d="M122.948 40.7576C124.587 40.7576 125.771 41.9072 125.771 43.5455C125.771 45.1838 124.583 46.3334 122.948 46.3334C121.314 46.3334 120.122 45.1838 120.122 43.5455C120.122 41.9072 121.31 40.7576 122.948 40.7576ZM122.948 45.1135C123.838 45.1135 124.478 44.5018 124.478 43.5455C124.478 42.5892 123.834 41.967 122.948 41.967C122.062 41.967 121.415 42.5787 121.415 43.5455C121.415 44.5123 122.059 45.1135 122.948 45.1135Z" fill="#164854"/>
<path d="M130.328 40.8628C131.646 40.8628 132.441 41.5589 132.441 42.7085C132.441 43.8582 131.646 44.5543 130.328 44.5543H129.614V46.2242H128.327V40.8663H130.324L130.328 40.8628ZM130.366 43.4363C130.911 43.4363 131.154 43.1515 131.154 42.7331C131.154 42.3148 130.908 42.037 130.366 42.037H129.618V43.4363H130.366Z" fill="#164854"/>
<path d="M137.655 43.8337C137.655 45.4474 136.719 46.3298 135.32 46.3298C133.921 46.3298 132.986 45.4509 132.986 43.8337V40.8629H134.287V43.795C134.287 44.7126 134.638 45.1134 135.334 45.1134C136.03 45.1134 136.382 44.7161 136.382 43.795V40.8629H137.651V43.8337H137.655ZM134.768 40.4516L135.626 39.0664L136.621 39.3793L135.907 40.4516H134.768Z" fill="#164854"/>
<path d="M141.719 43.366C142.239 43.5206 142.689 43.946 142.689 44.6597C142.689 45.4859 142.098 46.2207 140.769 46.2207H138.467V40.8628H140.78C141.743 40.8628 142.411 41.5132 142.411 42.255C142.411 42.8527 142.014 43.2288 141.722 43.3343V43.366H141.719ZM140.534 42.9828C140.885 42.9828 141.114 42.7683 141.114 42.4554C141.114 42.1425 140.892 41.928 140.523 41.928H139.75V42.9828H140.53H140.534ZM140.657 45.159C141.1 45.159 141.339 44.9058 141.339 44.5472C141.339 44.164 141.079 43.9355 140.657 43.9355H139.753V45.159H140.657Z" fill="#164854"/>
<path d="M143.304 40.8628H144.591V45.0289H146.996V46.2242H143.304V40.8663V40.8628Z" fill="#164854"/>
<path d="M147.66 40.8628H148.947V46.2207H147.66V40.8628Z" fill="#164854"/>
<path d="M154.916 44.6389C154.519 45.6795 153.531 46.3299 152.368 46.3299C150.768 46.3299 149.59 45.2049 149.59 43.5279C149.59 41.8509 150.768 40.7576 152.368 40.7576C153.602 40.7576 154.505 41.4396 154.864 42.3045L153.595 42.649C153.32 42.2201 152.881 41.967 152.308 41.967C151.436 41.967 150.884 42.6103 150.884 43.5455C150.884 44.4807 151.475 45.1135 152.301 45.1135C153.004 45.1135 153.443 44.7444 153.654 44.3014L154.916 44.6389Z" fill="#164854"/>
<path d="M156.752 45.3349L156.428 46.2244H155.075L157.142 40.8665H158.605L160.679 46.2244H159.301L158.977 45.3349H156.748H156.752ZM158.176 43.0989C158.007 42.6559 157.884 42.3184 157.877 42.3114H157.852C157.852 42.3114 157.722 42.6489 157.553 43.0919L157.17 44.1642H158.555L158.172 43.0989H158.176Z" fill="#164854"/>
<path d="M0.447754 1.55396H6.44551V26.5364H0.447754V1.55396Z" fill="#164854"/>
<path d="M22.8463 22.1805C21.4541 20.1097 20.4908 18.6472 20.4557 18.6472H20.4205C20.3853 18.6472 19.3834 20.1097 17.9209 22.2156L14.9923 26.5329H7.74646L17.0244 13.6831L8.17889 1.55396H15.4599L18.3146 5.69543C19.6365 7.55171 20.7756 9.19354 20.8107 9.19354H20.8459C20.9162 9.19354 21.9885 7.51656 23.1663 5.69543L25.8417 1.55396H33.0137L24.2702 13.6901L33.3371 26.5399H25.8065L22.8428 22.1875L22.8463 22.1805Z" fill="#164854"/>
<path fill-rule="evenodd" clip-rule="evenodd" d="M35.2602 21.1153C35.2602 21.1153 35.2602 21.1153 35.2602 21.1224C35.2602 21.1224 35.2602 21.1259 35.2602 21.1294C35.5941 22.4794 36.1039 23.8048 36.8 25.0775C36.8071 25.0611 36.8305 25.0365 36.8703 25.0037C36.2352 23.6724 35.6938 22.3376 35.2461 20.9993C35.2461 21.0626 35.2461 21.0661 35.2566 21.1188L35.2602 21.1153ZM35.2883 20.6934C35.6234 20.1098 36.1367 19.4442 36.8282 18.6965C37.5125 20.2997 38.2754 21.9146 39.1169 23.5411C38.2473 24.0826 37.5536 24.5279 37.0356 24.8771C36.3629 23.4849 35.7805 22.0915 35.2883 20.697V20.6934ZM37.4012 18.1657C38.1208 19.8063 38.9165 21.4575 39.7884 23.1193C41.0821 22.3341 42.5001 21.4833 44.0423 20.5669C43.0439 18.7575 42.1005 16.9715 41.2122 15.209C39.8083 16.2426 38.5379 17.2281 37.4012 18.1657ZM42.172 14.548C43.8525 13.4488 45.5881 12.3542 47.3787 11.2644C48.4123 13.0457 49.4741 14.8703 50.5639 16.7383C48.6889 17.8305 46.8607 18.9004 45.0795 19.9481C44.0623 18.12 43.0931 16.3199 42.172 14.548ZM48.5143 10.6069C49.5643 12.3765 50.6378 14.1929 51.7347 16.0563C53.612 14.9711 55.4496 13.9152 57.2472 12.8886C56.148 11.1027 55.0476 9.37645 53.946 7.71002C52.1671 8.6241 50.3565 9.58974 48.5143 10.6069ZM55.0042 7.20024C56.591 6.49242 58.0734 5.87483 59.4516 5.34748C60.5321 6.77953 61.5868 8.28542 62.6157 9.86513C61.2938 10.6011 59.8524 11.4097 58.2914 12.291C57.1969 10.5308 56.1 8.83387 55.0007 7.20024H55.0042ZM65.6919 8.25495C65.7622 8.22682 65.7622 8.22682 65.7939 8.23034C65.0204 7.00337 64.1099 5.90647 63.0938 4.95372C63.0938 4.95372 63.0938 4.95372 63.0903 4.95372C63.0481 4.91505 63.0411 4.91505 62.9919 4.87989C63.9411 5.92757 64.8423 7.05376 65.6954 8.25847L65.6919 8.25495ZM60.2004 5.11544C61.2668 6.49828 62.304 7.9526 63.3118 9.47841C64.2118 8.99324 64.9419 8.61121 65.5021 8.33229C64.6232 7.07368 63.695 5.88772 62.7177 4.77442C62.5841 4.77442 62.468 4.77442 62.3626 4.77442C61.6665 4.77442 61.4977 4.81309 60.2039 5.11544H60.2004ZM51.2143 2.49274C52.1565 3.55214 53.1503 4.74747 54.1956 6.07874C55.7777 5.42014 57.2566 4.85528 58.6324 4.38418C57.559 3.27791 56.5019 2.30875 55.4613 1.47671C54.1324 1.7064 52.7179 2.04625 51.2178 2.49626L51.2143 2.49274ZM59.3813 4.18379C58.3008 3.12674 57.239 2.20797 56.1961 1.42749C57.2683 1.4978 57.3035 1.50132 58.1297 1.72984C58.9137 2.06031 59.6731 2.45055 60.4043 2.89705C61.1075 3.37166 61.1532 3.41034 61.9512 4.05371C61.2528 3.98105 60.3961 4.02441 59.3813 4.18379Z" fill="#2B8C8D"/>
<path fill-rule="evenodd" clip-rule="evenodd" d="M45.8848 21.3296C46.984 23.1133 48.0832 24.8371 49.1825 26.5012C50.9684 25.5848 52.7779 24.6168 54.6107 23.5973C53.5607 21.83 52.4872 20.0148 51.3903 18.1515C49.513 19.239 47.6778 20.2972 45.8848 21.3261V21.3296ZM62.5034 20.2398C63.1573 21.7984 63.7151 23.2469 64.1769 24.5852C65.3066 23.5047 66.2992 22.4441 67.1547 21.4035C66.9367 20.0886 66.6086 18.6952 66.1703 17.2233C65.0827 18.1819 63.8616 19.1863 62.5069 20.2363L62.5034 20.2398ZM66.7082 16.6749C67.3457 15.871 67.8051 15.1491 68.0863 14.5092C68.2586 15.5182 68.2656 15.5745 68.3324 16.4147C68.3676 17.269 68.3324 18.1233 68.2375 18.9706C68.0336 19.7968 68.0195 19.8285 67.5519 20.7917C67.3808 19.505 67.0996 18.1339 66.7082 16.6784V16.6749ZM52.5646 17.4765C54.4373 16.3772 56.2631 15.3026 58.042 14.2526C59.0662 16.0831 60.0377 17.8843 60.9565 19.6562C59.2807 20.7507 57.5463 21.8453 55.7533 22.9398C54.7197 21.1609 53.6579 19.3398 52.5681 17.4765H52.5646ZM59.0862 13.6373C60.626 12.7186 62.0417 11.8678 63.3331 11.0849C64.205 12.7467 65.0031 14.3967 65.7273 16.035C64.5906 16.9725 63.3214 17.9558 61.9198 18.9847C61.0292 17.2292 60.0846 15.4467 59.0862 13.6373ZM64.0046 10.6631C64.846 12.2873 65.6101 13.9022 66.2968 15.5077C66.9882 14.76 67.4992 14.0885 67.8297 13.4932C67.3375 12.0986 66.7562 10.7099 66.0859 9.3271C65.5656 9.67633 64.8718 10.1216 64.0046 10.6631ZM66.2441 9.20405C66.3039 9.15132 66.3039 9.15132 66.3144 9.12671C67.0105 10.3994 67.5203 11.7248 67.8578 13.0783V13.0854C67.8683 13.1416 67.8683 13.1487 67.8719 13.2084C67.4219 11.8701 66.8793 10.5365 66.2441 9.20757V9.20405Z" fill="#C6E6EF"/>
<path fill-rule="evenodd" clip-rule="evenodd" d="M39.7603 8.93003C40.2666 10.2707 40.8678 11.7203 41.5639 13.2789C43.1999 12.1867 44.8979 11.098 46.6581 10.0129C45.7886 8.48705 44.9905 7.08664 44.2639 5.81161C42.6936 6.82413 41.1936 7.86477 39.7639 8.93354L39.7603 8.93003ZM35.0282 20.0009C35.0282 20.0009 35.0282 20.0009 35.0282 19.9974C35.0282 19.9974 35.0282 19.9939 35.0282 19.9904C35.0282 19.9904 35.0282 19.9974 35.0282 20.0009ZM35.9704 12.7938C36.8306 11.7461 37.8267 10.682 38.9588 9.60152C39.4158 10.9469 39.9713 12.3965 40.6252 13.9504C39.2705 14.9981 38.0482 16.0059 36.9583 16.9739C36.52 15.488 36.1907 14.0946 35.9704 12.7938ZM55.4544 1.01974C56.1751 1.09005 56.2348 1.09708 56.7903 1.23419C55.9641 0.963486 55.1133 0.759576 54.252 0.615433C54.7688 0.741998 54.8215 0.763092 55.4579 1.01974H55.4544ZM34.8032 16.1864V17.9407C34.8595 18.6368 34.8806 18.7528 35.0353 19.6775C35.3189 19.0353 35.7794 18.3192 36.4169 17.5294C36.0232 16.0739 35.7431 14.6969 35.5767 13.3985C35.1091 14.3618 35.0915 14.3899 34.8876 15.2266C34.8524 15.5465 34.8208 15.8665 34.8032 16.1864ZM43.4694 2.45765C43.4694 2.45765 43.487 2.45414 43.4975 2.47171C44.6647 1.91155 45.8343 1.42638 47.0062 1.01622C45.8003 1.35373 44.612 1.83186 43.4694 2.45765ZM43.5995 2.59476C44.9682 1.9385 46.3358 1.37248 47.7023 0.896688C48.2507 1.15216 48.8859 1.58693 49.6078 2.20101C48.014 2.86899 46.4108 3.61783 44.7983 4.44753C44.3014 3.65298 43.9018 3.0354 43.5995 2.59476ZM35.1091 13.8168C35.2814 12.9625 35.5204 12.1258 35.8228 11.3066C35.6786 11.8164 35.6716 11.8691 35.5872 12.5477C35.2884 13.2227 35.2603 13.2824 35.1091 13.8168ZM50.7363 0.415039H52.3219C52.5856 0.425586 52.8492 0.44668 53.1129 0.47129C53.8512 0.633011 53.8828 0.647074 54.7266 1.02677C53.4164 1.19552 52.0266 1.47678 50.557 1.87053C49.8 1.29865 49.1249 0.906063 48.532 0.692778C49.2457 0.559182 49.3019 0.552151 49.8785 0.478321C50.1632 0.450196 50.4515 0.429102 50.7398 0.415039H50.7363ZM37.8267 7.49211C37.2115 8.36752 36.6876 9.29566 36.2517 10.2625C36.0337 10.9691 36.0337 11.0043 35.9388 11.9359C36.7333 10.8883 37.665 9.82301 38.7338 8.74018C38.6049 7.80266 38.5931 7.0257 38.6986 6.40928C38.231 6.96124 38.1994 6.9964 37.8267 7.49563V7.49211ZM39.7287 5.24207C40.6732 4.4194 41.6729 3.64361 42.7276 2.91469C42.7323 2.89828 42.7323 2.88891 42.7276 2.88657C41.6166 3.56861 40.6182 4.36315 39.7252 5.24207H39.7287ZM45.2729 5.2245C46.93 4.36198 48.5824 3.57212 50.23 2.85492C51.1535 3.95416 52.1238 5.18817 53.141 6.55694C51.3738 7.43586 49.5855 8.37103 47.7761 9.36246C46.8737 7.85774 46.0394 6.47842 45.2729 5.2245ZM39.2857 5.787C40.3803 4.82605 41.5475 3.919 42.7873 3.06587C43.0334 3.53931 43.378 4.18854 43.821 5.01355C42.3116 5.99795 40.8725 7.01632 39.5037 8.06868C39.3162 7.14992 39.2447 6.38936 39.2892 5.787H39.2857Z" fill="#00424B"/>
<path fill-rule="evenodd" clip-rule="evenodd" d="M110.443 25.7596L121.215 1.73688L121.363 1.40992H128.63L128.282 2.18689L117.51 26.2096L117.362 26.5365H110.099L110.447 25.7596H110.443ZM96.3384 26.5365H90.8187V25.2498C90.214 25.6857 89.5214 26.0549 88.7585 26.3396C87.5773 26.7791 86.2378 27.0217 84.821 27.0217C81.1682 27.0217 77.8669 25.6154 75.4974 23.2494C73.177 20.936 71.7532 17.7086 71.7532 13.9785C71.7532 10.2484 73.177 7.02095 75.4974 4.70763C77.8669 2.34158 81.1682 0.935303 84.821 0.935303C87.2433 0.935303 89.525 1.57164 91.4832 2.71424C93.4696 3.86738 95.1254 5.54788 96.2716 7.60456L96.6126 8.22332L95.9235 8.40262L90.0312 9.946L89.6902 10.0339L89.4652 9.75967C88.9625 9.15146 88.2488 8.64872 87.4472 8.29715C86.621 7.93152 85.7069 7.72761 84.8245 7.72761C83.0139 7.72761 81.5514 8.3534 80.5354 9.41865C79.4806 10.5226 78.897 12.1117 78.897 13.9715C78.897 15.8313 79.5334 17.4625 80.6092 18.5489C81.7201 19.6634 83.3092 20.2821 85.169 20.2821C86.7511 20.2821 87.9288 19.9341 88.8042 19.4032C89.6234 18.911 90.1789 18.2536 90.5586 17.5786H84.5116V11.841H96.8973V26.5365H96.3419H96.3384ZM96.1274 7.34791V7.89987H103.366V26.533H110.267V7.89987H117.612V1.40992H96.1274V7.34791ZM128.778 1.73688L128.63 1.40992H121.363L121.711 2.18689L132.483 26.2096L132.631 26.5365H139.898L139.546 25.7596L128.774 1.73688H128.778ZM146.135 21.3474V26.5365H139.233V1.40992H149.481C153.011 1.40992 155.855 2.34158 157.831 4.0502C159.825 5.7764 160.918 8.27254 160.918 11.3769C160.918 14.4812 159.828 16.9809 157.831 18.7071C155.859 20.4192 153.011 21.3474 149.481 21.3474H146.138H146.135Z" fill="#164854"/>
<path fill-rule="evenodd" clip-rule="evenodd" d="M124.998 9.50659L117.359 26.5366H132.634L124.998 9.50659Z" fill="#DACF6D"/>
<path fill-rule="evenodd" clip-rule="evenodd" d="M146.082 8.35703V14.5271H149.826C151.158 14.5271 152.206 14.2282 152.913 13.6798C153.57 13.163 153.932 12.4036 153.932 11.4403C153.932 10.477 153.57 9.72112 152.913 9.2008C152.206 8.65235 151.158 8.35352 149.826 8.35352H146.082V8.35703Z" fill="#DACF6D"/>
<path fill-rule="evenodd" clip-rule="evenodd" d="M124.893 9.26044L121.701 2.14821L121.363 1.39233H122.193H128.071H128.419L128.082 2.14821L124.893 9.26044Z" fill="#A67F26"/>
</svg>
