<svg width="151" height="49" viewBox="0 0 151 49" fill="none" xmlns="http://www.w3.org/2000/svg">
<path d="M4.87354 32.8115H6.07789V38.2637H4.87354V32.8115Z" fill="white"/>
<path d="M9.65465 37.3157C9.37495 36.8649 9.18081 36.5429 9.17423 36.5429H9.16764C9.16764 36.5429 8.96034 36.8613 8.66748 37.3228L8.07846 38.2637H6.62402L8.48649 35.4589L6.70958 32.8115H8.1706L8.74316 33.7166C9.0097 34.1209 9.23675 34.4787 9.24333 34.4787H9.24991C9.24991 34.4787 9.48025 34.1138 9.71717 33.7166L10.2535 32.8115H11.6948L9.94093 35.4589L11.7606 38.2637H10.2502L9.65465 37.3121V37.3157Z" fill="white"/>
<path d="M18.8816 36.6537C18.5098 37.7127 17.5851 38.3745 16.4959 38.3745C14.9987 38.3745 13.8964 37.2297 13.8964 35.5232C13.8964 33.8167 14.9987 32.7041 16.4959 32.7041C17.6509 32.7041 18.4966 33.3981 18.8322 34.2782L17.6443 34.6288C17.3877 34.1924 16.9796 33.9348 16.44 33.9348C15.6239 33.9348 15.1073 34.5895 15.1073 35.5411C15.1073 36.4927 15.6601 37.1367 16.4334 37.1367C17.0915 37.1367 17.4996 36.7611 17.7003 36.3103L18.8816 36.6537Z" fill="white"/>
<path d="M21.9055 32.7041C23.4389 32.7041 24.5479 33.874 24.5479 35.5411C24.5479 37.2083 23.4356 38.3781 21.9055 38.3781C20.3754 38.3781 19.2632 37.2083 19.2632 35.5411C19.2632 33.874 20.3754 32.7041 21.9055 32.7041ZM21.9055 37.1367C22.738 37.1367 23.3369 36.5142 23.3369 35.5411C23.3369 34.568 22.7347 33.9348 21.9055 33.9348C21.0763 33.9348 20.4741 34.5573 20.4741 35.5411C20.4741 36.5249 21.0763 37.1367 21.9055 37.1367Z" fill="white"/>
<path d="M26.3611 35.0114H26.338C26.338 35.0114 26.3512 35.6876 26.3512 36.3995V38.2706H25.1469V32.8184H26.3644L28.5 36.0131H28.523C28.523 36.0131 28.5164 35.3048 28.5164 34.7109V32.8184H29.7208V38.2706H28.4967L26.3611 35.015V35.0114Z" fill="white"/>
<path d="M34.3209 38.2672C34.3209 37.956 34.3275 37.9238 34.3275 37.8844H34.3144C34.0281 38.1492 33.4818 38.3745 32.9027 38.3745C31.5042 38.3745 30.3229 37.2297 30.3229 35.5304C30.3229 33.831 31.4252 32.7041 32.9224 32.7041C34.061 32.7041 34.9363 33.391 35.2588 34.2782L34.0709 34.6288C33.8767 34.2782 33.5049 33.9348 32.8665 33.9348C32.057 33.9348 31.5338 34.5895 31.5338 35.5411C31.5338 36.4927 32.113 37.1367 33.0014 37.1367C33.6891 37.1367 34.1202 36.8111 34.2782 36.575V36.3174H33.0179V35.1011H35.397V38.2636H34.3209V38.2672Z" fill="white"/>
<path d="M37.855 36.4676H37.3186V38.2671H36.1143V32.8149H38.0195C39.2798 32.8149 40.0202 33.5305 40.0202 34.661C40.0202 35.4087 39.6845 35.9632 39.0758 36.21L40.2209 38.2671H38.7961L37.8583 36.4676H37.855ZM38.0985 35.423C38.5427 35.423 38.7862 35.1833 38.7862 34.7218C38.7862 34.2603 38.5559 33.9991 38.0919 33.9991H37.3186V35.423H38.0985Z" fill="white"/>
<path d="M40.7343 32.8115H44.3868V34.0279H41.9353V34.9616H43.7418V36.0528H41.9353V37.0509H44.423V38.2673H40.7343V32.8151V32.8115Z" fill="white"/>
<path d="M46.065 36.5679C46.1638 36.9793 46.5159 37.2226 47.0621 37.2226C47.5195 37.2226 47.7992 37.0508 47.7992 36.7002C47.7992 36.1779 47.197 36.2101 46.5817 36.0455C45.9005 35.8667 45.0548 35.5232 45.0548 34.3712C45.0548 33.2193 45.8281 32.7041 46.9535 32.7041C47.9769 32.7041 48.7074 33.1549 48.9871 34.128L47.842 34.4643C47.7202 34.0672 47.4339 33.8489 46.9305 33.8489C46.4731 33.8489 46.2789 34.0421 46.2789 34.3319C46.2789 34.7898 46.7594 34.8614 47.4603 35.0188C48.1973 35.1762 49.0167 35.5161 49.0167 36.6931C49.0167 37.8701 48.2928 38.3745 47.0687 38.3745C46.1934 38.3745 45.2062 38.0848 44.9199 36.9006L46.065 36.5643V36.5679Z" fill="white"/>
<path d="M50.5566 36.5679C50.6553 36.9793 51.0074 37.2226 51.5537 37.2226C52.0111 37.2226 52.2908 37.0508 52.2908 36.7002C52.2908 36.1779 51.6886 36.2101 51.0732 36.0455C50.3921 35.8667 49.5464 35.5232 49.5464 34.3712C49.5464 33.2193 50.3197 32.7041 51.4451 32.7041C52.4684 32.7041 53.199 33.1549 53.4787 34.128L52.3335 34.4643C52.2118 34.0672 51.9255 33.8489 51.422 33.8489C50.9647 33.8489 50.7705 34.0421 50.7705 34.3319C50.7705 34.7898 51.2509 34.8614 51.9518 35.0188C52.6889 35.1762 53.5083 35.5161 53.5083 36.6931C53.5083 37.8701 52.7843 38.3745 51.5602 38.3745C50.685 38.3745 49.6978 38.0848 49.4115 36.9006L50.5566 36.5643V36.5679Z" fill="white"/>
<path d="M56.5553 32.7041C58.0887 32.7041 59.1976 33.874 59.1976 35.5411C59.1976 37.2083 58.0854 38.3781 56.5553 38.3781C55.0252 38.3781 53.913 37.2083 53.913 35.5411C53.913 33.874 55.0252 32.7041 56.5553 32.7041ZM56.5553 37.1367C57.3878 37.1367 57.9867 36.5142 57.9867 35.5411C57.9867 34.568 57.3845 33.9348 56.5553 33.9348C55.7261 33.9348 55.1239 34.5573 55.1239 35.5411C55.1239 36.5249 55.7261 37.1367 56.5553 37.1367Z" fill="white"/>
<path d="M64.6372 35.3622C65.1242 35.5196 65.5487 35.9525 65.5487 36.6787C65.5487 37.5194 64.9958 38.2671 63.7487 38.2671H61.5934V32.8149H63.7586C64.6602 32.8149 65.2854 33.4768 65.2854 34.2317C65.2854 34.8398 64.9136 35.2226 64.6405 35.33V35.3622H64.6372ZM63.525 34.9722C63.854 34.9722 64.0679 34.754 64.0679 34.4356C64.0679 34.1172 63.8606 33.8989 63.5151 33.8989H62.7912V34.9722H63.5217H63.525ZM63.6401 37.1831C64.0547 37.1831 64.2785 36.9256 64.2785 36.5606C64.2785 36.1707 64.035 35.9382 63.6401 35.9382H62.7944V37.1831H63.6401Z" fill="white"/>
<path d="M67.8618 36.4676H67.3254V38.2671H66.1211V32.8149H68.0263C69.2866 32.8149 70.027 33.5305 70.027 34.661C70.027 35.4087 69.6914 35.9632 69.0826 36.21L70.2277 38.2671H68.8029L67.8651 36.4676H67.8618ZM68.1053 35.423C68.5495 35.423 68.793 35.1833 68.793 34.7218C68.793 34.2603 68.5627 33.9991 68.0987 33.9991H67.3254V35.423H68.1053Z" fill="white"/>
<path d="M72.0934 37.362L71.794 38.2671H70.5271L72.462 32.8149H73.8308L75.7723 38.2671H74.4824L74.1829 37.362H72.0967H72.0934ZM73.4261 35.0867C73.2682 34.6359 73.153 34.2925 73.1464 34.2853H73.1234C73.1234 34.2853 73.0016 34.6288 72.8437 35.0795L72.485 36.1707H73.7815L73.4228 35.0867H73.4261Z" fill="white"/>
<path d="M77.2038 36.5679C77.3026 36.9793 77.6547 37.2226 78.2009 37.2226C78.6583 37.2226 78.938 37.0508 78.938 36.7002C78.938 36.1779 78.3358 36.2101 77.7205 36.0455C77.0393 35.8667 76.1936 35.5232 76.1936 34.3712C76.1936 33.2193 76.9669 32.7041 78.0923 32.7041C79.1157 32.7041 79.8462 33.1549 80.1259 34.128L78.9808 34.4643C78.859 34.0672 78.5727 33.8489 78.0693 33.8489C77.6119 33.8489 77.4177 34.0421 77.4177 34.3319C77.4177 34.7898 77.8982 34.8614 78.599 35.0188C79.3361 35.1762 80.1555 35.5161 80.1555 36.6931C80.1555 37.8701 79.4316 38.3745 78.2075 38.3745C77.3322 38.3745 76.345 38.0848 76.0587 36.9006L77.2038 36.5643V36.5679Z" fill="white"/>
<path d="M80.7577 32.8115H81.962V38.2637H80.7577V32.8115Z" fill="white"/>
<path d="M82.7616 32.8115H83.966V37.0509H86.2167V38.2673H82.7616V32.8151V32.8115Z" fill="white"/>
<path d="M86.8385 32.8115H90.491V34.0279H88.0396V34.9616H89.8461V36.0528H88.0396V37.0509H90.5272V38.2673H86.8385V32.8151V32.8115Z" fill="white"/>
<path d="M91.2316 32.8115H92.4359V38.2637H91.2316V32.8115Z" fill="white"/>
<path d="M94.9795 36.4676H94.4431V38.2671H93.2388V32.8149H95.144C96.4043 32.8149 97.1414 33.5305 97.1414 34.661C97.1414 35.4087 96.8058 35.9632 96.197 36.21L97.3421 38.2671H95.9173L94.9795 36.4676ZM95.223 35.423C95.6672 35.423 95.9107 35.1833 95.9107 34.7218C95.9107 34.2603 95.6804 33.9991 95.2164 33.9991H94.4431V35.423H95.223Z" fill="white"/>
<path d="M100.238 32.7041C101.771 32.7041 102.88 33.874 102.88 35.5411C102.88 37.2083 101.768 38.3781 100.238 38.3781C98.7076 38.3781 97.592 37.2083 97.592 35.5411C97.592 33.874 98.7043 32.7041 100.238 32.7041ZM100.238 37.1367C101.07 37.1367 101.669 36.5142 101.669 35.5411C101.669 34.568 101.067 33.9348 100.238 33.9348C99.4084 33.9348 98.803 34.5573 98.803 35.5411C98.803 36.5249 99.4052 37.1367 100.238 37.1367Z" fill="white"/>
<path d="M107.408 32.8115C108.905 32.8115 110.054 33.917 110.054 35.5627C110.054 37.2083 108.899 38.2673 107.418 38.2673H105.276V32.8151H107.411L107.408 32.8115ZM107.345 37.0509C108.089 37.0509 108.843 36.6395 108.843 35.5627C108.843 34.4858 108.089 34.0279 107.345 34.0279H106.48V37.0509H107.345Z" fill="white"/>
<path d="M110.656 32.8115H114.308V34.0279H111.857V34.9616H113.663V36.0528H111.857V37.0509H114.345V38.2673H110.656V32.8151V32.8115Z" fill="white"/>
<path d="M120.636 38.2672C120.636 37.956 120.643 37.9238 120.643 37.8844H120.63C120.343 38.1492 119.797 38.3745 119.218 38.3745C117.819 38.3745 116.638 37.2297 116.638 35.5304C116.638 33.831 117.74 32.7041 119.238 32.7041C120.376 32.7041 121.251 33.391 121.574 34.2782L120.386 34.6288C120.192 34.2782 119.82 33.9348 119.182 33.9348C118.372 33.9348 117.849 34.5895 117.849 35.5411C117.849 36.4927 118.428 37.1367 119.317 37.1367C120.004 37.1367 120.435 36.8111 120.593 36.575V36.3174H119.333V35.1011H121.712V38.2636H120.636V38.2672Z" fill="white"/>
<path d="M122.426 32.8115H126.079V34.0279H123.627V34.9616H125.434V36.0528H123.627V37.0509H126.115V38.2673H122.426V32.8151V32.8115Z" fill="white"/>
<path d="M127.757 36.5679C127.856 36.9793 128.208 37.2226 128.754 37.2226C129.211 37.2226 129.491 37.0508 129.491 36.7002C129.491 36.1779 128.889 36.2101 128.274 36.0455C127.592 35.8667 126.747 35.5232 126.747 34.3712C126.747 33.2193 127.52 32.7041 128.645 32.7041C129.669 32.7041 130.399 33.1549 130.679 34.128L129.534 34.4643C129.412 34.0672 129.126 33.8489 128.622 33.8489C128.165 33.8489 127.971 34.0421 127.971 34.3319C127.971 34.7898 128.451 34.8614 129.152 35.0188C129.889 35.1762 130.709 35.5161 130.709 36.6931C130.709 37.8701 129.985 38.3745 128.761 38.3745C127.885 38.3745 126.898 38.0848 126.612 36.9006L127.757 36.5643V36.5679Z" fill="white"/>
<path d="M133.841 34.0279V38.2673H132.637V34.0279H131.103V32.8115H135.375V34.0279H133.841Z" fill="white"/>
<path d="M136.47 37.362L136.168 38.2671H134.901L136.836 32.8149H138.205L140.146 38.2671H138.856L138.553 37.362H136.467H136.47ZM136.306 32.2997L136.135 31.3588C136.201 31.273 136.457 31.1084 136.829 31.1084C137.296 31.1084 137.583 31.3409 138.063 31.3409C138.336 31.3409 138.563 31.2229 138.685 31.1227L138.856 32.0636C138.79 32.1495 138.527 32.314 138.168 32.314C137.701 32.314 137.408 32.0815 136.944 32.0815C136.671 32.0815 136.421 32.1888 136.306 32.2997ZM137.803 35.0866C137.645 34.6359 137.53 34.2924 137.523 34.2853H137.5C137.5 34.2853 137.379 34.6287 137.221 35.0795L136.862 36.1706H138.158L137.8 35.0866H137.803Z" fill="white"/>
<path d="M142.867 32.7041C144.401 32.7041 145.51 33.874 145.51 35.5411C145.51 37.2083 144.397 38.3781 142.867 38.3781C141.337 38.3781 140.222 37.2083 140.222 35.5411C140.222 33.874 141.334 32.7041 142.867 32.7041ZM142.867 37.1367C143.7 37.1367 144.299 36.5142 144.299 35.5411C144.299 34.568 143.697 33.9348 142.867 33.9348C142.038 33.9348 141.433 34.5573 141.433 35.5411C141.433 36.5249 142.035 37.1367 142.867 37.1367Z" fill="white"/>
<path d="M2.73789 43.3755V47.615H1.53353V43.3755H0.00012207V42.1592H4.2713V43.3755H2.73789Z" fill="white"/>
<path d="M6.63378 45.8158H6.09742V47.6153H4.89307V42.1631H6.79831C8.05861 42.1631 8.79899 42.8786 8.79899 44.0091C8.79899 44.7568 8.46335 45.3113 7.85459 45.5582L8.99971 47.6153H7.57489L6.63708 45.8158H6.63378ZM6.87729 44.7711C7.32152 44.7711 7.56502 44.5314 7.56502 44.0699C7.56502 43.6084 7.33468 43.3473 6.87071 43.3473H6.09742V44.7711H6.87729Z" fill="white"/>
<path d="M9.51318 42.1592H10.7175V47.6114H9.51318V42.1592Z" fill="white"/>
<path d="M14.5643 44.7064C15.0513 44.8638 15.4758 45.2967 15.4758 46.0229C15.4758 46.8637 14.923 47.6114 13.6758 47.6114H11.5205V42.1592H13.6857C14.5873 42.1592 15.2125 42.821 15.2125 43.5759C15.2125 44.1841 14.8407 44.5669 14.5676 44.6742V44.7064H14.5643ZM13.4554 44.3164C13.7844 44.3164 13.9983 44.0982 13.9983 43.7798C13.9983 43.4614 13.791 43.2432 13.4455 43.2432H12.7216V44.3164H13.4521H13.4554ZM13.5705 46.531C13.9852 46.531 14.2089 46.2734 14.2089 45.9085C14.2089 45.5185 13.9654 45.286 13.5705 45.286H12.7249V46.531H13.5705Z" fill="white"/>
<path d="M20.3753 45.1822C20.3753 46.8243 19.5 47.7223 18.1903 47.7223C16.8807 47.7223 16.0054 46.8279 16.0054 45.1822V42.1592H17.2229V45.1429C17.2229 46.0766 17.5519 46.4845 18.2035 46.4845C18.855 46.4845 19.1841 46.0802 19.1841 45.1429V42.1592H20.372V45.1822H20.3753Z" fill="white"/>
<path d="M23.6922 43.3755V47.615H22.4879V43.3755H20.9545V42.1592H25.2256V43.3755H23.6922Z" fill="white"/>
<path d="M26.3213 46.7103L26.0219 47.6155H24.755L26.6899 42.1633H28.0588L30.0002 47.6155H28.7103L28.4108 46.7103H26.3246H26.3213ZM27.654 44.435C27.4961 43.9842 27.3809 43.6408 27.3743 43.6336H27.3513C27.3513 43.6336 27.2295 43.9771 27.0716 44.4279L26.7129 45.519H28.0094L27.6507 44.435H27.654ZM26.8083 41.7411L27.6112 40.3315L28.549 40.6499L27.8745 41.7411H26.8083Z" fill="white"/>
<path d="M32.2347 45.8158H31.6984V47.6153H30.494V42.1631H32.3993C33.6596 42.1631 34.3999 42.8786 34.3999 44.0091C34.3999 44.7568 34.0643 45.3113 33.4555 45.5582L34.6007 47.6153H33.1758L32.238 45.8158H32.2347ZM32.4782 44.7711C32.9225 44.7711 33.166 44.5314 33.166 44.0699C33.166 43.6084 32.9356 43.3473 32.4717 43.3473H31.6984V44.7711H32.4782Z" fill="white"/>
<path d="M35.1139 42.1592H36.3182V47.6114H35.1139V42.1592Z" fill="white"/>
<path d="M38.3814 46.7102L38.0819 47.6153H36.8151L38.7499 42.1631H40.1188L42.0603 47.6153H40.7703L40.4709 46.7102H38.3847H38.3814ZM39.7141 44.4348C39.5561 43.9841 39.4409 43.6406 39.4344 43.6335H39.4113C39.4113 43.6335 39.2896 43.9769 39.1316 44.4277L38.773 45.5188H40.0694L39.7108 44.4348H39.7141Z" fill="white"/>
<path d="M45.5516 44.3561H45.5286C45.5286 44.3561 45.5418 45.0323 45.5418 45.7442V47.6153H44.3374V42.1631H45.5549L47.6905 45.3579H47.7135C47.7135 45.3579 47.707 44.6495 47.707 44.0556V42.1631H48.9113V47.6153H47.6872L45.5516 44.3597V44.3561Z" fill="white"/>
<path d="M50.9778 46.7102L50.6784 47.6153H49.4115L51.3464 42.1631H52.7152L54.6567 47.6153H53.3668L53.0673 46.7102H50.9811H50.9778ZM52.3105 44.4348C52.1526 43.9841 52.0374 43.6406 52.0308 43.6335H52.0078C52.0078 43.6335 51.886 43.9769 51.7281 44.4277L51.3694 45.5188H52.6659L52.3072 44.4348H52.3105Z" fill="white"/>
<path d="M58.1974 46.7102L57.898 47.6153H56.6311L58.566 42.1631H59.9348L61.8763 47.6153H60.5864L60.2869 46.7102H58.2007H58.1974ZM59.5301 44.4348C59.3722 43.9841 59.257 43.6406 59.2504 43.6335H59.2274C59.2274 43.6335 59.1056 43.9769 58.9477 44.4277L58.589 45.5188H59.8855L59.5268 44.4348H59.5301Z" fill="white"/>
<path d="M64.502 42.1592C65.9993 42.1592 67.1444 43.2646 67.1444 44.9103C67.1444 46.556 65.9894 47.615 64.5086 47.615H62.3665V42.1628H64.502V42.1592ZM64.4395 46.3986C65.1832 46.3986 65.9367 45.9872 65.9367 44.9103C65.9367 43.8335 65.1832 43.3755 64.4395 43.3755H63.5741V46.3986H64.4395Z" fill="white"/>
<path d="M71.5967 46.2809C71.5967 44.9894 71.6098 44.349 71.6098 44.3418H71.5967C71.5967 44.3418 71.3466 44.8391 71.1031 45.3078L70.6161 46.2666H69.9415L69.4545 45.3257C69.2044 44.8427 68.9675 44.3526 68.9609 44.3454H68.9379C68.9379 44.3454 68.9511 44.9929 68.9511 46.2844V47.6153H67.7467V42.1631H69.0234L70.2837 44.603H70.3068L71.5736 42.1631H72.7977V47.6153H71.5934V46.2844L71.5967 46.2809Z" fill="white"/>
<path d="M73.6038 42.1592H74.8081V47.6114H73.6038V42.1592Z" fill="white"/>
<path d="M76.8186 44.3561H76.7956C76.7956 44.3561 76.8087 45.0323 76.8087 45.7442V47.6153H75.6044V42.1631H76.8219L78.9575 45.3579H78.9772C78.9772 45.3579 78.9706 44.6495 78.9706 44.0556V42.1631H80.175V47.6153H78.9509L76.8153 44.3597L76.8186 44.3561Z" fill="white"/>
<path d="M80.9814 42.1592H82.1858V47.6114H80.9814V42.1592Z" fill="white"/>
<path d="M83.9265 45.916C84.0252 46.3274 84.3773 46.5707 84.9235 46.5707C85.3809 46.5707 85.6606 46.399 85.6606 46.0484C85.6606 45.5261 85.0585 45.5583 84.4431 45.3937C83.762 45.2148 82.9163 44.8714 82.9163 43.7194C82.9163 42.5674 83.6896 42.0522 84.815 42.0522C85.8383 42.0522 86.5688 42.503 86.8485 43.4761L85.7034 43.8124C85.5817 43.4153 85.2954 43.1971 84.7919 43.1971C84.3345 43.1971 84.1404 43.3903 84.1404 43.68C84.1404 44.138 84.6208 44.2095 85.3217 44.3669C86.0588 44.5243 86.8782 44.8642 86.8782 46.0412C86.8782 47.2182 86.1542 47.7227 84.9301 47.7227C84.0548 47.7227 83.0677 47.4329 82.7814 46.2487L83.9265 45.9124V45.916Z" fill="white"/>
<path d="M90.0107 43.3755V47.615H88.8064V43.3755H87.2729V42.1592H91.5441V43.3755H90.0107Z" fill="white"/>
<path d="M93.9066 45.8158H93.3702V47.6153H92.1659V42.1631H94.0711C95.3314 42.1631 96.0685 42.8786 96.0685 44.0091C96.0685 44.7568 95.7329 45.3113 95.1241 45.5582L96.2693 47.6153H94.8444L93.9066 45.8158ZM94.1501 44.7711C94.5943 44.7711 94.8378 44.5314 94.8378 44.0699C94.8378 43.6084 94.6075 43.3473 94.1435 43.3473H93.3702V44.7711H94.1501Z" fill="white"/>
<path d="M98.1418 46.7102L97.839 47.6153H96.5721L98.507 42.1631H99.8759L101.817 47.6153H100.527L100.225 46.7102H98.1385H98.1418ZM99.4744 44.4348C99.3165 43.9841 99.2013 43.6406 99.1947 43.6335H99.1717C99.1717 43.6335 99.05 43.9769 98.892 44.4277L98.5333 45.5188H99.8298L99.4711 44.4348H99.4744Z" fill="white"/>
<path d="M106.881 46.0019C106.602 46.7961 106.006 47.3649 105.276 47.5975C105.427 47.7298 105.519 47.9159 105.519 48.1806C105.519 48.6886 105.184 48.9999 104.417 48.9999C104.167 48.9999 103.887 48.9605 103.759 48.9069V48.1126C103.838 48.1448 104.002 48.1735 104.233 48.1735C104.575 48.1735 104.706 48.1126 104.706 47.9946C104.706 47.8372 104.463 47.762 103.805 47.7692V47.6297C102.673 47.3327 101.9 46.2988 101.9 44.8714C101.9 43.2114 103.002 42.0522 104.499 42.0522C105.654 42.0522 106.5 42.7463 106.835 43.6264L105.648 43.977C105.391 43.5405 104.98 43.2829 104.443 43.2829C103.627 43.2829 103.11 43.9376 103.11 44.8893C103.11 45.8409 103.663 46.4848 104.437 46.4848C105.095 46.4848 105.506 46.1092 105.703 45.6584L106.885 46.0019H106.881Z" fill="white"/>
<path d="M108.603 46.7101L108.3 47.6152H107.033L108.968 42.163H110.337L112.278 47.6152H110.988L110.686 46.7101H108.599H108.603ZM108.438 41.6479L108.267 40.707C108.333 40.6211 108.589 40.4565 108.961 40.4565C109.428 40.4565 109.715 40.6891 110.195 40.6891C110.468 40.6891 110.695 40.571 110.817 40.4709L110.988 41.4118C110.922 41.4976 110.659 41.6622 110.301 41.6622C109.833 41.6622 109.54 41.4296 109.076 41.4296C108.803 41.4296 108.553 41.537 108.438 41.6479ZM109.935 44.4348C109.777 43.984 109.662 43.6406 109.656 43.6334H109.633C109.633 43.6334 109.511 43.9769 109.353 44.4276L108.994 45.5188H110.291L109.932 44.4348H109.935Z" fill="white"/>
<path d="M114.999 42.0522C116.533 42.0522 117.642 43.2221 117.642 44.8893C117.642 46.5564 116.529 47.7263 114.999 47.7263C113.469 47.7263 112.354 46.5564 112.354 44.8893C112.354 43.2221 113.466 42.0522 114.999 42.0522ZM114.999 46.4848C115.832 46.4848 116.431 45.8624 116.431 44.8893C116.431 43.9162 115.828 43.2829 114.999 43.2829C114.17 43.2829 113.565 43.9054 113.565 44.8893C113.565 45.8731 114.167 46.4848 114.999 46.4848Z" fill="white"/>
<path d="M121.906 42.1592C123.14 42.1592 123.884 42.8675 123.884 44.0374C123.884 45.2073 123.14 45.9156 121.906 45.9156H121.238V47.615H120.034V42.1628H121.903L121.906 42.1592ZM121.943 44.778C122.453 44.778 122.68 44.4882 122.68 44.0624C122.68 43.6367 122.449 43.3541 121.943 43.3541H121.242V44.778H121.943Z" fill="white"/>
<path d="M128.764 45.1827C128.764 46.8248 127.889 47.7228 126.579 47.7228C125.269 47.7228 124.394 46.8284 124.394 45.1827V42.1597H125.612V45.1434C125.612 46.0771 125.941 46.4849 126.592 46.4849C127.244 46.4849 127.573 46.0807 127.573 45.1434V42.1597H128.761V45.1827H128.764ZM126.062 41.7411L126.865 40.3315L127.797 40.6499L127.129 41.7411H126.062Z" fill="white"/>
<path d="M132.568 44.7064C133.055 44.8638 133.476 45.2967 133.476 46.0229C133.476 46.8637 132.923 47.6114 131.679 47.6114H129.524V42.1592H131.689C132.591 42.1592 133.216 42.821 133.216 43.5759C133.216 44.1841 132.844 44.5669 132.571 44.6742V44.7064H132.568ZM131.459 44.3164C131.788 44.3164 132.002 44.0982 132.002 43.7798C132.002 43.4614 131.795 43.2432 131.449 43.2432H130.725V44.3164H131.456H131.459ZM131.574 46.531C131.989 46.531 132.212 46.2734 132.212 45.9085C132.212 45.5185 131.969 45.286 131.574 45.286H130.728V46.531H131.574Z" fill="white"/>
<path d="M134.052 42.1592H135.256V46.3986H137.507V47.615H134.052V42.1628V42.1592Z" fill="white"/>
<path d="M138.129 42.1592H139.333V47.6114H138.129V42.1592Z" fill="white"/>
<path d="M144.921 46.0019C144.549 47.0608 143.624 47.7227 142.535 47.7227C141.038 47.7227 139.935 46.5779 139.935 44.8714C139.935 43.1649 141.038 42.0522 142.535 42.0522C143.69 42.0522 144.536 42.7463 144.871 43.6264L143.683 43.977C143.427 43.5405 143.015 43.2829 142.479 43.2829C141.663 43.2829 141.146 43.9376 141.146 44.8893C141.146 45.8409 141.699 46.4848 142.472 46.4848C143.131 46.4848 143.542 46.1092 143.739 45.6584L144.921 46.0019Z" fill="white"/>
<path d="M146.638 46.7102L146.336 47.6153H145.069L147.004 42.1631H148.373L150.314 47.6153H149.024L148.721 46.7102H146.635H146.638ZM147.971 44.4348C147.813 43.9841 147.698 43.6406 147.691 43.6335H147.668C147.668 43.6335 147.547 43.9769 147.389 44.4277L147.03 45.5188H148.327L147.968 44.4348H147.971Z" fill="white"/>
<path d="M0.342163 2.15918H5.9559V27.5813H0.342163V2.15918Z" fill="white"/>
<path d="M21.3066 23.1487C20.0036 21.0416 19.1019 19.5533 19.069 19.5533H19.0361C19.0032 19.5533 18.0654 21.0416 16.6965 23.1845L13.9555 27.5778H7.17358L15.8574 14.5018L7.57833 2.15918H14.3931L17.0651 6.37355C18.3023 8.2625 19.3685 9.93322 19.4014 9.93322H19.4343C19.5001 9.93322 20.5037 8.22673 21.6061 6.37355L24.1102 2.15918H30.823L22.6393 14.5089L31.1257 27.5849H24.0773L21.3033 23.1559L21.3066 23.1487Z" fill="white"/>
<path fill-rule="evenodd" clip-rule="evenodd" d="M32.6953 21.6296C32.6953 21.6296 32.6953 21.6296 32.6953 21.6367C32.6953 21.6367 32.6953 21.6403 32.6953 21.6439C33.0079 23.0177 33.485 24.3664 34.1366 25.6615C34.1431 25.6448 34.1651 25.6197 34.2024 25.5863C33.6079 24.2316 33.1011 22.8734 32.6821 21.5115C32.6821 21.5759 32.6821 21.5795 32.692 21.6331L32.6953 21.6296ZM32.7216 21.2003C33.0353 20.6064 33.5157 19.929 34.1629 19.1682C34.8035 20.7996 35.5175 22.4429 36.3051 24.0981C35.4912 24.649 34.8418 25.1022 34.357 25.4576C33.7274 24.0408 33.1823 22.6229 32.7216 21.2038V21.2003ZM34.6993 18.628C35.3727 20.2975 36.1175 21.9778 36.9336 23.6688C38.1445 22.8698 39.4717 22.004 40.9152 21.0715C39.9806 19.2302 39.0977 17.4128 38.2662 15.6193C36.9522 16.6711 35.7632 17.674 34.6993 18.628ZM39.1646 14.9467C40.7375 13.8281 42.3619 12.7143 44.0379 11.6052C45.0054 13.4179 45.9991 15.2746 47.0192 17.1755C45.2642 18.2869 43.5531 19.3757 41.8859 20.4418C40.9338 18.5815 40.0267 16.7498 39.1646 14.9467ZM45.1008 10.9362C46.0836 12.7369 47.0883 14.5853 48.115 16.4815C49.8721 15.3772 51.592 14.3027 53.2746 13.2581C52.2457 11.4407 51.2158 9.68408 50.1847 7.98832C48.5197 8.91849 46.8251 9.90112 45.1008 10.9362ZM51.1752 7.46957C52.6604 6.74929 54.0479 6.12083 55.3378 5.5842C56.3491 7.04146 57.3363 8.57385 58.2993 10.1814C57.0621 10.9303 55.7129 11.7531 54.2519 12.6499C53.2274 10.8587 52.2008 9.13195 51.1719 7.46957H51.1752ZM61.1786 8.54284C61.2444 8.51422 61.2444 8.51422 61.274 8.5178C60.5501 7.26923 59.6978 6.15303 58.7468 5.18351C58.7468 5.18351 58.7468 5.18351 58.7435 5.18351C58.7041 5.14416 58.6975 5.14416 58.6514 5.10838C59.5399 6.17449 60.3834 7.32051 61.1819 8.54642L61.1786 8.54284ZM56.0387 5.34808C57.0368 6.75525 58.0076 8.23517 58.9509 9.78783C59.7932 9.29413 60.4766 8.90537 61.0009 8.62155C60.1782 7.34078 59.3095 6.13395 58.3947 5.00105C58.2697 5.00105 58.1611 5.00105 58.0624 5.00105C57.4109 5.00105 57.2529 5.04041 56.042 5.34808H56.0387ZM47.628 2.67922C48.5098 3.75725 49.44 4.97363 50.4184 6.32833C51.8991 5.65813 53.2834 5.08334 54.5711 4.60394C53.5664 3.47821 52.577 2.49199 51.603 1.6453C50.3591 1.87903 49.0352 2.22487 47.6312 2.68279L47.628 2.67922ZM55.272 4.40002C54.2607 3.32437 53.2669 2.38943 52.2907 1.59521C53.2943 1.66677 53.3272 1.67034 54.1005 1.90289C54.8343 2.23918 55.5451 2.63629 56.2295 3.09064C56.8877 3.57361 56.9304 3.61296 57.6774 4.26765C57.0237 4.19372 56.2219 4.23784 55.272 4.40002Z" fill="#2B8C8D"/>
<path fill-rule="evenodd" clip-rule="evenodd" d="M43.0543 21.8606C44.0832 23.6756 45.112 25.4298 46.1409 27.1232C47.8125 26.1906 49.5061 25.2056 51.2216 24.1681C50.2388 22.3698 49.234 20.5226 48.2074 18.6265C46.4502 19.7331 44.7325 20.81 43.0543 21.857V21.8606ZM58.6089 20.7515C59.221 22.3376 59.7431 23.8116 60.1752 25.1734C61.2326 24.0739 62.1616 22.9947 62.9623 21.9357C62.7583 20.5977 62.4512 19.1798 62.041 17.682C61.0231 18.6575 59.8802 19.6795 58.6122 20.748L58.6089 20.7515ZM62.5444 17.1239C63.1411 16.3058 63.5711 15.5712 63.8344 14.9201C63.9956 15.9469 64.0022 16.0041 64.0647 16.8592C64.0976 17.7285 64.0647 18.5979 63.9758 19.46C63.785 20.3008 63.7718 20.333 63.3342 21.3132C63.174 20.0038 62.9108 18.6086 62.5444 17.1275V17.1239ZM49.3064 17.9396C51.0592 16.821 52.7681 15.7275 54.4332 14.659C55.3918 16.5217 56.3011 18.3546 57.1611 20.1577C55.5925 21.2715 53.9692 22.3853 52.291 23.4991C51.3236 21.6889 50.3298 19.8357 49.3097 17.9396H49.3064ZM55.4105 14.0329C56.8517 13.0979 58.1767 12.2322 59.3855 11.4356C60.2016 13.1266 60.9485 14.8056 61.6264 16.4728C60.5624 17.4268 59.3745 18.4273 58.0627 19.4744C57.2291 17.688 56.345 15.8741 55.4105 14.0329ZM60.014 11.0063C60.8015 12.6591 61.5167 14.3024 62.1594 15.9361C62.8066 15.1753 63.2848 14.492 63.5941 13.8862C63.1335 12.4671 62.5894 11.054 61.962 9.64679C61.475 10.0022 60.8257 10.4553 60.014 11.0063ZM62.1101 9.52158C62.166 9.46791 62.166 9.46791 62.1759 9.44287C62.8274 10.7379 63.3046 12.0867 63.6205 13.4641V13.4712C63.6303 13.5284 63.6303 13.5356 63.6336 13.5964C63.2124 12.2346 62.7046 10.8775 62.1101 9.52516V9.52158Z" fill="#C6E6EF"/>
<path fill-rule="evenodd" clip-rule="evenodd" d="M37.3219 9.24249C37.7957 10.6067 38.3584 12.0819 39.0099 13.6679C40.5411 12.5565 42.1305 11.4487 43.778 10.3444C42.9641 8.79172 42.2171 7.36666 41.5371 6.06919C40.0673 7.09953 38.6633 8.15849 37.3251 9.24607L37.3219 9.24249ZM32.8927 20.5082C32.8927 20.5082 32.8927 20.5082 32.8927 20.5047C32.8927 20.5047 32.8927 20.5011 32.8927 20.4975C32.8927 20.4975 32.8927 20.5047 32.8927 20.5082ZM33.7746 13.1742C34.5797 12.1081 35.512 11.0253 36.5716 9.92581C36.9994 11.2948 37.5193 12.77 38.1313 14.3513C36.8634 15.4174 35.7193 16.4429 34.6993 17.428C34.289 15.9158 33.9808 14.4979 33.7746 13.1742ZM52.011 1.19298C52.6856 1.26453 52.7415 1.27168 53.2614 1.41121C52.4881 1.13574 51.6918 0.928238 50.8856 0.781558C51.3694 0.91035 51.4187 0.931815 52.0143 1.19298H52.011ZM32.6821 16.6266V18.4118C32.7348 19.1201 32.7545 19.2382 32.8993 20.1791C33.1647 19.5256 33.5958 18.797 34.1925 17.9932C33.824 16.5121 33.5618 15.1109 33.4061 13.7896C32.9684 14.7698 32.952 14.7984 32.7611 15.6499C32.7282 15.9755 32.6986 16.301 32.6821 16.6266ZM40.7934 2.6562C40.7934 2.6562 40.8099 2.65262 40.8197 2.67051C41.9122 2.10049 43.0069 1.60678 44.1037 1.1894C42.9751 1.53285 41.8629 2.01939 40.7934 2.6562ZM40.9152 2.79573C42.1963 2.12791 43.4763 1.55193 44.7553 1.06776C45.2686 1.32773 45.8631 1.77016 46.5388 2.39504C45.047 3.07478 43.5465 3.8368 42.0373 4.6811C41.5722 3.87257 41.1982 3.24411 40.9152 2.79573ZM32.9684 14.2153C33.1296 13.346 33.3534 12.4945 33.6364 11.6609C33.5015 12.1797 33.4949 12.2333 33.4159 12.9238C33.1362 13.6107 33.1099 13.6715 32.9684 14.2153ZM47.5951 0.577637H49.0791C49.3259 0.588369 49.5727 0.609835 49.8195 0.634878C50.5105 0.799446 50.5401 0.813756 51.3299 1.20013C50.1036 1.37186 48.8027 1.65806 47.4272 2.05875C46.7187 1.4768 46.0869 1.0773 45.5319 0.860264C46.1998 0.724317 46.2525 0.717161 46.7921 0.642033C47.0587 0.613412 47.3285 0.591947 47.5983 0.577637H47.5951ZM35.512 7.77927C34.9362 8.67008 34.4459 9.61456 34.0379 10.5984C33.8338 11.3175 33.8338 11.3533 33.745 12.3013C34.4887 11.2352 35.3607 10.1512 36.361 9.0493C36.2403 8.09529 36.2294 7.30465 36.3281 6.67738C35.8904 7.23906 35.8608 7.27483 35.512 7.78285V7.77927ZM37.2922 5.48963C38.1763 4.65248 39.1119 3.86303 40.0991 3.12128C40.1035 3.10459 40.1035 3.09505 40.0991 3.09266C39.0593 3.78671 38.1248 4.59524 37.2889 5.48963H37.2922ZM42.4815 5.47174C44.0325 4.59405 45.579 3.79029 47.1212 3.06046C47.9855 4.17905 48.8937 5.43477 49.8458 6.82764C48.1917 7.72203 46.5179 8.67366 44.8244 9.68253C43.9798 8.15134 43.1988 6.74774 42.4815 5.47174ZM36.8776 6.04415C37.9021 5.06629 38.9946 4.14327 40.155 3.27512C40.3854 3.7569 40.7079 4.41755 41.1225 5.25709C39.7097 6.25881 38.3628 7.29511 37.0816 8.36599C36.9061 7.43105 36.8392 6.65711 36.8809 6.04415H36.8776Z" fill="#00424B"/>
<path fill-rule="evenodd" clip-rule="evenodd" d="M103.295 26.7905L113.377 2.34498L113.515 2.01227H120.317L119.991 2.80291L109.909 27.2484L109.771 27.5811H102.972L103.298 26.7905H103.295ZM90.093 27.5811H84.9267V26.2717C84.3608 26.7153 83.7125 27.091 82.9985 27.3808C81.8928 27.828 80.6391 28.0748 79.313 28.0748C75.8941 28.0748 72.8042 26.6438 70.5864 24.2361C68.4146 21.882 67.0819 18.5978 67.0819 14.8021C67.0819 11.0063 68.4146 7.72206 70.5864 5.36802C72.8042 2.96032 75.8941 1.5293 79.313 1.5293C81.5802 1.5293 83.7158 2.17684 85.5487 3.33954C87.4078 4.51298 88.9577 6.22306 90.0304 8.31593L90.3496 8.94558L89.7047 9.12804L84.1896 10.6986L83.8705 10.788L83.6599 10.509C83.1893 9.89006 82.5213 9.37847 81.7711 9.02071C80.9978 8.64865 80.1422 8.44115 79.3163 8.44115C77.6216 8.44115 76.2528 9.07795 75.3018 10.162C74.3146 11.2853 73.7684 12.9024 73.7684 14.7949C73.7684 16.6874 74.364 18.3474 75.3709 19.4529C76.4107 20.587 77.8981 21.2166 79.6388 21.2166C81.1195 21.2166 82.2219 20.8624 83.0412 20.3222C83.8079 19.8214 84.3279 19.1524 84.6832 18.4655H79.0234V12.6269H90.6162V27.5811H90.0962H90.093ZM89.8955 8.05477V8.61645H96.6708V27.5775H103.13V8.61645H110.004V2.01227H89.8955V8.05477ZM120.455 2.34498L120.317 2.01227H113.515L113.841 2.80291L123.923 27.2484L124.062 27.5811H130.863L130.534 26.7905L120.452 2.34498H120.455ZM136.701 22.3006V27.5811H130.241V2.01227H139.833C143.137 2.01227 145.799 2.96032 147.649 4.69902C149.514 6.4556 150.538 8.99567 150.538 12.1547C150.538 15.3136 149.518 17.8573 147.649 19.6139C145.803 21.3561 143.137 22.3006 139.833 22.3006H136.704H136.701Z" fill="white"/>
<path fill-rule="evenodd" clip-rule="evenodd" d="M116.918 10.2515L109.767 27.5812H124.065L116.918 10.2515Z" fill="#DACF6D"/>
<path fill-rule="evenodd" clip-rule="evenodd" d="M136.651 9.0817V15.3603H140.156C141.403 15.3603 142.384 15.0562 143.045 14.4981C143.66 13.9722 143.999 13.1995 143.999 12.2192C143.999 11.239 143.66 10.4698 143.045 9.94032C142.384 9.38222 141.403 9.07812 140.156 9.07812H136.651V9.0817Z" fill="#DACF6D"/>
<path fill-rule="evenodd" clip-rule="evenodd" d="M116.819 10.0012L113.831 2.7638L113.515 1.99463H114.292H119.794H120.12L119.804 2.7638L116.819 10.0012Z" fill="#A67F26"/>
</svg>
