<svg width="151" height="48" viewBox="0 0 151 48" fill="none" xmlns="http://www.w3.org/2000/svg">
<path d="M7.03057 36.2073C6.75087 35.7565 6.55672 35.4345 6.55014 35.4345H6.54356C6.54356 35.4345 6.33625 35.7529 6.04339 36.2144L5.45438 37.1553H3.99994L5.86241 34.3505L4.08549 31.7031H5.54651L6.11907 32.6082C6.38561 33.0125 6.61266 33.3703 6.61924 33.3703H6.62582C6.62582 33.3703 6.85617 33.0054 7.09309 32.6082L7.62945 31.7031H9.07073L7.31685 34.3505L9.13654 37.1553H7.62616L7.03057 36.2037V36.2073Z" fill="#1F3460"/>
<path d="M16.2574 35.5453C15.8856 36.6043 14.9609 37.2661 13.8717 37.2661C12.3745 37.2661 11.2722 36.1213 11.2722 34.4148C11.2722 32.7083 12.3745 31.5957 13.8717 31.5957C15.0267 31.5957 15.8724 32.2898 16.2081 33.1698L15.0202 33.5204C14.7635 33.084 14.3555 32.8264 13.8158 32.8264C12.9997 32.8264 12.4831 33.4811 12.4831 34.4327C12.4831 35.3843 13.0359 36.0283 13.8092 36.0283C14.4673 36.0283 14.8754 35.6527 15.0761 35.2019L16.2574 35.5453Z" fill="#1F3460"/>
<path d="M19.2814 31.5957C20.8148 31.5957 21.9237 32.7656 21.9237 34.4327C21.9237 36.0999 20.8115 37.2697 19.2814 37.2697C17.7513 37.2697 16.639 36.0999 16.639 34.4327C16.639 32.7656 17.7513 31.5957 19.2814 31.5957ZM19.2814 36.0283C20.1139 36.0283 20.7128 35.4058 20.7128 34.4327C20.7128 33.4596 20.1106 32.8264 19.2814 32.8264C18.4521 32.8264 17.85 33.4489 17.85 34.4327C17.85 35.4165 18.4521 36.0283 19.2814 36.0283Z" fill="#1F3460"/>
<path d="M23.7369 33.903H23.7139C23.7139 33.903 23.727 34.5792 23.727 35.2911V37.1622H22.5227V31.71H23.7402L25.8758 34.9047H25.8988C25.8988 34.9047 25.8922 34.1964 25.8922 33.6025V31.71H27.0966V37.1622H25.8725L23.7369 33.9066V33.903Z" fill="#1F3460"/>
<path d="M31.6968 37.1588C31.6968 36.8476 31.7034 36.8154 31.7034 36.776H31.6902C31.4039 37.0408 30.8577 37.2661 30.2785 37.2661C28.8801 37.2661 27.6987 36.1213 27.6987 34.422C27.6987 32.7226 28.8011 31.5957 30.2983 31.5957C31.4368 31.5957 32.3121 32.2826 32.6346 33.1698L31.4467 33.5204C31.2526 33.1698 30.8807 32.8264 30.2424 32.8264C29.4329 32.8264 28.9097 33.4811 28.9097 34.4327C28.9097 35.3843 29.4888 36.0283 30.3773 36.0283C31.065 36.0283 31.4961 35.7027 31.654 35.4666V35.209H30.3937V33.9927H32.7728V37.1552H31.6968V37.1588Z" fill="#1F3460"/>
<path d="M35.2308 35.3592H34.6944V37.1587H33.4901V31.7065H35.3953C36.6556 31.7065 37.396 32.4221 37.396 33.5526C37.396 34.3003 37.0604 34.8548 36.4516 35.1016L37.5967 37.1587H36.1719L35.2341 35.3592H35.2308ZM35.4743 34.3146C35.9185 34.3146 36.162 34.0749 36.162 33.6134C36.162 33.1519 35.9317 32.8907 35.4677 32.8907H34.6944V34.3146H35.4743Z" fill="#1F3460"/>
<path d="M38.1102 31.7031H41.7627V32.9195H39.3112V33.8532H41.1178V34.9444H39.3112V35.9425H41.7989V37.1589H38.1102V31.7067V31.7031Z" fill="#1F3460"/>
<path d="M43.441 35.4595C43.5397 35.8709 43.8918 36.1142 44.438 36.1142C44.8954 36.1142 45.1751 35.9424 45.1751 35.5918C45.1751 35.0695 44.5729 35.1017 43.9576 34.9371C43.2764 34.7583 42.4308 34.4148 42.4308 33.2628C42.4308 32.1109 43.204 31.5957 44.3294 31.5957C45.3528 31.5957 46.0833 32.0465 46.363 33.0196L45.2179 33.3559C45.0961 32.9588 44.8098 32.7405 44.3064 32.7405C43.849 32.7405 43.6548 32.9337 43.6548 33.2235C43.6548 33.6814 44.1353 33.753 44.8362 33.9104C45.5733 34.0678 46.3926 34.4077 46.3926 35.5847C46.3926 36.7617 45.6687 37.2661 44.4446 37.2661C43.5693 37.2661 42.5821 36.9764 42.2958 35.7922L43.441 35.4559V35.4595Z" fill="#1F3460"/>
<path d="M47.9325 35.4595C48.0312 35.8709 48.3833 36.1142 48.9296 36.1142C49.3869 36.1142 49.6666 35.9424 49.6666 35.5918C49.6666 35.0695 49.0645 35.1017 48.4491 34.9371C47.768 34.7583 46.9223 34.4148 46.9223 33.2628C46.9223 32.1109 47.6956 31.5957 48.821 31.5957C49.8443 31.5957 50.5748 32.0465 50.8545 33.0196L49.7094 33.3559C49.5877 32.9588 49.3014 32.7405 48.7979 32.7405C48.3405 32.7405 48.1464 32.9337 48.1464 33.2235C48.1464 33.6814 48.6268 33.753 49.3277 33.9104C50.0648 34.0678 50.8842 34.4077 50.8842 35.5847C50.8842 36.7617 50.1602 37.2661 48.9361 37.2661C48.0608 37.2661 47.0737 36.9764 46.7874 35.7922L47.9325 35.4559V35.4595Z" fill="#1F3460"/>
<path d="M53.9312 31.5957C55.4646 31.5957 56.5736 32.7656 56.5736 34.4327C56.5736 36.0999 55.4613 37.2697 53.9312 37.2697C52.4011 37.2697 51.2889 36.0999 51.2889 34.4327C51.2889 32.7656 52.4011 31.5957 53.9312 31.5957ZM53.9312 36.0283C54.7637 36.0283 55.3626 35.4058 55.3626 34.4327C55.3626 33.4596 54.7604 32.8264 53.9312 32.8264C53.102 32.8264 52.4998 33.4489 52.4998 34.4327C52.4998 35.4165 53.102 36.0283 53.9312 36.0283Z" fill="#1F3460"/>
<path d="M62.013 34.2538C62.5 34.4112 62.9245 34.8441 62.9245 35.5703C62.9245 36.411 62.3717 37.1587 61.1246 37.1587H58.9692V31.7065H61.1344C62.0361 31.7065 62.6613 32.3684 62.6613 33.1233C62.6613 33.7314 62.2894 34.1142 62.0163 34.2216V34.2538H62.013ZM60.9008 33.8638C61.2299 33.8638 61.4438 33.6456 61.4438 33.3272C61.4438 33.0088 61.2364 32.7905 60.8909 32.7905H60.167V33.8638H60.8975H60.9008ZM61.016 36.0747C61.4306 36.0747 61.6543 35.8172 61.6543 35.4523C61.6543 35.0623 61.4109 34.8298 61.016 34.8298H60.1703V36.0747H61.016Z" fill="#1F3460"/>
<path d="M65.2377 35.3592H64.7014V37.1587H63.497V31.7065H65.4023C66.6625 31.7065 67.4029 32.4221 67.4029 33.5526C67.4029 34.3003 67.0673 34.8548 66.4585 35.1016L67.6037 37.1587H66.1788L65.241 35.3592H65.2377ZM65.4812 34.3146C65.9255 34.3146 66.169 34.0749 66.169 33.6134C66.169 33.1519 65.9386 32.8907 65.4746 32.8907H64.7014V34.3146H65.4812Z" fill="#1F3460"/>
<path d="M69.4693 36.2536L69.1698 37.1587H67.903L69.8378 31.7065H71.2067L73.1481 37.1587H71.8582L71.5588 36.2536H69.4726H69.4693ZM70.802 33.9783C70.644 33.5275 70.5288 33.1841 70.5223 33.1769H70.4992C70.4992 33.1769 70.3775 33.5204 70.2195 33.9711L69.8608 35.0623H71.1573L70.7987 33.9783H70.802Z" fill="#1F3460"/>
<path d="M74.5797 35.4595C74.6784 35.8709 75.0305 36.1142 75.5767 36.1142C76.0341 36.1142 76.3138 35.9424 76.3138 35.5918C76.3138 35.0695 75.7117 35.1017 75.0963 34.9371C74.4152 34.7583 73.5695 34.4148 73.5695 33.2628C73.5695 32.1109 74.3428 31.5957 75.4682 31.5957C76.4915 31.5957 77.222 32.0465 77.5017 33.0196L76.3566 33.3559C76.2349 32.9588 75.9486 32.7405 75.4451 32.7405C74.9877 32.7405 74.7936 32.9337 74.7936 33.2235C74.7936 33.6814 75.274 33.753 75.9749 33.9104C76.712 34.0678 77.5313 34.4077 77.5313 35.5847C77.5313 36.7617 76.8074 37.2661 75.5833 37.2661C74.708 37.2661 73.7209 36.9764 73.4346 35.7922L74.5797 35.4559V35.4595Z" fill="#1F3460"/>
<path d="M78.1335 31.7031H79.3379V37.1553H78.1335V31.7031Z" fill="#1F3460"/>
<path d="M80.1374 31.7031H81.3417V35.9425H83.5925V37.1589H80.1374V31.7067V31.7031Z" fill="#1F3460"/>
<path d="M84.2144 31.7031H87.867V32.9195H85.4155V33.8532H87.222V34.9444H85.4155V35.9425H87.9032V37.1589H84.2144V31.7067V31.7031Z" fill="#1F3460"/>
<path d="M88.6075 31.7031H89.8118V37.1553H88.6075V31.7031Z" fill="#1F3460"/>
<path d="M92.3553 35.3592H91.8189V37.1587H90.6146V31.7065H92.5198C93.7801 31.7065 94.5172 32.4221 94.5172 33.5526C94.5172 34.3003 94.1816 34.8548 93.5728 35.1016L94.7179 37.1587H93.2931L92.3553 35.3592ZM92.5988 34.3146C93.043 34.3146 93.2865 34.0749 93.2865 33.6134C93.2865 33.1519 93.0562 32.8907 92.5922 32.8907H91.8189V34.3146H92.5988Z" fill="#1F3460"/>
<path d="M97.6136 31.5957C99.147 31.5957 100.256 32.7656 100.256 34.4327C100.256 36.0999 99.1437 37.2697 97.6136 37.2697C96.0835 37.2697 94.968 36.0999 94.968 34.4327C94.968 32.7656 96.0802 31.5957 97.6136 31.5957ZM97.6136 36.0283C98.4461 36.0283 99.045 35.4058 99.045 34.4327C99.045 33.4596 98.4428 32.8264 97.6136 32.8264C96.7844 32.8264 96.1789 33.4489 96.1789 34.4327C96.1789 35.4165 96.7811 36.0283 97.6136 36.0283Z" fill="#1F3460"/>
<path d="M104.784 31.7031C106.281 31.7031 107.429 32.8086 107.429 34.4543C107.429 36.1 106.274 37.1589 104.794 37.1589H102.652V31.7067H104.787L104.784 31.7031ZM104.721 35.9425C105.465 35.9425 106.219 35.5311 106.219 34.4543C106.219 33.3774 105.465 32.9195 104.721 32.9195H103.856V35.9425H104.721Z" fill="#1F3460"/>
<path d="M108.032 31.7031H111.684V32.9195H109.233V33.8532H111.039V34.9444H109.233V35.9425H111.721V37.1589H108.032V31.7067V31.7031Z" fill="#1F3460"/>
<path d="M118.012 37.1588C118.012 36.8476 118.019 36.8154 118.019 36.776H118.005C117.719 37.0408 117.173 37.2661 116.594 37.2661C115.195 37.2661 114.014 36.1213 114.014 34.422C114.014 32.7226 115.116 31.5957 116.613 31.5957C117.752 31.5957 118.627 32.2826 118.95 33.1698L117.762 33.5204C117.568 33.1698 117.196 32.8264 116.558 32.8264C115.748 32.8264 115.225 33.4811 115.225 34.4327C115.225 35.3843 115.804 36.0283 116.692 36.0283C117.38 36.0283 117.811 35.7027 117.969 35.4666V35.209H116.709V33.9927H119.088V37.1552H118.012V37.1588Z" fill="#1F3460"/>
<path d="M119.802 31.7031H123.455V32.9195H121.003V33.8532H122.81V34.9444H121.003V35.9425H123.491V37.1589H119.802V31.7067V31.7031Z" fill="#1F3460"/>
<path d="M125.133 35.4595C125.232 35.8709 125.584 36.1142 126.13 36.1142C126.587 36.1142 126.867 35.9424 126.867 35.5918C126.867 35.0695 126.265 35.1017 125.649 34.9371C124.968 34.7583 124.123 34.4148 124.123 33.2628C124.123 32.1109 124.896 31.5957 126.021 31.5957C127.045 31.5957 127.775 32.0465 128.055 33.0196L126.91 33.3559C126.788 32.9588 126.502 32.7405 125.998 32.7405C125.541 32.7405 125.347 32.9337 125.347 33.2235C125.347 33.6814 125.827 33.753 126.528 33.9104C127.265 34.0678 128.084 34.4077 128.084 35.5847C128.084 36.7617 127.361 37.2661 126.136 37.2661C125.261 37.2661 124.274 36.9764 123.988 35.7922L125.133 35.4559V35.4595Z" fill="#1F3460"/>
<path d="M131.217 32.9195V37.1589H130.013V32.9195H128.479V31.7031H132.75V32.9195H131.217Z" fill="#1F3460"/>
<path d="M133.846 36.2536L133.543 37.1587H132.277L134.211 31.7065H135.58L137.522 37.1587H136.232L135.929 36.2536H133.843H133.846ZM133.682 31.1913L133.511 30.2504C133.576 30.1646 133.833 30 134.205 30C134.672 30 134.958 30.2325 135.439 30.2325C135.712 30.2325 135.939 30.1145 136.061 30.0143L136.232 30.9552C136.166 31.0411 135.903 31.2056 135.544 31.2056C135.077 31.2056 134.784 30.9731 134.32 30.9731C134.047 30.9731 133.797 31.0804 133.682 31.1913ZM135.179 33.9782C135.021 33.5275 134.906 33.184 134.899 33.1769H134.876C134.876 33.1769 134.754 33.5203 134.596 33.9711L134.238 35.0622H135.534L135.176 33.9782H135.179Z" fill="#1F3460"/>
<path d="M140.243 31.5957C141.777 31.5957 142.886 32.7656 142.886 34.4327C142.886 36.0999 141.773 37.2697 140.243 37.2697C138.713 37.2697 137.598 36.0999 137.598 34.4327C137.598 32.7656 138.71 31.5957 140.243 31.5957ZM140.243 36.0283C141.076 36.0283 141.675 35.4058 141.675 34.4327C141.675 33.4596 141.072 32.8264 140.243 32.8264C139.414 32.8264 138.809 33.4489 138.809 34.4327C138.809 35.4165 139.411 36.0283 140.243 36.0283Z" fill="#1F3460"/>
<path d="M2.73776 42.3755V46.615H1.53341V42.3755H0V41.1592H4.27118V42.3755H2.73776Z" fill="#1F3460"/>
<path d="M6.63369 44.8158H6.09733V46.6153H4.89297V41.1631H6.79822C8.05852 41.1631 8.7989 41.8786 8.7989 43.0091C8.7989 43.7568 8.46326 44.3113 7.8545 44.5582L8.99962 46.6153H7.5748L6.63698 44.8158H6.63369ZM6.8772 43.7711C7.32142 43.7711 7.56493 43.5314 7.56493 43.0699C7.56493 42.6084 7.33459 42.3473 6.87061 42.3473H6.09733V43.7711H6.8772Z" fill="#1F3460"/>
<path d="M9.51306 41.1592H10.7174V46.6114H9.51306V41.1592Z" fill="#1F3460"/>
<path d="M14.5642 43.7064C15.0512 43.8638 15.4757 44.2967 15.4757 45.0229C15.4757 45.8637 14.9229 46.6114 13.6757 46.6114H11.5204V41.1592H13.6856C14.5872 41.1592 15.2125 41.821 15.2125 42.5759C15.2125 43.1841 14.8406 43.5669 14.5675 43.6742V43.7064H14.5642ZM13.4553 43.3164C13.7843 43.3164 13.9982 43.0982 13.9982 42.7798C13.9982 42.4614 13.7909 42.2432 13.4454 42.2432H12.7215V43.3164H13.452H13.4553ZM13.5704 45.531C13.9851 45.531 14.2088 45.2734 14.2088 44.9085C14.2088 44.5185 13.9653 44.286 13.5704 44.286H12.7248V45.531H13.5704Z" fill="#1F3460"/>
<path d="M20.3751 44.1822C20.3751 45.8243 19.4998 46.7223 18.1902 46.7223C16.8805 46.7223 16.0052 45.8279 16.0052 44.1822V41.1592H17.2228V44.1429C17.2228 45.0766 17.5518 45.4845 18.2034 45.4845C18.8549 45.4845 19.184 45.0802 19.184 44.1429V41.1592H20.3719V44.1822H20.3751Z" fill="#1F3460"/>
<path d="M23.6921 42.3755V46.615H22.4877V42.3755H20.9543V41.1592H25.2255V42.3755H23.6921Z" fill="#1F3460"/>
<path d="M26.3213 45.7103L26.0218 46.6155H24.7549L26.6898 41.1633H28.0587L30.0001 46.6155H28.7102L28.4108 45.7103H26.3246H26.3213ZM27.6539 43.435C27.496 42.9842 27.3808 42.6408 27.3742 42.6336H27.3512C27.3512 42.6336 27.2295 42.9771 27.0715 43.4279L26.7128 44.519H28.0093L27.6507 43.435H27.6539ZM26.8083 40.7411L27.6112 39.3315L28.549 39.6499L27.8744 40.7411H26.8083Z" fill="#1F3460"/>
<path d="M32.2347 44.8158H31.6983V46.6153H30.494V41.1631H32.3992C33.6595 41.1631 34.3999 41.8786 34.3999 43.0091C34.3999 43.7568 34.0642 44.3113 33.4555 44.5582L34.6006 46.6153H33.1758L32.238 44.8158H32.2347ZM32.4782 43.7711C32.9224 43.7711 33.1659 43.5314 33.1659 43.0699C33.1659 42.6084 32.9356 42.3473 32.4716 42.3473H31.6983V43.7711H32.4782Z" fill="#1F3460"/>
<path d="M35.1138 41.1592H36.3181V46.6114H35.1138V41.1592Z" fill="#1F3460"/>
<path d="M38.3813 45.7102L38.0818 46.6153H36.815L38.7498 41.1631H40.1187L42.0602 46.6153H40.7703L40.4708 45.7102H38.3846H38.3813ZM39.714 43.4348C39.556 42.9841 39.4409 42.6406 39.4343 42.6335H39.4112C39.4112 42.6335 39.2895 42.9769 39.1315 43.4277L38.7729 44.5188H40.0694L39.7107 43.4348H39.714Z" fill="#1F3460"/>
<path d="M45.5515 43.3561H45.5285C45.5285 43.3561 45.5416 44.0323 45.5416 44.7442V46.6153H44.3373V41.1631H45.5548L47.6904 44.3579H47.7134C47.7134 44.3579 47.7068 43.6495 47.7068 43.0556V41.1631H48.9112V46.6153H47.6871L45.5515 43.3597V43.3561Z" fill="#1F3460"/>
<path d="M50.9777 45.7102L50.6782 46.6153H49.4114L51.3462 41.1631H52.7151L54.6566 46.6153H53.3667L53.0672 45.7102H50.981H50.9777ZM52.3104 43.4348C52.1524 42.9841 52.0373 42.6406 52.0307 42.6335H52.0076C52.0076 42.6335 51.8859 42.9769 51.7279 43.4277L51.3693 44.5188H52.6658L52.3071 43.4348H52.3104Z" fill="#1F3460"/>
<path d="M58.1974 45.7102L57.8979 46.6153H56.631L58.5659 41.1631H59.9348L61.8762 46.6153H60.5863L60.2869 45.7102H58.2006H58.1974ZM59.53 43.4348C59.3721 42.9841 59.2569 42.6406 59.2503 42.6335H59.2273C59.2273 42.6335 59.1056 42.9769 58.9476 43.4277L58.5889 44.5188H59.8854L59.5268 43.4348H59.53Z" fill="#1F3460"/>
<path d="M64.5019 41.1592C65.9991 41.1592 67.1443 42.2646 67.1443 43.9103C67.1443 45.556 65.9893 46.615 64.5085 46.615H62.3663V41.1628H64.5019V41.1592ZM64.4394 45.3986C65.1831 45.3986 65.9366 44.9872 65.9366 43.9103C65.9366 42.8335 65.1831 42.3755 64.4394 42.3755H63.574V45.3986H64.4394Z" fill="#1F3460"/>
<path d="M71.5966 45.2809C71.5966 43.9894 71.6097 43.349 71.6097 43.3418H71.5966C71.5966 43.3418 71.3465 43.8391 71.103 44.3078L70.616 45.2666H69.9414L69.4544 44.3257C69.2043 43.8427 68.9674 43.3526 68.9608 43.3454H68.9378C68.9378 43.3454 68.9509 43.9929 68.9509 45.2844V46.6153H67.7466V41.1631H69.0233L70.2836 43.603H70.3067L71.5735 41.1631H72.7976V46.6153H71.5933V45.2844L71.5966 45.2809Z" fill="#1F3460"/>
<path d="M73.6036 41.1592H74.808V46.6114H73.6036V41.1592Z" fill="#1F3460"/>
<path d="M76.8185 43.3561H76.7955C76.7955 43.3561 76.8087 44.0323 76.8087 44.7442V46.6153H75.6043V41.1631H76.8218L78.9574 44.3579H78.9772C78.9772 44.3579 78.9706 43.6495 78.9706 43.0556V41.1631H80.1749V46.6153H78.9508L76.8152 43.3597L76.8185 43.3561Z" fill="#1F3460"/>
<path d="M80.9813 41.1592H82.1857V46.6114H80.9813V41.1592Z" fill="#1F3460"/>
<path d="M83.9264 44.916C84.0252 45.3274 84.3772 45.5707 84.9235 45.5707C85.3809 45.5707 85.6606 45.399 85.6606 45.0484C85.6606 44.5261 85.0584 44.5583 84.4431 44.3937C83.7619 44.2148 82.9162 43.8714 82.9162 42.7194C82.9162 41.5674 83.6895 41.0522 84.8149 41.0522C85.8383 41.0522 86.5688 41.503 86.8485 42.4761L85.7034 42.8124C85.5816 42.4153 85.2953 42.1971 84.7919 42.1971C84.3345 42.1971 84.1403 42.3903 84.1403 42.68C84.1403 43.138 84.6207 43.2095 85.3216 43.3669C86.0587 43.5243 86.8781 43.8642 86.8781 45.0412C86.8781 46.2182 86.1542 46.7227 84.9301 46.7227C84.0548 46.7227 83.0676 46.4329 82.7813 45.2487L83.9264 44.9124V44.916Z" fill="#1F3460"/>
<path d="M90.0106 42.3755V46.615H88.8062V42.3755H87.2728V41.1592H91.544V42.3755H90.0106Z" fill="#1F3460"/>
<path d="M93.9065 44.8158H93.3702V46.6153H92.1658V41.1631H94.0711C95.3314 41.1631 96.0685 41.8786 96.0685 43.0091C96.0685 43.7568 95.7328 44.3113 95.1241 44.5582L96.2692 46.6153H94.8444L93.9065 44.8158ZM94.1501 43.7711C94.5943 43.7711 94.8378 43.5314 94.8378 43.0699C94.8378 42.6084 94.6074 42.3473 94.1435 42.3473H93.3702V43.7711H94.1501Z" fill="#1F3460"/>
<path d="M98.1416 45.7102L97.8389 46.6153H96.572L98.5069 41.1631H99.8758L101.817 46.6153H100.527L100.225 45.7102H98.1383H98.1416ZM99.4743 43.4348C99.3164 42.9841 99.2012 42.6406 99.1946 42.6335H99.1716C99.1716 42.6335 99.0498 42.9769 98.8919 43.4277L98.5332 44.5188H99.8297L99.471 43.4348H99.4743Z" fill="#1F3460"/>
<path d="M106.881 45.0019C106.602 45.7961 106.006 46.3649 105.276 46.5975C105.427 46.7298 105.519 46.9159 105.519 47.1806C105.519 47.6886 105.183 47.9999 104.417 47.9999C104.167 47.9999 103.887 47.9605 103.759 47.9069V47.1126C103.838 47.1448 104.002 47.1735 104.232 47.1735C104.575 47.1735 104.706 47.1126 104.706 46.9946C104.706 46.8372 104.463 46.762 103.805 46.7692V46.6297C102.673 46.3327 101.899 45.2988 101.899 43.8714C101.899 42.2114 103.002 41.0522 104.499 41.0522C105.654 41.0522 106.5 41.7463 106.835 42.6264L105.647 42.977C105.391 42.5405 104.979 42.2829 104.443 42.2829C103.627 42.2829 103.11 42.9376 103.11 43.8893C103.11 44.8409 103.663 45.4848 104.436 45.4848C105.095 45.4848 105.506 45.1092 105.703 44.6584L106.885 45.0019H106.881Z" fill="#1F3460"/>
<path d="M108.602 45.7101L108.3 46.6152H107.033L108.968 41.163H110.337L112.278 46.6152H110.988L110.685 45.7101H108.599H108.602ZM108.438 40.6479L108.267 39.707C108.333 39.6211 108.589 39.4565 108.961 39.4565C109.428 39.4565 109.715 39.6891 110.195 39.6891C110.468 39.6891 110.695 39.571 110.817 39.4709L110.988 40.4118C110.922 40.4976 110.659 40.6622 110.3 40.6622C109.833 40.6622 109.54 40.4296 109.076 40.4296C108.803 40.4296 108.553 40.537 108.438 40.6479ZM109.935 43.4348C109.777 42.984 109.662 42.6406 109.655 42.6334H109.632C109.632 42.6334 109.511 42.9769 109.353 43.4276L108.994 44.5188H110.291L109.932 43.4348H109.935Z" fill="#1F3460"/>
<path d="M114.999 41.0522C116.533 41.0522 117.641 42.2221 117.641 43.8893C117.641 45.5564 116.529 46.7263 114.999 46.7263C113.469 46.7263 112.354 45.5564 112.354 43.8893C112.354 42.2221 113.466 41.0522 114.999 41.0522ZM114.999 45.4848C115.832 45.4848 116.431 44.8624 116.431 43.8893C116.431 42.9162 115.828 42.2829 114.999 42.2829C114.17 42.2829 113.564 42.9054 113.564 43.8893C113.564 44.8731 114.167 45.4848 114.999 45.4848Z" fill="#1F3460"/>
<path d="M121.906 41.1592C123.14 41.1592 123.884 41.8675 123.884 43.0374C123.884 44.2073 123.14 44.9156 121.906 44.9156H121.238V46.615H120.034V41.1628H121.903L121.906 41.1592ZM121.942 43.778C122.452 43.778 122.679 43.4882 122.679 43.0624C122.679 42.6367 122.449 42.3541 121.942 42.3541H121.242V43.778H121.942Z" fill="#1F3460"/>
<path d="M128.764 44.1827C128.764 45.8248 127.889 46.7228 126.579 46.7228C125.269 46.7228 124.394 45.8284 124.394 44.1827V41.1597H125.611V44.1434C125.611 45.0771 125.941 45.4849 126.592 45.4849C127.244 45.4849 127.573 45.0807 127.573 44.1434V41.1597H128.761V44.1827H128.764ZM126.062 40.7411L126.865 39.3315L127.796 39.6499L127.128 40.7411H126.062Z" fill="#1F3460"/>
<path d="M132.568 43.7064C133.055 43.8638 133.476 44.2967 133.476 45.0229C133.476 45.8637 132.923 46.6114 131.679 46.6114H129.524V41.1592H131.689C132.591 41.1592 133.216 41.821 133.216 42.5759C133.216 43.1841 132.844 43.5669 132.571 43.6742V43.7064H132.568ZM131.459 43.3164C131.788 43.3164 132.002 43.0982 132.002 42.7798C132.002 42.4614 131.794 42.2432 131.449 42.2432H130.725V43.3164H131.455H131.459ZM131.574 45.531C131.989 45.531 132.212 45.2734 132.212 44.9085C132.212 44.5185 131.969 44.286 131.574 44.286H130.728V45.531H131.574Z" fill="#1F3460"/>
<path d="M134.052 41.1592H135.256V45.3986H137.507V46.615H134.052V41.1628V41.1592Z" fill="#1F3460"/>
<path d="M138.129 41.1592H139.333V46.6114H138.129V41.1592Z" fill="#1F3460"/>
<path d="M144.921 45.0019C144.549 46.0608 143.624 46.7227 142.535 46.7227C141.038 46.7227 139.935 45.5779 139.935 43.8714C139.935 42.1649 141.038 41.0522 142.535 41.0522C143.69 41.0522 144.536 41.7463 144.871 42.6264L143.683 42.977C143.427 42.5405 143.015 42.2829 142.479 42.2829C141.663 42.2829 141.146 42.9376 141.146 43.8893C141.146 44.8409 141.699 45.4848 142.472 45.4848C143.13 45.4848 143.542 45.1092 143.739 44.6584L144.921 45.0019Z" fill="#1F3460"/>
<path d="M146.638 45.7102L146.336 46.6153H145.069L147.004 41.1631H148.372L150.314 46.6153H149.024L148.721 45.7102H146.635H146.638ZM147.971 43.4348C147.813 42.9841 147.698 42.6406 147.691 42.6335H147.668C147.668 42.6335 147.547 42.9769 147.389 43.4277L147.03 44.5188H148.326L147.968 43.4348H147.971Z" fill="#1F3460"/>
<path d="M17.133 22.5711C15.8299 20.4639 14.9283 18.9757 14.8954 18.9757H14.8625C14.8296 18.9757 13.8918 20.4639 12.5229 22.6069L9.78183 27.0001H2.99994L11.6838 13.9241L3.40468 1.58154H10.2195L12.8914 5.79591C14.1287 7.68486 15.1948 9.35559 15.2277 9.35559H15.2607C15.3265 9.35559 16.3301 7.64909 17.4324 5.79591L19.9366 1.58154H26.6494L18.4657 13.9313L26.9521 27.0073H19.9037L17.1297 22.5783L17.133 22.5711Z" fill="#1F3460"/>
<path fill-rule="evenodd" clip-rule="evenodd" d="M28.5216 21.0519C28.5216 21.0519 28.5216 21.0519 28.5216 21.0591C28.5216 21.0591 28.5216 21.0627 28.5216 21.0662C28.8342 22.44 29.3114 23.7888 29.9629 25.0838C29.9695 25.0671 29.9914 25.0421 30.0287 25.0087C29.4342 23.654 28.9275 22.2957 28.5085 20.9339C28.5085 20.9983 28.5085 21.0018 28.5183 21.0555L28.5216 21.0519ZM28.5479 20.6226C28.8616 20.0287 29.3421 19.3514 29.9892 18.5906C30.6298 20.2219 31.3438 21.8652 32.1314 23.5204C31.3175 24.0714 30.6682 24.5245 30.1834 24.8799C29.5538 23.4632 29.0086 22.0453 28.5479 20.6262V20.6226ZM30.5256 18.0504C31.1991 19.7199 31.9438 21.4001 32.7599 23.0911C33.9708 22.2922 35.298 21.4264 36.7415 20.4938C35.807 18.6526 34.924 16.8352 34.0926 15.0416C32.7785 16.0934 31.5895 17.0963 30.5256 18.0504ZM34.9909 14.369C36.5638 13.2505 38.1882 12.1366 39.8643 11.0276C40.8317 12.8402 41.8254 14.697 42.8455 16.5979C41.0905 17.7093 39.3794 18.7981 37.7122 19.8642C36.7601 18.0038 35.853 16.1721 34.9909 14.369ZM40.9271 10.3586C41.9099 12.1593 42.9146 14.0077 43.9413 15.9038C45.6985 14.7995 47.4183 13.7251 49.1009 12.6804C48.0721 10.863 47.0421 9.10645 46.0111 7.41068C44.346 8.34085 42.6514 9.32349 40.9271 10.3586ZM47.0015 6.89194C48.4867 6.17165 49.8742 5.54319 51.1641 5.00656C52.1754 6.46382 53.1626 7.99621 54.1256 9.60373C52.8884 10.3526 51.5392 11.1755 50.0782 12.0722C49.0538 10.2811 48.0271 8.55431 46.9982 6.89194H47.0015ZM57.0049 7.9652C57.0707 7.93658 57.0707 7.93658 57.1003 7.94016C56.3764 6.69159 55.5241 5.57539 54.5732 4.60587C54.5732 4.60587 54.5732 4.60587 54.5699 4.60587C54.5304 4.56652 54.5238 4.56652 54.4777 4.53074C55.3662 5.59686 56.2097 6.74287 57.0082 7.96878L57.0049 7.9652ZM51.865 4.77044C52.8632 6.17762 53.8339 7.65753 54.7772 9.2102C55.6196 8.71649 56.3029 8.32773 56.8272 8.04391C56.0046 6.76314 55.1358 5.55631 54.2211 4.42342C54.096 4.42342 53.9874 4.42342 53.8887 4.42342C53.2372 4.42342 53.0792 4.46277 51.8683 4.77044H51.865ZM43.4543 2.10158C44.3362 3.17962 45.2663 4.39599 46.2447 5.75069C47.7255 5.0805 49.1097 4.5057 50.3974 4.02631C49.3927 2.90057 48.4033 1.91435 47.4293 1.06766C46.1855 1.3014 44.8616 1.64723 43.4576 2.10516L43.4543 2.10158ZM51.0983 3.82239C50.087 2.74673 49.0932 1.8118 48.117 1.01758C49.1207 1.08913 49.1536 1.09271 49.9269 1.32525C50.6607 1.66154 51.3714 2.05865 52.0559 2.513C52.714 2.99597 52.7568 3.03532 53.5037 3.69002C52.85 3.61608 52.0482 3.6602 51.0983 3.82239Z" fill="#0B4583"/>
<path fill-rule="evenodd" clip-rule="evenodd" d="M38.8807 21.283C39.9096 23.098 40.9385 24.8522 41.9673 26.5455C43.6389 25.613 45.3325 24.628 47.048 23.5905C46.0652 21.7922 45.0605 19.9449 44.0338 18.0488C42.2766 19.1555 40.5589 20.2323 38.8807 21.2794V21.283ZM54.4353 20.1739C55.0474 21.76 55.5695 23.2339 56.0016 24.5958C57.059 23.4963 57.9881 22.417 58.7888 21.3581C58.5847 20.0201 58.2776 18.6022 57.8674 17.1044C56.8495 18.0798 55.7066 19.1018 54.4386 20.1703L54.4353 20.1739ZM58.3709 16.5463C58.9676 15.7282 59.3975 14.9936 59.6608 14.3425C59.822 15.3692 59.8286 15.4265 59.8911 16.2815C59.924 17.1509 59.8911 18.0202 59.8023 18.8824C59.6114 19.7231 59.5983 19.7553 59.1606 20.7356C59.0005 19.4262 58.7372 18.031 58.3709 16.5498V16.5463ZM45.1328 17.3619C46.8856 16.2434 48.5945 15.1498 50.2596 14.0813C51.2182 15.944 52.1275 17.7769 52.9875 19.58C51.419 20.6939 49.7956 21.8077 48.1174 22.9215C47.15 21.1112 46.1562 19.2581 45.1361 17.3619H45.1328ZM51.2369 13.4552C52.6782 12.5203 54.0032 11.6545 55.2119 10.8579C56.028 12.5489 56.7749 14.228 57.4528 15.8951C56.3888 16.8492 55.2009 17.8497 53.8891 18.8967C53.0555 17.1103 52.1714 15.2965 51.2369 13.4552ZM55.8404 10.4286C56.628 12.0815 57.3431 13.7248 57.9859 15.3585C58.633 14.5977 59.1112 13.9144 59.4206 13.3086C58.9599 11.8895 58.4158 10.4763 57.7884 9.06916C57.3014 9.42453 56.6521 9.87769 55.8404 10.4286ZM57.9365 8.94394C57.9924 8.89028 57.9924 8.89028 58.0023 8.86523C58.6539 10.1603 59.131 11.5091 59.4469 12.8864V12.8936C59.4568 12.9508 59.4568 12.958 59.46 13.0188C59.0389 11.6569 58.531 10.2998 57.9365 8.94752V8.94394Z" fill="#1E6FB6"/>
<path fill-rule="evenodd" clip-rule="evenodd" d="M33.1482 8.66486C33.622 10.0291 34.1847 11.5042 34.8362 13.0903C36.3675 11.9789 37.9568 10.871 39.6043 9.76675C38.7904 8.21408 38.0435 6.78902 37.3634 5.49156C35.8936 6.5219 34.4896 7.58085 33.1515 8.66843L33.1482 8.66486ZM28.7191 19.9306C28.7191 19.9306 28.7191 19.9306 28.7191 19.927C28.7191 19.927 28.7191 19.9234 28.7191 19.9199C28.7191 19.9199 28.7191 19.927 28.7191 19.9306ZM29.6009 12.5966C30.406 11.5305 31.3384 10.4477 32.3979 9.34817C32.8257 10.7172 33.3456 12.1923 33.9577 13.7736C32.6897 14.8397 31.5457 15.8653 30.5256 16.8503C30.1154 15.3382 29.8071 13.9203 29.6009 12.5966ZM47.8373 0.615341C48.5119 0.686892 48.5678 0.694047 49.0878 0.833572C48.3145 0.5581 47.5182 0.350601 46.712 0.203921C47.1957 0.332713 47.245 0.354178 47.8406 0.615341H47.8373ZM28.5085 16.0489V17.8341C28.5611 18.5425 28.5808 18.6606 28.7256 19.6015C28.9911 18.948 29.4221 18.2193 30.0188 17.4156C29.6503 15.9345 29.3881 14.5333 29.2324 13.2119C28.7947 14.1922 28.7783 14.2208 28.5874 15.0723C28.5545 15.3978 28.5249 15.7234 28.5085 16.0489ZM36.6197 2.07856C36.6197 2.07856 36.6362 2.07499 36.6461 2.09287C37.7385 1.52285 38.8332 1.02915 39.9301 0.611763C38.8014 0.955209 37.6892 1.44176 36.6197 2.07856ZM36.7415 2.21809C38.0226 1.55028 39.3027 0.97429 40.5816 0.490126C41.0949 0.750096 41.6894 1.19252 42.3651 1.8174C40.8734 2.49714 39.3729 3.25916 37.8636 4.10346C37.3985 3.29494 37.0245 2.66648 36.7415 2.21809ZM28.7947 13.6377C28.956 12.7683 29.1797 11.9169 29.4627 11.0833C29.3278 11.602 29.3212 11.6557 29.2423 12.3462C28.9626 13.0331 28.9362 13.0939 28.7947 13.6377ZM43.4214 0H44.9054C45.1522 0.0107327 45.399 0.032198 45.6458 0.0572409C46.3368 0.221809 46.3665 0.236119 47.1562 0.622496C45.9299 0.794219 44.629 1.08042 43.2536 1.48111C42.545 0.899161 41.9132 0.499666 41.3582 0.282627C42.0262 0.14668 42.0788 0.139525 42.6185 0.0643959C42.885 0.0357754 43.1548 0.0143102 43.4247 0H43.4214ZM31.3384 7.20163C30.7625 8.09245 30.2722 9.03692 29.8642 10.0208C29.6602 10.7398 29.6602 10.7756 29.5713 11.7237C30.315 10.6576 31.187 9.57356 32.1873 8.47167C32.0667 7.51765 32.0557 6.72701 32.1544 6.09974C31.7168 6.66142 31.6872 6.6972 31.3384 7.20521V7.20163ZM33.1186 4.91199C34.0026 4.07484 34.9383 3.28539 35.9254 2.54365C35.9298 2.52695 35.9298 2.51741 35.9254 2.51503C34.8856 3.20907 33.9511 4.0176 33.1153 4.91199H33.1186ZM38.3078 4.89411C39.8588 4.01641 41.4053 3.21265 42.9475 2.48283C43.8119 3.60141 44.7201 4.85714 45.6721 6.25C44.0181 7.14439 42.3443 8.09602 40.6507 9.1049C39.8061 7.5737 39.0252 6.1701 38.3078 4.89411ZM32.7039 5.46652C33.7284 4.48865 34.8209 3.56564 35.9814 2.69748C36.2117 3.17926 36.5342 3.83992 36.9488 4.67945C35.536 5.68117 34.1891 6.71747 32.908 7.78835C32.7325 6.85342 32.6656 6.07947 32.7072 5.46652H32.7039Z" fill="#1F3460"/>
<path fill-rule="evenodd" clip-rule="evenodd" d="M99.1212 26.2128L109.204 1.76734L109.342 1.43463H116.143L115.818 2.22527L105.735 26.6708L105.597 27.0035H98.7987L99.1245 26.2128H99.1212ZM85.9194 27.0035H80.7532V25.6941C80.1872 26.1377 79.5389 26.5133 78.8249 26.8031C77.7192 27.2503 76.4655 27.4972 75.1394 27.4972C71.7205 27.4972 68.6306 26.0661 66.4128 23.6584C64.241 21.3044 62.9083 18.0202 62.9083 14.2244C62.9083 10.4286 64.241 7.14442 66.4128 4.79038C68.6306 2.38269 71.7205 0.95166 75.1394 0.95166C77.4066 0.95166 79.5422 1.5992 81.3751 2.76191C83.2343 3.93535 84.7841 5.64542 85.8568 7.7383L86.176 8.36795L85.5311 8.5504L80.0161 10.121L79.6969 10.2104L79.4863 9.93134C79.0157 9.31242 78.3477 8.80083 77.5975 8.44308C76.8242 8.07101 75.9687 7.86351 75.1427 7.86351C73.4481 7.86351 72.0792 8.50032 71.1282 9.58432C70.141 10.7077 69.5948 12.3247 69.5948 14.2173C69.5948 16.1098 70.1904 17.7698 71.1973 18.8752C72.2371 20.0093 73.7245 20.639 75.4652 20.639C76.946 20.639 78.0483 20.2848 78.8677 19.7446C79.6344 19.2437 80.1543 18.5747 80.5096 17.8878H74.8499V12.0493H86.4426V27.0035H85.9227H85.9194ZM85.7219 7.47713V8.03881H92.4973V26.9999H98.9567V8.03881H105.831V1.43463H85.7219V7.47713ZM116.282 1.76734L116.143 1.43463H109.342L109.668 2.22527L119.75 26.6708L119.888 27.0035H126.69L126.361 26.2128L116.278 1.76734H116.282ZM132.527 21.723V27.0035H126.068V1.43463H135.66C138.964 1.43463 141.626 2.38269 143.475 4.12138C145.341 5.87796 146.364 8.41803 146.364 11.577C146.364 14.736 145.344 17.2797 143.475 19.0362C141.629 20.7785 138.964 21.723 135.66 21.723H132.53H132.527Z" fill="#1F3460"/>
<path fill-rule="evenodd" clip-rule="evenodd" d="M112.744 9.67383L105.594 27.0035H119.891L112.744 9.67383Z" fill="#DACF6D"/>
<path fill-rule="evenodd" clip-rule="evenodd" d="M132.478 8.50407V14.7827H135.982C137.23 14.7827 138.21 14.4786 138.872 13.9205C139.487 13.3946 139.826 12.6218 139.826 11.6416C139.826 10.6613 139.487 9.89216 138.872 9.36268C138.21 8.80458 137.23 8.50049 135.982 8.50049H132.478V8.50407Z" fill="#DACF6D"/>
<path fill-rule="evenodd" clip-rule="evenodd" d="M112.645 9.42358L109.658 2.18617L109.342 1.41699H110.118H115.62H115.946L115.63 2.18617L112.645 9.42358Z" fill="#A67F26"/>
</svg>
