<svg width="19" height="18" viewBox="0 0 19 18" fill="none" xmlns="http://www.w3.org/2000/svg">
<path d="M1 1H6.184C7.10059 1 7.97964 1.36411 8.62776 2.01224C9.27589 2.66036 9.64 3.53941 9.64 4.456V16.552C9.64 15.8646 9.36692 15.2053 8.88082 14.7192C8.39473 14.2331 7.73544 13.96 7.048 13.96H1V1Z" stroke="#E5E5E5" stroke-linecap="round" stroke-linejoin="round"/>
<path d="M18.28 1H13.096C12.1794 1 11.3004 1.36411 10.6523 2.01224C10.0041 2.66036 9.64001 3.53941 9.64001 4.456V16.552C9.64001 15.8646 9.9131 15.2053 10.3992 14.7192C10.8853 14.2331 11.5446 13.96 12.232 13.96H18.28V1Z" stroke="#E5E5E5" stroke-linecap="round" stroke-linejoin="round"/>
</svg>
