<svg width="21" height="20" viewBox="0 0 21 20" fill="none" xmlns="http://www.w3.org/2000/svg">
<path d="M7.91197 19.1441C8.38915 19.1441 8.77597 18.7573 8.77597 18.2801C8.77597 17.8029 8.38915 17.4161 7.91197 17.4161C7.4348 17.4161 7.04797 17.8029 7.04797 18.2801C7.04797 18.7573 7.4348 19.1441 7.91197 19.1441Z" stroke="#E5E5E5" stroke-linecap="round" stroke-linejoin="round"/>
<path d="M17.416 19.1441C17.8931 19.1441 18.28 18.7573 18.28 18.2801C18.28 17.8029 17.8931 17.4161 17.416 17.4161C16.9388 17.4161 16.552 17.8029 16.552 18.2801C16.552 18.7573 16.9388 19.1441 17.416 19.1441Z" stroke="#E5E5E5" stroke-linecap="round" stroke-linejoin="round"/>
<path d="M1 1.00003H4.456L6.77152 12.569C6.85053 12.9668 7.06693 13.3241 7.38284 13.5784C7.69875 13.8327 8.09404 13.9678 8.49952 13.96H16.8976C17.3031 13.9678 17.6984 13.8327 18.0143 13.5784C18.3302 13.3241 18.5466 12.9668 18.6256 12.569L20.008 5.32003H5.32" stroke="#E5E5E5" stroke-linecap="round" stroke-linejoin="round"/>
</svg>
