<svg width="21" height="25" viewBox="0 0 21 25" fill="none" xmlns="http://www.w3.org/2000/svg">
<path fill-rule="evenodd" clip-rule="evenodd" d="M4.02178 0L5.06113 2.57947C2.00828 4.63927 0 8.12963 0 12.0888C0 18.4195 5.13351 23.553 11.4642 23.553C13.3466 23.553 15.1234 23.0985 16.6903 22.2939L18.278 24.5095L16.5957 20.8666C15.0895 21.7494 13.3355 22.2561 11.4642 22.2561C5.8501 22.2561 1.29691 17.7029 1.29691 12.0895C1.29691 8.38589 3.27911 5.1446 6.23937 3.36713L4.02178 0Z" fill="#E5E5E5"/>
<path d="M9.13246 3.13119C8.4965 3.35288 7.86207 3.61674 7.22916 3.92276C7.22568 3.91755 7.2209 3.91537 7.21481 3.91624C7.8349 3.57588 8.47716 3.31506 9.13246 3.13119ZM3.06849 8.73938C2.99024 9.0165 2.98763 9.04584 2.94003 9.41555C2.77768 9.7833 2.76398 9.81525 2.68183 10.1067C2.77507 9.64181 2.90482 9.18473 3.06849 8.73938ZM4.15544 6.66003C4.35757 6.38682 4.37387 6.36856 4.62686 6.06797C4.57035 6.40486 4.57709 6.82847 4.64708 7.3388C4.06763 7.92781 3.56252 8.50813 3.13173 9.07975C3.18194 8.57181 3.18325 8.5542 3.30061 8.16885C3.536 7.64265 3.82159 7.13667 4.15544 6.66003ZM4.94506 5.73087C5.53885 5.20837 6.17155 4.71434 6.84315 4.24878C6.9766 4.50656 7.16308 4.8604 7.4026 5.3103C6.58407 5.84585 5.80358 6.40073 5.06112 6.97496C4.95897 6.47333 4.92006 6.05863 4.94441 5.73087H4.94506ZM7.28653 3.99057C8.02812 3.63239 8.76927 3.32441 9.50999 3.06663C9.80775 3.20617 10.1522 3.4433 10.5435 3.77801C9.67887 4.14185 8.8097 4.54916 7.93597 4.99993C7.66646 4.56741 7.44998 4.23096 7.28653 3.99057ZM9.95925 2.95513C10.3466 2.88276 10.3772 2.87689 10.6882 2.83777C11.2744 2.77974 11.8619 2.77908 12.4442 2.83451C12.8432 2.92188 12.8608 2.92971 13.3186 3.1351C12.6087 3.22856 11.8549 3.38244 11.0573 3.59674C10.6474 3.28507 10.2816 3.07098 9.9599 2.95448L9.95925 2.95513ZM14.4381 3.24986C14.1382 3.17618 14.1049 3.17292 13.713 3.13379C13.3681 2.99295 13.3394 2.98252 13.0603 2.9134C13.5279 2.99034 13.9882 3.10315 14.4381 3.24986ZM2.63488 13.4706C2.63488 13.4706 2.63488 13.4725 2.63488 13.4732C2.63488 13.4732 2.63488 13.4738 2.63488 13.4752C2.63488 13.4752 2.63358 13.4719 2.63358 13.4706H2.63488ZM2.56055 10.8729C2.67335 10.419 2.68118 10.4034 2.93482 9.87654C3.02524 10.5838 3.17694 11.3338 3.38994 12.1267C3.04393 12.5575 2.79441 12.9476 2.6414 13.2971C2.55012 12.7533 2.54555 12.7253 2.50708 12.2519C2.48947 11.7896 2.50708 11.3286 2.56055 10.8729ZM3.14934 9.54791C3.61577 8.97672 4.15565 8.39728 4.76901 7.80957C5.01765 8.54247 5.3189 9.33209 5.67274 10.1784C4.93723 10.7488 4.27433 11.298 3.68401 11.8261C3.44667 11.0167 3.26845 10.2573 3.14934 9.54791ZM5.20457 7.44378C5.98006 6.86172 6.79337 6.29532 7.6445 5.74456C8.03834 6.43964 8.47173 7.20252 8.94467 8.03322C7.98922 8.62441 7.0681 9.21755 6.18133 9.81264C5.80445 8.96455 5.47886 8.17493 5.20457 7.44378ZM8.19417 5.42376C9.09225 4.95342 9.98794 4.52329 10.8812 4.13337C11.382 4.73281 11.9088 5.40528 12.4618 6.15078C11.5033 6.62982 10.5333 7.13906 9.55172 7.67851C9.06226 6.85825 8.60974 6.10666 8.19417 5.42376ZM11.4153 3.93515C12.2286 3.69085 12.996 3.50589 13.7176 3.38026C14.2823 3.83452 14.8556 4.36311 15.4377 4.96603C14.6926 5.22293 13.8906 5.53069 13.0317 5.88931C12.4657 5.16381 11.9269 4.51264 11.4153 3.9358V3.93515ZM14.1167 3.3581C14.6989 3.39591 14.7172 3.39722 15.1645 3.52176C15.5896 3.70237 16.003 3.91494 16.3981 4.1588C16.7802 4.41701 16.8044 4.43722 17.2373 4.78802C16.8578 4.7489 16.3931 4.77237 15.8433 4.85844C15.2573 4.28291 14.6815 3.78279 14.116 3.3581H14.1167ZM2.76398 14.0887C2.76398 14.0887 2.76398 14.0861 2.76398 14.0848C2.76398 14.0835 2.76398 14.0829 2.76398 14.0815C2.75877 14.0522 2.75877 14.0502 2.75746 14.015C3.00046 14.7445 3.29431 15.4717 3.63902 16.1968C3.61816 16.2155 3.60512 16.2294 3.5999 16.2385C3.22302 15.5454 2.94656 14.8229 2.76464 14.0881L2.76398 14.0887ZM2.77898 13.852C2.96025 13.5338 3.23823 13.1711 3.61294 12.7638C3.98417 13.6375 4.39778 14.5171 4.85377 15.4026C4.38343 15.6973 4.00742 15.9394 3.72574 16.129C3.36017 15.3708 3.04436 14.6119 2.77833 13.852H2.77898ZM3.92266 12.4743C4.53992 11.9631 5.22913 11.4262 5.99028 10.8637C6.47105 11.824 6.98247 12.797 7.52453 13.7829C6.68948 14.2828 5.92073 14.7462 5.21826 15.1731C4.74575 14.2672 4.31388 13.3676 3.92266 12.4743ZM6.51126 10.5045C7.42194 9.90588 8.36305 9.31013 9.33459 8.71721C9.89535 9.68701 10.4711 10.6807 11.0618 11.6983C10.046 12.2934 9.05465 12.8764 8.08789 13.4471C7.53496 12.4517 7.00963 11.471 6.51191 10.5051L6.51126 10.5045ZM9.95142 8.35729C10.949 7.80305 11.9306 7.27664 12.896 6.77805C13.4929 7.68569 14.0895 8.62614 14.6859 9.59942C13.7122 10.1593 12.7161 10.7348 11.6976 11.326C11.1025 10.3106 10.5204 9.321 9.95142 8.35729ZM13.4705 6.50288C14.3312 6.11601 15.1358 5.77934 15.8843 5.49287C16.4699 6.27315 17.0419 7.09342 17.6005 7.95367C16.8833 8.35446 16.1017 8.79502 15.2558 9.27536C14.662 8.31643 14.0669 7.39205 13.4705 6.50223V6.50288ZM16.2886 5.36507C16.8276 5.23901 17.2825 5.1775 17.6533 5.18055C18.1841 5.78608 18.6877 6.43225 19.1641 7.11906C18.8598 7.27121 18.4636 7.47964 17.9754 7.74437C17.4295 6.9115 16.8672 6.11862 16.2886 5.36573V5.36507ZM17.8 5.23467C17.8274 5.25227 17.8307 5.25423 17.8541 5.27444C17.8541 5.27509 17.8561 5.27575 17.8561 5.2764C18.4084 5.79607 18.902 6.39269 19.3206 7.06168C19.3056 7.06103 19.3043 7.06168 19.2658 7.07472C18.8033 6.41834 18.3147 5.80477 17.8 5.23401V5.23467ZM3.88941 16.7367C3.90027 16.7367 3.92049 16.7347 3.95004 16.7308C4.40908 17.382 4.89637 17.9927 5.41192 18.563C5.38258 18.5441 5.38062 18.5428 5.3578 18.5239C5.3578 18.5239 5.35649 18.5226 5.35519 18.5219C5.35519 18.5213 5.35389 18.5206 5.35258 18.5193C4.80161 18.0003 4.30867 17.4043 3.89006 16.7367H3.88941ZM4.04785 16.6793C4.35127 16.5263 4.74858 16.3198 5.23978 16.0598C5.78271 16.8879 6.34629 17.6799 6.93052 18.4359C6.38759 18.5585 5.93268 18.6208 5.5658 18.623C5.03417 18.0179 4.52819 17.37 4.04785 16.6793ZM5.61405 15.8486C6.33043 15.4474 7.11135 15.0057 7.95683 14.5236C8.54975 15.48 9.14615 16.4032 9.74603 17.2935C8.88229 17.6799 8.07615 18.0164 7.32761 18.3029C6.74208 17.523 6.17089 16.7049 5.61405 15.8486ZM8.52606 14.1989C9.49804 13.6369 10.4933 13.0602 11.5118 12.4691C12.1068 13.4832 12.6891 14.4721 13.2586 15.4358C12.2644 15.9905 11.2833 16.5176 10.3153 17.017C9.71756 16.1094 9.12094 15.1702 8.52541 14.1996L8.52606 14.1989ZM12.1475 12.0974C13.1629 11.5006 14.1534 10.9152 15.1188 10.3414C15.6735 11.3391 16.1997 12.3208 16.6974 13.2867C15.7889 13.8827 14.8482 14.4791 13.8754 15.0759C13.3151 14.1065 12.7391 13.1137 12.1475 12.0974ZM15.6835 10.0083C16.5181 9.50792 17.2862 9.04432 17.9878 8.61745C18.4603 9.52248 18.8926 10.4216 19.2847 11.3149C18.6683 11.8261 17.9802 12.3615 17.2204 12.9209C16.7383 11.9646 16.2262 10.9937 15.6842 10.0083H15.6835ZM18.3517 8.38728C18.8211 8.09212 19.1971 7.84935 19.4797 7.65895C19.8435 8.41184 20.1591 9.16799 20.4264 9.9274C20.2465 10.2521 19.9694 10.6181 19.5951 11.0254C19.2234 10.1508 18.8092 9.27145 18.3523 8.38728H18.3517ZM19.5671 7.59179C19.5884 7.57353 19.6014 7.55962 19.6062 7.55006C19.9837 8.24318 20.2602 8.96694 20.4421 9.70245C20.4421 9.7031 20.4421 9.70505 20.4421 9.70571C20.4427 9.70571 20.4427 9.70571 20.4427 9.70571C20.4486 9.7357 20.4486 9.73961 20.4506 9.77221C20.2067 9.0428 19.9122 8.31556 19.5671 7.59049V7.59179ZM5.9818 19.0149C6.36129 19.0536 6.8238 19.0279 7.36934 18.9379C7.95531 19.5135 8.5341 20.0138 9.10573 20.4389C8.5228 20.4024 8.50454 20.4011 8.05333 20.2766C7.63081 20.0986 7.22133 19.8873 6.8275 19.6461C6.43171 19.38 6.41084 19.3624 5.9818 19.0142V19.0149ZM7.77491 18.831C8.52432 18.5758 9.32807 18.2679 10.1862 17.9071C10.7495 18.6313 11.2894 19.2816 11.8058 19.858C10.9925 20.104 10.2225 20.2898 9.49565 20.4155C8.93576 19.9634 8.36197 19.4352 7.77426 18.831H7.77491ZM10.756 17.6436C11.7102 17.1637 12.6791 16.653 13.6628 16.1113C14.154 16.9307 14.6057 17.683 15.0178 18.3681C14.1201 18.8384 13.2271 19.2685 12.3385 19.6584C11.8369 19.0603 11.3094 18.3887 10.756 17.6436ZM14.2699 15.7566C15.2223 15.1668 16.1425 14.5721 17.0306 13.9727C17.4084 14.8203 17.735 15.6095 18.0106 16.3402C17.2325 16.9266 16.4181 17.4954 15.5674 18.0466C15.1767 17.3498 14.7441 16.5865 14.2699 15.7566ZM17.5386 13.6056C18.2732 13.0335 18.9354 12.486 19.5253 11.9631C19.7635 12.7659 19.942 13.5251 20.0607 14.2406C19.5964 14.807 19.058 15.3845 18.4455 15.9731C18.1947 15.2441 17.8926 14.4549 17.5392 13.6056H17.5386ZM19.8181 11.6618C20.1632 11.225 20.4121 10.8316 20.5647 10.4816C20.6573 11.0307 20.6612 11.0626 20.6997 11.5197C20.7179 11.9852 20.701 12.4501 20.6481 12.9105C20.5373 13.3604 20.5295 13.378 20.2758 13.9029C20.1841 13.2013 20.0315 12.4541 19.8181 11.6612V11.6618ZM8.77971 20.5472C9.07508 20.6189 9.10899 20.6222 9.50934 20.6626C9.85492 20.8028 9.881 20.8132 10.1607 20.8817C9.69191 20.8067 9.23027 20.6932 8.77971 20.5472ZM9.89535 20.66C10.6052 20.5661 11.3587 20.4113 12.156 20.1957C12.5668 20.5074 12.9325 20.7215 13.2534 20.838C12.8713 20.9104 12.8432 20.9149 12.5244 20.9554C11.9375 21.014 11.3494 21.0134 10.7684 20.9599C10.3785 20.8732 10.3609 20.866 9.8947 20.66H9.89535ZM12.6769 20.0138C13.5416 19.6487 14.4081 19.2414 15.2766 18.7919C15.5505 19.2214 15.7668 19.5576 15.9254 19.8006C15.1903 20.157 14.4498 20.4655 13.7039 20.7258C13.4057 20.5854 13.0634 20.3479 12.6769 20.0132V20.0138ZM15.81 18.4809C16.6311 17.941 17.4127 17.3835 18.1547 16.8084C18.2538 17.3139 18.2912 17.731 18.2669 18.0596C17.6787 18.5782 17.0461 19.0723 16.3688 19.5417C16.2401 19.2813 16.0539 18.9277 15.81 18.4809ZM18.5642 16.4511C19.1432 15.8616 19.6479 15.2809 20.0783 14.7088C20.032 15.207 20.03 15.2259 19.9107 15.6145C19.6733 16.1466 19.3851 16.6571 19.0487 17.139C18.8524 17.403 18.8348 17.4252 18.5844 17.7219C18.6405 17.385 18.6338 16.9614 18.5642 16.4511ZM20.2732 14.3652C20.4317 14.0046 20.4454 13.9733 20.5262 13.6838C20.4336 14.1441 20.3058 14.5986 20.1448 15.04C20.2217 14.7629 20.2263 14.7336 20.2739 14.3645L20.2732 14.3652ZM14.0893 20.6587C14.7244 20.4357 15.356 20.1725 15.9841 19.8691C15.9919 19.8712 15.9965 19.873 15.9978 19.8743C15.381 20.214 14.7407 20.4741 14.0886 20.6587H14.0893ZM16.4008 19.6258C16.9728 19.2281 17.5136 18.8054 18.023 18.3576C17.5412 18.8362 16.9987 19.2685 16.3988 19.6408C16.4031 19.6361 16.404 19.6313 16.4014 19.6265L16.4008 19.6258ZM6.81446 4.15032C6.81446 4.15032 6.81641 4.15293 6.81185 4.16532C6.23936 4.56263 5.69751 4.98537 5.18631 5.43354C5.66882 4.95429 6.21132 4.52199 6.81381 4.15032H6.81446Z" fill="#E5E5E5"/>
</svg>
