<svg width="21" height="18" viewBox="0 0 21 18" fill="none" xmlns="http://www.w3.org/2000/svg">
<path d="M14.824 16.5521V14.8241C14.824 13.9075 14.4599 13.0284 13.8118 12.3803C13.1636 11.7322 12.2846 11.3681 11.368 11.3681H4.456C3.53941 11.3681 2.66036 11.7322 2.01224 12.3803C1.36411 13.0284 1 13.9075 1 14.8241V16.5521" stroke="#E5E5E5" stroke-linecap="round" stroke-linejoin="round"/>
<path d="M7.91199 7.91206C9.82069 7.91206 11.368 6.36476 11.368 4.45606C11.368 2.54736 9.82069 1.00006 7.91199 1.00006C6.0033 1.00006 4.45599 2.54736 4.45599 4.45606C4.45599 6.36476 6.0033 7.91206 7.91199 7.91206Z" stroke="#E5E5E5" stroke-linecap="round" stroke-linejoin="round"/>
<path d="M20.008 16.552V14.824C20.0074 14.0582 19.7526 13.3144 19.2834 12.7092C18.8143 12.104 18.1574 11.6717 17.416 11.4803" stroke="#E5E5E5" stroke-linecap="round" stroke-linejoin="round"/>
<path d="M13.96 1.11227C14.7034 1.30261 15.3623 1.73496 15.8328 2.34115C16.3034 2.94734 16.5588 3.6929 16.5588 4.46027C16.5588 5.22765 16.3034 5.97321 15.8328 6.5794C15.3623 7.18559 14.7034 7.61793 13.96 7.80827" stroke="#E5E5E5" stroke-linecap="round" stroke-linejoin="round"/>
</svg>
