<svg width="21" height="18" viewBox="0 0 21 18" fill="none" xmlns="http://www.w3.org/2000/svg">
<path d="M20.008 14.824C20.008 15.2823 19.8259 15.7218 19.5019 16.0459C19.1778 16.3699 18.7383 16.552 18.28 16.552H2.728C2.26971 16.552 1.83018 16.3699 1.50612 16.0459C1.18206 15.7218 1 15.2823 1 14.824V5.32C1 4.86171 1.18206 4.42218 1.50612 4.09812C1.83018 3.77406 2.26971 3.592 2.728 3.592H6.184L7.912 1H13.096L14.824 3.592H18.28C18.7383 3.592 19.1778 3.77406 19.5019 4.09812C19.8259 4.42218 20.008 4.86171 20.008 5.32V14.824Z" stroke="#E5E5E5" stroke-linecap="round" stroke-linejoin="round"/>
<path d="M10.504 13.0959C12.4127 13.0959 13.96 11.5486 13.96 9.63993C13.96 7.73123 12.4127 6.18393 10.504 6.18393C8.59531 6.18393 7.048 7.73123 7.048 9.63993C7.048 11.5486 8.59531 13.0959 10.504 13.0959Z" stroke="#E5E5E5" stroke-linecap="round" stroke-linejoin="round"/>
</svg>
