<svg width="351" height="114" viewBox="0 0 351 114" fill="none" xmlns="http://www.w3.org/2000/svg">
<g clip-path="url(#clip0_544_3153)">
<path fill-rule="evenodd" clip-rule="evenodd" d="M38.4087 49.6621C38.4087 49.6621 38.4087 49.6621 38.4087 49.6788C38.4087 49.6788 38.4087 49.6871 38.4087 49.6955C39.1386 52.9034 40.2528 56.0529 41.7742 59.0771C41.7896 59.0381 41.8408 58.9796 41.9279 58.9016C40.5397 55.7382 39.3563 52.5665 38.3779 49.3864C38.3779 49.5368 38.3779 49.5451 38.401 49.6704L38.4087 49.6621ZM38.4701 48.6596C39.2027 47.2728 40.3245 45.6911 41.8357 43.9145C43.3315 47.7239 44.9989 51.5612 46.8379 55.4264C44.9374 56.7129 43.4211 57.7711 42.289 58.6009C40.8188 55.2927 39.5459 51.9817 38.4701 48.668V48.6596ZM43.0882 42.6531C44.6608 46.5516 46.3999 50.4752 48.3055 54.4239C51.1332 52.5582 54.2324 50.5365 57.603 48.3589C55.4208 44.0593 53.359 39.8155 51.4175 35.6273C48.3491 38.0834 45.5726 40.4253 43.0882 42.6531ZM53.5152 34.0568C57.1881 31.4447 60.9814 28.8438 64.8951 26.2541C67.1541 30.4868 69.4747 34.8225 71.8567 39.2613C67.7586 41.8566 63.763 44.399 59.8698 46.8885C57.6466 42.5444 55.5284 38.2672 53.5152 34.0568ZM67.377 24.6919C69.6719 28.8968 72.018 33.213 74.4154 37.6406C78.5186 35.062 82.5347 32.553 86.4638 30.1137C84.0613 25.8698 81.6562 21.768 79.2486 17.8082C75.3605 19.9802 71.4033 22.2748 67.377 24.6919ZM81.5614 16.5968C85.0294 14.9149 88.2695 13.4474 91.2816 12.1943C93.6431 15.5971 95.9483 19.1754 98.1971 22.9292C95.3079 24.678 92.1575 26.5994 88.7459 28.6935C86.3536 24.5109 83.9563 20.4787 81.5538 16.5968H81.5614ZM104.92 19.103C105.074 19.0362 105.074 19.0362 105.143 19.0446C103.453 16.129 101.463 13.5226 99.2421 11.2586C99.2421 11.2586 99.2421 11.2586 99.2344 11.2586C99.1422 11.1667 99.1268 11.1667 99.0193 11.0832C101.094 13.5727 103.064 16.2487 104.928 19.1114L104.92 19.103ZM92.9182 11.6429C95.249 14.9288 97.5158 18.3846 99.7185 22.0102C101.686 20.8574 103.281 19.9496 104.506 19.2868C102.585 16.2961 100.556 13.478 98.4199 10.8326C98.1279 10.8326 97.8744 10.8326 97.6438 10.8326C96.1224 10.8326 95.7536 10.9244 92.9259 11.6429H92.9182ZM73.2782 5.41079C75.3375 7.92813 77.5095 10.7685 79.7941 13.9319C83.2519 12.3669 86.4843 11.0247 89.4912 9.90526C87.1451 7.27652 84.8348 4.97359 82.5603 2.99647C79.6558 3.54227 76.5643 4.34983 73.2859 5.41914L73.2782 5.41079ZM91.1279 9.42908C88.7664 6.9173 86.4458 4.73411 84.1663 2.87952C86.5099 3.0466 86.5867 3.05495 88.3924 3.59796C90.1059 4.38324 91.7657 5.31054 93.3639 6.3715C94.9007 7.4993 95.0006 7.59119 96.7448 9.11998C95.2183 8.94733 93.346 9.05036 91.1279 9.42908Z" fill="#2B8C8D"/>
<path fill-rule="evenodd" clip-rule="evenodd" d="M62.5986 50.2011C65.0011 54.4393 67.4036 58.5356 69.8061 62.4898C73.7096 60.3122 77.6642 58.0121 81.6701 55.5894C79.3752 51.3901 77.029 47.0767 74.6316 42.649C70.5284 45.2332 66.5174 47.7478 62.5986 50.1927V50.2011ZM98.9204 47.6113C100.35 51.3149 101.569 54.7568 102.578 57.9369C105.047 55.3694 107.216 52.8493 109.086 50.3765C108.61 47.2521 107.893 43.9411 106.935 40.4436C104.558 42.7214 101.889 45.1079 98.9281 47.603L98.9204 47.6113ZM108.11 39.1403C109.504 37.23 110.508 35.5147 111.122 33.9942C111.499 36.3919 111.514 36.5255 111.66 38.5221C111.737 40.5522 111.66 42.5822 111.453 44.5955C111.007 46.5587 110.976 46.6339 109.955 48.9229C109.581 45.8653 108.966 42.6073 108.11 39.1487V39.1403ZM77.198 41.045C81.291 38.433 85.2815 35.8795 89.1696 33.3844C91.4081 37.7341 93.5315 42.0141 95.5395 46.2245C91.8769 48.8254 88.0861 51.4263 84.1673 54.0272C81.9083 49.8001 79.5877 45.4727 77.2057 41.045H77.198ZM91.4517 31.9224C94.8172 29.7393 97.9113 27.7176 100.734 25.8574C102.639 29.8061 104.384 33.7269 105.967 37.6199C103.482 39.8476 100.708 42.184 97.6449 44.6289C95.6983 40.4575 93.6339 36.222 91.4517 31.9224ZM102.201 24.8549C104.04 28.7145 105.71 32.5518 107.211 36.3668C108.723 34.5902 109.839 32.9945 110.562 31.5799C109.486 28.2662 108.215 24.9663 106.75 21.6804C105.613 22.5102 104.097 23.5684 102.201 24.8549ZM107.096 21.388C107.227 21.2627 107.227 21.2627 107.25 21.2042C108.771 24.2284 109.885 27.3779 110.623 30.5942V30.6109C110.646 30.7445 110.646 30.7612 110.654 30.9033C109.67 27.7232 108.484 24.5542 107.096 21.3964V21.388Z" fill="#C6E6EF"/>
<path fill-rule="evenodd" clip-rule="evenodd" d="M49.2122 20.7369C50.3187 23.9226 51.6327 27.3672 53.1541 31.0708C56.7296 28.4755 60.441 25.8885 64.288 23.3099C62.3875 19.6843 60.6433 16.3566 59.0553 13.3269C55.6232 15.7328 52.3447 18.2056 49.2199 20.7452L49.2122 20.7369ZM38.8697 47.0437C38.8697 47.0437 38.8697 47.0437 38.8697 47.0354C38.8697 47.0354 38.8697 47.027 38.8697 47.0187C38.8697 47.0187 38.8697 47.0354 38.8697 47.0437ZM40.929 29.918C42.809 27.4285 44.9861 24.9 47.4603 22.3325C48.4592 25.5293 49.6733 28.974 51.1025 32.6664C48.1416 35.1559 45.4702 37.5508 43.0882 39.8509C42.1302 36.3199 41.4105 33.0089 40.929 29.918ZM83.5131 1.94031C85.0883 2.10739 85.219 2.1241 86.433 2.44991C84.6273 1.80665 82.7678 1.32211 80.8853 0.979597C82.0148 1.28034 82.13 1.33047 83.5208 1.94031H83.5131ZM38.3779 37.9796V42.1483C38.5009 43.8024 38.547 44.078 38.8851 46.2752C39.5049 44.7491 40.5115 43.0477 41.9048 41.1708C41.0442 37.7123 40.4321 34.4403 40.0684 31.3549C39.0464 33.6439 39.008 33.7107 38.5623 35.699C38.4855 36.4592 38.4163 37.2194 38.3779 37.9796ZM57.3187 5.35711C57.3187 5.35711 57.3572 5.34876 57.3802 5.39053C59.9313 4.05945 62.4874 2.90659 65.0487 1.93196C62.4132 2.73394 59.816 3.87009 57.3187 5.35711ZM57.603 5.68292C60.5946 4.1235 63.5837 2.7785 66.5702 1.64792C67.7688 2.25498 69.1571 3.28809 70.7348 4.74726C67.2515 6.33453 63.7476 8.11394 60.2233 10.0855C59.1373 8.19748 58.2639 6.72996 57.603 5.68292ZM39.0464 32.349C39.4229 30.319 39.9454 28.3307 40.6063 26.3842C40.2912 27.5955 40.2759 27.7209 40.0914 29.3332C39.4383 30.9372 39.3768 31.0792 39.0464 32.349ZM73.2014 0.503418H76.6668C77.2431 0.52848 77.8194 0.578604 78.3957 0.637082C80.0093 1.02137 80.0784 1.05478 81.9226 1.95702C79.0591 2.35801 76.0214 3.02634 72.8095 3.96199C71.1549 2.60306 69.6796 1.6702 68.3836 1.16339C69.9434 0.845933 70.0663 0.829225 71.3265 0.65379C71.9489 0.586958 72.579 0.536834 73.209 0.503418H73.2014ZM44.9861 17.3201C43.6414 19.4002 42.4965 21.6057 41.5437 23.9031C41.0673 25.5822 41.0673 25.6658 40.8598 27.8796C42.5964 25.3901 44.6326 22.8588 46.9685 20.2858C46.6868 18.058 46.6612 16.2118 46.8917 14.747C45.8697 16.0586 45.8006 16.1422 44.9861 17.3284V17.3201ZM49.1431 11.9735C51.2075 10.0187 53.3923 8.1752 55.6974 6.44313C55.7077 6.40415 55.7077 6.38187 55.6974 6.3763C53.2693 7.99698 51.0871 9.88499 49.1354 11.9735H49.1431ZM61.2606 11.9317C64.8823 9.88221 68.4937 8.00534 72.0949 6.30112C74.1132 8.91314 76.2339 11.8454 78.4571 15.0979C74.5947 17.1864 70.6862 19.4086 66.7315 21.7644C64.7593 18.1889 62.9357 14.9113 61.2606 11.9317ZM48.1749 13.2684C50.5672 10.9849 53.1182 8.8296 55.8281 6.80236C56.3659 7.92737 57.119 9.47008 58.0871 11.4305C54.7882 13.7696 51.6429 16.1895 48.6513 18.6901C48.2415 16.507 48.0853 14.6997 48.1826 13.2684H48.1749Z" fill="#00424B"/>
<path fill-rule="evenodd" clip-rule="evenodd" d="M203.268 61.7136L226.812 4.63055L227.135 3.85362H243.017L242.256 5.69987L218.713 62.7829L218.39 63.5599H202.515L203.276 61.7136H203.268ZM172.441 63.5599H160.377V60.5023C159.055 61.5382 157.541 62.4154 155.874 63.092C153.292 64.1363 150.365 64.7127 147.268 64.7127C139.285 64.7127 132.069 61.3711 126.89 55.7489C121.819 50.2519 118.707 42.5829 118.707 33.7193C118.707 24.8557 121.819 17.1867 126.89 11.6897C132.069 6.06744 139.285 2.72583 147.268 2.72583C152.562 2.72583 157.549 4.23791 161.829 6.95297C166.17 9.69309 169.79 13.6863 172.295 18.5734L173.04 20.0437L171.534 20.4698L158.656 24.1372L157.91 24.3461L157.419 23.6944C156.32 22.2492 154.76 21.0546 153.008 20.2192C151.202 19.3504 149.204 18.8658 147.276 18.8658C143.319 18.8658 140.122 20.3528 137.901 22.8841C135.596 25.5073 134.321 29.2833 134.321 33.7026C134.321 38.1219 135.712 41.9981 138.063 44.5795C140.491 47.2277 143.964 48.6981 148.029 48.6981C151.487 48.6981 154.061 47.871 155.974 46.6096C157.764 45.44 158.978 43.8778 159.808 42.2738H146.592V28.64H173.662V63.5599H172.448H172.441ZM171.979 17.9636V19.2752H187.801V63.5515H202.884V19.2752H218.936V3.85362H171.979V17.9636ZM243.34 4.63055L243.017 3.85362H227.135L227.895 5.69987L251.439 62.7829L251.761 63.5599H267.644L266.876 61.7136L243.332 4.63055H243.34ZM281.275 51.2293V63.5599H266.192V3.85362H288.59C296.305 3.85362 302.521 6.06744 306.84 10.1275C311.196 14.2293 313.586 20.1607 313.586 27.5373C313.586 34.9139 311.204 40.8536 306.84 44.9554C302.529 49.0239 296.305 51.2293 288.59 51.2293H281.283H281.275Z" fill="white"/>
<path fill-rule="evenodd" clip-rule="evenodd" d="M235.08 23.0931L218.383 63.5601H251.769L235.08 23.0931Z" fill="#DACF6D"/>
<path fill-rule="evenodd" clip-rule="evenodd" d="M281.16 20.3616V35.0229H289.344C292.256 35.0229 294.546 34.3129 296.09 33.0096C297.527 31.7816 298.318 29.9771 298.318 27.6881C298.318 25.3991 297.527 23.603 296.09 22.3666C294.546 21.0634 292.256 20.3533 289.344 20.3533H281.16V20.3616Z" fill="#DACF6D"/>
<path fill-rule="evenodd" clip-rule="evenodd" d="M234.85 22.5082L227.873 5.60801L227.136 3.81189H228.949H241.797H242.557L241.82 5.60801L234.85 22.5082Z" fill="#A67F26"/>
<path d="M44.0913 84.7462C43.223 87.219 41.0638 88.7645 38.5205 88.7645C35.0243 88.7645 32.4502 86.0912 32.4502 82.1063C32.4502 78.1214 35.0243 75.5233 38.5205 75.5233C41.2175 75.5233 43.1923 77.144 43.976 79.1991L41.2022 80.0178C40.6028 78.9986 39.65 78.3971 38.3898 78.3971C36.4842 78.3971 35.2779 79.9259 35.2779 82.1481C35.2779 84.3702 36.5688 85.874 38.3745 85.874C39.9113 85.874 40.8641 84.9968 41.3328 83.9442L44.0913 84.7462Z" fill="white"/>
<path d="M51.1506 75.5233C54.7313 75.5233 57.3208 78.2551 57.3208 82.1481C57.3208 86.041 54.7237 88.7728 51.1506 88.7728C47.5776 88.7728 44.9805 86.041 44.9805 82.1481C44.9805 78.2551 47.5776 75.5233 51.1506 75.5233ZM51.1506 85.874C53.0947 85.874 54.4931 84.4204 54.4931 82.1481C54.4931 79.8758 53.087 78.3971 51.1506 78.3971C49.2143 78.3971 47.8081 79.8507 47.8081 82.1481C47.8081 84.4454 49.2143 85.874 51.1506 85.874Z" fill="white"/>
<path d="M61.5561 80.9113H61.5023C61.5023 80.9113 61.533 82.4902 61.533 84.1527V88.5218H58.7207V75.7903H61.5637L66.5506 83.2504H66.6044C66.6044 83.2504 66.589 81.5963 66.589 80.2096V75.7903H69.4013V88.5218H66.5429L61.5561 80.9197V80.9113Z" fill="white"/>
<path d="M80.1426 88.5138C80.1426 87.787 80.1579 87.7118 80.1579 87.6199H80.1272C79.4587 88.2381 78.1832 88.7645 76.8308 88.7645C73.5652 88.7645 70.8066 86.0912 70.8066 82.123C70.8066 78.1548 73.3807 75.5233 76.8769 75.5233C79.5356 75.5233 81.5795 77.1273 82.3325 79.1991L79.5586 80.0178C79.1053 79.1991 78.237 78.3971 76.7463 78.3971C74.8561 78.3971 73.6343 79.9259 73.6343 82.1481C73.6343 84.3702 74.9867 85.874 77.0613 85.874C78.6673 85.874 79.6739 85.1137 80.0427 84.5624V83.9609H77.0998V81.1205H82.6552V88.5055H80.1426V88.5138Z" fill="white"/>
<path d="M88.3958 84.3116H87.1434V88.5136H84.3311V75.7821H88.78C91.723 75.7821 93.4518 77.4529 93.4518 80.0928C93.4518 81.8388 92.6681 83.1336 91.2466 83.7101L93.9206 88.5136H90.5934L88.4035 84.3116H88.3958ZM88.9644 81.8722C90.0018 81.8722 90.5704 81.3125 90.5704 80.2348C90.5704 79.1571 90.0325 78.5473 88.9491 78.5473H87.1434V81.8722H88.9644Z" fill="white"/>
<path d="M95.1191 75.7742H103.648V78.6145H97.9238V80.7949H102.142V83.3429H97.9238V85.6737H103.733V88.5141H95.1191V75.7825V75.7742Z" fill="white"/>
<path d="M107.569 84.5457C107.799 85.5064 108.621 86.0745 109.897 86.0745C110.965 86.0745 111.618 85.6735 111.618 84.8548C111.618 83.6351 110.212 83.7103 108.775 83.326C107.184 82.9083 105.21 82.1063 105.21 79.4163C105.21 76.7263 107.015 75.5233 109.643 75.5233C112.033 75.5233 113.739 76.5759 114.392 78.8482L111.718 79.6335C111.434 78.7062 110.765 78.1966 109.589 78.1966C108.521 78.1966 108.068 78.6477 108.068 79.3244C108.068 80.3937 109.19 80.5608 110.827 80.9284C112.548 81.296 114.461 82.0896 114.461 84.8381C114.461 87.5865 112.771 88.7645 109.912 88.7645C107.868 88.7645 105.563 88.0878 104.895 85.3226L107.569 84.5373V84.5457Z" fill="white"/>
<path d="M118.054 84.5457C118.284 85.5064 119.107 86.0745 120.382 86.0745C121.45 86.0745 122.103 85.6735 122.103 84.8548C122.103 83.6351 120.697 83.7103 119.26 83.326C117.67 82.9083 115.695 82.1063 115.695 79.4163C115.695 76.7263 117.501 75.5233 120.129 75.5233C122.518 75.5233 124.224 76.5759 124.877 78.8482L122.203 79.6335C121.919 78.7062 121.25 78.1966 120.075 78.1966C119.007 78.1966 118.553 78.6477 118.553 79.3244C118.553 80.3937 119.675 80.5608 121.312 80.9284C123.033 81.296 124.946 82.0896 124.946 84.8381C124.946 87.5865 123.256 88.7645 120.397 88.7645C118.354 88.7645 116.048 88.0878 115.38 85.3226L118.054 84.5373V84.5457Z" fill="white"/>
<path d="M132.065 75.5233C135.645 75.5233 138.235 78.2551 138.235 82.1481C138.235 86.041 135.638 88.7728 132.065 88.7728C128.492 88.7728 125.895 86.041 125.895 82.1481C125.895 78.2551 128.492 75.5233 132.065 75.5233ZM132.065 85.874C134.009 85.874 135.407 84.4204 135.407 82.1481C135.407 79.8758 134.001 78.3971 132.065 78.3971C130.128 78.3971 128.722 79.8507 128.722 82.1481C128.722 84.4454 130.128 85.874 132.065 85.874Z" fill="white"/>
<path d="M150.934 81.7302C152.071 82.0978 153.062 83.1086 153.062 84.8045C153.062 86.7677 151.771 88.5136 148.859 88.5136H143.826V75.7821H148.882C150.988 75.7821 152.448 77.3276 152.448 79.0903C152.448 80.5105 151.579 81.4044 150.941 81.655V81.7302H150.934ZM148.337 80.8196C149.105 80.8196 149.604 80.31 149.604 79.5665C149.604 78.823 149.12 78.3134 148.314 78.3134H146.623V80.8196H148.329H148.337ZM148.606 85.9824C149.574 85.9824 150.096 85.3809 150.096 84.5288C150.096 83.6182 149.528 83.0752 148.606 83.0752H146.631V85.9824H148.606Z" fill="white"/>
<path d="M158.465 84.3116H157.213V88.5136H154.4V75.7821H158.849C161.792 75.7821 163.521 77.4529 163.521 80.0928C163.521 81.8388 162.737 83.1336 161.316 83.7101L163.99 88.5136H160.663L158.473 84.3116H158.465ZM159.034 81.8722C160.071 81.8722 160.64 81.3125 160.64 80.2348C160.64 79.1571 160.102 78.5473 159.018 78.5473H157.213V81.8722H159.034Z" fill="white"/>
<path d="M168.347 86.4001L167.648 88.5136H164.689L169.208 75.7821H172.404L176.938 88.5136H173.926L173.226 86.4001H168.355H168.347ZM171.459 81.0869C171.09 80.0343 170.821 79.2323 170.806 79.2156H170.752C170.752 79.2156 170.468 80.0176 170.099 81.0702L169.261 83.6182H172.289L171.451 81.0869H171.459Z" fill="white"/>
<path d="M180.279 84.5457C180.51 85.5064 181.332 86.0745 182.608 86.0745C183.676 86.0745 184.329 85.6735 184.329 84.8548C184.329 83.6351 182.923 83.7103 181.486 83.326C179.895 82.9083 177.921 82.1063 177.921 79.4163C177.921 76.7263 179.726 75.5233 182.354 75.5233C184.744 75.5233 186.45 76.5759 187.103 78.8482L184.429 79.6335C184.144 78.7062 183.476 78.1966 182.3 78.1966C181.232 78.1966 180.779 78.6477 180.779 79.3244C180.779 80.3937 181.901 80.5608 183.537 80.9284C185.259 81.296 187.172 82.0896 187.172 84.8381C187.172 87.5865 185.481 88.7645 182.623 88.7645C180.579 88.7645 178.274 88.0878 177.605 85.3226L180.279 84.5373V84.5457Z" fill="white"/>
<path d="M188.579 75.7742H191.391V88.5057H188.579V75.7742Z" fill="white"/>
<path d="M193.258 75.7742H196.07V85.6737H201.326V88.5141H193.258V75.7825V75.7742Z" fill="white"/>
<path d="M202.778 75.7742H211.307V78.6145H205.583V80.7949H209.801V83.3429H205.583V85.6737H211.392V88.5141H202.778V75.7825V75.7742Z" fill="white"/>
<path d="M213.036 75.7742H215.848V88.5057H213.036V75.7742Z" fill="white"/>
<path d="M221.787 84.3116H220.535V88.5136H217.723V75.7821H222.172C225.115 75.7821 226.836 77.4529 226.836 80.0928C226.836 81.8388 226.052 83.1336 224.63 83.7101L227.304 88.5136H223.977L221.787 84.3116ZM222.356 81.8722C223.393 81.8722 223.962 81.3125 223.962 80.2348C223.962 79.1571 223.424 78.5473 222.341 78.5473H220.535V81.8722H222.356Z" fill="white"/>
<path d="M234.067 75.5233C237.647 75.5233 240.237 78.2551 240.237 82.1481C240.237 86.041 237.64 88.7728 234.067 88.7728C230.494 88.7728 227.889 86.041 227.889 82.1481C227.889 78.2551 230.486 75.5233 234.067 75.5233ZM234.067 85.874C236.011 85.874 237.409 84.4204 237.409 82.1481C237.409 79.8758 236.003 78.3971 234.067 78.3971C232.13 78.3971 230.716 79.8507 230.716 82.1481C230.716 84.4454 232.123 85.874 234.067 85.874Z" fill="white"/>
<path d="M250.809 75.7742C254.305 75.7742 256.987 78.3556 256.987 82.1984C256.987 86.0413 254.29 88.5141 250.832 88.5141H245.83V75.7825H250.817L250.809 75.7742ZM250.663 85.6737C252.4 85.6737 254.159 84.713 254.159 82.1984C254.159 79.6839 252.4 78.6145 250.663 78.6145H248.642V85.6737H250.663Z" fill="white"/>
<path d="M258.396 75.7742H266.925V78.6145H261.2V80.7949H265.419V83.3429H261.2V85.6737H267.009V88.5141H258.396V75.7825V75.7742Z" fill="white"/>
<path d="M281.698 88.5138C281.698 87.787 281.714 87.7118 281.714 87.6199H281.683C281.014 88.2381 279.739 88.7645 278.386 88.7645C275.121 88.7645 272.362 86.0912 272.362 82.123C272.362 78.1548 274.936 75.5233 278.433 75.5233C281.091 75.5233 283.135 77.1273 283.888 79.1991L281.114 80.0178C280.661 79.1991 279.793 78.3971 278.302 78.3971C276.412 78.3971 275.19 79.9259 275.19 82.1481C275.19 84.3702 276.542 85.874 278.617 85.874C280.223 85.874 281.23 85.1137 281.598 84.5624V83.9609H278.655V81.1205H284.211V88.5055H281.698V88.5138Z" fill="white"/>
<path d="M285.879 75.7742H294.408V78.6145H288.684V80.7949H292.902V83.3429H288.684V85.6737H294.493V88.5141H285.879V75.7825V75.7742Z" fill="white"/>
<path d="M298.326 84.5457C298.557 85.5064 299.379 86.0745 300.655 86.0745C301.723 86.0745 302.376 85.6735 302.376 84.8548C302.376 83.6351 300.97 83.7103 299.533 83.326C297.942 82.9083 295.967 82.1063 295.967 79.4163C295.967 76.7263 297.773 75.5233 300.401 75.5233C302.791 75.5233 304.497 76.5759 305.15 78.8482L302.476 79.6335C302.191 78.7062 301.523 78.1966 300.347 78.1966C299.279 78.1966 298.826 78.6477 298.826 79.3244C298.826 80.3937 299.948 80.5608 301.584 80.9284C303.306 81.296 305.219 82.0896 305.219 84.8381C305.219 87.5865 303.528 88.7645 300.67 88.7645C298.626 88.7645 296.321 88.0878 295.652 85.3226L298.326 84.5373V84.5457Z" fill="white"/>
<path d="M312.536 78.6145V88.5141H309.723V78.6145H306.143V75.7742H316.116V78.6145H312.536Z" fill="white"/>
<path d="M318.674 86.3998L317.967 88.5134H315.009L319.527 75.7819H322.723L327.257 88.5134H324.245L323.538 86.3998H318.666H318.674ZM318.29 74.5789L317.89 72.3818C318.044 72.1813 318.643 71.797 319.512 71.797C320.603 71.797 321.271 72.34 322.393 72.34C323.031 72.34 323.561 72.0643 323.845 71.8304L324.245 74.0275C324.091 74.228 323.476 74.6123 322.639 74.6123C321.548 74.6123 320.864 74.0693 319.78 74.0693C319.143 74.0693 318.559 74.3199 318.29 74.5789ZM321.786 81.0867C321.417 80.0341 321.148 79.2321 321.133 79.2154H321.079C321.079 79.2154 320.795 80.0174 320.426 81.07L319.588 83.6179H322.616L321.778 81.0867H321.786Z" fill="white"/>
<path d="M333.612 75.5233C337.193 75.5233 339.783 78.2551 339.783 82.1481C339.783 86.041 337.185 88.7728 333.612 88.7728C330.039 88.7728 327.435 86.041 327.435 82.1481C327.435 78.2551 330.032 75.5233 333.612 75.5233ZM333.612 85.874C335.556 85.874 336.955 84.4204 336.955 82.1481C336.955 79.8758 335.549 78.3971 333.612 78.3971C331.676 78.3971 330.262 79.8507 330.262 82.1481C330.262 84.4454 331.668 85.874 333.612 85.874Z" fill="white"/>
<path d="M6.393 100.443V110.342H3.5807V100.443H0V97.6025H9.9737V100.443H6.393Z" fill="white"/>
<path d="M15.4896 106.141H14.2371V110.343H11.4248V97.6113H15.8738C18.8167 97.6113 20.5456 99.2821 20.5456 101.922C20.5456 103.668 19.7618 104.963 18.3403 105.539L21.0143 110.343H17.6872L15.4973 106.141H15.4896ZM16.0582 103.701C17.0955 103.701 17.6641 103.142 17.6641 102.064C17.6641 100.986 17.1263 100.377 16.0428 100.377H14.2371V103.701H16.0582Z" fill="white"/>
<path d="M22.2129 97.6025H25.0252V110.334H22.2129V97.6025Z" fill="white"/>
<path d="M34.01 103.551C35.1472 103.918 36.1384 104.929 36.1384 106.625C36.1384 108.588 34.8475 110.334 31.9353 110.334H26.9023V97.6025H31.9583C34.0637 97.6025 35.5237 99.148 35.5237 100.911C35.5237 102.331 34.6554 103.225 34.0176 103.475V103.551H34.01ZM31.4205 102.64C32.1889 102.64 32.6883 102.13 32.6883 101.387C32.6883 100.643 32.2042 100.134 31.3974 100.134H29.707V102.64H31.4128H31.4205ZM31.6894 107.811C32.6576 107.811 33.1801 107.21 33.1801 106.358C33.1801 105.447 32.6115 104.904 31.6894 104.904H29.7147V107.811H31.6894Z" fill="white"/>
<path d="M47.5773 104.662C47.5773 108.496 45.5333 110.593 42.4752 110.593C39.417 110.593 37.373 108.505 37.373 104.662V97.6025H40.2161V104.57C40.2161 106.75 40.9845 107.703 42.5059 107.703C44.0273 107.703 44.7957 106.759 44.7957 104.57V97.6025H47.5696V104.662H47.5773Z" fill="white"/>
<path d="M55.3237 100.443V110.342H52.5114V100.443H48.9307V97.6025H58.9044V100.443H55.3237Z" fill="white"/>
<path d="M61.4632 108.229L60.764 110.343H57.8057L62.3238 97.6112H65.5203L70.0538 110.343H67.0417L66.3425 108.229H61.4709H61.4632ZM64.5752 102.916C64.2063 101.863 63.9374 101.061 63.922 101.045H63.8683C63.8683 101.045 63.584 101.847 63.2151 102.899L62.3776 105.447H65.405L64.5675 102.916H64.5752ZM62.6004 96.6255L64.4753 93.334L66.6652 94.0775L65.09 96.6255H62.6004Z" fill="white"/>
<path d="M75.2728 106.141H74.0203V110.343H71.208V97.6113H75.657C78.5999 97.6113 80.3288 99.2821 80.3288 101.922C80.3288 103.668 79.545 104.963 78.1235 105.539L80.7975 110.343H77.4704L75.2805 106.141H75.2728ZM75.8414 103.701C76.8787 103.701 77.4473 103.142 77.4473 102.064C77.4473 100.986 76.9095 100.377 75.826 100.377H74.0203V103.701H75.8414Z" fill="white"/>
<path d="M81.9932 97.6025H84.8055V110.334H81.9932V97.6025Z" fill="white"/>
<path d="M89.6263 108.229L88.9271 110.343H85.9688L90.4869 97.6113H93.6834L98.2169 110.343H95.2048L94.5056 108.229H89.634H89.6263ZM92.7383 102.916C92.3694 101.864 92.1005 101.062 92.0851 101.045H92.0313C92.0313 101.045 91.747 101.847 91.3782 102.899L90.5407 105.447H93.5681L92.7306 102.916H92.7383Z" fill="white"/>
<path d="M106.368 102.732H106.314C106.314 102.732 106.345 104.311 106.345 105.974V110.343H103.532V97.6113H106.375L111.362 105.071H111.416C111.416 105.071 111.401 103.417 111.401 102.031V97.6113H114.213V110.343H111.354L106.368 102.741V102.732Z" fill="white"/>
<path d="M119.037 108.229L118.338 110.343H115.38L119.898 97.6113H123.095L127.628 110.343H124.616L123.917 108.229H119.045H119.037ZM122.149 102.916C121.781 101.864 121.512 101.062 121.496 101.045H121.442C121.442 101.045 121.158 101.847 120.789 102.899L119.952 105.447H122.979L122.142 102.916H122.149Z" fill="white"/>
<path d="M135.898 108.229L135.199 110.343H132.24L136.758 97.6113H139.955L144.488 110.343H141.476L140.777 108.229H135.905H135.898ZM139.01 102.916C138.641 101.864 138.372 101.062 138.357 101.045H138.303C138.303 101.045 138.019 101.847 137.65 102.899L136.812 105.447H139.84L139.002 102.916H139.01Z" fill="white"/>
<path d="M150.62 97.6025C154.116 97.6025 156.79 100.184 156.79 104.027C156.79 107.87 154.093 110.342 150.635 110.342H145.633V97.6109H150.62V97.6025ZM150.474 107.502C152.21 107.502 153.97 106.541 153.97 104.027C153.97 101.512 152.21 100.443 150.474 100.443H148.453V107.502H150.474Z" fill="white"/>
<path d="M167.185 107.227C167.185 104.211 167.216 102.716 167.216 102.699H167.185C167.185 102.699 166.601 103.86 166.033 104.955L164.896 107.193H163.32L162.183 104.996C161.599 103.868 161.046 102.724 161.031 102.707H160.977C160.977 102.707 161.008 104.219 161.008 107.235V110.343H158.195V97.6113H161.177L164.12 103.309H164.173L167.132 97.6113H169.99V110.343H167.178V107.235L167.185 107.227Z" fill="white"/>
<path d="M171.873 97.6025H174.685V110.334H171.873V97.6025Z" fill="white"/>
<path d="M179.381 102.732H179.327C179.327 102.732 179.358 104.311 179.358 105.974V110.343H176.546V97.6113H179.389L184.376 105.071H184.422C184.422 105.071 184.407 103.417 184.407 102.031V97.6113H187.219V110.343H184.36L179.374 102.741L179.381 102.732Z" fill="white"/>
<path d="M189.102 97.6025H191.914V110.334H189.102V97.6025Z" fill="white"/>
<path d="M195.978 106.375C196.208 107.335 197.03 107.904 198.306 107.904C199.374 107.904 200.027 107.503 200.027 106.684C200.027 105.464 198.621 105.539 197.184 105.155C195.594 104.737 193.619 103.935 193.619 101.245C193.619 98.5554 195.424 97.3524 198.052 97.3524C200.442 97.3524 202.148 98.405 202.801 100.677L200.127 101.463C199.843 100.535 199.174 100.026 197.999 100.026C196.931 100.026 196.477 100.477 196.477 101.154C196.477 102.223 197.599 102.39 199.236 102.757C200.957 103.125 202.87 103.919 202.87 106.667C202.87 109.416 201.18 110.594 198.321 110.594C196.277 110.594 193.972 109.917 193.304 107.152L195.978 106.366V106.375Z" fill="white"/>
<path d="M210.185 100.443V110.342H207.373V100.443H203.792V97.6025H213.766V100.443H210.185Z" fill="white"/>
<path d="M219.284 106.141H218.031V110.343H215.219V97.6113H219.668C222.611 97.6113 224.332 99.2821 224.332 101.922C224.332 103.668 223.548 104.963 222.127 105.539L224.801 110.343H221.473L219.284 106.141ZM219.852 103.701C220.889 103.701 221.458 103.142 221.458 102.064C221.458 100.986 220.92 100.377 219.837 100.377H218.031V103.701H219.852Z" fill="white"/>
<path d="M229.173 108.229L228.466 110.343H225.508L230.026 97.6113H233.222L237.756 110.343H234.744L234.037 108.229H229.165H229.173ZM232.285 102.916C231.916 101.864 231.647 101.062 231.632 101.045H231.578C231.578 101.045 231.294 101.847 230.925 102.899L230.087 105.447H233.115L232.277 102.916H232.285Z" fill="white"/>
<path d="M249.581 106.575C248.928 108.43 247.537 109.758 245.831 110.301C246.184 110.61 246.4 111.045 246.4 111.663C246.4 112.849 245.616 113.576 243.825 113.576C243.241 113.576 242.588 113.484 242.289 113.359V111.504C242.473 111.579 242.857 111.646 243.395 111.646C244.194 111.646 244.502 111.504 244.502 111.228C244.502 110.861 243.933 110.685 242.396 110.702V110.376C239.753 109.683 237.947 107.269 237.947 103.935C237.947 100.059 240.521 97.3524 244.018 97.3524C246.715 97.3524 248.689 98.9731 249.473 101.028L246.699 101.847C246.1 100.828 245.139 100.226 243.887 100.226C241.981 100.226 240.775 101.755 240.775 103.977C240.775 106.199 242.066 107.703 243.872 107.703C245.408 107.703 246.369 106.826 246.83 105.773L249.588 106.575H249.581Z" fill="white"/>
<path d="M253.601 108.229L252.894 110.342H249.936L254.454 97.6108H257.65L262.184 110.342H259.172L258.465 108.229H253.593H253.601ZM253.217 96.4079L252.817 94.2108C252.971 94.0103 253.57 93.626 254.438 93.626C255.529 93.626 256.198 94.169 257.32 94.169C257.958 94.169 258.488 93.8933 258.772 93.6594L259.172 95.8565C259.018 96.057 258.403 96.4413 257.566 96.4413C256.475 96.4413 255.791 95.8983 254.707 95.8983C254.069 95.8983 253.485 96.1489 253.217 96.4079ZM256.713 102.916C256.344 101.863 256.075 101.061 256.06 101.044H256.006C256.006 101.044 255.722 101.846 255.353 102.899L254.515 105.447H257.543L256.705 102.916H256.713Z" fill="white"/>
<path d="M268.536 97.3524C272.117 97.3524 274.706 100.084 274.706 103.977C274.706 107.87 272.109 110.602 268.536 110.602C264.963 110.602 262.358 107.87 262.358 103.977C262.358 100.084 264.956 97.3524 268.536 97.3524ZM268.536 107.703C270.48 107.703 271.879 106.249 271.879 103.977C271.879 101.705 270.473 100.226 268.536 100.226C266.6 100.226 265.186 101.68 265.186 103.977C265.186 106.275 266.592 107.703 268.536 107.703Z" fill="white"/>
<path d="M284.665 97.6025C287.547 97.6025 289.283 99.2566 289.283 101.988C289.283 104.72 287.547 106.374 284.665 106.374H283.105V110.342H280.293V97.6109H284.657L284.665 97.6025ZM284.75 103.718C285.941 103.718 286.471 103.041 286.471 102.047C286.471 101.053 285.933 100.393 284.75 100.393H283.113V103.718H284.75Z" fill="white"/>
<path d="M300.678 104.662C300.678 108.497 298.634 110.593 295.576 110.593C292.518 110.593 290.474 108.505 290.474 104.662V97.6029H293.317V104.57C293.317 106.751 294.085 107.703 295.606 107.703C297.128 107.703 297.896 106.759 297.896 104.57V97.6029H300.67V104.662H300.678ZM294.369 96.6255L296.244 93.334L298.419 94.0775L296.859 96.6255H294.369Z" fill="white"/>
<path d="M309.561 103.551C310.698 103.918 311.681 104.929 311.681 106.625C311.681 108.588 310.391 110.334 307.486 110.334H302.453V97.6025H307.509C309.615 97.6025 311.074 99.148 311.074 100.911C311.074 102.331 310.206 103.225 309.568 103.475V103.551H309.561ZM306.971 102.64C307.74 102.64 308.239 102.13 308.239 101.387C308.239 100.643 307.755 100.134 306.948 100.134H305.258V102.64H306.964H306.971ZM307.24 107.811C308.208 107.811 308.731 107.21 308.731 106.358C308.731 105.447 308.162 104.904 307.24 104.904H305.265V107.811H307.24Z" fill="white"/>
<path d="M313.027 97.6025H315.84V107.502H321.095V110.342H313.027V97.6109V97.6025Z" fill="white"/>
<path d="M322.548 97.6025H325.36V110.334H322.548V97.6025Z" fill="white"/>
<path d="M338.408 106.575C337.539 109.048 335.38 110.594 332.837 110.594C329.341 110.594 326.767 107.92 326.767 103.935C326.767 99.9505 329.341 97.3524 332.837 97.3524C335.534 97.3524 337.509 98.9731 338.292 101.028L335.519 101.847C334.919 100.828 333.959 100.226 332.706 100.226C330.801 100.226 329.594 101.755 329.594 103.977C329.594 106.199 330.885 107.703 332.691 107.703C334.228 107.703 335.188 106.826 335.649 105.773L338.408 106.575Z" fill="white"/>
<path d="M342.417 108.229L341.71 110.343H338.752L343.27 97.6113H346.467L351 110.343H347.988L347.281 108.229H342.409H342.417ZM345.529 102.916C345.16 101.864 344.891 101.062 344.876 101.045H344.822C344.822 101.045 344.538 101.847 344.169 102.899L343.332 105.447H346.359L345.521 102.916H345.529Z" fill="white"/>
<path d="M24.8467 89.1479V76.6208H27.7458V89.1479H24.8467Z" fill="white"/>
</g>
<defs>
<clipPath id="clip0_544_3153">
<rect width="351" height="113.072" fill="white" transform="translate(0 0.50354)"/>
</clipPath>
</defs>
</svg>
