<svg width="351" height="114" viewBox="0 0 351 114" fill="none" xmlns="http://www.w3.org/2000/svg">
<g clip-path="url(#clip0_544_3077)">
<path fill-rule="evenodd" clip-rule="evenodd" d="M67.4468 49.9509C67.4468 49.9509 67.4468 49.9509 67.4468 49.9676C67.4468 49.9676 67.4468 49.976 67.4468 49.9843C68.1767 53.1923 69.2909 56.3417 70.8123 59.3659C70.8277 59.3269 70.8789 59.2684 70.966 59.1905C69.5777 56.0271 68.3944 52.8553 67.416 49.6752C67.416 49.8256 67.416 49.8339 67.4391 49.9593L67.4468 49.9509ZM67.5082 48.9484C68.2408 47.5616 69.3626 45.9799 70.8738 44.2033C72.3696 48.0128 74.037 51.85 75.876 55.7152C73.9755 57.0017 72.4592 58.0599 71.3271 58.8897C69.8569 55.5815 68.584 52.2705 67.5082 48.9568V48.9484ZM72.1262 42.9419C73.6989 46.8404 75.438 50.764 77.3436 54.7127C80.1713 52.847 83.2705 50.8253 86.6411 48.6477C84.4589 44.3481 82.3971 40.1043 80.4556 35.9161C77.3872 38.3722 74.6107 40.7141 72.1262 42.9419ZM82.5533 34.3456C86.2262 31.7335 90.0195 29.1327 93.9331 26.5429C96.1922 30.7756 98.5127 35.1114 100.895 39.5501C96.7967 42.1455 92.8011 44.6879 88.9079 47.1774C86.6847 42.8333 84.5665 38.556 82.5533 34.3456ZM96.415 24.9807C98.71 29.1856 101.056 33.5018 103.453 37.9295C107.557 35.3508 111.573 32.8418 115.502 30.4025C113.099 26.1586 110.694 22.0568 108.287 18.097C104.399 20.269 100.441 22.5636 96.415 24.9807ZM110.6 16.8857C114.068 15.2037 117.308 13.7362 120.32 12.4831C122.681 15.886 124.986 19.4643 127.235 23.218C124.346 24.9668 121.196 26.8882 117.784 28.9823C115.392 24.7997 112.994 20.7675 110.592 16.8857H110.6ZM133.959 19.3919C134.112 19.325 134.112 19.325 134.181 19.3334C132.491 16.4178 130.501 13.8114 128.28 11.5474C128.28 11.5474 128.28 11.5474 128.272 11.5474C128.18 11.4555 128.165 11.4555 128.057 11.372C130.132 13.8615 132.102 16.5376 133.966 19.4002L133.959 19.3919ZM121.956 11.9317C124.287 15.2176 126.554 18.6734 128.757 22.2991C130.724 21.1462 132.319 20.2384 133.544 19.5756C131.623 16.5849 129.594 13.7668 127.458 11.1214C127.166 11.1214 126.912 11.1214 126.682 11.1214C125.161 11.1214 124.792 11.2133 121.964 11.9317H121.956ZM102.316 5.6996C104.376 8.21695 106.548 11.0573 108.832 14.2207C112.29 12.6557 115.522 11.3135 118.529 10.1941C116.183 7.56534 113.873 5.26241 111.598 3.28529C108.694 3.83109 105.602 4.63864 102.324 5.70796L102.316 5.6996ZM120.166 9.71789C117.804 7.20612 115.484 5.02293 113.204 3.16833C115.548 3.33542 115.625 3.34377 117.431 3.88678C119.144 4.67206 120.804 5.59936 122.402 6.66032C123.939 7.78811 124.039 7.88001 125.783 9.40879C124.256 9.23614 122.384 9.33918 120.166 9.71789Z" fill="#2B8C8D"/>
<path fill-rule="evenodd" clip-rule="evenodd" d="M91.6367 50.4898C94.0392 54.728 96.4417 58.8243 98.8442 62.7785C102.748 60.6009 106.702 58.3008 110.708 55.8781C108.413 51.6788 106.067 47.3653 103.67 42.9377C99.5665 45.5219 95.5555 48.0365 91.6367 50.4814V50.4898ZM127.959 47.9C129.388 51.6036 130.607 55.0455 131.616 58.2256C134.085 55.6581 136.255 53.138 138.124 50.6652C137.648 47.5408 136.931 44.2298 135.973 40.7323C133.596 43.0101 130.927 45.3966 127.966 47.8917L127.959 47.9ZM137.148 39.429C138.542 37.5187 139.546 35.8034 140.161 34.2829C140.537 36.6805 140.552 36.8142 140.698 38.8108C140.775 40.8409 140.698 42.8709 140.491 44.8842C140.045 46.8474 140.015 46.9226 138.993 49.2116C138.619 46.154 138.004 42.8959 137.148 39.4374V39.429ZM106.236 41.3337C110.329 38.7217 114.32 36.1682 118.208 33.6731C120.446 38.0228 122.57 42.3028 124.578 46.5132C120.915 49.1141 117.124 51.715 113.205 54.3159C110.946 50.0888 108.626 45.7614 106.244 41.3337H106.236ZM120.49 32.2111C123.855 30.028 126.949 28.0063 129.772 26.1461C131.678 30.0948 133.422 34.0156 135.005 37.9086C132.52 40.1363 129.746 42.4727 126.683 44.9176C124.736 40.7462 122.672 36.5107 120.49 32.2111ZM131.24 25.1436C133.079 29.0032 134.749 32.8405 136.249 36.6555C137.761 34.8789 138.877 33.2832 139.6 31.8686C138.524 28.5549 137.253 25.255 135.788 21.9691C134.651 22.7989 133.135 23.8571 131.24 25.1436ZM136.134 21.6767C136.265 21.5514 136.265 21.5514 136.288 21.4929C137.809 24.5171 138.923 27.6665 139.661 30.8828V30.8996C139.684 31.0332 139.684 31.0499 139.692 31.1919C138.708 28.0118 137.522 24.8429 136.134 21.6851V21.6767Z" fill="#C6E6EF"/>
<path fill-rule="evenodd" clip-rule="evenodd" d="M78.2503 21.0256C79.3568 24.2112 80.6707 27.6559 82.1922 31.3595C85.7677 28.7642 89.479 26.1772 93.3261 23.5986C91.4256 19.973 89.6814 16.6453 88.0934 13.6156C84.6612 16.0215 81.3828 18.4943 78.258 21.0339L78.2503 21.0256ZM67.9078 47.3324C67.9078 47.3324 67.9078 47.3324 67.9078 47.3241C67.9078 47.3241 67.9078 47.3157 67.9078 47.3074C67.9078 47.3074 67.9078 47.3241 67.9078 47.3324ZM69.9671 30.2067C71.8471 27.7172 74.0242 25.1887 76.4984 22.6212C77.4973 25.818 78.7113 29.2627 80.1405 32.9551C77.1797 35.4446 74.5083 37.8395 72.1262 40.1396C71.1683 36.6086 70.4486 33.2976 69.9671 30.2067ZM112.551 2.22901C114.126 2.39609 114.257 2.4128 115.471 2.7386C113.665 2.09534 111.806 1.61081 109.923 1.26829C111.053 1.56904 111.168 1.61916 112.559 2.22901H112.551ZM67.416 38.2683V42.437C67.539 44.0911 67.5851 44.3667 67.9231 46.5639C68.543 45.0378 69.5496 43.3364 70.9429 41.4595C70.0823 38.001 69.4702 34.729 69.1065 31.6436C68.0845 33.9326 68.0461 33.9994 67.6004 35.9876C67.5236 36.7479 67.4544 37.5081 67.416 38.2683ZM86.3568 5.64581C86.3568 5.64581 86.3952 5.63745 86.4183 5.67922C88.9694 4.34815 91.5255 3.19529 94.0868 2.22065C91.4513 3.02264 88.8541 4.15879 86.3568 5.64581ZM86.6411 5.97161C89.6327 4.41219 92.6218 3.0672 95.6082 1.93662C96.8069 2.54368 98.1951 3.57679 99.7729 5.03596C96.2895 6.62323 92.7857 8.40264 89.2613 10.3742C88.1753 8.48618 87.3019 7.01865 86.6411 5.97161ZM68.0845 32.6377C68.461 30.6077 68.9835 28.6194 69.6443 26.6729C69.3293 27.8842 69.3139 28.0095 69.1295 29.6219C68.4764 31.2259 68.4149 31.3679 68.0845 32.6377ZM102.239 0.792114H105.705C106.281 0.817176 106.857 0.8673 107.434 0.925779C109.047 1.31006 109.117 1.34348 110.961 2.24572C108.097 2.64671 105.059 3.31503 101.848 4.25068C100.193 2.89176 98.7177 1.95889 97.4216 1.45208C98.9815 1.13463 99.1044 1.11792 100.365 0.942486C100.987 0.875654 101.617 0.82553 102.247 0.792114H102.239ZM74.0242 17.6088C72.6795 19.6889 71.5346 21.8944 70.5818 24.1918C70.1054 25.8709 70.1054 25.9545 69.8979 28.1683C71.6345 25.6788 73.6707 23.1475 76.0066 20.5745C75.7249 18.3467 75.6993 16.5005 75.9298 15.0357C74.9078 16.3473 74.8387 16.4309 74.0242 17.6171V17.6088ZM78.1812 12.2622C80.2456 10.3074 82.4304 8.4639 84.7355 6.73183C84.7458 6.69284 84.7458 6.67057 84.7355 6.665C82.3074 8.28568 80.1252 10.1737 78.1735 12.2622H78.1812ZM90.2987 12.2204C93.9203 10.1709 97.5318 8.29403 101.133 6.58981C103.151 9.20184 105.272 12.1341 107.495 15.3866C103.633 17.4751 99.7242 19.6973 95.7696 22.0531C93.7974 18.4776 91.9738 15.2 90.2987 12.2204ZM77.213 13.5571C79.6052 11.2736 82.1563 9.1183 84.8661 7.09105C85.404 8.21606 86.157 9.75877 87.1252 11.7192C83.8263 14.0583 80.681 16.4782 77.6894 18.9788C77.2796 16.7957 77.1233 14.9884 77.2207 13.5571H77.213Z" fill="#00424B"/>
<path fill-rule="evenodd" clip-rule="evenodd" d="M232.306 62.0023L255.85 4.91924L256.173 4.14232H272.055L271.295 5.98856L247.751 63.0716L247.428 63.8486H231.553L232.314 62.0023H232.306ZM201.479 63.8486H189.415V60.791C188.093 61.8269 186.58 62.7041 184.912 63.3807C182.33 64.425 179.403 65.0014 176.306 65.0014C168.323 65.0014 161.107 61.6598 155.928 56.0376C150.857 50.5406 147.745 42.8716 147.745 34.008C147.745 25.1444 150.857 17.4754 155.928 11.9784C161.107 6.35614 168.323 3.01453 176.306 3.01453C181.6 3.01453 186.587 4.52661 190.867 7.24167C195.209 9.98179 198.828 13.975 201.333 18.8621L202.078 20.3324L200.572 20.7585L187.694 24.4259L186.948 24.6348L186.457 23.9831C185.358 22.5379 183.798 21.3433 182.046 20.5079C180.24 19.639 178.243 19.1545 176.314 19.1545C172.357 19.1545 169.16 20.6415 166.939 23.1728C164.634 25.796 163.359 29.572 163.359 33.9913C163.359 38.4106 164.75 42.2868 167.101 44.8682C169.529 47.5164 173.002 48.9868 177.067 48.9868C180.525 48.9868 183.099 48.1597 185.012 46.8982C186.802 45.7287 188.016 44.1665 188.846 42.5625H175.63V28.9287H202.7V63.8486H201.486H201.479ZM201.018 18.2523V19.5639H216.839V63.8402H231.922V19.5639H247.974V4.14232H201.018V18.2523ZM272.378 4.91924L272.055 4.14232H256.173L256.933 5.98856L280.477 63.0716L280.799 63.8486H296.682L295.914 62.0023L272.37 4.91924H272.378ZM310.313 51.518V63.8486H295.23V4.14232H317.628C325.343 4.14232 331.559 6.35614 335.878 10.4162C340.234 14.518 342.624 20.4494 342.624 27.826C342.624 35.2026 340.242 41.1423 335.878 45.2441C331.567 49.3126 325.343 51.518 317.628 51.518H310.321H310.313Z" fill="white"/>
<path fill-rule="evenodd" clip-rule="evenodd" d="M264.119 23.382L247.422 63.8489H280.808L264.119 23.382Z" fill="#DACF6D"/>
<path fill-rule="evenodd" clip-rule="evenodd" d="M310.198 20.6506V35.3119H318.382C321.294 35.3119 323.584 34.6018 325.128 33.2986C326.565 32.0705 327.356 30.2661 327.356 27.977C327.356 25.688 326.565 23.8919 325.128 22.6555C323.584 21.3523 321.294 20.6422 318.382 20.6422H310.198V20.6506Z" fill="#DACF6D"/>
<path fill-rule="evenodd" clip-rule="evenodd" d="M263.887 22.797L256.91 5.89682L256.173 4.10071H257.986H270.834H271.594L270.857 5.89682L263.887 22.797Z" fill="#A67F26"/>
<path d="M16.777 65.0168V3.27417H31.066V65.0168H16.777ZM36.8985 65.0168V3.27417H51.1875V65.0168H36.8985Z" fill="white"/>
<path d="M44.0913 85.0346C43.223 87.5074 41.0638 89.0529 38.5205 89.0529C35.0243 89.0529 32.4502 86.3796 32.4502 82.3947C32.4502 78.4099 35.0243 75.8118 38.5205 75.8118C41.2175 75.8118 43.1923 77.4325 43.976 79.4875L41.2022 80.3062C40.6028 79.287 39.65 78.6855 38.3898 78.6855C36.4842 78.6855 35.2779 80.2143 35.2779 82.4365C35.2779 84.6587 36.5688 86.1624 38.3745 86.1624C39.9113 86.1624 40.8641 85.2852 41.3328 84.2326L44.0913 85.0346Z" fill="white"/>
<path d="M51.1516 75.8118C54.7323 75.8118 57.3218 78.5435 57.3218 82.4365C57.3218 86.3295 54.7246 89.0613 51.1516 89.0613C47.5786 89.0613 44.9814 86.3295 44.9814 82.4365C44.9814 78.5435 47.5786 75.8118 51.1516 75.8118ZM51.1516 86.1624C53.0956 86.1624 54.4941 84.7088 54.4941 82.4365C54.4941 80.1642 53.088 78.6855 51.1516 78.6855C49.2153 78.6855 47.8091 80.1392 47.8091 82.4365C47.8091 84.7339 49.2153 86.1624 51.1516 86.1624Z" fill="white"/>
<path d="M61.5561 81.1999H61.5023C61.5023 81.1999 61.533 82.7788 61.533 84.4412V88.8104H58.7207V76.0789H61.5637L66.5506 83.539H66.6044C66.6044 83.539 66.589 81.8849 66.589 80.4981V76.0789H69.4013V88.8104H66.5429L61.5561 81.2082V81.1999Z" fill="white"/>
<path d="M80.1426 88.8023C80.1426 88.0755 80.1579 88.0003 80.1579 87.9084H80.1272C79.4587 88.5266 78.1832 89.0529 76.8308 89.0529C73.5652 89.0529 70.8066 86.3796 70.8066 82.4115C70.8066 78.4433 73.3807 75.8118 76.8769 75.8118C79.5356 75.8118 81.5795 77.4157 82.3325 79.4875L79.5586 80.3062C79.1053 79.4875 78.237 78.6855 76.7463 78.6855C74.8561 78.6855 73.6343 80.2143 73.6343 82.4365C73.6343 84.6587 74.9867 86.1624 77.0613 86.1624C78.6673 86.1624 79.6739 85.4022 80.0427 84.8508V84.2493H77.0998V81.409H82.6552V88.7939H80.1426V88.8023Z" fill="white"/>
<path d="M88.3958 84.6001H87.1434V88.8022H84.3311V76.0707H88.78C91.723 76.0707 93.4518 77.7415 93.4518 80.3814C93.4518 82.1274 92.6681 83.4222 91.2466 83.9987L93.9206 88.8022H90.5934L88.4035 84.6001H88.3958ZM88.9644 82.1608C90.0018 82.1608 90.5704 81.601 90.5704 80.5234C90.5704 79.4457 90.0325 78.8359 88.9491 78.8359H87.1434V82.1608H88.9644Z" fill="white"/>
<path d="M95.1191 76.0629H103.648V78.9032H97.9238V81.0836H102.142V83.6316H97.9238V85.9624H103.733V88.8028H95.1191V76.0712V76.0629Z" fill="white"/>
<path d="M107.568 84.8341C107.798 85.7948 108.62 86.3629 109.896 86.3629C110.964 86.3629 111.617 85.9619 111.617 85.1432C111.617 83.9235 110.211 83.9987 108.774 83.6144C107.183 83.1967 105.209 82.3947 105.209 79.7047C105.209 77.0147 107.014 75.8118 109.642 75.8118C112.032 75.8118 113.738 76.8644 114.391 79.1367L111.717 79.9219C111.433 78.9947 110.764 78.4851 109.588 78.4851C108.52 78.4851 108.067 78.9362 108.067 79.6128C108.067 80.6822 109.189 80.8492 110.826 81.2168C112.547 81.5844 114.46 82.378 114.46 85.1265C114.46 87.875 112.77 89.0529 109.911 89.0529C107.867 89.0529 105.562 88.3762 104.894 85.611L107.568 84.8258V84.8341Z" fill="white"/>
<path d="M118.055 84.8341C118.285 85.7948 119.108 86.3629 120.383 86.3629C121.451 86.3629 122.104 85.9619 122.104 85.1432C122.104 83.9235 120.698 83.9987 119.261 83.6144C117.671 83.1967 115.696 82.3947 115.696 79.7047C115.696 77.0147 117.502 75.8118 120.13 75.8118C122.519 75.8118 124.225 76.8644 124.878 79.1367L122.204 79.9219C121.92 78.9947 121.251 78.4851 120.076 78.4851C119.008 78.4851 118.554 78.9362 118.554 79.6128C118.554 80.6822 119.676 80.8492 121.313 81.2168C123.034 81.5844 124.947 82.378 124.947 85.1265C124.947 87.875 123.257 89.0529 120.398 89.0529C118.355 89.0529 116.049 88.3762 115.381 85.611L118.055 84.8258V84.8341Z" fill="white"/>
<path d="M132.064 75.8118C135.644 75.8118 138.234 78.5435 138.234 82.4365C138.234 86.3295 135.637 89.0613 132.064 89.0613C128.491 89.0613 125.894 86.3295 125.894 82.4365C125.894 78.5435 128.491 75.8118 132.064 75.8118ZM132.064 86.1624C134.008 86.1624 135.406 84.7088 135.406 82.4365C135.406 80.1642 134 78.6855 132.064 78.6855C130.127 78.6855 128.721 80.1392 128.721 82.4365C128.721 84.7339 130.127 86.1624 132.064 86.1624Z" fill="white"/>
<path d="M150.935 82.0187C152.072 82.3863 153.063 83.3972 153.063 85.093C153.063 87.0562 151.772 88.8022 148.86 88.8022H143.827V76.0707H148.883C150.989 76.0707 152.448 77.6162 152.448 79.3789C152.448 80.7991 151.58 81.6929 150.942 81.9436V82.0187H150.935ZM148.338 81.1082C149.106 81.1082 149.605 80.5986 149.605 79.8551C149.605 79.1115 149.121 78.6019 148.315 78.6019H146.624V81.1082H148.33H148.338ZM148.607 86.2709C149.575 86.2709 150.097 85.6695 150.097 84.8173C150.097 83.9068 149.529 83.3637 148.607 83.3637H146.632V86.2709H148.607Z" fill="white"/>
<path d="M158.466 84.6001H157.214V88.8022H154.401V76.0707H158.85C161.793 76.0707 163.522 77.7415 163.522 80.3814C163.522 82.1274 162.738 83.4222 161.317 83.9987L163.991 88.8022H160.664L158.474 84.6001H158.466ZM159.035 82.1608C160.072 82.1608 160.641 81.601 160.641 80.5234C160.641 79.4457 160.103 78.8359 159.019 78.8359H157.214V82.1608H159.035Z" fill="white"/>
<path d="M168.347 86.6886L167.648 88.8022H164.689L169.208 76.0707H172.404L176.938 88.8022H173.926L173.226 86.6886H168.355H168.347ZM171.459 81.3755C171.09 80.3229 170.821 79.5209 170.806 79.5042H170.752C170.752 79.5042 170.468 80.3062 170.099 81.3588L169.261 83.9068H172.289L171.451 81.3755H171.459Z" fill="white"/>
<path d="M180.28 84.8341C180.511 85.7948 181.333 86.3629 182.609 86.3629C183.677 86.3629 184.33 85.9619 184.33 85.1432C184.33 83.9235 182.924 83.9987 181.487 83.6144C179.896 83.1967 177.921 82.3947 177.921 79.7047C177.921 77.0147 179.727 75.8118 182.355 75.8118C184.745 75.8118 186.451 76.8644 187.104 79.1367L184.43 79.9219C184.145 78.9947 183.477 78.4851 182.301 78.4851C181.233 78.4851 180.78 78.9362 180.78 79.6128C180.78 80.6822 181.902 80.8492 183.538 81.2168C185.26 81.5844 187.173 82.378 187.173 85.1265C187.173 87.875 185.482 89.0529 182.624 89.0529C180.58 89.0529 178.275 88.3762 177.606 85.611L180.28 84.8258V84.8341Z" fill="white"/>
<path d="M188.578 76.0627H191.39V88.7943H188.578V76.0627Z" fill="white"/>
<path d="M193.259 76.0627H196.071V85.9623H201.327V88.8026H193.259V76.0711V76.0627Z" fill="white"/>
<path d="M202.779 76.0627H211.308V78.9031H205.584V81.0835H209.802V83.6315H205.584V85.9623H211.393V88.8026H202.779V76.0711V76.0627Z" fill="white"/>
<path d="M213.036 76.0627H215.848V88.7943H213.036V76.0627Z" fill="white"/>
<path d="M221.786 84.6001H220.534V88.8022H217.722V76.0707H222.171C225.114 76.0707 226.835 77.7415 226.835 80.3814C226.835 82.1274 226.051 83.4222 224.63 83.9987L227.304 88.8022H223.976L221.786 84.6001ZM222.355 82.1608C223.392 82.1608 223.961 81.601 223.961 80.5234C223.961 79.4457 223.423 78.8359 222.34 78.8359H220.534V82.1608H222.355Z" fill="white"/>
<path d="M234.067 75.8118C237.647 75.8118 240.237 78.5435 240.237 82.4365C240.237 86.3295 237.64 89.0613 234.067 89.0613C230.494 89.0613 227.889 86.3295 227.889 82.4365C227.889 78.5435 230.486 75.8118 234.067 75.8118ZM234.067 86.1624C236.011 86.1624 237.409 84.7088 237.409 82.4365C237.409 80.1642 236.003 78.6855 234.067 78.6855C232.13 78.6855 230.716 80.1392 230.716 82.4365C230.716 84.7339 232.123 86.1624 234.067 86.1624Z" fill="white"/>
<path d="M250.81 76.0627C254.306 76.0627 256.988 78.6441 256.988 82.487C256.988 86.3298 254.291 88.8026 250.833 88.8026H245.831V76.0711H250.818L250.81 76.0627ZM250.664 85.9623C252.401 85.9623 254.16 85.0016 254.16 82.487C254.16 79.9724 252.401 78.9031 250.664 78.9031H248.643V85.9623H250.664Z" fill="white"/>
<path d="M258.396 76.0627H266.925V78.9031H261.2V81.0835H265.419V83.6315H261.2V85.9623H267.009V88.8026H258.396V76.0711V76.0627Z" fill="white"/>
<path d="M281.699 88.8023C281.699 88.0755 281.715 88.0003 281.715 87.9084H281.684C281.015 88.5266 279.74 89.0529 278.387 89.0529C275.122 89.0529 272.363 86.3796 272.363 82.4115C272.363 78.4433 274.937 75.8118 278.434 75.8118C281.092 75.8118 283.136 77.4157 283.889 79.4875L281.115 80.3062C280.662 79.4875 279.794 78.6855 278.303 78.6855C276.413 78.6855 275.191 80.2143 275.191 82.4365C275.191 84.6587 276.543 86.1624 278.618 86.1624C280.224 86.1624 281.23 85.4022 281.599 84.8508V84.2493H278.656V81.409H284.212V88.7939H281.699V88.8023Z" fill="white"/>
<path d="M285.878 76.0627H294.407V78.9031H288.683V81.0835H292.901V83.6315H288.683V85.9623H294.492V88.8026H285.878V76.0711V76.0627Z" fill="white"/>
<path d="M298.326 84.8341C298.557 85.7948 299.379 86.3629 300.655 86.3629C301.723 86.3629 302.376 85.9619 302.376 85.1432C302.376 83.9235 300.97 83.9987 299.533 83.6144C297.942 83.1967 295.967 82.3947 295.967 79.7047C295.967 77.0147 297.773 75.8118 300.401 75.8118C302.791 75.8118 304.497 76.8644 305.15 79.1367L302.476 79.9219C302.191 78.9947 301.523 78.4851 300.347 78.4851C299.279 78.4851 298.826 78.9362 298.826 79.6128C298.826 80.6822 299.948 80.8492 301.584 81.2168C303.306 81.5844 305.219 82.378 305.219 85.1265C305.219 87.875 303.528 89.0529 300.67 89.0529C298.626 89.0529 296.321 88.3762 295.652 85.611L298.326 84.8258V84.8341Z" fill="white"/>
<path d="M312.535 78.9032V88.8028H309.722V78.9032H306.142V76.0629H316.115V78.9032H312.535Z" fill="white"/>
<path d="M318.674 86.6885L317.967 88.8021H315.009L319.527 76.0706H322.723L327.257 88.8021H324.245L323.538 86.6885H318.666H318.674ZM318.29 74.8676L317.89 72.6705C318.044 72.47 318.643 72.0857 319.512 72.0857C320.603 72.0857 321.271 72.6287 322.393 72.6287C323.031 72.6287 323.561 72.353 323.845 72.1191L324.245 74.3162C324.091 74.5167 323.476 74.901 322.639 74.901C321.548 74.901 320.864 74.358 319.78 74.358C319.143 74.358 318.559 74.6086 318.29 74.8676ZM321.786 81.3754C321.417 80.3228 321.148 79.5208 321.133 79.5041H321.079C321.079 79.5041 320.795 80.3061 320.426 81.3587L319.588 83.9066H322.616L321.778 81.3754H321.786Z" fill="white"/>
<path d="M333.612 75.8118C337.193 75.8118 339.783 78.5435 339.783 82.4365C339.783 86.3295 337.185 89.0613 333.612 89.0613C330.039 89.0613 327.435 86.3295 327.435 82.4365C327.435 78.5435 330.032 75.8118 333.612 75.8118ZM333.612 86.1624C335.556 86.1624 336.955 84.7088 336.955 82.4365C336.955 80.1642 335.549 78.6855 333.612 78.6855C331.676 78.6855 330.262 80.1392 330.262 82.4365C330.262 84.7339 331.668 86.1624 333.612 86.1624Z" fill="white"/>
<path d="M6.393 100.731V110.631H3.5807V100.731H0V97.8911H9.9737V100.731H6.393Z" fill="white"/>
<path d="M15.4896 106.429H14.2371V110.631H11.4248V97.8999H15.8738C18.8167 97.8999 20.5456 99.5707 20.5456 102.211C20.5456 103.957 19.7618 105.251 18.3403 105.828L21.0143 110.631H17.6872L15.4973 106.429H15.4896ZM16.0582 103.99C17.0955 103.99 17.6641 103.43 17.6641 102.353C17.6641 101.275 17.1263 100.665 16.0428 100.665H14.2371V103.99H16.0582Z" fill="white"/>
<path d="M22.2129 97.8911H25.0252V110.623H22.2129V97.8911Z" fill="white"/>
<path d="M34.01 103.839C35.1472 104.207 36.1384 105.218 36.1384 106.913C36.1384 108.877 34.8475 110.623 31.9353 110.623H26.9023V97.8911H31.9583C34.0637 97.8911 35.5237 99.4366 35.5237 101.199C35.5237 102.619 34.6554 103.513 34.0176 103.764V103.839H34.01ZM31.4205 102.929C32.1889 102.929 32.6883 102.419 32.6883 101.675C32.6883 100.932 32.2042 100.422 31.3974 100.422H29.707V102.929H31.4128H31.4205ZM31.6894 108.1C32.6576 108.1 33.1801 107.498 33.1801 106.646C33.1801 105.736 32.6115 105.193 31.6894 105.193H29.7147V108.1H31.6894Z" fill="white"/>
<path d="M47.5773 104.95C47.5773 108.785 45.5333 110.882 42.4752 110.882C39.417 110.882 37.373 108.793 37.373 104.95V97.8911H40.2161V104.858C40.2161 107.039 40.9845 107.991 42.5059 107.991C44.0273 107.991 44.7957 107.047 44.7957 104.858V97.8911H47.5696V104.95H47.5773Z" fill="white"/>
<path d="M55.3237 100.731V110.631H52.5114V100.731H48.9307V97.8911H58.9044V100.731H55.3237Z" fill="white"/>
<path d="M61.4622 108.518L60.763 110.631H57.8047L62.3228 97.8997H65.5193L70.0528 110.631H67.0407L66.3415 108.518H61.4699H61.4622ZM64.5742 103.205C64.2054 102.152 63.9364 101.35 63.9211 101.333H63.8673C63.8673 101.333 63.583 102.135 63.2142 103.188L62.3766 105.736H65.4041L64.5665 103.205H64.5742ZM62.5994 96.9139L64.4743 93.6224L66.6642 94.3659L65.089 96.9139H62.5994Z" fill="white"/>
<path d="M75.2728 106.429H74.0203V110.631H71.208V97.8999H75.657C78.5999 97.8999 80.3288 99.5707 80.3288 102.211C80.3288 103.957 79.545 105.251 78.1235 105.828L80.7975 110.631H77.4704L75.2805 106.429H75.2728ZM75.8414 103.99C76.8787 103.99 77.4473 103.43 77.4473 102.353C77.4473 101.275 76.9095 100.665 75.826 100.665H74.0203V103.99H75.8414Z" fill="white"/>
<path d="M81.9932 97.8911H84.8055V110.623H81.9932V97.8911Z" fill="white"/>
<path d="M89.6263 108.518L88.927 110.631H85.9688L90.4869 97.8999H93.6834L98.2169 110.631H95.2048L94.5056 108.518H89.634H89.6263ZM92.7383 103.205C92.3694 102.152 92.1005 101.35 92.0851 101.333H92.0313C92.0313 101.333 91.747 102.135 91.3782 103.188L90.5407 105.736H93.5681L92.7306 103.205H92.7383Z" fill="white"/>
<path d="M106.368 103.021H106.314C106.314 103.021 106.345 104.6 106.345 106.262V110.631H103.532V97.8999H106.375L111.362 105.36H111.416C111.416 105.36 111.401 103.706 111.401 102.319V97.8999H114.213V110.631H111.354L106.368 103.029V103.021Z" fill="white"/>
<path d="M119.038 108.518L118.339 110.631H115.381L119.899 97.8999H123.095L127.629 110.631H124.617L123.918 108.518H119.046H119.038ZM122.15 103.205C121.782 102.152 121.513 101.35 121.497 101.333H121.443C121.443 101.333 121.159 102.135 120.79 103.188L119.953 105.736H122.98L122.143 103.205H122.15Z" fill="white"/>
<path d="M135.898 108.518L135.199 110.631H132.24L136.758 97.8999H139.955L144.488 110.631H141.476L140.777 108.518H135.905H135.898ZM139.01 103.205C138.641 102.152 138.372 101.35 138.357 101.333H138.303C138.303 101.333 138.019 102.135 137.65 103.188L136.812 105.736H139.84L139.002 103.205H139.01Z" fill="white"/>
<path d="M150.619 97.8911C154.115 97.8911 156.789 100.473 156.789 104.315C156.789 108.158 154.092 110.631 150.634 110.631H145.632V97.8995H150.619V97.8911ZM150.473 107.791C152.209 107.791 153.969 106.83 153.969 104.315C153.969 101.801 152.209 100.731 150.473 100.731H148.452V107.791H150.473Z" fill="white"/>
<path d="M167.185 107.515C167.185 104.5 167.216 103.004 167.216 102.988H167.185C167.185 102.988 166.601 104.149 166.033 105.243L164.896 107.482H163.32L162.183 105.285C161.599 104.157 161.046 103.013 161.031 102.996H160.977C160.977 102.996 161.008 104.508 161.008 107.524V110.631H158.195V97.8999H161.177L164.12 103.597H164.173L167.132 97.8999H169.99V110.631H167.178V107.524L167.185 107.515Z" fill="white"/>
<path d="M171.872 97.8911H174.684V110.623H171.872V97.8911Z" fill="white"/>
<path d="M179.381 103.021H179.327C179.327 103.021 179.358 104.6 179.358 106.262V110.631H176.546V97.8999H179.389L184.376 105.36H184.422C184.422 105.36 184.407 103.706 184.407 102.319V97.8999H187.219V110.631H184.36L179.374 103.029L179.381 103.021Z" fill="white"/>
<path d="M189.102 97.8911H191.914V110.623H189.102V97.8911Z" fill="white"/>
<path d="M195.979 106.663C196.209 107.624 197.031 108.192 198.307 108.192C199.375 108.192 200.028 107.791 200.028 106.973C200.028 105.753 198.622 105.828 197.185 105.444C195.595 105.026 193.62 104.224 193.62 101.534C193.62 98.8441 195.425 97.6411 198.053 97.6411C200.443 97.6411 202.149 98.6937 202.802 100.966L200.128 101.751C199.844 100.824 199.175 100.314 198 100.314C196.931 100.314 196.478 100.766 196.478 101.442C196.478 102.512 197.6 102.679 199.237 103.046C200.958 103.414 202.871 104.207 202.871 106.956C202.871 109.704 201.181 110.882 198.322 110.882C196.278 110.882 193.973 110.206 193.305 107.44L195.979 106.655V106.663Z" fill="white"/>
<path d="M210.185 100.731V110.631H207.373V100.731H203.792V97.8911H213.766V100.731H210.185Z" fill="white"/>
<path d="M219.284 106.429H218.031V110.631H215.219V97.8999H219.668C222.611 97.8999 224.332 99.5707 224.332 102.211C224.332 103.957 223.548 105.251 222.127 105.828L224.801 110.631H221.473L219.284 106.429ZM219.852 103.99C220.889 103.99 221.458 103.43 221.458 102.353C221.458 101.275 220.92 100.665 219.837 100.665H218.031V103.99H219.852Z" fill="white"/>
<path d="M229.173 108.518L228.466 110.631H225.508L230.026 97.8999H233.222L237.756 110.631H234.744L234.037 108.518H229.165H229.173ZM232.285 103.205C231.916 102.152 231.647 101.35 231.632 101.333H231.578C231.578 101.333 231.294 102.135 230.925 103.188L230.087 105.736H233.115L232.277 103.205H232.285Z" fill="white"/>
<path d="M249.582 106.864C248.929 108.719 247.538 110.047 245.832 110.59C246.185 110.899 246.401 111.333 246.401 111.952C246.401 113.138 245.617 113.865 243.826 113.865C243.242 113.865 242.589 113.773 242.29 113.647V111.793C242.474 111.868 242.858 111.935 243.396 111.935C244.195 111.935 244.503 111.793 244.503 111.517C244.503 111.15 243.934 110.974 242.397 110.991V110.665C239.754 109.972 237.948 107.557 237.948 104.224C237.948 100.348 240.522 97.6411 244.019 97.6411C246.716 97.6411 248.69 99.2618 249.474 101.317L246.7 102.136C246.101 101.116 245.14 100.515 243.888 100.515C241.982 100.515 240.776 102.044 240.776 104.266C240.776 106.488 242.067 107.992 243.873 107.992C245.409 107.992 246.37 107.115 246.831 106.062L249.589 106.864H249.582Z" fill="white"/>
<path d="M253.601 108.517L252.894 110.631H249.936L254.454 97.8994H257.65L262.184 110.631H259.172L258.465 108.517H253.593H253.601ZM253.217 96.6964L252.817 94.4993C252.971 94.2988 253.57 93.9146 254.438 93.9146C255.529 93.9146 256.198 94.4576 257.32 94.4576C257.958 94.4576 258.488 94.1819 258.772 93.948L259.172 96.1451C259.018 96.3456 258.403 96.7299 257.566 96.7299C256.475 96.7299 255.791 96.1868 254.707 96.1868C254.069 96.1868 253.485 96.4375 253.217 96.6964ZM256.713 103.204C256.344 102.152 256.075 101.35 256.06 101.333H256.006C256.006 101.333 255.722 102.135 255.353 103.188L254.515 105.736H257.543L256.705 103.204H256.713Z" fill="white"/>
<path d="M268.536 97.6411C272.117 97.6411 274.706 100.373 274.706 104.266C274.706 108.159 272.109 110.891 268.536 110.891C264.963 110.891 262.358 108.159 262.358 104.266C262.358 100.373 264.956 97.6411 268.536 97.6411ZM268.536 107.992C270.48 107.992 271.879 106.538 271.879 104.266C271.879 101.994 270.473 100.515 268.536 100.515C266.6 100.515 265.186 101.969 265.186 104.266C265.186 106.563 266.592 107.992 268.536 107.992Z" fill="white"/>
<path d="M284.666 97.8911C287.548 97.8911 289.284 99.5452 289.284 102.277C289.284 105.009 287.548 106.663 284.666 106.663H283.106V110.631H280.294V97.8995H284.658L284.666 97.8911ZM284.751 104.006C285.942 104.006 286.472 103.33 286.472 102.335C286.472 101.341 285.934 100.681 284.751 100.681H283.114V104.006H284.751Z" fill="white"/>
<path d="M300.678 104.95C300.678 108.785 298.634 110.882 295.576 110.882C292.518 110.882 290.474 108.793 290.474 104.95V97.8913H293.317V104.859C293.317 107.039 294.085 107.991 295.606 107.991C297.128 107.991 297.896 107.047 297.896 104.859V97.8913H300.67V104.95H300.678ZM294.369 96.9139L296.244 93.6224L298.419 94.3659L296.859 96.9139H294.369Z" fill="white"/>
<path d="M309.56 103.839C310.697 104.207 311.68 105.218 311.68 106.913C311.68 108.877 310.39 110.623 307.485 110.623H302.452V97.8911H307.508C309.614 97.8911 311.073 99.4366 311.073 101.199C311.073 102.619 310.205 103.513 309.567 103.764V103.839H309.56ZM306.97 102.929C307.739 102.929 308.238 102.419 308.238 101.675C308.238 100.932 307.754 100.422 306.947 100.422H305.257V102.929H306.963H306.97ZM307.239 108.1C308.207 108.1 308.73 107.498 308.73 106.646C308.73 105.736 308.161 105.193 307.239 105.193H305.264V108.1H307.239Z" fill="white"/>
<path d="M313.027 97.8911H315.84V107.791H321.095V110.631H313.027V97.8995V97.8911Z" fill="white"/>
<path d="M322.547 97.8911H325.359V110.623H322.547V97.8911Z" fill="white"/>
<path d="M338.407 106.864C337.538 109.337 335.379 110.882 332.836 110.882C329.34 110.882 326.766 108.209 326.766 104.224C326.766 100.239 329.34 97.6411 332.836 97.6411C335.533 97.6411 337.508 99.2618 338.291 101.317L335.518 102.136C334.918 101.116 333.958 100.515 332.705 100.515C330.8 100.515 329.593 102.044 329.593 104.266C329.593 106.488 330.884 107.992 332.69 107.992C334.227 107.992 335.187 107.115 335.648 106.062L338.407 106.864Z" fill="white"/>
<path d="M342.417 108.518L341.71 110.631H338.752L343.27 97.8999H346.467L351 110.631H347.988L347.281 108.518H342.409H342.417ZM345.529 103.205C345.16 102.152 344.891 101.35 344.876 101.333H344.822C344.822 101.333 344.538 102.135 344.169 103.188L343.332 105.736H346.359L345.521 103.205H345.529Z" fill="white"/>
<path d="M18.7275 89.4364V76.9092H21.6267V89.4364H18.7275ZM24.5997 89.4364V76.9092H27.4988V89.4364H24.5997Z" fill="white"/>
</g>
<defs>
<clipPath id="clip0_544_3077">
<rect width="351" height="113.072" fill="white" transform="translate(0 0.792114)"/>
</clipPath>
</defs>
</svg>
