<svg width="351" height="113" viewBox="0 0 351 113" fill="none" xmlns="http://www.w3.org/2000/svg">
<g clip-path="url(#clip0_544_3001)">
<path fill-rule="evenodd" clip-rule="evenodd" d="M77.5315 49.3679C77.5315 49.3679 77.5315 49.3679 77.5315 49.3845C77.5315 49.3845 77.5315 49.3928 77.5315 49.4011C78.257 52.5892 79.3642 55.7191 80.8762 58.7245C80.8915 58.6857 80.9424 58.6276 81.0289 58.5501C79.6493 55.4064 78.4733 52.2543 77.501 49.094C77.501 49.2434 77.501 49.2517 77.5239 49.3762L77.5315 49.3679ZM77.5926 48.3717C78.3206 46.9935 79.4355 45.4216 80.9373 43.656C82.4238 47.4418 84.0808 51.2553 85.9084 55.0964C84.0197 56.375 82.5129 57.4266 81.3878 58.2513C79.9267 54.9636 78.6617 51.6732 77.5926 48.38V48.3717ZM82.182 42.4024C83.7448 46.2768 85.4732 50.176 87.367 54.1002C90.1771 52.246 93.257 50.2369 96.6068 48.0728C94.4381 43.7999 92.389 39.5824 90.4596 35.4203C87.4102 37.8611 84.651 40.1885 82.182 42.4024ZM92.5443 33.8595C96.1944 31.2636 99.9641 28.6789 103.854 26.1052C106.099 30.3117 108.405 34.6205 110.772 39.0317C106.699 41.6109 102.728 44.1376 98.8594 46.6116C96.65 42.2945 94.545 38.0438 92.5443 33.8595ZM106.32 24.5527C108.601 28.7315 110.932 33.0209 113.315 37.4211C117.393 34.8585 121.384 32.3651 125.288 29.9408C122.901 25.7233 120.511 21.647 118.118 17.7117C114.254 19.8703 110.321 22.1506 106.32 24.5527ZM120.416 16.5079C123.863 14.8364 127.083 13.378 130.076 12.1327C132.423 15.5144 134.714 19.0705 136.949 22.801C134.078 24.5389 130.947 26.4484 127.556 28.5295C125.179 24.3728 122.796 20.3657 120.409 16.5079H120.416ZM143.631 18.9986C143.783 18.9321 143.783 18.9321 143.852 18.9404C142.172 16.043 140.194 13.4527 137.987 11.2028C137.987 11.2028 137.987 11.2028 137.98 11.2028C137.888 11.1115 137.873 11.1115 137.766 11.0285C139.828 13.5025 141.785 16.162 143.638 19.0069L143.631 18.9986ZM131.703 11.5847C134.019 14.8502 136.272 18.2846 138.461 21.8877C140.416 20.742 142.001 19.8398 143.218 19.1812C141.309 16.209 139.293 13.4084 137.17 10.7794C136.88 10.7794 136.628 10.7794 136.399 10.7794C134.887 10.7794 134.521 10.8707 131.71 11.5847H131.703ZM112.185 5.39129C114.231 7.89301 116.39 10.7158 118.66 13.8595C122.096 12.3042 125.309 10.9704 128.297 9.85786C125.965 7.24545 123.669 4.95681 121.409 2.99196C118.523 3.53437 115.45 4.33691 112.192 5.39959L112.185 5.39129ZM129.924 9.38464C127.577 6.88845 125.271 4.71882 123.005 2.87573C125.334 3.04178 125.411 3.05008 127.205 3.58972C128.908 4.37012 130.557 5.29167 132.146 6.34604C133.673 7.46684 133.772 7.55816 135.506 9.07746C133.989 8.90588 132.128 9.00827 129.924 9.38464Z" fill="#2B8C8D"/>
<path fill-rule="evenodd" clip-rule="evenodd" d="M101.57 49.9038C103.958 54.1157 106.345 58.1866 108.733 62.1163C112.612 59.9522 116.542 57.6663 120.523 55.2587C118.243 51.0855 115.911 46.7988 113.529 42.3986C109.451 44.9667 105.465 47.4657 101.57 49.8955V49.9038ZM137.667 47.3301C139.087 51.0107 140.299 54.4312 141.301 57.5916C143.755 55.0401 145.911 52.5356 147.769 50.0781C147.296 46.9731 146.583 43.6827 145.631 40.2068C143.269 42.4706 140.617 44.8422 137.674 47.3218L137.667 47.3301ZM146.8 38.9117C148.184 37.0133 149.182 35.3085 149.793 33.7975C150.167 36.1803 150.182 36.3131 150.327 38.2973C150.404 40.3148 150.327 42.3322 150.121 44.333C149.678 46.284 149.648 46.3587 148.632 48.6335C148.261 45.5949 147.65 42.3571 146.8 38.92V38.9117ZM116.079 40.8046C120.147 38.2088 124.112 35.6711 127.976 33.1915C130.201 37.5142 132.311 41.7676 134.307 45.9519C130.667 48.5367 126.9 51.1214 123.005 53.7062C120.76 49.5053 118.454 45.2047 116.087 40.8046H116.079ZM130.244 31.7386C133.589 29.569 136.664 27.5598 139.469 25.7112C141.363 29.6354 143.096 33.5319 144.669 37.4007C142.2 39.6146 139.443 41.9365 136.399 44.3662C134.465 40.2207 132.413 36.0115 130.244 31.7386ZM140.927 24.715C142.755 28.5506 144.415 32.364 145.906 36.1554C147.408 34.3898 148.518 32.8041 149.236 31.3982C148.166 28.105 146.904 24.8257 145.448 21.5601C144.318 22.3848 142.811 23.4364 140.927 24.715ZM145.792 21.2696C145.921 21.145 145.921 21.145 145.944 21.0869C147.456 24.0923 148.564 27.2222 149.297 30.4186V30.4352C149.32 30.568 149.32 30.5846 149.327 30.7257C148.35 27.5654 147.171 24.4161 145.792 21.2779V21.2696Z" fill="#C6E6EF"/>
<path fill-rule="evenodd" clip-rule="evenodd" d="M88.268 20.6224C89.3676 23.7883 90.6734 27.2116 92.1854 30.8922C95.7388 28.313 99.4271 25.7421 103.25 23.1795C101.362 19.5763 99.6282 16.2693 98.05 13.2584C94.6392 15.6494 91.3811 18.1068 88.2757 20.6307L88.268 20.6224ZM77.9897 46.766C77.9897 46.766 77.9897 46.766 77.9897 46.7577C77.9897 46.7577 77.9897 46.7494 77.9897 46.7411C77.9897 46.7411 77.9897 46.7577 77.9897 46.766ZM80.0362 29.7465C81.9045 27.2724 84.0681 24.7597 86.527 22.2081C87.5197 25.3851 88.7262 28.8084 90.1465 32.4779C87.204 34.952 84.5492 37.3319 82.182 39.6178C81.23 36.1087 80.5147 32.8183 80.0362 29.7465ZM122.356 1.9425C123.921 2.10854 124.051 2.12515 125.258 2.44893C123.463 1.80967 121.615 1.32814 119.744 0.98775C120.867 1.28663 120.982 1.33644 122.364 1.9425H122.356ZM77.501 37.7581V41.9009C77.6232 43.5447 77.669 43.8187 78.005 46.0022C78.621 44.4856 79.6213 42.7948 81.006 40.9295C80.1507 37.4924 79.5424 34.2407 79.1809 31.1745C78.1653 33.4493 78.1271 33.5157 77.6842 35.4916C77.6079 36.2471 77.5392 37.0026 77.501 37.7581ZM96.3242 5.33809C96.3242 5.33809 96.3624 5.32979 96.3853 5.3713C98.9205 4.04849 101.461 2.90279 104.006 1.9342C101.387 2.73121 98.806 3.8603 96.3242 5.33809ZM96.6068 5.66188C99.5798 4.11214 102.55 2.77549 105.518 1.65192C106.709 2.25522 108.089 3.28192 109.657 4.73203C106.195 6.30945 102.713 8.07781 99.2107 10.0371C98.1315 8.16083 97.2635 6.70242 96.6068 5.66188ZM78.1653 32.1624C78.5395 30.145 79.0588 28.1691 79.7155 26.2347C79.4024 27.4385 79.3871 27.563 79.2039 29.1653C78.5548 30.7594 78.4937 30.9005 78.1653 32.1624ZM112.108 0.514526H115.552C116.125 0.539433 116.698 0.589246 117.27 0.647361C118.874 1.02926 118.943 1.06247 120.775 1.95911C117.93 2.35761 114.911 3.02178 111.719 3.95163C110.074 2.60114 108.608 1.67406 107.32 1.1704C108.871 0.854916 108.993 0.838311 110.245 0.663965C110.864 0.597548 111.49 0.547735 112.116 0.514526H112.108ZM84.0681 17.2268C82.7318 19.2941 81.594 21.4858 80.6471 23.7689C80.1737 25.4377 80.1737 25.5207 79.9675 27.7208C81.6933 25.2467 83.7168 22.7312 86.0383 20.1741C85.7583 17.9602 85.7328 16.1254 85.9619 14.6697C84.9463 15.9732 84.8776 16.0562 84.0681 17.2351V17.2268ZM88.1993 11.9134C90.2509 9.97071 92.4221 8.13869 94.713 6.41738C94.7232 6.37863 94.7232 6.35649 94.713 6.35096C92.2999 7.96158 90.1313 9.83787 88.1917 11.9134H88.1993ZM100.242 11.8719C103.841 9.8351 107.43 7.96988 111.009 6.27624C113.014 8.87205 115.122 11.7861 117.331 15.0184C113.493 17.094 109.609 19.3024 105.679 21.6436C103.719 18.0902 101.906 14.833 100.242 11.8719ZM87.2371 13.2003C89.6145 10.931 92.1498 8.78903 94.8428 6.77437C95.3773 7.8924 96.1257 9.42553 97.0878 11.3738C93.8094 13.6984 90.6836 16.1033 87.7106 18.5884C87.3033 16.4187 87.1481 14.6227 87.2448 13.2003H87.2371Z" fill="#00424B"/>
<path fill-rule="evenodd" clip-rule="evenodd" d="M241.367 61.3449L264.765 4.61616L265.086 3.84406H280.87L280.114 5.67884L256.716 62.4076L256.396 63.1797H240.619L241.375 61.3449H241.367ZM210.731 63.1797H198.742V60.1411C197.429 61.1706 195.924 62.0423 194.267 62.7148C191.702 63.7526 188.792 64.3254 185.715 64.3254C177.781 64.3254 170.61 61.0046 165.464 55.4172C160.424 49.9544 157.331 42.333 157.331 33.5243C157.331 24.7157 160.424 17.0943 165.464 11.6315C170.61 6.04414 177.781 2.72327 185.715 2.72327C190.976 2.72327 195.932 4.22596 200.185 6.92417C204.5 9.64728 208.097 13.6157 210.586 18.4725L211.327 19.9337L209.83 20.3571L197.032 24.0017L196.291 24.2093L195.802 23.5617C194.71 22.1255 193.16 20.9382 191.419 20.108C189.625 19.2446 187.639 18.7631 185.722 18.7631C181.79 18.7631 178.613 20.2409 176.406 22.7564C174.115 25.3633 172.848 29.1159 172.848 33.5077C172.848 37.8996 174.23 41.7518 176.567 44.3172C178.98 46.949 182.431 48.4102 186.471 48.4102C189.907 48.4102 192.465 47.5882 194.367 46.3346C196.146 45.1723 197.352 43.6198 198.177 42.0258H185.043V28.4766H211.945V63.1797H210.739H210.731ZM210.273 17.8664V19.1699H225.996V63.1714H240.986V19.1699H256.938V3.84406H210.273V17.8664ZM281.19 4.61616L280.87 3.84406H265.086L265.842 5.67884L289.239 62.4076L289.56 63.1797H305.344L304.58 61.3449L281.183 4.61616H281.19ZM318.89 50.9257V63.1797H303.9V3.84406H326.16C333.827 3.84406 340.004 6.04414 344.296 10.079C348.626 14.1554 351.001 20.0499 351.001 27.3807C351.001 34.7116 348.633 40.6144 344.296 44.6908C340.012 48.7339 333.827 50.9257 326.16 50.9257H318.898H318.89Z" fill="white"/>
<path fill-rule="evenodd" clip-rule="evenodd" d="M272.981 22.964L256.388 63.1797H289.567L272.981 22.964Z" fill="#DACF6D"/>
<path fill-rule="evenodd" clip-rule="evenodd" d="M318.774 20.2495V34.8198H326.907C329.801 34.8198 332.077 34.1141 333.612 32.819C335.04 31.5986 335.826 29.8053 335.826 27.5305C335.826 25.2557 335.04 23.4708 333.612 22.242C332.077 20.9469 329.801 20.2412 326.907 20.2412H318.774V20.2495Z" fill="#DACF6D"/>
<path fill-rule="evenodd" clip-rule="evenodd" d="M272.753 22.3828L265.819 5.58746L265.086 3.80249H266.888H279.656H280.412L279.679 5.58746L272.753 22.3828Z" fill="#A67F26"/>
<path d="M7.27548 63.7256V2.36613H21.4758V63.7256H7.27548ZM27.2721 63.7256V2.36613H41.4724V63.7256H27.2721ZM47.2687 63.7256V2.36613H61.469V63.7256H47.2687Z" fill="white"/>
<path d="M44.9233 84.234C44.0605 86.6914 41.9147 88.2273 39.3871 88.2273C35.9126 88.2273 33.3545 85.5706 33.3545 81.6105C33.3545 77.6503 35.9126 75.0684 39.3871 75.0684C42.0674 75.0684 44.0299 76.679 44.8088 78.7213L42.0521 79.5349C41.4565 78.5221 40.5096 77.9243 39.2573 77.9243C37.3635 77.9243 36.1646 79.4436 36.1646 81.652C36.1646 83.8604 37.4475 85.3548 39.242 85.3548C40.7692 85.3548 41.7161 84.483 42.1819 83.4369L44.9233 84.234Z" fill="white"/>
<path d="M51.9395 75.0684C55.498 75.0684 58.0714 77.7832 58.0714 81.652C58.0714 85.5208 55.4903 88.2356 51.9395 88.2356C48.3887 88.2356 45.8076 85.5208 45.8076 81.652C45.8076 77.7832 48.3887 75.0684 51.9395 75.0684ZM51.9395 85.3548C53.8714 85.3548 55.2612 83.9102 55.2612 81.652C55.2612 79.3938 53.8638 77.9243 51.9395 77.9243C50.0152 77.9243 48.6177 79.3689 48.6177 81.652C48.6177 83.9351 50.0152 85.3548 51.9395 85.3548Z" fill="white"/>
<path d="M62.2787 80.4232H62.2252C62.2252 80.4232 62.2558 81.9923 62.2558 83.6445V87.9865H59.4609V75.334H62.2863L67.2422 82.7478H67.2957C67.2957 82.7478 67.2804 81.104 67.2804 79.7258V75.334H70.0753V87.9865H67.2346L62.2787 80.4315V80.4232Z" fill="white"/>
<path d="M80.7506 87.9782C80.7506 87.256 80.7659 87.1812 80.7659 87.0899H80.7354C80.071 87.7043 78.8034 88.2273 77.4594 88.2273C74.2141 88.2273 71.4727 85.5706 71.4727 81.6271C71.4727 77.6835 74.0308 75.0684 77.5053 75.0684C80.1474 75.0684 82.1786 76.6624 82.927 78.7213L80.1703 79.5349C79.7198 78.7213 78.8569 77.9243 77.3754 77.9243C75.4969 77.9243 74.2828 79.4436 74.2828 81.652C74.2828 83.8604 75.6268 85.3548 77.6885 85.3548C79.2845 85.3548 80.2848 84.5993 80.6514 84.0513V83.4536H77.7267V80.6308H83.2477V87.9699H80.7506V87.9782Z" fill="white"/>
<path d="M88.9526 83.8022H87.7079V87.9782H84.9131V75.3257H89.3345C92.2591 75.3257 93.9773 76.9861 93.9773 79.6096C93.9773 81.3448 93.1984 82.6316 91.7857 83.2044L94.4431 87.9782H91.1366L88.9603 83.8022H88.9526ZM89.5177 81.378C90.5486 81.378 91.1137 80.8217 91.1137 79.7507C91.1137 78.6798 90.5792 78.0737 89.5024 78.0737H87.7079V81.378H89.5177Z" fill="white"/>
<path d="M95.6348 75.3177H104.111V78.1405H98.422V80.3074H102.614V82.8395H98.422V85.1558H104.195V87.9786H95.6348V75.3261V75.3177Z" fill="white"/>
<path d="M108.005 84.0347C108.234 84.9895 109.051 85.554 110.319 85.554C111.38 85.554 112.029 85.1555 112.029 84.3419C112.029 83.1298 110.632 83.2045 109.204 82.8226C107.623 82.4075 105.661 81.6105 105.661 78.9372C105.661 76.2639 107.455 75.0684 110.067 75.0684C112.442 75.0684 114.137 76.1144 114.786 78.3726L112.129 79.153C111.846 78.2315 111.182 77.7251 110.013 77.7251C108.952 77.7251 108.501 78.1734 108.501 78.8458C108.501 79.9085 109.616 80.0746 111.243 80.4399C112.953 80.8052 114.855 81.5939 114.855 84.3253C114.855 87.0567 113.175 88.2273 110.334 88.2273C108.303 88.2273 106.012 87.5548 105.348 84.8068L108.005 84.0264V84.0347Z" fill="white"/>
<path d="M118.428 84.0347C118.657 84.9895 119.474 85.554 120.742 85.554C121.803 85.554 122.452 85.1555 122.452 84.3419C122.452 83.1298 121.055 83.2045 119.627 82.8226C118.046 82.4075 116.084 81.6105 116.084 78.9372C116.084 76.2639 117.878 75.0684 120.49 75.0684C122.865 75.0684 124.56 76.1144 125.209 78.3726L122.551 79.153C122.269 78.2315 121.605 77.7251 120.436 77.7251C119.375 77.7251 118.924 78.1734 118.924 78.8458C118.924 79.9085 120.039 80.0746 121.666 80.4399C123.376 80.8052 125.278 81.5939 125.278 84.3253C125.278 87.0567 123.598 88.2273 120.757 88.2273C118.726 88.2273 116.435 87.5548 115.771 84.8068L118.428 84.0264V84.0347Z" fill="white"/>
<path d="M132.349 75.0684C135.907 75.0684 138.481 77.7832 138.481 81.652C138.481 85.5208 135.9 88.2356 132.349 88.2356C128.798 88.2356 126.217 85.5208 126.217 81.652C126.217 77.7832 128.798 75.0684 132.349 75.0684ZM132.349 85.3548C134.281 85.3548 135.67 83.9102 135.67 81.652C135.67 79.3938 134.273 77.9243 132.349 77.9243C130.424 77.9243 129.027 79.3689 129.027 81.652C129.027 83.9351 130.424 85.3548 132.349 85.3548Z" fill="white"/>
<path d="M151.103 81.2368C152.233 81.6021 153.218 82.6067 153.218 84.292C153.218 86.243 151.935 87.9782 149.041 87.9782H144.039V75.3257H149.064C151.156 75.3257 152.607 76.8616 152.607 78.6133C152.607 80.0247 151.744 80.913 151.11 81.1621V81.2368H151.103ZM148.522 80.3319C149.285 80.3319 149.781 79.8255 149.781 79.0866C149.781 78.3477 149.3 77.8412 148.499 77.8412H146.819V80.3319H148.514H148.522ZM148.789 85.4626C149.751 85.4626 150.27 84.8649 150.27 84.0181C150.27 83.1131 149.705 82.5735 148.789 82.5735H146.826V85.4626H148.789Z" fill="white"/>
<path d="M158.587 83.8022H157.343V87.9782H154.548V75.3257H158.969C161.894 75.3257 163.612 76.9861 163.612 79.6096C163.612 81.3448 162.833 82.6316 161.42 83.2044L164.078 87.9782H160.771L158.595 83.8022H158.587ZM159.152 81.378C160.183 81.378 160.748 80.8217 160.748 79.7507C160.748 78.6798 160.214 78.0737 159.137 78.0737H157.343V81.378H159.152Z" fill="white"/>
<path d="M168.407 85.8778L167.712 87.9782H164.772L169.263 75.3257H172.439L176.945 87.9782H173.951L173.256 85.8778H168.415H168.407ZM171.5 80.5976C171.133 79.5515 170.866 78.7545 170.851 78.7379H170.797C170.797 78.7379 170.515 79.5349 170.148 80.581L169.316 83.1131H172.325L171.492 80.5976H171.5Z" fill="white"/>
<path d="M180.267 84.0347C180.496 84.9895 181.313 85.554 182.581 85.554C183.642 85.554 184.291 85.1555 184.291 84.3419C184.291 83.1298 182.894 83.2045 181.466 82.8226C179.885 82.4075 177.922 81.6105 177.922 78.9372C177.922 76.2639 179.717 75.0684 182.329 75.0684C184.703 75.0684 186.399 76.1144 187.048 78.3726L184.39 79.153C184.108 78.2315 183.443 77.7251 182.275 77.7251C181.214 77.7251 180.763 78.1734 180.763 78.8458C180.763 79.9085 181.878 80.0746 183.505 80.4399C185.215 80.8052 187.116 81.5939 187.116 84.3253C187.116 87.0567 185.436 88.2273 182.596 88.2273C180.565 88.2273 178.274 87.5548 177.609 84.8068L180.267 84.0264V84.0347Z" fill="white"/>
<path d="M188.514 75.3177H191.309V87.9703H188.514V75.3177Z" fill="white"/>
<path d="M193.165 75.3177H195.96V85.1558H201.183V87.9786H193.165V75.3261V75.3177Z" fill="white"/>
<path d="M202.627 75.3177H211.103V78.1405H205.414V80.3074H209.606V82.8395H205.414V85.1558H211.187V87.9786H202.627V75.3261V75.3177Z" fill="white"/>
<path d="M212.819 75.3177H215.614V87.9703H212.819V75.3177Z" fill="white"/>
<path d="M221.516 83.8022H220.271V87.9782H217.477V75.3257H221.898C224.823 75.3257 226.533 76.9861 226.533 79.6096C226.533 81.3448 225.754 82.6316 224.342 83.2044L226.999 87.9782H223.692L221.516 83.8022ZM222.081 81.378C223.112 81.378 223.677 80.8217 223.677 79.7507C223.677 78.6798 223.143 78.0737 222.066 78.0737H220.271V81.378H222.081Z" fill="white"/>
<path d="M233.719 75.0684C237.277 75.0684 239.85 77.7832 239.85 81.652C239.85 85.5208 237.269 88.2356 233.719 88.2356C230.168 88.2356 227.579 85.5208 227.579 81.652C227.579 77.7832 230.16 75.0684 233.719 75.0684ZM233.719 85.3548C235.651 85.3548 237.04 83.9102 237.04 81.652C237.04 79.3938 235.643 77.9243 233.719 77.9243C231.794 77.9243 230.389 79.3689 230.389 81.652C230.389 83.9351 231.787 85.3548 233.719 85.3548Z" fill="white"/>
<path d="M250.358 75.3177C253.833 75.3177 256.498 77.8831 256.498 81.7021C256.498 85.5211 253.818 87.9786 250.381 87.9786H245.41V75.3261H250.366L250.358 75.3177ZM250.213 85.1558C251.939 85.1558 253.688 84.2011 253.688 81.7021C253.688 79.2032 251.939 78.1405 250.213 78.1405H248.205V85.1558H250.213Z" fill="white"/>
<path d="M257.897 75.3177H266.374V78.1405H260.685V80.3074H264.877V82.8395H260.685V85.1558H266.458V87.9786H257.897V75.3261V75.3177Z" fill="white"/>
<path d="M281.055 87.9782C281.055 87.256 281.071 87.1812 281.071 87.0899H281.04C280.376 87.7043 279.108 88.2273 277.764 88.2273C274.519 88.2273 271.777 85.5706 271.777 81.6271C271.777 77.6835 274.335 75.0684 277.81 75.0684C280.452 75.0684 282.483 76.6624 283.232 78.7213L280.475 79.5349C280.024 78.7213 279.162 77.9243 277.68 77.9243C275.802 77.9243 274.587 79.4436 274.587 81.652C274.587 83.8604 275.931 85.3548 277.993 85.3548C279.589 85.3548 280.59 84.5993 280.956 84.0513V83.4536H278.031V80.6308H283.552V87.9699H281.055V87.9782Z" fill="white"/>
<path d="M285.209 75.3177H293.685V78.1405H287.996V80.3074H292.188V82.8395H287.996V85.1558H293.769V87.9786H285.209V75.3261V75.3177Z" fill="white"/>
<path d="M297.581 84.0347C297.81 84.9895 298.627 85.554 299.895 85.554C300.956 85.554 301.606 85.1555 301.606 84.3419C301.606 83.1298 300.208 83.2045 298.78 82.8226C297.199 82.4075 295.237 81.6105 295.237 78.9372C295.237 76.2639 297.031 75.0684 299.643 75.0684C302.018 75.0684 303.713 76.1144 304.362 78.3726L301.705 79.153C301.422 78.2315 300.758 77.7251 299.59 77.7251C298.528 77.7251 298.078 78.1734 298.078 78.8458C298.078 79.9085 299.192 80.0746 300.819 80.4399C302.529 80.8052 304.431 81.5939 304.431 84.3253C304.431 87.0567 302.751 88.2273 299.91 88.2273C297.879 88.2273 295.588 87.5548 294.924 84.8068L297.581 84.0264V84.0347Z" fill="white"/>
<path d="M311.7 78.1405V87.9786H308.905V78.1405H305.347V75.3177H315.258V78.1405H311.7Z" fill="white"/>
<path d="M317.801 85.8777L317.098 87.9781H314.158L318.648 75.3256H321.825L326.33 87.9781H323.337L322.634 85.8777H317.793H317.801ZM317.419 74.1301L317.022 71.9466C317.175 71.7474 317.77 71.3655 318.633 71.3655C319.717 71.3655 320.382 71.9051 321.497 71.9051C322.13 71.9051 322.657 71.6311 322.94 71.3987L323.337 73.5822C323.184 73.7814 322.573 74.1633 321.741 74.1633C320.657 74.1633 319.977 73.6237 318.9 73.6237C318.266 73.6237 317.686 73.8727 317.419 74.1301ZM320.893 80.5975C320.527 79.5514 320.26 78.7544 320.244 78.7378H320.191C320.191 78.7378 319.908 79.5348 319.542 80.5809L318.709 83.1131H321.718L320.886 80.5975H320.893Z" fill="white"/>
<path d="M332.647 75.0684C336.206 75.0684 338.779 77.7832 338.779 81.652C338.779 85.5208 336.198 88.2356 332.647 88.2356C329.096 88.2356 326.508 85.5208 326.508 81.652C326.508 77.7832 329.089 75.0684 332.647 75.0684ZM332.647 85.3548C334.579 85.3548 335.969 83.9102 335.969 81.652C335.969 79.3938 334.572 77.9243 332.647 77.9243C330.723 77.9243 329.318 79.3689 329.318 81.652C329.318 83.9351 330.715 85.3548 332.647 85.3548Z" fill="white"/>
<path d="M7.45977 99.8336V109.672H4.66492V99.8336H1.10645V97.0109H11.0182V99.8336H7.45977Z" fill="white"/>
<path d="M16.4985 105.496H15.2538V109.672H12.459V97.0193H16.8803C19.805 97.0193 21.5232 98.6797 21.5232 101.303C21.5232 103.038 20.7443 104.325 19.3316 104.898L21.989 109.672H18.6825L16.5062 105.496H16.4985ZM17.0636 103.072C18.0945 103.072 18.6596 102.515 18.6596 101.444C18.6596 100.373 18.125 99.7673 17.0483 99.7673H15.2538V103.072H17.0636Z" fill="white"/>
<path d="M23.1807 97.0109H25.9755V109.663H23.1807V97.0109Z" fill="white"/>
<path d="M34.9033 102.922C36.0335 103.287 37.0186 104.292 37.0186 105.977C37.0186 107.928 35.7357 109.663 32.8416 109.663H27.8398V97.0109H32.8645C34.9568 97.0109 36.4077 98.5468 36.4077 100.299C36.4077 101.71 35.5448 102.598 34.911 102.847V102.922H34.9033ZM32.3299 102.017C33.0936 102.017 33.5899 101.511 33.5899 100.772C33.5899 100.033 33.1088 99.5264 32.307 99.5264H30.6271V102.017H32.3223H32.3299ZM32.5972 107.156C33.5594 107.156 34.0786 106.558 34.0786 105.712C34.0786 104.807 33.5135 104.267 32.5972 104.267H30.6347V107.156H32.5972Z" fill="white"/>
<path d="M48.387 104.026C48.387 107.837 46.3557 109.921 43.3165 109.921C40.2773 109.921 38.2461 107.845 38.2461 104.026V97.0109H41.0715V103.935C41.0715 106.102 41.8351 107.048 43.3471 107.048C44.859 107.048 45.6227 106.11 45.6227 103.935V97.0109H48.3793V104.026H48.387Z" fill="white"/>
<path d="M56.0857 99.8336V109.672H53.2909V99.8336H49.7324V97.0109H59.6442V99.8336H56.0857Z" fill="white"/>
<path d="M62.1876 107.571L61.4927 109.672H58.5527L63.0428 97.0194H66.2195L70.7248 109.672H67.7315L67.0366 107.571H62.1952H62.1876ZM65.2802 102.291C64.9137 101.245 64.6464 100.448 64.6312 100.432H64.5777C64.5777 100.432 64.2952 101.229 63.9286 102.275L63.0963 104.807H66.1049L65.2726 102.291H65.2802ZM63.3177 96.0397L65.181 92.7687L67.3573 93.5076L65.7919 96.0397H63.3177Z" fill="white"/>
<path d="M75.9106 105.496H74.6659V109.672H71.8711V97.0193H76.2925C79.2171 97.0193 80.9353 98.6797 80.9353 101.303C80.9353 103.038 80.1564 104.325 78.7437 104.898L81.4011 109.672H78.0946L75.9183 105.496H75.9106ZM76.4757 103.072C77.5066 103.072 78.0717 102.515 78.0717 101.444C78.0717 100.373 77.5372 99.7673 76.4605 99.7673H74.6659V103.072H76.4757Z" fill="white"/>
<path d="M82.5889 97.0109H85.3837V109.663H82.5889V97.0109Z" fill="white"/>
<path d="M90.1749 107.571L89.48 109.672H86.54L91.0301 97.0193H94.2068L98.7122 109.672H95.7188L95.0239 107.571H90.1825H90.1749ZM93.2675 102.291C92.901 101.245 92.6337 100.448 92.6185 100.431H92.565C92.565 100.431 92.2825 101.228 91.9159 102.275L91.0836 104.807H94.0922L93.2599 102.291H93.2675Z" fill="white"/>
<path d="M106.813 102.109H106.759C106.759 102.109 106.79 103.678 106.79 105.33V109.672H103.995V97.0193H106.821L111.776 104.433H111.83C111.83 104.433 111.815 102.789 111.815 101.411V97.0193H114.609V109.672H111.769L106.813 102.117V102.109Z" fill="white"/>
<path d="M119.405 107.571L118.71 109.672H115.771L120.261 97.0193H123.437L127.943 109.672H124.949L124.254 107.571H119.413H119.405ZM122.498 102.291C122.131 101.245 121.864 100.448 121.849 100.431H121.795C121.795 100.431 121.513 101.228 121.146 102.275L120.314 104.807H123.323L122.49 102.291H122.498Z" fill="white"/>
<path d="M136.158 107.571L135.463 109.672H132.523L137.014 97.0193H140.19L144.696 109.672H141.702L141.007 107.571H136.166H136.158ZM139.251 102.291C138.884 101.245 138.617 100.448 138.602 100.431H138.548C138.548 100.431 138.266 101.228 137.899 102.275L137.067 104.807H140.076L139.243 102.291H139.251Z" fill="white"/>
<path d="M150.79 97.0109C154.264 97.0109 156.922 99.5762 156.922 103.395C156.922 107.214 154.241 109.672 150.805 109.672H145.834V97.0192H150.79V97.0109ZM150.645 106.849C152.371 106.849 154.119 105.894 154.119 103.395C154.119 100.896 152.371 99.8336 150.645 99.8336H148.636V106.849H150.645Z" fill="white"/>
<path d="M167.253 106.575C167.253 103.578 167.283 102.092 167.283 102.075H167.253C167.253 102.075 166.672 103.229 166.107 104.317L164.977 106.542H163.412L162.282 104.358C161.701 103.238 161.151 102.1 161.136 102.084H161.083C161.083 102.084 161.113 103.586 161.113 106.583V109.672H158.318V97.0193H161.281L164.206 102.681H164.259L167.199 97.0193H170.04V109.672H167.245V106.583L167.253 106.575Z" fill="white"/>
<path d="M171.912 97.0109H174.707V109.663H171.912V97.0109Z" fill="white"/>
<path d="M179.372 102.109H179.319C179.319 102.109 179.35 103.678 179.35 105.33V109.672H176.555V97.0193H179.38L184.336 104.433H184.382C184.382 104.433 184.367 102.789 184.367 101.411V97.0193H187.161V109.672H184.321L179.365 102.117L179.372 102.109Z" fill="white"/>
<path d="M189.032 97.0109H191.827V109.663H189.032V97.0109Z" fill="white"/>
<path d="M195.867 105.728C196.096 106.683 196.914 107.248 198.181 107.248C199.243 107.248 199.892 106.849 199.892 106.036C199.892 104.823 198.494 104.898 197.066 104.516C195.486 104.101 193.523 103.304 193.523 100.631C193.523 97.9576 195.318 96.7621 197.929 96.7621C200.304 96.7621 201.999 97.8082 202.648 100.066L199.991 100.847C199.708 99.9252 199.044 99.4188 197.876 99.4188C196.814 99.4188 196.364 99.8671 196.364 100.54C196.364 101.602 197.479 101.768 199.105 102.134C200.816 102.499 202.717 103.288 202.717 106.019C202.717 108.75 201.037 109.921 198.196 109.921C196.165 109.921 193.874 109.249 193.21 106.501L195.867 105.72V105.728Z" fill="white"/>
<path d="M209.986 99.8336V109.672H207.191V99.8336H203.633V97.0109H213.545V99.8336H209.986Z" fill="white"/>
<path d="M219.027 105.496H217.782V109.672H214.987V97.0193H219.409C222.333 97.0193 224.044 98.6797 224.044 101.303C224.044 103.038 223.265 104.325 221.852 104.898L224.51 109.672H221.203L219.027 105.496ZM219.592 103.072C220.623 103.072 221.188 102.515 221.188 101.444C221.188 100.373 220.653 99.7673 219.577 99.7673H217.782V103.072H219.592Z" fill="white"/>
<path d="M228.856 107.571L228.154 109.672H225.214L229.704 97.0193H232.881L237.386 109.672H234.393L233.69 107.571H228.849H228.856ZM231.949 102.291C231.582 101.245 231.315 100.448 231.3 100.431H231.246C231.246 100.431 230.964 101.228 230.597 102.275L229.765 104.807H232.774L231.941 102.291H231.949Z" fill="white"/>
<path d="M249.137 105.928C248.488 107.771 247.106 109.091 245.411 109.631C245.762 109.938 245.976 110.37 245.976 110.984C245.976 112.163 245.197 112.885 243.418 112.885C242.838 112.885 242.188 112.794 241.891 112.669V110.826C242.074 110.901 242.456 110.967 242.99 110.967C243.784 110.967 244.09 110.826 244.09 110.552C244.09 110.187 243.525 110.013 241.998 110.029V109.705C239.371 109.016 237.576 106.617 237.576 103.304C237.576 99.4522 240.134 96.7623 243.609 96.7623C246.289 96.7623 248.252 98.3729 249.03 100.415L246.274 101.229C245.678 100.216 244.724 99.6183 243.479 99.6183C241.585 99.6183 240.386 101.138 240.386 103.346C240.386 105.554 241.669 107.049 243.464 107.049C244.991 107.049 245.945 106.177 246.404 105.131L249.145 105.928H249.137Z" fill="white"/>
<path d="M253.132 107.571L252.429 109.672H249.489L253.979 97.0191H257.156L261.661 109.672H258.668L257.965 107.571H253.124H253.132ZM252.75 95.8236L252.353 93.6401C252.506 93.4409 253.101 93.059 253.964 93.059C255.048 93.059 255.713 93.5986 256.828 93.5986C257.461 93.5986 257.988 93.3246 258.271 93.0922L258.668 95.2756C258.515 95.4749 257.904 95.8568 257.072 95.8568C255.988 95.8568 255.308 95.3172 254.231 95.3172C253.598 95.3172 253.017 95.5662 252.75 95.8236ZM256.224 102.291C255.858 101.245 255.591 100.448 255.575 100.431H255.522C255.522 100.431 255.239 101.228 254.873 102.274L254.04 104.807H257.049L256.217 102.291H256.224Z" fill="white"/>
<path d="M267.975 96.7623C271.534 96.7623 274.107 99.4771 274.107 103.346C274.107 107.215 271.526 109.93 267.975 109.93C264.425 109.93 261.836 107.215 261.836 103.346C261.836 99.4771 264.417 96.7623 267.975 96.7623ZM267.975 107.049C269.907 107.049 271.297 105.604 271.297 103.346C271.297 101.088 269.9 99.6183 267.975 99.6183C266.051 99.6183 264.646 101.063 264.646 103.346C264.646 105.629 266.043 107.049 267.975 107.049Z" fill="white"/>
<path d="M284.005 97.0109C286.869 97.0109 288.595 98.6547 288.595 101.37C288.595 104.084 286.869 105.728 284.005 105.728H282.455V109.672H279.66V97.0192H283.998L284.005 97.0109ZM284.089 103.088C285.273 103.088 285.8 102.416 285.8 101.428C285.8 100.44 285.265 99.7838 284.089 99.7838H282.463V103.088H284.089Z" fill="white"/>
<path d="M299.917 104.026C299.917 107.837 297.886 109.921 294.847 109.921C291.808 109.921 289.776 107.845 289.776 104.026V97.0111H292.602V103.935C292.602 106.102 293.365 107.048 294.877 107.048C296.389 107.048 297.153 106.11 297.153 103.935V97.0111H299.91V104.026H299.917ZM293.648 96.0397L295.511 92.7687L297.672 93.5076L296.122 96.0397H293.648Z" fill="white"/>
<path d="M308.743 102.922C309.873 103.287 310.851 104.292 310.851 105.977C310.851 107.928 309.568 109.663 306.681 109.663H301.68V97.0109H306.704C308.797 97.0109 310.248 98.5468 310.248 100.299C310.248 101.71 309.385 102.598 308.751 102.847V102.922H308.743ZM306.17 102.017C306.933 102.017 307.43 101.511 307.43 100.772C307.43 100.033 306.949 99.5264 306.147 99.5264H304.467V102.017H306.162H306.17ZM306.437 107.156C307.399 107.156 307.918 106.558 307.918 105.712C307.918 104.807 307.353 104.267 306.437 104.267H304.475V107.156H306.437Z" fill="white"/>
<path d="M312.189 97.0109H314.984V106.849H320.207V109.672H312.189V97.0192V97.0109Z" fill="white"/>
<path d="M321.65 97.0109H324.445V109.663H321.65V97.0109Z" fill="white"/>
<path d="M337.413 105.928C336.55 108.385 334.404 109.921 331.876 109.921C328.402 109.921 325.844 107.264 325.844 103.304C325.844 99.3441 328.402 96.7621 331.876 96.7621C334.557 96.7621 336.519 98.3727 337.298 100.415L334.541 101.229C333.946 100.216 332.991 99.618 331.747 99.618C329.853 99.618 328.654 101.137 328.654 103.346C328.654 105.554 329.937 107.048 331.731 107.048C333.259 107.048 334.213 106.177 334.671 105.131L337.413 105.928Z" fill="white"/>
<path d="M341.396 107.571L340.694 109.672H337.754L342.244 97.0193H345.421L349.926 109.672H346.933L346.23 107.571H341.389H341.396ZM344.489 102.291C344.123 101.245 343.855 100.448 343.84 100.431H343.787C343.787 100.431 343.504 101.228 343.137 102.275L342.305 104.807H345.314L344.481 102.291H344.489Z" fill="white"/>
<path d="M14.189 87.6891V75.2397H17.0702V87.6891H14.189ZM20.0247 87.6891V75.2397H22.9058V87.6891H20.0247ZM25.8603 87.6891V75.2397H28.7415V87.6891H25.8603Z" fill="white"/>
</g>
<defs>
<clipPath id="clip0_544_3001">
<rect width="351" height="112.371" fill="white" transform="translate(0 0.514404)"/>
</clipPath>
</defs>
</svg>
