<svg width="349" height="106" viewBox="0 0 349 106" fill="none" xmlns="http://www.w3.org/2000/svg">
<g clip-path="url(#clip0_544_5300)">
<path fill-rule="evenodd" clip-rule="evenodd" d="M92.7933 45.7503C92.7933 45.7503 92.7933 45.7503 92.7933 45.7658C92.7933 45.7658 92.7933 45.7736 92.7933 45.7814C93.4726 48.7669 94.5095 51.698 95.9255 54.5125C95.9398 54.4762 95.9874 54.4218 96.0685 54.3492C94.7765 51.4052 93.6752 48.4533 92.7646 45.4937C92.7646 45.6337 92.7646 45.6414 92.7861 45.7581L92.7933 45.7503ZM92.8505 44.8173C93.5322 43.5267 94.5763 42.0546 95.9827 40.4012C97.3748 43.9465 98.9266 47.5178 100.638 51.1149C98.8694 52.3122 97.4582 53.297 96.4046 54.0693C95.0363 50.9905 93.8516 47.9091 92.8505 44.8251V44.8173ZM97.1483 39.2272C98.6119 42.8555 100.23 46.507 102.004 50.1819C104.636 48.4456 107.52 46.564 110.657 44.5374C108.626 40.536 106.707 36.5864 104.9 32.6886C102.044 34.9744 99.4605 37.1539 97.1483 39.2272ZM106.852 31.2269C110.271 28.796 113.801 26.3754 117.443 23.9652C119.546 27.9045 121.705 31.9396 123.922 36.0706C120.108 38.486 116.39 40.8521 112.766 43.169C110.697 39.1261 108.726 35.1454 106.852 31.2269ZM119.753 22.5113C121.889 26.4247 124.072 30.4416 126.304 34.5623C130.122 32.1625 133.86 29.8274 137.517 27.5572C135.281 23.6076 133.042 19.7901 130.802 16.1049C127.183 18.1263 123.5 20.2618 119.753 22.5113ZM132.954 14.9775C136.182 13.4122 139.197 12.0464 142 10.8802C144.198 14.0471 146.344 17.3773 148.436 20.8708C145.748 22.4984 142.816 24.2866 139.64 26.2355C137.414 22.3429 135.183 18.5902 132.947 14.9775H132.954ZM154.694 17.31C154.837 17.2478 154.837 17.2478 154.901 17.2555C153.328 14.5421 151.476 12.1164 149.409 10.0094C149.409 10.0094 149.409 10.0094 149.402 10.0094C149.316 9.92387 149.302 9.92387 149.202 9.84612C151.132 12.163 152.965 14.6536 154.701 17.3177L154.694 17.31ZM143.524 10.367C145.693 13.4251 147.802 16.6413 149.852 20.0156C151.683 18.9427 153.168 18.0978 154.308 17.481C152.52 14.6976 150.632 12.0749 148.644 9.61288C148.372 9.61288 148.136 9.61288 147.922 9.61288C146.506 9.61288 146.162 9.6984 143.531 10.367H143.524ZM125.245 4.56701C127.162 6.90983 129.183 9.55327 131.309 12.4973C134.527 11.0409 137.536 9.7917 140.334 8.74987C138.151 6.30339 136.001 4.16013 133.884 2.32009C131.181 2.82805 128.304 3.57961 125.252 4.57479L125.245 4.56701ZM141.857 8.30671C139.66 5.96908 137.5 3.93725 135.378 2.21124C137.56 2.36674 137.631 2.37451 139.312 2.87988C140.906 3.61071 142.451 4.47372 143.938 5.46112C145.369 6.51072 145.462 6.59625 147.085 8.01904C145.664 7.85836 143.922 7.95425 141.857 8.30671Z" fill="#2B8C8D"/>
<path fill-rule="evenodd" clip-rule="evenodd" d="M115.306 46.2518C117.542 50.1962 119.778 54.0085 122.013 57.6886C125.646 55.6619 129.327 53.5213 133.055 51.2666C130.919 47.3584 128.736 43.344 126.504 39.2234C122.686 41.6284 118.953 43.9686 115.306 46.244V46.2518ZM149.109 43.8416C150.439 47.2885 151.574 50.4917 152.513 53.4513C154.811 51.0618 156.83 48.7164 158.57 46.4151C158.127 43.5073 157.459 40.4259 156.568 37.1708C154.356 39.2908 151.872 41.5118 149.116 43.8338L149.109 43.8416ZM157.662 35.9579C158.959 34.1801 159.893 32.5837 160.465 31.1686C160.816 33.4 160.83 33.5244 160.966 35.3826C161.037 37.2719 160.966 39.1612 160.773 41.0349C160.358 42.862 160.329 42.932 159.378 45.0623C159.03 42.2167 158.458 39.1845 157.662 35.9657V35.9579ZM128.893 37.7306C132.702 35.2997 136.416 32.9232 140.034 30.6011C142.118 34.6492 144.094 38.6325 145.963 42.551C142.554 44.9716 139.026 47.3921 135.379 49.8127C133.277 45.8786 131.117 41.8513 128.9 37.7306H128.893ZM142.158 29.2405C145.29 27.2087 148.17 25.3272 150.797 23.596C152.57 27.2709 154.194 30.9199 155.667 34.5429C153.355 36.6162 150.773 38.7906 147.922 41.066C146.11 37.1838 144.189 33.2419 142.158 29.2405ZM152.163 22.663C153.874 26.255 155.428 29.8262 156.825 33.3767C158.232 31.7232 159.271 30.2383 159.943 28.9217C158.942 25.8377 157.76 22.7666 156.396 19.7085C155.338 20.4808 153.927 21.4657 152.163 22.663ZM156.718 19.4364C156.84 19.3198 156.84 19.3198 156.861 19.2654C158.277 22.0799 159.314 25.011 160 28.0043V28.0198C160.022 28.1442 160.022 28.1598 160.029 28.292C159.114 25.3323 158.01 22.3831 156.718 19.4442V19.4364Z" fill="#C6E6EF"/>
<path fill-rule="evenodd" clip-rule="evenodd" d="M102.848 18.8304C103.878 21.7952 105.1 25.001 106.516 28.4479C109.844 26.0325 113.298 23.6249 116.878 21.225C115.11 17.8508 113.486 14.7538 112.008 11.9341C108.814 14.1733 105.763 16.4746 102.855 18.8382L102.848 18.8304ZM93.2223 43.3133C93.2223 43.3133 93.2223 43.3133 93.2223 43.3056C93.2223 43.3056 93.2223 43.2978 93.2223 43.29C93.2223 43.29 93.2223 43.3056 93.2223 43.3133ZM95.1388 27.3749C96.8885 25.058 98.9146 22.7049 101.217 20.3154C102.147 23.2906 103.277 26.4964 104.607 29.9329C101.851 32.2498 99.3652 34.4785 97.1483 36.6192C96.2568 33.333 95.587 30.2516 95.1388 27.3749ZM134.771 1.33703C136.237 1.49252 136.358 1.50807 137.488 1.81129C135.807 1.21263 134.077 0.761689 132.325 0.442921C133.376 0.722815 133.483 0.769463 134.778 1.33703H134.771ZM92.7646 34.8776V38.7573C92.8791 40.2967 92.922 40.5533 93.2366 42.598C93.8135 41.1778 94.7503 39.5944 96.047 37.8476C95.2461 34.6288 94.6764 31.5837 94.3379 28.7122C93.3868 30.8425 93.351 30.9047 92.9363 32.7551C92.8648 33.4626 92.8004 34.1701 92.7646 34.8776ZM110.392 4.51693C110.392 4.51693 110.428 4.50916 110.449 4.54803C112.824 3.30924 115.203 2.23632 117.586 1.32925C115.133 2.07564 112.716 3.13301 110.392 4.51693ZM110.657 4.82015C113.441 3.36885 116.223 2.1171 119.002 1.06491C120.118 1.62988 121.41 2.59137 122.878 3.94937C119.636 5.42659 116.375 7.08263 113.095 8.91749C112.085 7.16037 111.272 5.7946 110.657 4.82015ZM93.3868 29.6374C93.7372 27.7481 94.2235 25.8977 94.8385 24.0862C94.5453 25.2135 94.531 25.3302 94.3594 26.8307C93.7515 28.3235 93.6943 28.4556 93.3868 29.6374ZM125.174 -0.000244141H128.399C128.935 0.0230803 129.472 0.0697292 130.008 0.124153C131.51 0.481795 131.574 0.512894 133.29 1.35258C130.625 1.72577 127.798 2.34775 124.809 3.21854C123.269 1.95383 121.896 1.08564 120.69 0.613967C122.142 0.318524 122.256 0.302974 123.429 0.139702C124.008 0.0775037 124.594 0.0308552 125.181 -0.000244141H125.174ZM98.9146 15.6505C97.6632 17.5864 96.5977 19.639 95.7109 21.7771C95.2676 23.3398 95.2676 23.4175 95.0745 25.4779C96.6906 23.161 98.5857 20.8052 100.76 18.4106C100.497 16.3373 100.474 14.619 100.688 13.2558C99.737 14.4765 99.6727 14.5542 98.9146 15.6583V15.6505ZM102.783 10.6746C104.705 8.85529 106.738 7.13964 108.883 5.52766C108.893 5.49138 108.893 5.47064 108.883 5.46546C106.624 6.97378 104.593 8.73089 102.776 10.6746H102.783ZM114.061 10.6357C117.431 8.7283 120.792 6.98155 124.144 5.39549C126.022 7.82642 127.996 10.5554 130.065 13.5824C126.47 15.5261 122.833 17.5942 119.152 19.7867C117.317 16.4591 115.62 13.4087 114.061 10.6357ZM101.882 11.8797C104.109 9.75458 106.483 7.74867 109.005 5.86198C109.506 6.90899 110.206 8.34474 111.107 10.1692C108.037 12.3462 105.11 14.5983 102.326 16.9256C101.944 14.8937 101.799 13.2118 101.89 11.8797H101.882Z" fill="#00424B"/>
<path fill-rule="evenodd" clip-rule="evenodd" d="M246.224 56.9664L268.135 3.84102L268.435 3.11796H283.217L282.509 4.8362L260.598 57.9616L260.297 58.6847H245.523L246.231 56.9664H246.224ZM217.533 58.6847H206.306V55.8391C205.076 56.8032 203.667 57.6195 202.116 58.2493C199.713 59.2211 196.988 59.7576 194.106 59.7576C186.676 59.7576 179.961 56.6477 175.141 51.4152C170.422 46.2994 167.525 39.1621 167.525 30.913C167.525 22.6639 170.422 15.5266 175.141 10.4108C179.961 5.17829 186.676 2.06836 194.106 2.06836C199.033 2.06836 203.675 3.4756 207.658 6.00242C211.698 8.55257 215.066 12.2689 217.398 16.8172L218.091 18.1856L216.69 18.5821L204.704 21.9952L204.011 22.1896L203.553 21.5832C202.53 20.2381 201.079 19.1263 199.448 18.3489C197.768 17.5403 195.908 17.0893 194.113 17.0893C190.431 17.0893 187.456 18.4732 185.389 20.829C183.244 23.2703 182.057 26.7845 182.057 30.8974C182.057 35.0103 183.351 38.6178 185.539 41.0203C187.799 43.4849 191.031 44.8532 194.814 44.8532C198.032 44.8532 200.428 44.0835 202.209 42.9095C203.875 41.8211 205.005 40.3672 205.777 38.8744H193.477V26.1859H218.67V58.6847H217.541H217.533ZM217.104 16.2496V17.4703H231.829V58.6769H245.866V17.4703H260.805V3.11796H217.104V16.2496ZM283.517 3.84102L283.217 3.11796H268.435L269.143 4.8362L291.055 57.9616L291.355 58.6847H306.136L305.421 56.9664L283.51 3.84102H283.517ZM318.822 47.209V58.6847H304.785V3.11796H325.63C332.81 3.11796 338.595 5.17829 342.614 8.95686C346.669 12.7743 348.893 18.2944 348.893 25.1596C348.893 32.0248 346.676 37.5527 342.614 41.3701C338.603 45.1565 332.81 47.209 325.63 47.209H318.83H318.822Z" fill="white"/>
<path fill-rule="evenodd" clip-rule="evenodd" d="M275.829 21.0236L260.289 58.6849H291.361L275.829 21.0236Z" fill="#DACF6D"/>
<path fill-rule="evenodd" clip-rule="evenodd" d="M318.715 18.4815V32.1263H326.331C329.041 32.1263 331.172 31.4654 332.61 30.2526C333.947 29.1097 334.683 27.4303 334.683 25.3C334.683 23.1697 333.947 21.4981 332.61 20.3474C331.172 19.1346 329.041 18.4737 326.331 18.4737H318.715V18.4815Z" fill="#DACF6D"/>
<path fill-rule="evenodd" clip-rule="evenodd" d="M275.614 20.4792L269.121 4.75069L268.435 3.0791H270.122H282.079H282.787L282.1 4.75069L275.614 20.4792Z" fill="#A67F26"/>
<path d="M6.81334 59.0705V1.60855H20.1117V59.0705H6.81334ZM47.3221 59.0705L22.5314 1.60855H36.8969L58.5682 52.5034H50.1131L72.1128 1.60855H85.3291L60.4562 59.0705H47.3221Z" fill="white"/>
<path d="M51.9043 78.4016C51.0962 80.703 49.0868 82.1413 46.7197 82.1413C43.4659 82.1413 41.0703 79.6534 41.0703 75.9448C41.0703 72.2362 43.4659 69.8182 46.7197 69.8182C49.2298 69.8182 51.0676 71.3266 51.7971 73.2392L49.2155 74.0011C48.6577 73.0526 47.7709 72.4928 46.5982 72.4928C44.8247 72.4928 43.7019 73.9156 43.7019 75.9837C43.7019 78.0518 44.9033 79.4512 46.5839 79.4512C48.0141 79.4512 48.9008 78.6349 49.3371 77.6553L51.9043 78.4016Z" fill="white"/>
<path d="M58.4748 69.8182C61.8072 69.8182 64.2172 72.3606 64.2172 75.9837C64.2172 79.6067 61.8001 82.1491 58.4748 82.1491C55.1495 82.1491 52.7324 79.6067 52.7324 75.9837C52.7324 72.3606 55.1495 69.8182 58.4748 69.8182ZM58.4748 79.4512C60.284 79.4512 61.5856 78.0984 61.5856 75.9837C61.5856 73.8689 60.2769 72.4928 58.4748 72.4928C56.6727 72.4928 55.364 73.8456 55.364 75.9837C55.364 78.1218 56.6727 79.4512 58.4748 79.4512Z" fill="white"/>
<path d="M68.1583 74.8329H68.1083C68.1083 74.8329 68.1369 76.3023 68.1369 77.8495V81.9157H65.5195V70.0669H68.1655L72.8066 77.0098H72.8566C72.8566 77.0098 72.8423 75.4704 72.8423 74.1798V70.0669H75.4596V81.9157H72.7994L68.1583 74.8406V74.8329Z" fill="white"/>
<path d="M85.4562 81.9081C85.4562 81.2317 85.4705 81.1617 85.4705 81.0762H85.4419C84.8198 81.6515 83.6327 82.1413 82.3741 82.1413C79.3348 82.1413 76.7676 79.6534 76.7676 75.9604C76.7676 72.2673 79.1632 69.8182 82.417 69.8182C84.8913 69.8182 86.7935 71.311 87.4943 73.2392L84.9127 74.0011C84.4908 73.2392 83.6828 72.4928 82.2954 72.4928C80.5362 72.4928 79.3992 73.9156 79.3992 75.9837C79.3992 78.0518 80.6578 79.4512 82.5886 79.4512C84.0832 79.4512 85.02 78.7437 85.3633 78.2306V77.6708H82.6244V75.0274H87.7947V81.9003H85.4562V81.9081Z" fill="white"/>
<path d="M93.1365 77.9973H91.9708V81.908H89.3535V70.0592H93.494C96.2329 70.0592 97.8419 71.6142 97.8419 74.071C97.8419 75.696 97.1125 76.9011 95.7896 77.4375L98.2782 81.908H95.1817L93.1436 77.9973H93.1365ZM93.6657 75.7271C94.6311 75.7271 95.1603 75.2061 95.1603 74.2032C95.1603 73.2002 94.6597 72.6327 93.6514 72.6327H91.9708V75.7271H93.6657Z" fill="white"/>
<path d="M99.3945 70.0518H107.332V72.6953H102.005V74.7245H105.931V77.0958H102.005V79.265H107.411V81.9084H99.3945V70.0596V70.0518Z" fill="white"/>
<path d="M110.981 78.215C111.195 79.1092 111.961 79.6378 113.148 79.6378C114.142 79.6378 114.749 79.2647 114.749 78.5027C114.749 77.3676 113.441 77.4376 112.104 77.0799C110.623 76.6912 108.785 75.9448 108.785 73.4413C108.785 70.9378 110.466 69.8182 112.912 69.8182C115.136 69.8182 116.723 70.7979 117.331 72.9126L114.842 73.6435C114.578 72.7804 113.956 72.3062 112.862 72.3062C111.868 72.3062 111.446 72.726 111.446 73.3558C111.446 74.351 112.49 74.5065 114.013 74.8486C115.615 75.1906 117.395 75.9293 117.395 78.4872C117.395 81.0451 115.822 82.1413 113.162 82.1413C111.26 82.1413 109.114 81.5116 108.492 78.9381L110.981 78.2073V78.215Z" fill="white"/>
<path d="M120.74 78.215C120.954 79.1092 121.719 79.6378 122.906 79.6378C123.9 79.6378 124.508 79.2647 124.508 78.5027C124.508 77.3676 123.2 77.4376 121.862 77.0799C120.382 76.6912 118.544 75.9448 118.544 73.4413C118.544 70.9378 120.225 69.8182 122.67 69.8182C124.894 69.8182 126.482 70.7979 127.09 72.9126L124.601 73.6435C124.337 72.7804 123.714 72.3062 122.62 72.3062C121.626 72.3062 121.204 72.726 121.204 73.3558C121.204 74.351 122.248 74.5065 123.772 74.8486C125.374 75.1906 127.154 75.9293 127.154 78.4872C127.154 81.0451 125.581 82.1413 122.921 82.1413C121.018 82.1413 118.873 81.5116 118.251 78.9381L120.74 78.2073V78.215Z" fill="white"/>
<path d="M133.778 69.8182C137.11 69.8182 139.52 72.3606 139.52 75.9837C139.52 79.6067 137.103 82.1491 133.778 82.1491C130.452 82.1491 128.035 79.6067 128.035 75.9837C128.035 72.3606 130.452 69.8182 133.778 69.8182ZM133.778 79.4512C135.587 79.4512 136.888 78.0984 136.888 75.9837C136.888 73.8689 135.58 72.4928 133.778 72.4928C131.975 72.4928 130.667 73.8456 130.667 75.9837C130.667 78.1218 131.975 79.4512 133.778 79.4512Z" fill="white"/>
<path d="M151.339 75.5949C152.398 75.937 153.32 76.8777 153.32 78.456C153.32 80.2831 152.119 81.908 149.409 81.908H144.725V70.0592H149.43C151.389 70.0592 152.748 71.4975 152.748 73.138C152.748 74.4598 151.94 75.2917 151.347 75.5249V75.5949H151.339ZM148.922 74.7474C149.637 74.7474 150.102 74.2732 150.102 73.5812C150.102 72.8892 149.652 72.415 148.901 72.415H147.328V74.7474H148.915H148.922ZM149.173 79.5523C150.074 79.5523 150.56 78.9925 150.56 78.1995C150.56 77.352 150.031 76.8466 149.173 76.8466H147.335V79.5523H149.173Z" fill="white"/>
<path d="M158.348 77.9973H157.183V81.908H154.565V70.0592H158.706C161.445 70.0592 163.054 71.6142 163.054 74.071C163.054 75.696 162.324 76.9011 161.001 77.4375L163.49 81.908H160.394L158.356 77.9973H158.348ZM158.878 75.7271C159.843 75.7271 160.372 75.2061 160.372 74.2032C160.372 73.2002 159.872 72.6327 158.863 72.6327H157.183V75.7271H158.878Z" fill="white"/>
<path d="M167.546 79.941L166.895 81.908H164.142L168.346 70.0592H171.321L175.541 81.908H172.737L172.087 79.941H167.553H167.546ZM170.442 74.9962C170.099 74.0166 169.848 73.2702 169.834 73.2547H169.784C169.784 73.2547 169.519 74.001 169.176 74.9807L168.397 77.352H171.214L170.435 74.9962H170.442Z" fill="white"/>
<path d="M178.651 78.215C178.865 79.1092 179.63 79.6378 180.818 79.6378C181.812 79.6378 182.419 79.2647 182.419 78.5027C182.419 77.3676 181.111 77.4376 179.773 77.0799C178.293 76.6912 176.455 75.9448 176.455 73.4413C176.455 70.9378 178.136 69.8182 180.582 69.8182C182.806 69.8182 184.393 70.7979 185.001 72.9126L182.512 73.6435C182.248 72.7804 181.626 72.3062 180.531 72.3062C179.537 72.3062 179.116 72.726 179.116 73.3558C179.116 74.351 180.16 74.5065 181.683 74.8486C183.285 75.1906 185.065 75.9293 185.065 78.4872C185.065 81.0451 183.492 82.1413 180.832 82.1413C178.93 82.1413 176.784 81.5116 176.162 78.9381L178.651 78.2073V78.215Z" fill="white"/>
<path d="M186.375 70.0518H188.992V81.9007H186.375V70.0518Z" fill="white"/>
<path d="M190.729 70.0518H193.347V79.265H198.238V81.9084H190.729V70.0596V70.0518Z" fill="white"/>
<path d="M199.591 70.0518H207.529V72.6953H202.201V74.7245H206.127V77.0958H202.201V79.265H207.607V81.9084H199.591V70.0596V70.0518Z" fill="white"/>
<path d="M209.136 70.0518H211.753V81.9007H209.136V70.0518Z" fill="white"/>
<path d="M217.279 77.9973H216.113V81.908H213.496V70.0592H217.637C220.376 70.0592 221.977 71.6142 221.977 74.071C221.977 75.696 221.248 76.9011 219.925 77.4375L222.414 81.908H219.317L217.279 77.9973ZM217.808 75.7271C218.774 75.7271 219.303 75.2061 219.303 74.2032C219.303 73.2002 218.802 72.6327 217.794 72.6327H216.113V75.7271H217.808Z" fill="white"/>
<path d="M228.709 69.8182C232.041 69.8182 234.451 72.3606 234.451 75.9837C234.451 79.6067 232.034 82.1491 228.709 82.1491C225.383 82.1491 222.959 79.6067 222.959 75.9837C222.959 72.3606 225.376 69.8182 228.709 69.8182ZM228.709 79.4512C230.518 79.4512 231.819 78.0984 231.819 75.9837C231.819 73.8689 230.511 72.4928 228.709 72.4928C226.906 72.4928 225.591 73.8456 225.591 75.9837C225.591 78.1218 226.899 79.4512 228.709 79.4512Z" fill="white"/>
<path d="M244.29 70.0518C247.544 70.0518 250.04 72.4542 250.04 76.0307C250.04 79.6071 247.53 81.9084 244.312 81.9084H239.656V70.0596H244.297L244.29 70.0518ZM244.154 79.265C245.77 79.265 247.408 78.3709 247.408 76.0307C247.408 73.6904 245.77 72.6953 244.154 72.6953H242.274V79.265H244.154Z" fill="white"/>
<path d="M251.351 70.0518H259.288V72.6953H253.961V74.7245H257.887V77.0958H253.961V79.265H259.367V81.9084H251.351V70.0596V70.0518Z" fill="white"/>
<path d="M273.038 81.9081C273.038 81.2317 273.053 81.1617 273.053 81.0762H273.024C272.402 81.6515 271.215 82.1413 269.956 82.1413C266.917 82.1413 264.35 79.6534 264.35 75.9604C264.35 72.2673 266.745 69.8182 269.999 69.8182C272.473 69.8182 274.376 71.311 275.076 73.2392L272.495 74.0011C272.073 73.2392 271.265 72.4928 269.877 72.4928C268.118 72.4928 266.981 73.9156 266.981 75.9837C266.981 78.0518 268.24 79.4512 270.171 79.4512C271.665 79.4512 272.602 78.7437 272.945 78.2306V77.6708H270.206V75.0274H275.377V81.9003H273.038V81.9081Z" fill="white"/>
<path d="M276.929 70.0518H284.867V72.6953H279.539V74.7245H283.465V77.0958H279.539V79.265H284.945V81.9084H276.929V70.0596V70.0518Z" fill="white"/>
<path d="M288.512 78.215C288.727 79.1092 289.492 79.6378 290.679 79.6378C291.673 79.6378 292.281 79.2647 292.281 78.5027C292.281 77.3676 290.972 77.4376 289.635 77.0799C288.154 76.6912 286.317 75.9448 286.317 73.4413C286.317 70.9378 287.997 69.8182 290.443 69.8182C292.667 69.8182 294.254 70.7979 294.862 72.9126L292.374 73.6435C292.109 72.7804 291.487 72.3062 290.393 72.3062C289.399 72.3062 288.977 72.726 288.977 73.3558C288.977 74.351 290.021 74.5065 291.544 74.8486C293.146 75.1906 294.927 75.9293 294.927 78.4872C294.927 81.0451 293.353 82.1413 290.693 82.1413C288.791 82.1413 286.646 81.5116 286.023 78.9381L288.512 78.2073V78.215Z" fill="white"/>
<path d="M301.736 72.6953V81.9084H299.119V72.6953H295.786V70.0518H305.068V72.6953H301.736Z" fill="white"/>
<path d="M307.45 79.9409L306.792 81.9079H304.039L308.244 70.0591H311.219L315.438 81.9079H312.635L311.977 79.9409H307.443H307.45ZM307.093 68.9395L306.721 66.8947C306.864 66.7081 307.422 66.3505 308.23 66.3505C309.245 66.3505 309.867 66.8558 310.911 66.8558C311.505 66.8558 311.998 66.5993 312.263 66.3816L312.635 68.4263C312.492 68.6129 311.92 68.9706 311.14 68.9706C310.125 68.9706 309.488 68.4652 308.48 68.4652C307.886 68.4652 307.343 68.6985 307.093 68.9395ZM310.346 74.9961C310.003 74.0164 309.753 73.2701 309.739 73.2545H309.688C309.688 73.2545 309.424 74.0009 309.081 74.9805L308.301 77.3518H311.119L310.339 74.9961H310.346Z" fill="white"/>
<path d="M321.352 69.8182C324.685 69.8182 327.094 72.3606 327.094 75.9837C327.094 79.6067 324.677 82.1491 321.352 82.1491C318.027 82.1491 315.603 79.6067 315.603 75.9837C315.603 72.3606 318.02 69.8182 321.352 69.8182ZM321.352 79.4512C323.161 79.4512 324.463 78.0984 324.463 75.9837C324.463 73.8689 323.154 72.4928 321.352 72.4928C319.55 72.4928 318.234 73.8456 318.234 75.9837C318.234 78.1218 319.543 79.4512 321.352 79.4512Z" fill="white"/>
<path d="M16.8199 93.0102V102.223H14.2026V93.0102H10.8701V90.3668H20.1523V93.0102H16.8199Z" fill="white"/>
<path d="M25.2849 98.3132H24.1193V102.224H21.502V90.3751H25.6425C28.3814 90.3751 29.9904 91.93 29.9904 94.3869C29.9904 96.0118 29.261 97.2169 27.938 97.7534L30.4266 102.224H27.3301L25.2921 98.3132H25.2849ZM25.8141 96.0429C26.7795 96.0429 27.3087 95.522 27.3087 94.519C27.3087 93.5161 26.8081 92.9485 25.7998 92.9485H24.1193V96.0429H25.8141Z" fill="white"/>
<path d="M31.5439 90.3668H34.1613V102.216H31.5439V90.3668Z" fill="white"/>
<path d="M42.5211 95.9024C43.5794 96.2445 44.5019 97.1853 44.5019 98.7636C44.5019 100.591 43.3005 102.216 40.5903 102.216H35.9062V90.3668H40.6117C42.5711 90.3668 43.9299 91.8051 43.9299 93.4456C43.9299 94.7673 43.1218 95.5992 42.5282 95.8325V95.9024H42.5211ZM40.1111 95.055C40.8262 95.055 41.2911 94.5807 41.2911 93.8888C41.2911 93.1968 40.8405 92.7225 40.0897 92.7225H38.5164V95.055H40.104H40.1111ZM40.3614 99.8676C41.2625 99.8676 41.7487 99.3078 41.7487 98.5148C41.7487 97.6673 41.2196 97.162 40.3614 97.162H38.5236V99.8676H40.3614Z" fill="white"/>
<path d="M55.1491 96.9365C55.1491 100.505 53.2469 102.457 50.4007 102.457C47.5546 102.457 45.6523 100.513 45.6523 96.9365V90.3668H48.2983V96.851C48.2983 98.8802 49.0134 99.7665 50.4293 99.7665C51.8452 99.7665 52.5604 98.888 52.5604 96.851V90.3668H55.1419V96.9365H55.1491Z" fill="white"/>
<path d="M62.3589 93.0102V102.223H59.7416V93.0102H56.4092V90.3668H65.6914V93.0102H62.3589Z" fill="white"/>
<path d="M68.0709 100.257L67.4202 102.224H64.667L68.8719 90.3749H71.8468L76.0659 102.224H73.2627L72.6119 100.257H68.0781H68.0709ZM70.9672 95.3119C70.6239 94.3323 70.3736 93.5859 70.3593 93.5703H70.3093C70.3093 93.5703 70.0447 94.3167 69.7014 95.2963L68.9219 97.6677H71.7395L70.96 95.3119H70.9672ZM69.1293 89.4574L70.8742 86.3942L72.9123 87.0861L71.4463 89.4574H69.1293Z" fill="white"/>
<path d="M80.9246 98.3132H79.7589V102.224H77.1416V90.3751H81.2821C84.021 90.3751 85.63 91.93 85.63 94.3869C85.63 96.0118 84.9006 97.2169 83.5776 97.7534L86.0663 102.224H82.9698L80.9317 98.3132H80.9246ZM81.4538 96.0429C82.4192 96.0429 82.9483 95.522 82.9483 94.519C82.9483 93.5161 82.4478 92.9485 81.4395 92.9485H79.7589V96.0429H81.4538Z" fill="white"/>
<path d="M87.1787 90.3668H89.796V102.216H87.1787V90.3668Z" fill="white"/>
<path d="M94.2819 100.257L93.6311 102.224H90.8779L95.0828 90.3751H98.0577L102.277 102.224H99.4736L98.8229 100.257H94.289H94.2819ZM97.1781 95.3121C96.8348 94.3325 96.5846 93.5861 96.5703 93.5705H96.5202C96.5202 93.5705 96.2556 94.3169 95.9123 95.2965L95.1329 97.6679H97.9504L97.1709 95.3121H97.1781Z" fill="white"/>
<path d="M109.862 95.141H109.812C109.812 95.141 109.841 96.6105 109.841 98.1577V102.224H107.224V90.3751H109.87L114.511 97.318H114.561C114.561 97.318 114.546 95.7786 114.546 94.488V90.3751H117.164V102.224H114.504L109.862 95.1488V95.141Z" fill="white"/>
<path d="M121.655 100.257L121.004 102.224H118.251L122.456 90.3751H125.431L129.65 102.224H126.847L126.196 100.257H121.662H121.655ZM124.551 95.3121C124.208 94.3325 123.958 93.5861 123.943 93.5705H123.893C123.893 93.5705 123.629 94.3169 123.285 95.2965L122.506 97.6679H125.323L124.544 95.3121H124.551Z" fill="white"/>
<path d="M137.345 100.257L136.695 102.224H133.941L138.146 90.3751H141.121L145.34 102.224H142.537L141.886 100.257H137.353H137.345ZM140.242 95.3121C139.898 94.3325 139.648 93.5861 139.634 93.5705H139.584C139.584 93.5705 139.319 94.3169 138.976 95.2965L138.196 97.6679H141.014L140.234 95.3121H140.242Z" fill="white"/>
<path d="M151.047 90.3668C154.301 90.3668 156.79 92.7692 156.79 96.3456C156.79 99.922 154.28 102.223 151.062 102.223H146.406V90.3745H151.047V90.3668ZM150.911 99.5799C152.528 99.5799 154.165 98.6858 154.165 96.3456C154.165 94.0054 152.528 93.0102 150.911 93.0102H149.031V99.5799H150.911Z" fill="white"/>
<path d="M166.464 99.3239C166.464 96.5172 166.492 95.1255 166.492 95.1099H166.464C166.464 95.1099 165.92 96.1906 165.391 97.2091L164.332 99.2928H162.867L161.808 97.248C161.265 96.1984 160.75 95.1333 160.735 95.1177H160.685C160.685 95.1177 160.714 96.525 160.714 99.3317V102.224H158.097V90.3751H160.871L163.61 95.6775H163.66L166.413 90.3751H169.074V102.224H166.456V99.3317L166.464 99.3239Z" fill="white"/>
<path d="M170.826 90.3668H173.443V102.216H170.826V90.3668Z" fill="white"/>
<path d="M177.815 95.141H177.765C177.765 95.141 177.793 96.6105 177.793 98.1577V102.224H175.176V90.3751H177.822L182.463 97.318H182.506C182.506 97.318 182.491 95.7786 182.491 94.488V90.3751H185.109V102.224H182.449L177.807 95.1488L177.815 95.141Z" fill="white"/>
<path d="M186.859 90.3668H189.477V102.216H186.859V90.3668Z" fill="white"/>
<path d="M193.261 98.5309C193.476 99.425 194.241 99.9537 195.428 99.9537C196.422 99.9537 197.03 99.5805 197.03 98.8186C197.03 97.6835 195.721 97.7534 194.384 97.3958C192.904 97.007 191.066 96.2607 191.066 93.7572C191.066 91.2537 192.746 90.1341 195.192 90.1341C197.416 90.1341 199.003 91.1137 199.611 93.2285L197.123 93.9593C196.858 93.0963 196.236 92.622 195.142 92.622C194.148 92.622 193.726 93.0419 193.726 93.6716C193.726 94.6668 194.77 94.8223 196.293 95.1644C197.895 95.5065 199.676 96.2451 199.676 98.803C199.676 101.361 198.102 102.457 195.442 102.457C193.54 102.457 191.395 101.827 190.772 99.254L193.261 98.5231V98.5309Z" fill="white"/>
<path d="M206.482 93.0102V102.223H203.865V93.0102H200.532V90.3668H209.814V93.0102H206.482Z" fill="white"/>
<path d="M214.95 98.3132H213.784V102.224H211.167V90.3751H215.307C218.046 90.3751 219.648 91.93 219.648 94.3869C219.648 96.0118 218.919 97.2169 217.596 97.7534L220.084 102.224H216.988L214.95 98.3132ZM215.479 96.0429C216.445 96.0429 216.974 95.522 216.974 94.519C216.974 93.5161 216.473 92.9485 215.465 92.9485H213.784V96.0429H215.479Z" fill="white"/>
<path d="M224.154 100.257L223.496 102.224H220.743L224.948 90.3751H227.923L232.142 102.224H229.339L228.681 100.257H224.147H224.154ZM227.05 95.3121C226.707 94.3325 226.457 93.5861 226.443 93.5705H226.393C226.393 93.5705 226.128 94.3169 225.785 95.2965L225.005 97.6679H227.823L227.043 95.3121H227.05Z" fill="white"/>
<path d="M243.147 98.7175C242.539 100.444 241.245 101.68 239.657 102.185C239.986 102.473 240.187 102.877 240.187 103.452C240.187 104.556 239.457 105.233 237.791 105.233C237.247 105.233 236.64 105.147 236.361 105.031V103.305C236.532 103.375 236.89 103.437 237.39 103.437C238.134 103.437 238.42 103.305 238.42 103.048C238.42 102.706 237.891 102.543 236.461 102.558V102.255C234.001 101.61 232.32 99.3628 232.32 96.2607C232.32 92.6531 234.716 90.1341 237.97 90.1341C240.48 90.1341 242.318 91.6424 243.047 93.555L240.465 94.317C239.908 93.3684 239.014 92.8086 237.848 92.8086C236.075 92.8086 234.952 94.2314 234.952 96.2995C234.952 98.3676 236.153 99.7671 237.834 99.7671C239.264 99.7671 240.158 98.9508 240.587 97.9711L243.154 98.7175H243.147Z" fill="white"/>
<path d="M246.888 100.256L246.23 102.223H243.477L247.681 90.3746H250.656L254.876 102.223H252.072L251.414 100.256H246.881H246.888ZM246.53 89.255L246.158 87.2103C246.301 87.0237 246.859 86.666 247.667 86.666C248.683 86.666 249.305 87.1714 250.349 87.1714C250.942 87.1714 251.436 86.9148 251.7 86.6971L252.072 88.7419C251.929 88.9285 251.357 89.2861 250.578 89.2861C249.562 89.2861 248.926 88.7808 247.917 88.7808C247.324 88.7808 246.78 89.014 246.53 89.255ZM249.784 95.3116C249.441 94.332 249.19 93.5856 249.176 93.5701H249.126C249.126 93.5701 248.861 94.3164 248.518 95.2961L247.739 97.6674H250.556L249.777 95.3116H249.784Z" fill="white"/>
<path d="M260.789 90.1341C264.121 90.1341 266.531 92.6765 266.531 96.2995C266.531 99.9226 264.114 102.465 260.789 102.465C257.463 102.465 255.039 99.9226 255.039 96.2995C255.039 92.6765 257.456 90.1341 260.789 90.1341ZM260.789 99.7671C262.598 99.7671 263.899 98.4143 263.899 96.2995C263.899 94.1848 262.591 92.8086 260.789 92.8086C258.987 92.8086 257.671 94.1615 257.671 96.2995C257.671 98.4376 258.979 99.7671 260.789 99.7671Z" fill="white"/>
<path d="M275.8 90.3668C278.482 90.3668 280.098 91.9062 280.098 94.4485C280.098 96.9909 278.482 98.5303 275.8 98.5303H274.349V102.223H271.731V90.3745H275.793L275.8 90.3668ZM275.879 96.0579C276.988 96.0579 277.481 95.4282 277.481 94.503C277.481 93.5778 276.98 92.9636 275.879 92.9636H274.356V96.0579H275.879Z" fill="white"/>
<path d="M290.702 96.9368C290.702 100.505 288.8 102.457 285.953 102.457C283.107 102.457 281.205 100.513 281.205 96.9368V90.3671H283.851V96.8513C283.851 98.8805 284.566 99.7669 285.982 99.7669C287.398 99.7669 288.113 98.8883 288.113 96.8513V90.3671H290.695V96.9368H290.702ZM284.831 89.4574L286.576 86.3942L288.599 87.0861L287.148 89.4574H284.831Z" fill="white"/>
<path d="M298.968 95.9024C300.027 96.2445 300.942 97.1853 300.942 98.7636C300.942 100.591 299.741 102.216 297.038 102.216H292.354V90.3668H297.059C299.018 90.3668 300.377 91.8051 300.377 93.4456C300.377 94.7673 299.569 95.5992 298.975 95.8325V95.9024H298.968ZM296.558 95.055C297.274 95.055 297.738 94.5807 297.738 93.8888C297.738 93.1968 297.288 92.7225 296.537 92.7225H294.964V95.055H296.551H296.558ZM296.809 99.8676C297.71 99.8676 298.196 99.3078 298.196 98.5148C298.196 97.6673 297.667 97.162 296.809 97.162H294.971V99.8676H296.809Z" fill="white"/>
<path d="M302.194 90.3668H304.812V99.5799H309.703V102.223H302.194V90.3745V90.3668Z" fill="white"/>
<path d="M311.055 90.3668H313.672V102.216H311.055V90.3668Z" fill="white"/>
<path d="M325.814 98.7175C325.006 101.019 322.997 102.457 320.63 102.457C317.376 102.457 314.98 99.9693 314.98 96.2607C314.98 92.5521 317.376 90.1341 320.63 90.1341C323.14 90.1341 324.978 91.6424 325.707 93.555L323.126 94.317C322.568 93.3684 321.674 92.8086 320.508 92.8086C318.735 92.8086 317.612 94.2314 317.612 96.2995C317.612 98.3676 318.814 99.7671 320.494 99.7671C321.924 99.7671 322.818 98.9508 323.247 97.9711L325.814 98.7175Z" fill="white"/>
<path d="M329.547 100.257L328.889 102.224H326.136L330.341 90.3751H333.316L337.535 102.224H334.731L334.074 100.257H329.54H329.547ZM332.443 95.3121C332.1 94.3325 331.85 93.5861 331.835 93.5705H331.785C331.785 93.5705 331.521 94.3169 331.177 95.2965L330.398 97.6679H333.215L332.436 95.3121H332.443Z" fill="white"/>
<path d="M21.5699 82.3997V70.741H24.268V82.3997H21.5699ZM30.2885 82.3997L25.2586 70.741H28.1733L32.5702 81.0672H30.8547L35.3183 70.741H37.9998L32.9533 82.3997H30.2885Z" fill="white"/>
</g>
<defs>
<clipPath id="clip0_544_5300">
<rect width="348.893" height="105.233" fill="white"/>
</clipPath>
</defs>
</svg>
