<svg width="151" height="49" viewBox="0 0 151 49" fill="none" xmlns="http://www.w3.org/2000/svg">
<path d="M4.87354 32.2339H6.07789V37.6861H4.87354V32.2339Z" fill="white"/>
<path d="M9.65465 36.738C9.37495 36.2873 9.18081 35.9653 9.17423 35.9653H9.16764C9.16764 35.9653 8.96034 36.2837 8.66748 36.7452L8.07846 37.6861H6.62402L8.48649 34.8813L6.70958 32.2339H8.1706L8.74316 33.139C9.0097 33.5433 9.23675 33.901 9.24333 33.901H9.24991C9.24991 33.901 9.48025 33.5361 9.71717 33.139L10.2535 32.2339H11.6948L9.94093 34.8813L11.7606 37.6861H10.2502L9.65465 36.7345V36.738Z" fill="white"/>
<path d="M18.8816 36.0761C18.5098 37.1351 17.5851 37.7969 16.4959 37.7969C14.9987 37.7969 13.8964 36.6521 13.8964 34.9456C13.8964 33.2391 14.9987 32.1265 16.4959 32.1265C17.6509 32.1265 18.4966 32.8205 18.8322 33.7006L17.6443 34.0512C17.3877 33.6147 16.9796 33.3571 16.44 33.3571C15.6239 33.3571 15.1073 34.0118 15.1073 34.9635C15.1073 35.9151 15.6601 36.5591 16.4334 36.5591C17.0915 36.5591 17.4996 36.1834 17.7003 35.7326L18.8816 36.0761Z" fill="white"/>
<path d="M21.9055 32.1265C23.4389 32.1265 24.5479 33.2963 24.5479 34.9635C24.5479 36.6306 23.4356 37.8005 21.9055 37.8005C20.3754 37.8005 19.2632 36.6306 19.2632 34.9635C19.2632 33.2963 20.3754 32.1265 21.9055 32.1265ZM21.9055 36.5591C22.738 36.5591 23.3369 35.9366 23.3369 34.9635C23.3369 33.9904 22.7347 33.3571 21.9055 33.3571C21.0763 33.3571 20.4741 33.9796 20.4741 34.9635C20.4741 35.9473 21.0763 36.5591 21.9055 36.5591Z" fill="white"/>
<path d="M26.3611 34.4338H26.338C26.338 34.4338 26.3512 35.1099 26.3512 35.8219V37.6929H25.1469V32.2407H26.3644L28.5 35.4355H28.523C28.523 35.4355 28.5164 34.7271 28.5164 34.1333V32.2407H29.7208V37.6929H28.4967L26.3611 34.4373V34.4338Z" fill="white"/>
<path d="M34.3209 37.6896C34.3209 37.3783 34.3275 37.3461 34.3275 37.3068H34.3144C34.0281 37.5715 33.4818 37.7969 32.9027 37.7969C31.5042 37.7969 30.3229 36.6521 30.3229 34.9527C30.3229 33.2534 31.4252 32.1265 32.9224 32.1265C34.061 32.1265 34.9363 32.8134 35.2588 33.7006L34.0709 34.0512C33.8767 33.7006 33.5049 33.3571 32.8665 33.3571C32.057 33.3571 31.5338 34.0118 31.5338 34.9635C31.5338 35.9151 32.113 36.5591 33.0014 36.5591C33.6891 36.5591 34.1202 36.2335 34.2782 35.9974V35.7398H33.0179V34.5234H35.397V37.686H34.3209V37.6896Z" fill="white"/>
<path d="M37.855 35.89H37.3186V37.6895H36.1143V32.2373H38.0195C39.2798 32.2373 40.0202 32.9528 40.0202 34.0833C40.0202 34.831 39.6845 35.3856 39.0758 35.6324L40.2209 37.6895H38.7961L37.8583 35.89H37.855ZM38.0985 34.8453C38.5427 34.8453 38.7862 34.6057 38.7862 34.1441C38.7862 33.6826 38.5559 33.4215 38.0919 33.4215H37.3186V34.8453H38.0985Z" fill="white"/>
<path d="M40.7343 32.2339H44.3868V33.4503H41.9353V34.384H43.7418V35.4752H41.9353V36.4733H44.423V37.6897H40.7343V32.2375V32.2339Z" fill="white"/>
<path d="M46.065 35.9902C46.1638 36.4017 46.5159 36.6449 47.0621 36.6449C47.5195 36.6449 47.7992 36.4732 47.7992 36.1226C47.7992 35.6003 47.197 35.6325 46.5817 35.4679C45.9005 35.289 45.0548 34.9456 45.0548 33.7936C45.0548 32.6416 45.8281 32.1265 46.9535 32.1265C47.9769 32.1265 48.7074 32.5772 48.9871 33.5503L47.842 33.8866C47.7202 33.4895 47.4339 33.2713 46.9305 33.2713C46.4731 33.2713 46.2789 33.4645 46.2789 33.7543C46.2789 34.2122 46.7594 34.2837 47.4603 34.4411C48.1973 34.5986 49.0167 34.9384 49.0167 36.1154C49.0167 37.2925 48.2928 37.7969 47.0687 37.7969C46.1934 37.7969 45.2062 37.5071 44.9199 36.3229L46.065 35.9867V35.9902Z" fill="white"/>
<path d="M50.5566 35.9902C50.6553 36.4017 51.0074 36.6449 51.5537 36.6449C52.0111 36.6449 52.2908 36.4732 52.2908 36.1226C52.2908 35.6003 51.6886 35.6325 51.0732 35.4679C50.3921 35.289 49.5464 34.9456 49.5464 33.7936C49.5464 32.6416 50.3197 32.1265 51.4451 32.1265C52.4684 32.1265 53.199 32.5772 53.4787 33.5503L52.3335 33.8866C52.2118 33.4895 51.9255 33.2713 51.422 33.2713C50.9647 33.2713 50.7705 33.4645 50.7705 33.7543C50.7705 34.2122 51.2509 34.2837 51.9518 34.4411C52.6889 34.5986 53.5083 34.9384 53.5083 36.1154C53.5083 37.2925 52.7843 37.7969 51.5602 37.7969C50.685 37.7969 49.6978 37.5071 49.4115 36.3229L50.5566 35.9867V35.9902Z" fill="white"/>
<path d="M56.5553 32.1265C58.0887 32.1265 59.1976 33.2963 59.1976 34.9635C59.1976 36.6306 58.0854 37.8005 56.5553 37.8005C55.0252 37.8005 53.913 36.6306 53.913 34.9635C53.913 33.2963 55.0252 32.1265 56.5553 32.1265ZM56.5553 36.5591C57.3878 36.5591 57.9867 35.9366 57.9867 34.9635C57.9867 33.9904 57.3845 33.3571 56.5553 33.3571C55.7261 33.3571 55.1239 33.9796 55.1239 34.9635C55.1239 35.9473 55.7261 36.5591 56.5553 36.5591Z" fill="white"/>
<path d="M64.6372 34.7845C65.1242 34.9419 65.5487 35.3748 65.5487 36.1011C65.5487 36.9418 64.9958 37.6895 63.7487 37.6895H61.5934V32.2373H63.7586C64.6602 32.2373 65.2854 32.8992 65.2854 33.654C65.2854 34.2622 64.9136 34.645 64.6405 34.7523V34.7845H64.6372ZM63.525 34.3946C63.854 34.3946 64.0679 34.1763 64.0679 33.8579C64.0679 33.5395 63.8606 33.3213 63.5151 33.3213H62.7912V34.3946H63.5217H63.525ZM63.6401 36.6055C64.0547 36.6055 64.2785 36.3479 64.2785 35.983C64.2785 35.5931 64.035 35.3605 63.6401 35.3605H62.7944V36.6055H63.6401Z" fill="white"/>
<path d="M67.8618 35.89H67.3254V37.6895H66.1211V32.2373H68.0263C69.2866 32.2373 70.027 32.9528 70.027 34.0833C70.027 34.831 69.6914 35.3856 69.0826 35.6324L70.2277 37.6895H68.8029L67.8651 35.89H67.8618ZM68.1053 34.8453C68.5495 34.8453 68.793 34.6057 68.793 34.1441C68.793 33.6826 68.5627 33.4215 68.0987 33.4215H67.3254V34.8453H68.1053Z" fill="white"/>
<path d="M72.0934 36.7844L71.794 37.6895H70.5271L72.462 32.2373H73.8308L75.7723 37.6895H74.4824L74.1829 36.7844H72.0967H72.0934ZM73.4261 34.5091C73.2682 34.0583 73.153 33.7148 73.1464 33.7077H73.1234C73.1234 33.7077 73.0016 34.0511 72.8437 34.5019L72.485 35.5931H73.7815L73.4228 34.5091H73.4261Z" fill="white"/>
<path d="M77.2038 35.9902C77.3026 36.4017 77.6547 36.6449 78.2009 36.6449C78.6583 36.6449 78.938 36.4732 78.938 36.1226C78.938 35.6003 78.3358 35.6325 77.7205 35.4679C77.0393 35.289 76.1936 34.9456 76.1936 33.7936C76.1936 32.6416 76.9669 32.1265 78.0923 32.1265C79.1157 32.1265 79.8462 32.5772 80.1259 33.5503L78.9808 33.8866C78.859 33.4895 78.5727 33.2713 78.0693 33.2713C77.6119 33.2713 77.4177 33.4645 77.4177 33.7543C77.4177 34.2122 77.8982 34.2837 78.599 34.4411C79.3361 34.5986 80.1555 34.9384 80.1555 36.1154C80.1555 37.2925 79.4316 37.7969 78.2075 37.7969C77.3322 37.7969 76.345 37.5071 76.0587 36.3229L77.2038 35.9867V35.9902Z" fill="white"/>
<path d="M80.7577 32.2339H81.962V37.6861H80.7577V32.2339Z" fill="white"/>
<path d="M82.7616 32.2339H83.966V36.4733H86.2167V37.6897H82.7616V32.2375V32.2339Z" fill="white"/>
<path d="M86.8385 32.2339H90.4911V33.4503H88.0396V34.384H89.8461V35.4752H88.0396V36.4733H90.5272V37.6897H86.8385V32.2375V32.2339Z" fill="white"/>
<path d="M91.2316 32.2339H92.4359V37.6861H91.2316V32.2339Z" fill="white"/>
<path d="M94.9795 35.89H94.4431V37.6895H93.2388V32.2373H95.144C96.4043 32.2373 97.1414 32.9528 97.1414 34.0833C97.1414 34.831 96.8058 35.3856 96.197 35.6324L97.3421 37.6895H95.9173L94.9795 35.89ZM95.223 34.8453C95.6672 34.8453 95.9107 34.6057 95.9107 34.1441C95.9107 33.6826 95.6804 33.4215 95.2164 33.4215H94.4431V34.8453H95.223Z" fill="white"/>
<path d="M100.238 32.1265C101.771 32.1265 102.88 33.2963 102.88 34.9635C102.88 36.6306 101.768 37.8005 100.238 37.8005C98.7076 37.8005 97.592 36.6306 97.592 34.9635C97.592 33.2963 98.7043 32.1265 100.238 32.1265ZM100.238 36.5591C101.07 36.5591 101.669 35.9366 101.669 34.9635C101.669 33.9904 101.067 33.3571 100.238 33.3571C99.4084 33.3571 98.803 33.9796 98.803 34.9635C98.803 35.9473 99.4052 36.5591 100.238 36.5591Z" fill="white"/>
<path d="M107.408 32.2339C108.905 32.2339 110.054 33.3394 110.054 34.985C110.054 36.6307 108.899 37.6897 107.418 37.6897H105.276V32.2375H107.411L107.408 32.2339ZM107.345 36.4733C108.089 36.4733 108.843 36.0619 108.843 34.985C108.843 33.9082 108.089 33.4503 107.345 33.4503H106.48V36.4733H107.345Z" fill="white"/>
<path d="M110.656 32.2339H114.308V33.4503H111.857V34.384H113.663V35.4752H111.857V36.4733H114.345V37.6897H110.656V32.2375V32.2339Z" fill="white"/>
<path d="M120.636 37.6896C120.636 37.3783 120.643 37.3461 120.643 37.3068H120.63C120.343 37.5715 119.797 37.7969 119.218 37.7969C117.819 37.7969 116.638 36.6521 116.638 34.9527C116.638 33.2534 117.74 32.1265 119.238 32.1265C120.376 32.1265 121.251 32.8134 121.574 33.7006L120.386 34.0512C120.192 33.7006 119.82 33.3571 119.182 33.3571C118.372 33.3571 117.849 34.0118 117.849 34.9635C117.849 35.9151 118.428 36.5591 119.317 36.5591C120.004 36.5591 120.435 36.2335 120.593 35.9974V35.7398H119.333V34.5234H121.712V37.686H120.636V37.6896Z" fill="white"/>
<path d="M122.426 32.2339H126.079V33.4503H123.627V34.384H125.434V35.4752H123.627V36.4733H126.115V37.6897H122.426V32.2375V32.2339Z" fill="white"/>
<path d="M127.757 35.9902C127.856 36.4017 128.208 36.6449 128.754 36.6449C129.211 36.6449 129.491 36.4732 129.491 36.1226C129.491 35.6003 128.889 35.6325 128.274 35.4679C127.592 35.289 126.747 34.9456 126.747 33.7936C126.747 32.6416 127.52 32.1265 128.645 32.1265C129.669 32.1265 130.399 32.5772 130.679 33.5503L129.534 33.8866C129.412 33.4895 129.126 33.2713 128.622 33.2713C128.165 33.2713 127.971 33.4645 127.971 33.7543C127.971 34.2122 128.451 34.2837 129.152 34.4411C129.889 34.5986 130.709 34.9384 130.709 36.1154C130.709 37.2925 129.985 37.7969 128.761 37.7969C127.885 37.7969 126.898 37.5071 126.612 36.3229L127.757 35.9867V35.9902Z" fill="white"/>
<path d="M133.841 33.4503V37.6897H132.637V33.4503H131.103V32.2339H135.375V33.4503H133.841Z" fill="white"/>
<path d="M136.47 36.7843L136.168 37.6895H134.901L136.836 32.2373H138.205L140.146 37.6895H138.856L138.553 36.7843H136.467H136.47ZM136.306 31.7221L136.135 30.7812C136.201 30.6953 136.457 30.5308 136.829 30.5308C137.296 30.5308 137.583 30.7633 138.063 30.7633C138.336 30.7633 138.563 30.6452 138.685 30.5451L138.856 31.486C138.79 31.5718 138.527 31.7364 138.168 31.7364C137.701 31.7364 137.408 31.5039 136.944 31.5039C136.671 31.5039 136.421 31.6112 136.306 31.7221ZM137.803 34.509C137.645 34.0582 137.53 33.7148 137.523 33.7076H137.5C137.5 33.7076 137.379 34.0511 137.221 34.5019L136.862 35.593H138.158L137.8 34.509H137.803Z" fill="white"/>
<path d="M142.867 32.1265C144.401 32.1265 145.51 33.2963 145.51 34.9635C145.51 36.6306 144.397 37.8005 142.867 37.8005C141.337 37.8005 140.222 36.6306 140.222 34.9635C140.222 33.2963 141.334 32.1265 142.867 32.1265ZM142.867 36.5591C143.7 36.5591 144.299 35.9366 144.299 34.9635C144.299 33.9904 143.697 33.3571 142.867 33.3571C142.038 33.3571 141.433 33.9796 141.433 34.9635C141.433 35.9473 142.035 36.5591 142.867 36.5591Z" fill="white"/>
<path d="M2.73789 42.7979V47.0373H1.53353V42.7979H0.00012207V41.5815H4.2713V42.7979H2.73789Z" fill="white"/>
<path d="M6.63378 45.2381H6.09742V47.0377H4.89307V41.5854H6.79831C8.05861 41.5854 8.79899 42.301 8.79899 43.4315C8.79899 44.1792 8.46335 44.7337 7.85459 44.9806L8.99971 47.0377H7.57489L6.63708 45.2381H6.63378ZM6.87729 44.1935C7.32152 44.1935 7.56502 43.9538 7.56502 43.4923C7.56502 43.0308 7.33468 42.7696 6.87071 42.7696H6.09742V44.1935H6.87729Z" fill="white"/>
<path d="M9.51318 41.5815H10.7175V47.0337H9.51318V41.5815Z" fill="white"/>
<path d="M14.5643 44.1288C15.0513 44.2862 15.4758 44.7191 15.4758 45.4453C15.4758 46.286 14.923 47.0337 13.6758 47.0337H11.5205V41.5815H13.6857C14.5873 41.5815 15.2125 42.2434 15.2125 42.9983C15.2125 43.6064 14.8407 43.9892 14.5676 44.0966V44.1288H14.5643ZM13.4554 43.7388C13.7844 43.7388 13.9983 43.5206 13.9983 43.2022C13.9983 42.8838 13.791 42.6655 13.4455 42.6655H12.7216V43.7388H13.4521H13.4554ZM13.5705 45.9533C13.9852 45.9533 14.2089 45.6957 14.2089 45.3308C14.2089 44.9409 13.9654 44.7083 13.5705 44.7083H12.7249V45.9533H13.5705Z" fill="white"/>
<path d="M20.3753 44.6046C20.3753 46.2467 19.5 47.1447 18.1903 47.1447C16.8807 47.1447 16.0054 46.2503 16.0054 44.6046V41.5815H17.2229V44.5652C17.2229 45.499 17.5519 45.9068 18.2035 45.9068C18.855 45.9068 19.1841 45.5026 19.1841 44.5652V41.5815H20.372V44.6046H20.3753Z" fill="white"/>
<path d="M23.6922 42.7979V47.0373H22.4879V42.7979H20.9545V41.5815H25.2256V42.7979H23.6922Z" fill="white"/>
<path d="M26.3213 46.1327L26.0219 47.0378H24.755L26.6899 41.5856H28.0588L30.0002 47.0378H28.7103L28.4108 46.1327H26.3246H26.3213ZM27.654 43.8574C27.4961 43.4066 27.3809 43.0632 27.3743 43.056H27.3513C27.3513 43.056 27.2295 43.3994 27.0716 43.8502L26.7129 44.9414H28.0094L27.6507 43.8574H27.654ZM26.8083 41.1635L27.6112 39.7539L28.549 40.0723L27.8745 41.1635H26.8083Z" fill="white"/>
<path d="M32.2347 45.2381H31.6984V47.0377H30.494V41.5854H32.3993C33.6596 41.5854 34.3999 42.301 34.3999 43.4315C34.3999 44.1792 34.0643 44.7337 33.4555 44.9806L34.6007 47.0377H33.1758L32.238 45.2381H32.2347ZM32.4782 44.1935C32.9225 44.1935 33.166 43.9538 33.166 43.4923C33.166 43.0308 32.9356 42.7696 32.4717 42.7696H31.6984V44.1935H32.4782Z" fill="white"/>
<path d="M35.1139 41.5815H36.3182V47.0337H35.1139V41.5815Z" fill="white"/>
<path d="M38.3814 46.1325L38.0819 47.0377H36.8151L38.7499 41.5854H40.1188L42.0603 47.0377H40.7703L40.4709 46.1325H38.3847H38.3814ZM39.7141 43.8572C39.5561 43.4064 39.4409 43.063 39.4344 43.0558H39.4113C39.4113 43.0558 39.2896 43.3993 39.1316 43.85L38.773 44.9412H40.0694L39.7108 43.8572H39.7141Z" fill="white"/>
<path d="M45.5516 43.7785H45.5286C45.5286 43.7785 45.5418 44.4547 45.5418 45.1666V47.0377H44.3374V41.5854H45.5549L47.6905 44.7802H47.7135C47.7135 44.7802 47.707 44.0719 47.707 43.478V41.5854H48.9113V47.0377H47.6872L45.5516 43.7821V43.7785Z" fill="white"/>
<path d="M50.9778 46.1325L50.6784 47.0377H49.4115L51.3464 41.5854H52.7152L54.6567 47.0377H53.3668L53.0673 46.1325H50.9811H50.9778ZM52.3105 43.8572C52.1526 43.4064 52.0374 43.063 52.0308 43.0558H52.0078C52.0078 43.0558 51.886 43.3993 51.7281 43.85L51.3694 44.9412H52.6659L52.3072 43.8572H52.3105Z" fill="white"/>
<path d="M58.1974 46.1325L57.898 47.0377H56.6311L58.566 41.5854H59.9348L61.8763 47.0377H60.5864L60.2869 46.1325H58.2007H58.1974ZM59.5301 43.8572C59.3722 43.4064 59.257 43.063 59.2504 43.0558H59.2274C59.2274 43.0558 59.1056 43.3993 58.9477 43.85L58.589 44.9412H59.8855L59.5268 43.8572H59.5301Z" fill="white"/>
<path d="M64.502 41.5815C65.9993 41.5815 67.1444 42.687 67.1444 44.3327C67.1444 45.9784 65.9894 47.0373 64.5086 47.0373H62.3665V41.5851H64.502V41.5815ZM64.4395 45.821C65.1832 45.821 65.9367 45.4095 65.9367 44.3327C65.9367 43.2558 65.1832 42.7979 64.4395 42.7979H63.5741V45.821H64.4395Z" fill="white"/>
<path d="M71.5967 45.7032C71.5967 44.4117 71.6098 43.7713 71.6098 43.7642H71.5967C71.5967 43.7642 71.3466 44.2615 71.1031 44.7301L70.6161 45.6889H69.9415L69.4545 44.748C69.2044 44.265 68.9675 43.7749 68.9609 43.7678H68.9379C68.9379 43.7678 68.9511 44.4153 68.9511 45.7068V47.0377H67.7467V41.5854H69.0234L70.2837 44.0253H70.3068L71.5736 41.5854H72.7977V47.0377H71.5934V45.7068L71.5967 45.7032Z" fill="white"/>
<path d="M73.6038 41.5815H74.8081V47.0337H73.6038V41.5815Z" fill="white"/>
<path d="M76.8186 43.7785H76.7956C76.7956 43.7785 76.8087 44.4547 76.8087 45.1666V47.0377H75.6044V41.5854H76.8219L78.9575 44.7802H78.9772C78.9772 44.7802 78.9706 44.0719 78.9706 43.478V41.5854H80.175V47.0377H78.9509L76.8153 43.7821L76.8186 43.7785Z" fill="white"/>
<path d="M80.9814 41.5815H82.1858V47.0337H80.9814V41.5815Z" fill="white"/>
<path d="M83.9265 45.3384C84.0252 45.7498 84.3773 45.9931 84.9235 45.9931C85.3809 45.9931 85.6606 45.8213 85.6606 45.4707C85.6606 44.9484 85.0585 44.9806 84.4431 44.8161C83.762 44.6372 82.9163 44.2937 82.9163 43.1418C82.9163 41.9898 83.6896 41.4746 84.815 41.4746C85.8383 41.4746 86.5688 41.9254 86.8485 42.8985L85.7034 43.2348C85.5817 42.8377 85.2954 42.6194 84.7919 42.6194C84.3345 42.6194 84.1404 42.8126 84.1404 43.1024C84.1404 43.5603 84.6208 43.6319 85.3217 43.7893C86.0588 43.9467 86.8782 44.2866 86.8782 45.4636C86.8782 46.6406 86.1542 47.145 84.9301 47.145C84.0548 47.145 83.0677 46.8553 82.7814 45.6711L83.9265 45.3348V45.3384Z" fill="white"/>
<path d="M90.0107 42.7979V47.0373H88.8064V42.7979H87.2729V41.5815H91.5441V42.7979H90.0107Z" fill="white"/>
<path d="M93.9066 45.2381H93.3702V47.0377H92.1659V41.5854H94.0711C95.3314 41.5854 96.0685 42.301 96.0685 43.4315C96.0685 44.1792 95.7329 44.7337 95.1241 44.9806L96.2693 47.0377H94.8444L93.9066 45.2381ZM94.1501 44.1935C94.5943 44.1935 94.8378 43.9538 94.8378 43.4923C94.8378 43.0308 94.6075 42.7696 94.1435 42.7696H93.3702V44.1935H94.1501Z" fill="white"/>
<path d="M98.1418 46.1325L97.839 47.0377H96.5721L98.507 41.5854H99.8759L101.817 47.0377H100.527L100.225 46.1325H98.1385H98.1418ZM99.4744 43.8572C99.3165 43.4064 99.2013 43.063 99.1947 43.0558H99.1717C99.1717 43.0558 99.05 43.3993 98.892 43.85L98.5333 44.9412H99.8298L99.4711 43.8572H99.4744Z" fill="white"/>
<path d="M106.881 45.4242C106.602 46.2185 106.006 46.7873 105.276 47.0198C105.427 47.1522 105.519 47.3382 105.519 47.603C105.519 48.111 105.184 48.4222 104.417 48.4222C104.167 48.4222 103.887 48.3829 103.759 48.3292V47.535C103.838 47.5672 104.002 47.5958 104.233 47.5958C104.575 47.5958 104.706 47.535 104.706 47.4169C104.706 47.2595 104.463 47.1844 103.805 47.1916V47.052C102.673 46.7551 101.9 45.7212 101.9 44.2937C101.9 42.6337 103.002 41.4746 104.499 41.4746C105.654 41.4746 106.5 42.1687 106.835 43.0487L105.648 43.3993C105.391 42.9629 104.98 42.7053 104.443 42.7053C103.627 42.7053 103.11 43.36 103.11 44.3116C103.11 45.2633 103.663 45.9072 104.437 45.9072C105.095 45.9072 105.506 45.5316 105.703 45.0808L106.885 45.4242H106.881Z" fill="white"/>
<path d="M108.603 46.1325L108.3 47.0376H107.033L108.968 41.5854H110.337L112.278 47.0376H110.988L110.686 46.1325H108.599H108.603ZM108.438 41.0702L108.267 40.1293C108.333 40.0435 108.589 39.8789 108.961 39.8789C109.428 39.8789 109.715 40.1114 110.195 40.1114C110.468 40.1114 110.695 39.9934 110.817 39.8932L110.988 40.8341C110.922 40.92 110.659 41.0845 110.301 41.0845C109.833 41.0845 109.54 40.852 109.076 40.852C108.803 40.852 108.553 40.9593 108.438 41.0702ZM109.935 43.8572C109.777 43.4064 109.662 43.0629 109.656 43.0558H109.633C109.633 43.0558 109.511 43.3992 109.353 43.85L108.994 44.9412H110.291L109.932 43.8572H109.935Z" fill="white"/>
<path d="M114.999 41.4746C116.533 41.4746 117.642 42.6445 117.642 44.3116C117.642 45.9788 116.529 47.1486 114.999 47.1486C113.469 47.1486 112.354 45.9788 112.354 44.3116C112.354 42.6445 113.466 41.4746 114.999 41.4746ZM114.999 45.9072C115.832 45.9072 116.431 45.2847 116.431 44.3116C116.431 43.3385 115.828 42.7053 114.999 42.7053C114.17 42.7053 113.565 43.3278 113.565 44.3116C113.565 45.2954 114.167 45.9072 114.999 45.9072Z" fill="white"/>
<path d="M121.906 41.5815C123.14 41.5815 123.884 42.2899 123.884 43.4598C123.884 44.6296 123.14 45.338 121.906 45.338H121.238V47.0373H120.034V41.5851H121.903L121.906 41.5815ZM121.943 44.2003C122.453 44.2003 122.68 43.9105 122.68 43.4848C122.68 43.0591 122.449 42.7764 121.943 42.7764H121.242V44.2003H121.943Z" fill="white"/>
<path d="M128.764 44.6051C128.764 46.2472 127.889 47.1452 126.579 47.1452C125.269 47.1452 124.394 46.2508 124.394 44.6051V41.582H125.612V44.5657C125.612 45.4995 125.941 45.9073 126.592 45.9073C127.244 45.9073 127.573 45.503 127.573 44.5657V41.582H128.761V44.6051H128.764ZM126.062 41.1635L126.865 39.7539L127.797 40.0723L127.129 41.1635H126.062Z" fill="white"/>
<path d="M132.568 44.1288C133.055 44.2862 133.476 44.7191 133.476 45.4453C133.476 46.286 132.923 47.0337 131.679 47.0337H129.524V41.5815H131.689C132.591 41.5815 133.216 42.2434 133.216 42.9983C133.216 43.6064 132.844 43.9892 132.571 44.0966V44.1288H132.568ZM131.459 43.7388C131.788 43.7388 132.002 43.5206 132.002 43.2022C132.002 42.8838 131.795 42.6655 131.449 42.6655H130.725V43.7388H131.456H131.459ZM131.574 45.9533C131.989 45.9533 132.212 45.6957 132.212 45.3308C132.212 44.9409 131.969 44.7083 131.574 44.7083H130.728V45.9533H131.574Z" fill="white"/>
<path d="M134.052 41.5815H135.256V45.821H137.507V47.0373H134.052V41.5851V41.5815Z" fill="white"/>
<path d="M138.129 41.5815H139.333V47.0337H138.129V41.5815Z" fill="white"/>
<path d="M144.921 45.4242C144.549 46.4832 143.624 47.145 142.535 47.145C141.038 47.145 139.935 46.0002 139.935 44.2937C139.935 42.5872 141.038 41.4746 142.535 41.4746C143.69 41.4746 144.536 42.1687 144.871 43.0487L143.683 43.3993C143.427 42.9629 143.015 42.7053 142.479 42.7053C141.663 42.7053 141.146 43.36 141.146 44.3116C141.146 45.2633 141.699 45.9072 142.472 45.9072C143.131 45.9072 143.542 45.5316 143.739 45.0808L144.921 45.4242Z" fill="white"/>
<path d="M146.638 46.1325L146.336 47.0377H145.069L147.004 41.5854H148.373L150.314 47.0377H149.024L148.721 46.1325H146.635H146.638ZM147.971 43.8572C147.813 43.4064 147.698 43.063 147.691 43.0558H147.668C147.668 43.0558 147.547 43.3993 147.389 43.85L147.03 44.9412H148.327L147.968 43.8572H147.971Z" fill="white"/>
<path d="M0.342163 1.58154H5.9559V27.0037H0.342163V1.58154Z" fill="white"/>
<path d="M21.3066 22.5711C20.0036 20.4639 19.1019 18.9757 19.069 18.9757H19.0361C19.0032 18.9757 18.0654 20.4639 16.6965 22.6069L13.9555 27.0001H7.17358L15.8574 13.9241L7.57833 1.58154H14.3931L17.0651 5.79591C18.3023 7.68486 19.3685 9.35559 19.4014 9.35559H19.4343C19.5001 9.35559 20.5037 7.64909 21.6061 5.79591L24.1102 1.58154H30.823L22.6393 13.9313L31.1257 27.0073H24.0773L21.3033 22.5783L21.3066 22.5711Z" fill="white"/>
<path fill-rule="evenodd" clip-rule="evenodd" d="M32.6953 21.0519C32.6953 21.0519 32.6953 21.0519 32.6953 21.0591C32.6953 21.0591 32.6953 21.0627 32.6953 21.0662C33.0079 22.44 33.485 23.7888 34.1366 25.0838C34.1431 25.0671 34.1651 25.0421 34.2024 25.0087C33.6079 23.654 33.1011 22.2957 32.6821 20.9339C32.6821 20.9983 32.6821 21.0018 32.692 21.0555L32.6953 21.0519ZM32.7216 20.6226C33.0353 20.0287 33.5157 19.3514 34.1629 18.5906C34.8035 20.2219 35.5175 21.8652 36.3051 23.5204C35.4912 24.0714 34.8418 24.5245 34.357 24.8799C33.7274 23.4632 33.1823 22.0453 32.7216 20.6262V20.6226ZM34.6993 18.0504C35.3727 19.7199 36.1175 21.4001 36.9336 23.0911C38.1445 22.2922 39.4717 21.4264 40.9152 20.4938C39.9806 18.6526 39.0977 16.8352 38.2662 15.0416C36.9522 16.0934 35.7632 17.0963 34.6993 18.0504ZM39.1646 14.369C40.7375 13.2505 42.3619 12.1366 44.0379 11.0276C45.0054 12.8402 45.9991 14.697 47.0192 16.5979C45.2642 17.7093 43.5531 18.7981 41.8859 19.8642C40.9338 18.0038 40.0267 16.1721 39.1646 14.369ZM45.1008 10.3586C46.0836 12.1593 47.0883 14.0077 48.115 15.9038C49.8721 14.7995 51.592 13.7251 53.2746 12.6804C52.2457 10.863 51.2158 9.10645 50.1847 7.41068C48.5197 8.34085 46.8251 9.32349 45.1008 10.3586ZM51.1752 6.89194C52.6604 6.17165 54.0479 5.54319 55.3378 5.00656C56.3491 6.46382 57.3363 7.99621 58.2993 9.60373C57.0621 10.3526 55.7129 11.1755 54.2519 12.0722C53.2274 10.2811 52.2008 8.55431 51.1719 6.89194H51.1752ZM61.1786 7.9652C61.2444 7.93658 61.2444 7.93658 61.274 7.94016C60.5501 6.69159 59.6978 5.57539 58.7468 4.60587C58.7468 4.60587 58.7468 4.60587 58.7435 4.60587C58.7041 4.56652 58.6975 4.56652 58.6514 4.53074C59.5399 5.59686 60.3834 6.74287 61.1819 7.96878L61.1786 7.9652ZM56.0387 4.77044C57.0368 6.17762 58.0076 7.65753 58.9509 9.2102C59.7932 8.71649 60.4766 8.32773 61.0009 8.04391C60.1782 6.76314 59.3095 5.55631 58.3947 4.42342C58.2697 4.42342 58.1611 4.42342 58.0624 4.42342C57.4109 4.42342 57.2529 4.46277 56.042 4.77044H56.0387ZM47.628 2.10158C48.5098 3.17962 49.44 4.39599 50.4184 5.75069C51.8991 5.0805 53.2834 4.5057 54.5711 4.02631C53.5664 2.90057 52.577 1.91435 51.603 1.06766C50.3591 1.3014 49.0352 1.64723 47.6312 2.10516L47.628 2.10158ZM55.272 3.82239C54.2607 2.74673 53.2669 1.8118 52.2907 1.01758C53.2943 1.08913 53.3272 1.09271 54.1005 1.32525C54.8343 1.66154 55.5451 2.05865 56.2295 2.513C56.8877 2.99597 56.9304 3.03532 57.6774 3.69002C57.0237 3.61608 56.2219 3.6602 55.272 3.82239Z" fill="#2B8C8D"/>
<path fill-rule="evenodd" clip-rule="evenodd" d="M43.0543 21.283C44.0832 23.098 45.112 24.8522 46.1409 26.5455C47.8125 25.613 49.5061 24.628 51.2216 23.5905C50.2388 21.7922 49.234 19.9449 48.2074 18.0488C46.4502 19.1555 44.7325 20.2323 43.0543 21.2794V21.283ZM58.6089 20.1739C59.221 21.76 59.7431 23.2339 60.1752 24.5958C61.2326 23.4963 62.1616 22.417 62.9623 21.3581C62.7583 20.0201 62.4512 18.6022 62.041 17.1044C61.0231 18.0798 59.8802 19.1018 58.6122 20.1703L58.6089 20.1739ZM62.5444 16.5463C63.1411 15.7282 63.5711 14.9936 63.8344 14.3425C63.9956 15.3692 64.0022 15.4265 64.0647 16.2815C64.0976 17.1509 64.0647 18.0202 63.9758 18.8824C63.785 19.7231 63.7718 19.7553 63.3342 20.7356C63.174 19.4262 62.9108 18.031 62.5444 16.5498V16.5463ZM49.3064 17.3619C51.0592 16.2434 52.7681 15.1498 54.4332 14.0813C55.3918 15.944 56.3011 17.7769 57.1611 19.58C55.5925 20.6939 53.9692 21.8077 52.291 22.9215C51.3236 21.1112 50.3298 19.2581 49.3097 17.3619H49.3064ZM55.4105 13.4552C56.8517 12.5203 58.1767 11.6545 59.3855 10.8579C60.2016 12.5489 60.9485 14.228 61.6264 15.8951C60.5624 16.8492 59.3745 17.8497 58.0627 18.8967C57.2291 17.1103 56.345 15.2965 55.4105 13.4552ZM60.014 10.4286C60.8015 12.0815 61.5167 13.7248 62.1594 15.3585C62.8066 14.5977 63.2848 13.9144 63.5941 13.3086C63.1335 11.8895 62.5894 10.4763 61.962 9.06916C61.475 9.42453 60.8257 9.87769 60.014 10.4286ZM62.1101 8.94394C62.166 8.89028 62.166 8.89028 62.1759 8.86523C62.8274 10.1603 63.3046 11.5091 63.6205 12.8864V12.8936C63.6303 12.9508 63.6303 12.958 63.6336 13.0188C63.2124 11.6569 62.7046 10.2998 62.1101 8.94752V8.94394Z" fill="#C6E6EF"/>
<path fill-rule="evenodd" clip-rule="evenodd" d="M37.3219 8.66486C37.7957 10.0291 38.3584 11.5042 39.0099 13.0903C40.5411 11.9789 42.1305 10.871 43.778 9.76675C42.9641 8.21408 42.2171 6.78902 41.5371 5.49156C40.0673 6.5219 38.6633 7.58085 37.3251 8.66843L37.3219 8.66486ZM32.8927 19.9306C32.8927 19.9306 32.8927 19.9306 32.8927 19.927C32.8927 19.927 32.8927 19.9234 32.8927 19.9199C32.8927 19.9199 32.8927 19.927 32.8927 19.9306ZM33.7746 12.5966C34.5797 11.5305 35.512 10.4477 36.5716 9.34817C36.9994 10.7172 37.5193 12.1923 38.1313 13.7736C36.8634 14.8397 35.7193 15.8653 34.6993 16.8503C34.289 15.3382 33.9808 13.9203 33.7746 12.5966ZM52.011 0.615341C52.6856 0.686892 52.7415 0.694047 53.2614 0.833572C52.4881 0.5581 51.6918 0.350601 50.8856 0.203921C51.3694 0.332713 51.4187 0.354178 52.0143 0.615341H52.011ZM32.6821 16.0489V17.8342C32.7348 18.5425 32.7545 18.6606 32.8993 19.6015C33.1647 18.948 33.5958 18.2193 34.1925 17.4156C33.824 15.9345 33.5618 14.5333 33.4061 13.2119C32.9684 14.1922 32.952 14.2208 32.7611 15.0723C32.7282 15.3978 32.6986 15.7234 32.6821 16.0489ZM40.7934 2.07856C40.7934 2.07856 40.8099 2.07499 40.8197 2.09287C41.9122 1.52285 43.0069 1.02915 44.1037 0.611763C42.9751 0.955209 41.8629 1.44176 40.7934 2.07856ZM40.9152 2.21809C42.1963 1.55028 43.4763 0.974289 44.7553 0.490126C45.2686 0.750096 45.8631 1.19252 46.5388 1.8174C45.047 2.49714 43.5465 3.25916 42.0373 4.10346C41.5722 3.29494 41.1982 2.66648 40.9152 2.21809ZM32.9684 13.6377C33.1296 12.7683 33.3534 11.9169 33.6364 11.0833C33.5015 11.602 33.4949 11.6557 33.4159 12.3462C33.1362 13.0331 33.1099 13.0939 32.9684 13.6377ZM47.5951 0H49.0791C49.3259 0.0107327 49.5727 0.032198 49.8195 0.0572409C50.5105 0.221809 50.5401 0.236119 51.3299 0.622496C50.1036 0.794219 48.8027 1.08042 47.4272 1.48111C46.7187 0.899161 46.0869 0.499666 45.5319 0.282627C46.1998 0.14668 46.2525 0.139525 46.7921 0.0643959C47.0587 0.0357754 47.3285 0.0143103 47.5983 0H47.5951ZM35.512 7.20163C34.9362 8.09245 34.4459 9.03692 34.0379 10.0208C33.8338 10.7398 33.8338 10.7756 33.745 11.7237C34.4887 10.6576 35.3607 9.57356 36.361 8.47167C36.2403 7.51765 36.2294 6.72701 36.3281 6.09974C35.8904 6.66142 35.8608 6.6972 35.512 7.20521V7.20163ZM37.2922 4.91199C38.1763 4.07484 39.1119 3.28539 40.0991 2.54365C40.1035 2.52695 40.1035 2.51741 40.0991 2.51503C39.0593 3.20907 38.1248 4.0176 37.2889 4.91199H37.2922ZM42.4815 4.89411C44.0325 4.01641 45.579 3.21265 47.1212 2.48283C47.9855 3.60141 48.8937 4.85714 49.8458 6.25C48.1917 7.14439 46.5179 8.09602 44.8244 9.1049C43.9798 7.5737 43.1988 6.1701 42.4815 4.89411ZM36.8776 5.46652C37.9021 4.48865 38.9946 3.56564 40.155 2.69748C40.3854 3.17926 40.7079 3.83992 41.1225 4.67945C39.7097 5.68117 38.3628 6.71747 37.0816 7.78835C36.9061 6.85342 36.8392 6.07947 36.8809 5.46652H36.8776Z" fill="#00424B"/>
<path fill-rule="evenodd" clip-rule="evenodd" d="M103.295 26.2128L113.377 1.76734L113.515 1.43463H120.317L119.991 2.22527L109.909 26.6708L109.771 27.0035H102.972L103.298 26.2128H103.295ZM90.093 27.0035H84.9267V25.6941C84.3608 26.1377 83.7125 26.5133 82.9985 26.8031C81.8928 27.2503 80.6391 27.4972 79.313 27.4972C75.8941 27.4972 72.8042 26.0661 70.5864 23.6584C68.4146 21.3044 67.0819 18.0202 67.0819 14.2244C67.0819 10.4286 68.4146 7.14442 70.5864 4.79039C72.8042 2.38269 75.8941 0.95166 79.313 0.95166C81.5802 0.95166 83.7158 1.5992 85.5487 2.76191C87.4078 3.93535 88.9577 5.64542 90.0304 7.7383L90.3496 8.36795L89.7047 8.5504L84.1896 10.121L83.8705 10.2104L83.6599 9.93134C83.1893 9.31242 82.5213 8.80083 81.7711 8.44308C80.9978 8.07101 80.1422 7.86351 79.3163 7.86351C77.6216 7.86351 76.2528 8.50032 75.3018 9.58432C74.3146 10.7077 73.7684 12.3247 73.7684 14.2173C73.7684 16.1098 74.364 17.7698 75.3709 18.8752C76.4107 20.0093 77.8981 20.639 79.6388 20.639C81.1195 20.639 82.2219 20.2848 83.0412 19.7446C83.8079 19.2437 84.3279 18.5747 84.6832 17.8878H79.0234V12.0493H90.6162V27.0035H90.0962H90.093ZM89.8955 7.47713V8.03881H96.6708V26.9999H103.13V8.03881H110.004V1.43463H89.8955V7.47713ZM120.455 1.76734L120.317 1.43463H113.515L113.841 2.22527L123.923 26.6708L124.062 27.0035H130.863L130.534 26.2128L120.452 1.76734H120.455ZM136.701 21.723V27.0035H130.241V1.43463H139.833C143.137 1.43463 145.799 2.38269 147.649 4.12138C149.514 5.87796 150.538 8.41803 150.538 11.577C150.538 14.736 149.518 17.2797 147.649 19.0362C145.803 20.7785 143.137 21.723 139.833 21.723H136.704H136.701Z" fill="white"/>
<path fill-rule="evenodd" clip-rule="evenodd" d="M116.918 9.67383L109.767 27.0035H124.065L116.918 9.67383Z" fill="#DACF6D"/>
<path fill-rule="evenodd" clip-rule="evenodd" d="M136.651 8.50407V14.7827H140.156C141.403 14.7827 142.384 14.4786 143.045 13.9205C143.66 13.3946 143.999 12.6218 143.999 11.6416C143.999 10.6613 143.66 9.89216 143.045 9.36268C142.384 8.80458 141.403 8.50049 140.156 8.50049H136.651V8.50407Z" fill="#DACF6D"/>
<path fill-rule="evenodd" clip-rule="evenodd" d="M116.819 9.42358L113.831 2.18617L113.515 1.41699H114.292H119.794H120.12L119.804 2.18617L116.819 9.42358Z" fill="#A67F26"/>
</svg>
