<svg width="351" height="117" viewBox="0 0 351 117" fill="none" xmlns="http://www.w3.org/2000/svg">
<g clip-path="url(#clip0_544_1825)">
<path fill-rule="evenodd" clip-rule="evenodd" d="M75.2339 50.9202C75.2339 50.9202 75.2339 50.9202 75.2339 50.9373C75.2339 50.9373 75.2339 50.9459 75.2339 50.9544C75.9638 54.2466 77.078 57.4787 78.5994 60.5823C78.6148 60.5423 78.666 60.4822 78.7531 60.4022C77.3648 57.1558 76.1815 53.9008 75.2031 50.6372C75.2031 50.7916 75.2031 50.8001 75.2262 50.9287L75.2339 50.9202ZM75.2953 49.8914C76.0279 48.4682 77.1497 46.845 78.6609 45.0217C80.1566 48.9311 81.824 52.8691 83.663 56.8357C81.7626 58.156 80.2463 59.242 79.1142 60.0936C77.644 56.6986 76.3711 53.3007 75.2953 49.8999V49.8914ZM79.9133 43.7272C81.4859 47.728 83.2251 51.7546 85.1307 55.8069C87.9583 53.8922 91.0575 51.8175 94.4281 49.5827C92.2459 45.1703 90.1841 40.8151 88.2426 36.517C85.1742 39.0376 82.3978 41.4409 79.9133 43.7272ZM90.3403 34.9052C94.0132 32.2246 97.8064 29.5555 101.72 26.8978C103.979 31.2416 106.3 35.6911 108.682 40.2464C104.584 42.9098 100.588 45.519 96.6948 48.0738C94.4717 43.6157 92.3535 39.2262 90.3403 34.9052ZM104.202 25.2946C106.497 29.6098 108.843 34.0393 111.24 38.5832C115.344 35.9369 119.36 33.362 123.289 30.8586C120.886 26.5034 118.481 22.2939 116.074 18.2302C112.185 20.4592 108.228 22.814 104.202 25.2946ZM118.386 16.987C121.854 15.2609 125.094 13.7549 128.106 12.4689C130.468 15.9611 132.773 19.6333 135.022 23.4856C132.133 25.2803 128.982 27.2521 125.571 29.4012C123.179 25.1088 120.781 20.9708 118.379 16.987H118.386ZM141.745 19.559C141.899 19.4904 141.899 19.4904 141.968 19.499C140.278 16.5069 138.288 13.8321 136.067 11.5087C136.067 11.5087 136.067 11.5087 136.059 11.5087C135.967 11.4144 135.952 11.4144 135.844 11.3286C137.919 13.8835 139.888 16.6298 141.753 19.5676L141.745 19.559ZM129.743 11.9031C132.074 15.2752 134.341 18.8217 136.543 22.5425C138.51 21.3594 140.106 20.4278 141.33 19.7476C139.409 16.6784 137.381 13.7863 135.245 11.0715C134.953 11.0715 134.699 11.0715 134.469 11.0715C132.947 11.0715 132.578 11.1658 129.751 11.9031H129.743ZM110.103 5.50738C112.162 8.0908 114.334 11.0057 116.619 14.2521C120.077 12.6461 123.309 11.2686 126.316 10.1198C123.97 7.42208 121.66 5.05871 119.385 3.02969C116.481 3.58982 113.389 4.41857 110.111 5.51595L110.103 5.50738ZM127.953 9.63114C125.591 7.05343 123.271 4.81294 120.991 2.90967C123.335 3.08113 123.412 3.08971 125.217 3.64697C126.931 4.45286 128.59 5.4045 130.189 6.49331C131.726 7.6507 131.825 7.74501 133.57 9.31392C132.043 9.13674 130.171 9.24248 127.953 9.63114Z" fill="#2B8C8D"/>
<path fill-rule="evenodd" clip-rule="evenodd" d="M99.4199 51.4727C101.822 55.8222 104.225 60.026 106.627 64.084C110.531 61.8493 114.485 59.4887 118.491 57.0025C116.196 52.693 113.85 48.2663 111.453 43.7224C107.35 46.3745 103.339 48.955 99.4199 51.4641V51.4727ZM135.741 48.815C137.171 52.6158 138.39 56.148 139.399 59.4116C141.868 56.7767 144.037 54.1904 145.907 51.6527C145.431 48.4463 144.714 45.0484 143.756 41.4591C141.379 43.7967 138.71 46.2458 135.749 48.8064L135.741 48.815ZM144.931 40.1217C146.325 38.1612 147.329 36.4008 147.943 34.8405C148.32 37.301 148.335 37.4382 148.481 39.4872C148.558 41.5705 148.481 43.6539 148.274 45.72C147.828 47.7347 147.797 47.8119 146.775 50.161C146.402 47.0232 145.787 43.6796 144.931 40.1302V40.1217ZM114.019 42.0764C118.112 39.3958 122.103 36.7752 125.991 34.2147C128.229 38.6785 130.353 43.0709 132.361 47.3918C128.698 50.061 124.907 52.7301 120.988 55.3993C118.729 51.0612 116.409 46.6202 114.027 42.0764H114.019ZM128.273 32.7143C131.638 30.4738 134.732 28.3991 137.555 26.4901C139.46 30.5424 141.205 34.5662 142.788 38.5613C140.303 40.8475 137.529 43.2452 134.466 45.7543C132.519 41.4734 130.455 37.1267 128.273 32.7143ZM139.022 25.4613C140.861 29.4222 142.531 33.3602 144.032 37.2753C145.543 35.4521 146.66 33.8146 147.382 32.3628C146.307 28.9621 145.036 25.5756 143.571 22.2035C142.434 23.0551 140.918 24.141 139.022 25.4613ZM143.917 21.9034C144.048 21.7748 144.048 21.7748 144.071 21.7148C145.592 24.8183 146.706 28.0505 147.444 31.3512V31.3683C147.467 31.5055 147.467 31.5226 147.475 31.6684C146.491 28.4048 145.305 25.1527 143.917 21.912V21.9034Z" fill="#C6E6EF"/>
<path fill-rule="evenodd" clip-rule="evenodd" d="M86.0373 21.2351C87.1438 24.5043 88.4578 28.0394 89.9792 31.8402C93.5547 29.1768 97.266 26.5219 101.113 23.8756C99.2126 20.1548 97.4684 16.7398 95.8804 13.6305C92.4482 16.0996 89.1698 18.6373 86.045 21.2436L86.0373 21.2351ZM75.6949 48.2324C75.6949 48.2324 75.6949 48.2324 75.6949 48.2238C75.6949 48.2238 75.6949 48.2152 75.6949 48.2067C75.6949 48.2067 75.6949 48.2238 75.6949 48.2324ZM77.7542 30.6571C79.6341 28.1023 81.8112 25.5074 84.2854 22.8726C85.2843 26.1533 86.4984 29.6883 87.9276 33.4777C84.9667 36.0326 82.2953 38.4903 79.9133 40.8508C78.9554 37.2271 78.2357 33.8292 77.7542 30.6571ZM120.338 1.94513C121.913 2.11659 122.044 2.13374 123.258 2.4681C121.452 1.80796 119.593 1.3107 117.71 0.959198C118.84 1.26784 118.955 1.31928 120.346 1.94513H120.338ZM75.2031 38.9304V43.2084C75.3261 44.9059 75.3722 45.1889 75.7103 47.4436C76.3301 45.8776 77.3367 44.1315 78.73 42.2054C77.8694 38.656 77.2573 35.2981 76.8936 32.1317C75.8716 34.4808 75.8332 34.5494 75.3875 36.5898C75.3107 37.37 75.2415 38.1502 75.2031 38.9304ZM94.1438 5.45161C94.1438 5.45161 94.1822 5.44303 94.2053 5.4859C96.7563 4.11989 99.3125 2.93677 101.874 1.93655C99.2382 2.75959 96.6411 3.92556 94.1438 5.45161ZM94.4281 5.78597C97.4197 4.18562 100.409 2.80532 103.395 1.64506C104.594 2.26806 105.982 3.32829 107.56 4.82576C104.076 6.45468 100.573 8.2808 97.0483 10.3041C95.9623 8.36653 95.0889 6.86049 94.4281 5.78597ZM75.8716 33.152C76.2481 31.0686 76.7706 29.0282 77.4314 27.0306C77.1164 28.2737 77.101 28.4023 76.9166 30.057C76.2635 31.7031 76.202 31.8488 75.8716 33.152ZM110.026 0.47052H113.492C114.068 0.49624 114.644 0.54768 115.221 0.607693C116.834 1.00206 116.903 1.03636 118.747 1.96227C115.884 2.37379 112.846 3.05966 109.634 4.01987C107.98 2.62528 106.505 1.66792 105.209 1.14781C106.768 0.822025 106.891 0.804878 108.151 0.624839C108.774 0.556252 109.404 0.504813 110.034 0.47052H110.026ZM81.8112 17.7286C80.4666 19.8633 79.3217 22.1267 78.3689 24.4843C77.8925 26.2076 77.8925 26.2933 77.685 28.5652C79.4216 26.0104 81.4578 23.4127 83.7937 20.7721C83.5119 18.4859 83.4863 16.5912 83.7168 15.088C82.6949 16.434 82.6257 16.5197 81.8112 17.7372V17.7286ZM85.9682 12.2417C88.0326 10.2355 90.2174 8.34367 92.5225 6.56614C92.5328 6.52613 92.5328 6.50327 92.5225 6.49755C90.0944 8.16077 87.9122 10.0983 85.9605 12.2417H85.9682ZM98.0856 12.1988C101.707 10.0955 105.319 8.16935 108.92 6.42039C110.938 9.10098 113.059 12.1102 115.282 15.4481C111.42 17.5914 107.511 19.8719 103.557 22.2896C101.584 18.6202 99.7607 15.2566 98.0856 12.1988ZM85 13.5705C87.3923 11.2272 89.9433 9.01525 92.6531 6.93479C93.191 8.08933 93.944 9.67253 94.9122 11.6844C91.6133 14.0849 88.468 16.5683 85.4764 19.1346C85.0666 16.8941 84.9104 15.0394 85.0077 13.5705H85Z" fill="#00424B"/>
<path fill-rule="evenodd" clip-rule="evenodd" d="M240.09 63.2876L263.633 4.70624L263.956 3.90892H279.839L279.078 5.80362L255.535 64.385L255.212 65.1823H239.337L240.098 63.2876H240.09ZM209.262 65.1823H197.199V62.0445C195.877 63.1076 194.363 64.0078 192.696 64.7022C190.114 65.7739 187.187 66.3654 184.09 66.3654C176.107 66.3654 168.892 62.9361 163.713 57.1663C158.641 51.525 155.529 43.6547 155.529 34.5585C155.529 25.4622 158.641 17.5919 163.713 11.9507C168.892 6.18085 176.107 2.75153 184.09 2.75153C189.384 2.75153 194.371 4.30329 198.651 7.08962C202.992 9.90166 206.612 13.9997 209.116 19.0151L209.862 20.524L208.356 20.9612L195.478 24.7249L194.732 24.9392L194.241 24.2705C193.142 22.7873 191.582 21.5613 189.83 20.704C188.024 19.8124 186.026 19.3151 184.098 19.3151C180.141 19.3151 176.944 20.8412 174.724 23.4389C172.418 26.1309 171.143 30.0061 171.143 34.5413C171.143 39.0766 172.534 43.0546 174.885 45.7038C177.313 48.4215 180.786 49.9304 184.851 49.9304C188.309 49.9304 190.883 49.0816 192.796 47.7871C194.586 46.5868 195.8 44.9836 196.63 43.3375H183.414V29.3459H210.484V65.1823H209.27H209.262ZM208.801 18.3892V19.7352H224.622V65.1737H239.706V19.7352H255.757V3.90892H208.801V18.3892ZM280.161 4.70624L279.839 3.90892H263.956L264.717 5.80362L288.26 64.385L288.583 65.1823H304.465L303.697 63.2876L280.154 4.70624H280.161ZM318.096 52.5281V65.1823H303.013V3.90892H325.411C333.126 3.90892 339.342 6.18085 343.661 10.3475C348.017 14.557 350.407 20.644 350.407 28.2142C350.407 35.7845 348.025 41.8801 343.661 46.0896C339.35 50.2648 333.126 52.5281 325.411 52.5281H318.104H318.096Z" fill="white"/>
<path fill-rule="evenodd" clip-rule="evenodd" d="M271.9 23.6529L255.203 65.182H288.589L271.9 23.6529Z" fill="#DACF6D"/>
<path fill-rule="evenodd" clip-rule="evenodd" d="M317.981 20.8497V35.8958H326.165C329.077 35.8958 331.367 35.1671 332.911 33.8297C334.348 32.5694 335.139 30.7176 335.139 28.3685C335.139 26.0194 334.348 24.1761 332.911 22.9073C331.367 21.5699 329.077 20.8411 326.165 20.8411H317.981V20.8497Z" fill="#DACF6D"/>
<path fill-rule="evenodd" clip-rule="evenodd" d="M271.671 23.0531L264.694 5.70929L263.956 3.86603H265.769H278.617H279.378L278.64 5.70929L271.671 23.0531Z" fill="#A67F26"/>
<path d="M26.4944 66.4033L-0.239076 4.43829H15.2522L38.6218 59.3216H29.5041L53.2279 4.43829H67.4798L40.6578 66.4033H26.4944Z" fill="white"/>
<path d="M44.0894 86.925C43.221 89.4629 41.0617 91.0491 38.5181 91.0491C35.0216 91.0491 32.4473 88.3054 32.4473 84.2156C32.4473 80.1257 35.0216 77.4592 38.5181 77.4592C41.2154 77.4592 43.1903 79.1225 43.9741 81.2318L41.2 82.072C40.6006 81.026 39.6477 80.4087 38.3874 80.4087C36.4817 80.4087 35.2752 81.9777 35.2752 84.2584C35.2752 86.5392 36.5662 88.0825 38.3721 88.0825C39.909 88.0825 40.8619 87.1822 41.3306 86.1019L44.0894 86.925Z" fill="white"/>
<path d="M51.1502 77.4592C54.7312 77.4592 57.3209 80.2629 57.3209 84.2584C57.3209 88.254 54.7235 91.0577 51.1502 91.0577C47.5769 91.0577 44.9795 88.254 44.9795 84.2584C44.9795 80.2629 47.5769 77.4592 51.1502 77.4592ZM51.1502 88.0825C53.0944 88.0825 54.493 86.5906 54.493 84.2584C54.493 81.9263 53.0867 80.4087 51.1502 80.4087C49.2137 80.4087 47.8074 81.9006 47.8074 84.2584C47.8074 86.6163 49.2137 88.0825 51.1502 88.0825Z" fill="white"/>
<path d="M61.5544 82.989H61.5006C61.5006 82.989 61.5313 84.6095 61.5313 86.3158V90.8H58.7188V77.7331H61.562L66.5493 85.3898H66.6031C66.6031 85.3898 66.5878 83.6921 66.5878 82.2688V77.7331H69.4003V90.8H66.5417L61.5544 82.9976V82.989Z" fill="white"/>
<path d="M80.1415 90.7919C80.1415 90.046 80.1568 89.9688 80.1568 89.8745H80.1261C79.4575 90.509 78.1819 91.0491 76.8294 91.0491C73.5635 91.0491 70.8047 88.3054 70.8047 84.2327C70.8047 80.16 73.379 77.4592 76.8755 77.4592C79.5344 77.4592 81.5785 79.1054 82.3316 81.2318L79.5574 82.072C79.104 81.2318 78.2357 80.4087 76.7449 80.4087C74.8545 80.4087 73.6326 81.9777 73.6326 84.2584C73.6326 86.5392 74.9851 88.0825 77.0599 88.0825C78.666 88.0825 79.6727 87.3023 80.0416 86.7364V86.119H77.0984V83.2038H82.6543V90.7833H80.1415V90.7919Z" fill="white"/>
<path d="M88.3952 86.4784H87.1426V90.7911H84.3301V77.7242H88.7795C91.7226 77.7242 93.4517 79.439 93.4517 82.1484C93.4517 83.9404 92.6678 85.2694 91.2462 85.861L93.9204 90.7911H90.593L88.4029 86.4784H88.3952ZM88.9639 83.9747C90.0013 83.9747 90.57 83.4002 90.57 82.2942C90.57 81.1881 90.032 80.5622 88.9485 80.5622H87.1426V83.9747H88.9639Z" fill="white"/>
<path d="M95.1182 77.7167H103.648V80.6319H97.923V82.8697H102.142V85.4848H97.923V87.877H103.733V90.7922H95.1182V77.7253V77.7167Z" fill="white"/>
<path d="M107.564 86.7192C107.794 87.7052 108.617 88.2883 109.892 88.2883C110.96 88.2883 111.614 87.8767 111.614 87.0365C111.614 85.7846 110.207 85.8618 108.77 85.4674C107.18 85.0387 105.205 84.2156 105.205 81.4547C105.205 78.6938 107.011 77.4592 109.639 77.4592C112.029 77.4592 113.735 78.5395 114.388 80.8717L111.714 81.6776C111.429 80.7259 110.761 80.2029 109.585 80.2029C108.517 80.2029 108.063 80.6659 108.063 81.3604C108.063 82.4579 109.185 82.6294 110.822 83.0066C112.543 83.3839 114.457 84.1984 114.457 87.0193C114.457 89.8402 112.766 91.0491 109.908 91.0491C107.864 91.0491 105.558 90.3546 104.89 87.5166L107.564 86.7106V86.7192Z" fill="white"/>
<path d="M118.053 86.7192C118.284 87.7052 119.106 88.2883 120.382 88.2883C121.45 88.2883 122.103 87.8767 122.103 87.0365C122.103 85.7846 120.697 85.8618 119.26 85.4674C117.669 85.0387 115.694 84.2156 115.694 81.4547C115.694 78.6938 117.5 77.4592 120.128 77.4592C122.518 77.4592 124.224 78.5395 124.877 80.8717L122.203 81.6776C121.918 80.7259 121.25 80.2029 120.074 80.2029C119.006 80.2029 118.553 80.6659 118.553 81.3604C118.553 82.4579 119.675 82.6294 121.311 83.0066C123.033 83.3839 124.946 84.1984 124.946 87.0193C124.946 89.8402 123.256 91.0491 120.397 91.0491C118.353 91.0491 116.047 90.3546 115.379 87.5166L118.053 86.7106V86.7192Z" fill="white"/>
<path d="M132.063 77.4592C135.644 77.4592 138.234 80.2629 138.234 84.2584C138.234 88.254 135.637 91.0577 132.063 91.0577C128.49 91.0577 125.893 88.254 125.893 84.2584C125.893 80.2629 128.49 77.4592 132.063 77.4592ZM132.063 88.0825C134.007 88.0825 135.406 86.5906 135.406 84.2584C135.406 81.9263 134 80.4087 132.063 80.4087C130.127 80.4087 128.721 81.9006 128.721 84.2584C128.721 86.6163 130.127 88.0825 132.063 88.0825Z" fill="white"/>
<path d="M150.933 83.829C152.071 84.2062 153.062 85.2437 153.062 86.9842C153.062 88.9992 151.771 90.7911 148.859 90.7911H143.825V77.7242H148.882C150.987 77.7242 152.447 79.3104 152.447 81.1195C152.447 82.5771 151.579 83.4946 150.941 83.7518V83.829H150.933ZM148.336 82.8944C149.104 82.8944 149.604 82.3714 149.604 81.6083C149.604 80.8452 149.12 80.3221 148.313 80.3221H146.622V82.8944H148.328H148.336ZM148.605 88.1932C149.573 88.1932 150.096 87.5758 150.096 86.7013C150.096 85.7667 149.527 85.2094 148.605 85.2094H146.63V88.1932H148.605Z" fill="white"/>
<path d="M158.466 86.4784H157.213V90.7911H154.4V77.7242H158.85C161.793 77.7242 163.522 79.439 163.522 82.1484C163.522 83.9404 162.738 85.2694 161.317 85.861L163.991 90.7911H160.663L158.473 86.4784H158.466ZM159.034 83.9747C160.072 83.9747 160.64 83.4002 160.64 82.2942C160.64 81.1881 160.102 80.5622 159.019 80.5622H157.213V83.9747H159.034Z" fill="white"/>
<path d="M168.344 88.6219L167.645 90.7911H164.687L169.205 77.7242H172.402L176.936 90.7911H173.923L173.224 88.6219H168.352H168.344ZM171.457 83.1687C171.088 82.0884 170.819 81.2653 170.803 81.2481H170.75C170.75 81.2481 170.465 82.0713 170.096 83.1516L169.259 85.7667H172.287L171.449 83.1687H171.457Z" fill="white"/>
<path d="M180.279 86.7192C180.509 87.7052 181.332 88.2883 182.607 88.2883C183.675 88.2883 184.328 87.8767 184.328 87.0365C184.328 85.7846 182.922 85.8618 181.485 85.4674C179.894 85.0387 177.92 84.2156 177.92 81.4547C177.92 78.6938 179.725 77.4592 182.354 77.4592C184.743 77.4592 186.449 78.5395 187.103 80.8717L184.428 81.6776C184.144 80.7259 183.476 80.2029 182.3 80.2029C181.232 80.2029 180.778 80.6659 180.778 81.3604C180.778 82.4579 181.9 82.6294 183.537 83.0066C185.258 83.3839 187.172 84.1984 187.172 87.0193C187.172 89.8402 185.481 91.0491 182.623 91.0491C180.578 91.0491 178.273 90.3546 177.604 87.5166L180.279 86.7106V86.7192Z" fill="white"/>
<path d="M188.577 77.7167H191.39V90.7836H188.577V77.7167Z" fill="white"/>
<path d="M193.257 77.7167H196.069V87.877H201.326V90.7922H193.257V77.7253V77.7167Z" fill="white"/>
<path d="M202.778 77.7167H211.308V80.6319H205.583V82.8697H209.802V85.4848H205.583V87.877H211.393V90.7922H202.778V77.7253V77.7167Z" fill="white"/>
<path d="M213.035 77.7167H215.848V90.7836H213.035V77.7167Z" fill="white"/>
<path d="M221.785 86.4784H220.532V90.7911H217.72V77.7242H222.169C225.112 77.7242 226.834 79.439 226.834 82.1484C226.834 83.9404 226.05 85.2694 224.628 85.861L227.302 90.7911H223.975L221.785 86.4784ZM222.354 83.9747C223.391 83.9747 223.96 83.4002 223.96 82.2942C223.96 81.1881 223.422 80.5622 222.338 80.5622H220.532V83.9747H222.354Z" fill="white"/>
<path d="M234.065 77.4592C237.646 77.4592 240.236 80.2629 240.236 84.2584C240.236 88.254 237.638 91.0577 234.065 91.0577C230.492 91.0577 227.887 88.254 227.887 84.2584C227.887 80.2629 230.484 77.4592 234.065 77.4592ZM234.065 88.0825C236.009 88.0825 237.408 86.5906 237.408 84.2584C237.408 81.9263 236.002 80.4087 234.065 80.4087C232.129 80.4087 230.715 81.9006 230.715 84.2584C230.715 86.6163 232.121 88.0825 234.065 88.0825Z" fill="white"/>
<path d="M250.807 77.7167C254.303 77.7167 256.985 80.3661 256.985 84.3102C256.985 88.2543 254.288 90.7922 250.83 90.7922H245.827V77.7253H250.814L250.807 77.7167ZM250.661 87.877C252.397 87.877 254.157 86.891 254.157 84.3102C254.157 81.7294 252.397 80.6319 250.661 80.6319H248.64V87.877H250.661Z" fill="white"/>
<path d="M258.394 77.7167H266.923V80.6319H261.198V82.8697H265.417V85.4848H261.198V87.877H267.008V90.7922H258.394V77.7253V77.7167Z" fill="white"/>
<path d="M281.697 90.7919C281.697 90.046 281.712 89.9688 281.712 89.8745H281.682C281.013 90.509 279.738 91.0491 278.385 91.0491C275.119 91.0491 272.36 88.3054 272.36 84.2327C272.36 80.16 274.935 77.4592 278.431 77.4592C281.09 77.4592 283.134 79.1054 283.887 81.2318L281.113 82.072C280.66 81.2318 279.791 80.4087 278.301 80.4087C276.41 80.4087 275.188 81.9777 275.188 84.2584C275.188 86.5392 276.541 88.0825 278.616 88.0825C280.222 88.0825 281.228 87.3023 281.597 86.7364V86.119H278.654V83.2038H284.21V90.7833H281.697V90.7919Z" fill="white"/>
<path d="M285.875 77.7167H294.405V80.6319H288.68V82.8697H292.899V85.4848H288.68V87.877H294.489V90.7922H285.875V77.7253V77.7167Z" fill="white"/>
<path d="M298.322 86.7192C298.552 87.7052 299.374 88.2883 300.65 88.2883C301.718 88.2883 302.371 87.8767 302.371 87.0365C302.371 85.7846 300.965 85.8618 299.528 85.4674C297.937 85.0387 295.963 84.2156 295.963 81.4547C295.963 78.6938 297.768 77.4592 300.397 77.4592C302.786 77.4592 304.492 78.5395 305.146 80.8717L302.471 81.6776C302.187 80.7259 301.518 80.2029 300.343 80.2029C299.275 80.2029 298.821 80.6659 298.821 81.3604C298.821 82.4579 299.943 82.6294 301.58 83.0066C303.301 83.3839 305.215 84.1984 305.215 87.0193C305.215 89.8402 303.524 91.0491 300.665 91.0491C298.621 91.0491 296.316 90.3546 295.647 87.5166L298.322 86.7106V86.7192Z" fill="white"/>
<path d="M312.533 80.6319V90.7922H309.721V80.6319H306.14V77.7167H316.114V80.6319H312.533Z" fill="white"/>
<path d="M318.669 88.6213L317.962 90.7903H315.004L319.522 77.7246H322.718L327.252 90.7903H324.24L323.533 88.6213H318.661H318.669ZM318.285 76.49L317.885 74.2353C318.039 74.0295 318.638 73.6351 319.507 73.6351C320.598 73.6351 321.266 74.1924 322.388 74.1924C323.026 74.1924 323.556 73.9095 323.84 73.6694L324.24 75.9242C324.086 76.13 323.472 76.5243 322.634 76.5243C321.543 76.5243 320.859 75.9671 319.776 75.9671C319.138 75.9671 318.554 76.2243 318.285 76.49ZM321.781 83.1686C321.412 82.0884 321.143 81.2654 321.128 81.2482H321.074C321.074 81.2482 320.79 82.0713 320.421 83.1515L319.583 85.7663H322.611L321.773 83.1686H321.781Z" fill="white"/>
<path d="M333.608 77.4592C337.189 77.4592 339.779 80.2629 339.779 84.2584C339.779 88.254 337.181 91.0577 333.608 91.0577C330.035 91.0577 327.43 88.254 327.43 84.2584C327.43 80.2629 330.027 77.4592 333.608 77.4592ZM333.608 88.0825C335.552 88.0825 336.951 86.5906 336.951 84.2584C336.951 81.9263 335.545 80.4087 333.608 80.4087C331.672 80.4087 330.258 81.9006 330.258 84.2584C330.258 86.6163 331.664 88.0825 333.608 88.0825Z" fill="white"/>
<path d="M6.39357 103.033V113.193H3.58101V103.033H0V100.118H9.97458V103.033H6.39357Z" fill="white"/>
<path d="M15.4909 108.881H14.2383V113.194H11.4258V100.127H15.8752C18.8183 100.127 20.5474 101.842 20.5474 104.551C20.5474 106.343 19.7635 107.672 18.3419 108.264L21.0161 113.194H17.6887L15.4986 108.881H15.4909ZM16.0596 106.377C17.097 106.377 17.6657 105.803 17.6657 104.697C17.6657 103.591 17.1277 102.965 16.0442 102.965H14.2383V106.377H16.0596Z" fill="white"/>
<path d="M22.2129 100.118H25.0254V113.185H22.2129V100.118Z" fill="white"/>
<path d="M34.0106 106.223C35.1479 106.6 36.1392 107.637 36.1392 109.378C36.1392 111.393 34.8482 113.185 31.9357 113.185H26.9023V100.118H31.9588C34.0644 100.118 35.5244 101.704 35.5244 103.513C35.5244 104.971 34.6561 105.888 34.0183 106.146V106.223H34.0106ZM31.4209 105.288C32.1893 105.288 32.6888 104.765 32.6888 104.002C32.6888 103.239 32.2047 102.716 31.3978 102.716H29.7072V105.288H31.4132H31.4209ZM31.6898 110.596C32.6581 110.596 33.1806 109.978 33.1806 109.104C33.1806 108.169 32.612 107.612 31.6898 107.612H29.7149V110.596H31.6898Z" fill="white"/>
<path d="M47.5811 107.363C47.5811 111.299 45.537 113.451 42.4785 113.451C39.4201 113.451 37.376 111.307 37.376 107.363V100.118H40.2193V107.269C40.2193 109.507 40.9877 110.484 42.5093 110.484C44.0308 110.484 44.7993 109.515 44.7993 107.269V100.118H47.5734V107.363H47.5811Z" fill="white"/>
<path d="M55.3213 103.033V113.194H52.5088V103.033H48.9277V100.118H58.9023V103.033H55.3213Z" fill="white"/>
<path d="M61.4642 111.023L60.7649 113.192H57.8066L62.3247 100.126H65.5212L70.0547 113.192H67.0426L66.3434 111.023H61.4718H61.4642ZM64.5761 105.57C64.2073 104.49 63.9384 103.667 63.923 103.65H63.8692C63.8692 103.65 63.5849 104.473 63.2161 105.553L62.3785 108.168H65.406L64.5684 105.57H64.5761ZM62.6014 99.1148L64.4762 95.7369L66.6661 96.4999L65.0909 99.1148H62.6014Z" fill="white"/>
<path d="M75.2712 108.881H74.0186V113.194H71.2061V100.127H75.6554C78.5986 100.127 80.3277 101.842 80.3277 104.551C80.3277 106.343 79.5438 107.672 78.1222 108.264L80.7964 113.194H77.469L75.2789 108.881H75.2712ZM75.8399 106.377C76.8773 106.377 77.4459 105.803 77.4459 104.697C77.4459 103.591 76.908 102.965 75.8245 102.965H74.0186V106.377H75.8399Z" fill="white"/>
<path d="M81.9932 100.118H84.8057V113.185H81.9932V100.118Z" fill="white"/>
<path d="M89.6266 111.024L88.9273 113.194H85.9688L90.4873 100.127H93.6841L98.218 113.194H95.2056L94.5063 111.024H89.6343H89.6266ZM92.7389 105.571C92.37 104.491 92.101 103.668 92.0857 103.651H92.0319C92.0319 103.651 91.7475 104.474 91.3787 105.554L90.5411 108.169H93.5688L92.7312 105.571H92.7389Z" fill="white"/>
<path d="M106.365 105.383H106.311C106.311 105.383 106.342 107.003 106.342 108.709V113.194H103.529V100.127H106.373L111.36 107.783H111.414C111.414 107.783 111.398 106.086 111.398 104.662V100.127H114.211V113.194H111.352L106.365 105.391V105.383Z" fill="white"/>
<path d="M119.037 111.024L118.337 113.194H115.379L119.897 100.127H123.094L127.628 113.194H124.616L123.916 111.024H119.044H119.037ZM122.149 105.571C121.78 104.491 121.511 103.668 121.496 103.651H121.442C121.442 103.651 121.158 104.474 120.789 105.554L119.951 108.169H122.979L122.141 105.571H122.149Z" fill="white"/>
<path d="M135.897 111.024L135.198 113.194H132.239L136.758 100.127H139.955L144.488 113.194H141.476L140.777 111.024H135.905H135.897ZM139.009 105.571C138.641 104.491 138.372 103.668 138.356 103.651H138.302C138.302 103.651 138.018 104.474 137.649 105.554L136.812 108.169H139.839L139.002 105.571H139.009Z" fill="white"/>
<path d="M150.617 100.118C154.114 100.118 156.788 102.767 156.788 106.711C156.788 110.656 154.091 113.194 150.633 113.194H145.63V100.127H150.617V100.118ZM150.471 110.278C152.208 110.278 153.968 109.292 153.968 106.711C153.968 104.131 152.208 103.033 150.471 103.033H148.45V110.278H150.471Z" fill="white"/>
<path d="M167.184 109.996C167.184 106.9 167.215 105.366 167.215 105.348H167.184C167.184 105.348 166.6 106.54 166.032 107.663L164.894 109.961H163.319L162.182 107.706C161.598 106.549 161.044 105.374 161.029 105.357H160.975C160.975 105.357 161.006 106.909 161.006 110.004V113.194H158.193V100.127H161.175L164.118 105.974H164.172L167.131 100.127H169.989V113.194H167.177V110.004L167.184 109.996Z" fill="white"/>
<path d="M171.871 100.118H174.684V113.185H171.871V100.118Z" fill="white"/>
<path d="M179.378 105.383H179.324C179.324 105.383 179.355 107.003 179.355 108.709V113.194H176.542V100.127H179.385L184.373 107.783H184.419C184.419 107.783 184.403 106.086 184.403 104.662V100.127H187.216V113.194H184.357L179.37 105.391L179.378 105.383Z" fill="white"/>
<path d="M189.1 100.118H191.912V113.185H189.1V100.118Z" fill="white"/>
<path d="M195.976 109.121C196.207 110.107 197.029 110.69 198.304 110.69C199.373 110.69 200.026 110.279 200.026 109.438C200.026 108.187 198.62 108.264 197.182 107.869C195.592 107.441 193.617 106.617 193.617 103.857C193.617 101.096 195.423 99.8611 198.051 99.8611C200.441 99.8611 202.147 100.941 202.8 103.274L200.126 104.08C199.841 103.128 199.173 102.605 197.997 102.605C196.929 102.605 196.475 103.068 196.475 103.762C196.475 104.86 197.597 105.031 199.234 105.409C200.956 105.786 202.869 106.6 202.869 109.421C202.869 112.242 201.178 113.451 198.32 113.451C196.276 113.451 193.97 112.757 193.302 109.919L195.976 109.113V109.121Z" fill="white"/>
<path d="M210.182 103.033V113.194H207.369V103.033H203.788V100.118H213.763V103.033H210.182Z" fill="white"/>
<path d="M219.282 108.881H218.029V113.194H215.217V100.127H219.666C222.609 100.127 224.331 101.842 224.331 104.551C224.331 106.343 223.547 107.672 222.125 108.264L224.799 113.194H221.472L219.282 108.881ZM219.851 106.377C220.888 106.377 221.457 105.803 221.457 104.697C221.457 103.591 220.919 102.965 219.835 102.965H218.029V106.377H219.851Z" fill="white"/>
<path d="M229.172 111.024L228.465 113.194H225.507L230.025 100.127H233.222L237.756 113.194H234.744L234.037 111.024H229.165H229.172ZM232.285 105.571C231.916 104.491 231.647 103.668 231.631 103.651H231.578C231.578 103.651 231.293 104.474 230.924 105.554L230.087 108.169H233.115L232.277 105.571H232.285Z" fill="white"/>
<path d="M249.579 109.326C248.926 111.229 247.535 112.592 245.829 113.15C246.182 113.467 246.398 113.913 246.398 114.547C246.398 115.765 245.614 116.51 243.823 116.51C243.239 116.51 242.586 116.416 242.287 116.288V114.384C242.471 114.461 242.855 114.53 243.393 114.53C244.192 114.53 244.5 114.384 244.5 114.101C244.5 113.724 243.931 113.544 242.394 113.561V113.227C239.751 112.515 237.945 110.038 237.945 106.617C237.945 102.639 240.519 99.8611 244.016 99.8611C246.713 99.8611 248.687 101.524 249.471 103.633L246.697 104.474C246.098 103.428 245.137 102.81 243.885 102.81C241.979 102.81 240.773 104.379 240.773 106.66C240.773 108.94 242.064 110.483 243.87 110.483C245.406 110.483 246.367 109.583 246.828 108.503L249.586 109.326H249.579Z" fill="white"/>
<path d="M253.596 111.023L252.889 113.192H249.931L254.449 100.126H257.645L262.179 113.192H259.167L258.46 111.023H253.588H253.596ZM253.212 98.8915L252.812 96.6367C252.966 96.4309 253.565 96.0366 254.433 96.0366C255.524 96.0366 256.193 96.5938 257.315 96.5938C257.953 96.5938 258.483 96.3109 258.767 96.0709L259.167 98.3256C259.013 98.5314 258.398 98.9258 257.561 98.9258C256.47 98.9258 255.786 98.3685 254.702 98.3685C254.065 98.3685 253.481 98.6257 253.212 98.8915ZM256.708 105.57C256.339 104.49 256.07 103.667 256.055 103.65H256.001C256.001 103.65 255.717 104.473 255.348 105.553L254.51 108.168H257.538L256.7 105.57H256.708Z" fill="white"/>
<path d="M268.535 99.8611C272.116 99.8611 274.706 102.665 274.706 106.66C274.706 110.656 272.108 113.46 268.535 113.46C264.962 113.46 262.356 110.656 262.356 106.66C262.356 102.665 264.954 99.8611 268.535 99.8611ZM268.535 110.484C270.479 110.484 271.878 108.993 271.878 106.66C271.878 104.328 270.471 102.811 268.535 102.811C266.598 102.811 265.184 104.302 265.184 106.66C265.184 109.018 266.591 110.484 268.535 110.484Z" fill="white"/>
<path d="M284.662 100.118C287.543 100.118 289.28 101.816 289.28 104.619C289.28 107.423 287.543 109.121 284.662 109.121H283.102V113.194H280.289V100.127H284.654L284.662 100.118ZM284.746 106.394C285.937 106.394 286.467 105.7 286.467 104.679C286.467 103.659 285.93 102.982 284.746 102.982H283.109V106.394H284.746Z" fill="white"/>
<path d="M300.676 107.362C300.676 111.297 298.632 113.449 295.574 113.449C292.516 113.449 290.472 111.306 290.472 107.362V100.118H293.315V107.268C293.315 109.506 294.083 110.483 295.604 110.483C297.126 110.483 297.894 109.514 297.894 107.268V100.118H300.668V107.362H300.676ZM294.367 99.1148L296.242 95.7369L298.417 96.4999L296.857 99.1148H294.367Z" fill="white"/>
<path d="M309.558 106.223C310.696 106.6 311.679 107.637 311.679 109.378C311.679 111.393 310.388 113.185 307.484 113.185H302.45V100.118H307.507C309.612 100.118 311.072 101.704 311.072 103.513C311.072 104.971 310.204 105.888 309.566 106.146V106.223H309.558ZM306.969 105.288C307.737 105.288 308.237 104.765 308.237 104.002C308.237 103.239 307.753 102.716 306.946 102.716H305.255V105.288H306.961H306.969ZM307.238 110.596C308.206 110.596 308.728 109.978 308.728 109.104C308.728 108.169 308.16 107.612 307.238 107.612H305.263V110.596H307.238Z" fill="white"/>
<path d="M313.023 100.118H315.836V110.278H321.092V113.194H313.023V100.127V100.118Z" fill="white"/>
<path d="M322.545 100.118H325.357V113.185H322.545V100.118Z" fill="white"/>
<path d="M338.408 109.327C337.539 111.865 335.38 113.451 332.836 113.451C329.34 113.451 326.766 110.707 326.766 106.617C326.766 102.528 329.34 99.8611 332.836 99.8611C335.534 99.8611 337.509 101.524 338.292 103.634L335.518 104.474C334.919 103.428 333.958 102.811 332.706 102.811C330.8 102.811 329.594 104.38 329.594 106.66C329.594 108.941 330.885 110.484 332.69 110.484C334.227 110.484 335.188 109.584 335.649 108.504L338.408 109.327Z" fill="white"/>
<path d="M342.415 111.024L341.708 113.194H338.749L343.268 100.127H346.464L350.998 113.194H347.986L347.279 111.024H342.407H342.415ZM345.527 105.571C345.158 104.491 344.889 103.668 344.874 103.651H344.82C344.82 103.651 344.536 104.474 344.167 105.554L343.329 108.169H346.357L345.519 105.571H345.527Z" fill="white"/>
<path d="M20.8356 91.0596L15.4116 78.4873H18.5547L23.2962 89.6227H21.4463L26.2597 78.4873H29.1513L23.7093 91.0596H20.8356Z" fill="white"/>
</g>
<defs>
<clipPath id="clip0_544_1825">
<rect width="351" height="116.04" fill="white" transform="translate(0 0.47052)"/>
</clipPath>
</defs>
</svg>
