<svg width="351" height="107" viewBox="0 0 351 107" fill="none" xmlns="http://www.w3.org/2000/svg">
<g clip-path="url(#clip0_544_2925)">
<path fill-rule="evenodd" clip-rule="evenodd" d="M93.354 46.3911C93.354 46.3911 93.354 46.3911 93.354 46.4068C93.354 46.4068 93.354 46.4146 93.354 46.4224C94.0374 49.426 95.0806 52.3748 96.5051 55.2063C96.5195 55.1698 96.5674 55.115 96.649 55.042C95.3492 52.0802 94.2413 49.1105 93.3252 46.133C93.3252 46.2738 93.3252 46.2816 93.3468 46.399L93.354 46.3911ZM93.4115 45.4525C94.0974 44.1541 95.1478 42.6732 96.5627 41.0098C97.9631 44.5765 99.5243 48.1693 101.246 51.7882C99.4668 52.9927 98.0471 53.9835 96.9871 54.7604C95.6106 51.663 94.4187 48.563 93.4115 45.4604V45.4525ZM97.7353 39.8287C99.2078 43.4788 100.836 47.1525 102.62 50.8496C105.268 49.1027 108.17 47.2098 111.325 45.1709C109.282 41.1453 107.352 37.1719 105.534 33.2506C102.661 35.5502 100.061 37.7429 97.7353 39.8287ZM107.498 31.7801C110.937 29.3344 114.489 26.8993 118.153 24.4745C120.268 28.4376 122.441 32.4971 124.671 36.653C120.834 39.083 117.093 41.4634 113.448 43.7943C111.366 39.727 109.383 35.7222 107.498 31.7801ZM120.477 23.0118C122.625 26.9488 124.822 30.9901 127.067 35.1356C130.908 32.7213 134.669 30.3721 138.347 28.0882C136.098 24.1147 133.846 20.2742 131.592 16.5667C127.952 18.6004 124.246 20.7487 120.477 23.0118ZM133.757 15.4325C137.004 13.8578 140.038 12.4837 142.858 11.3105C145.069 14.4965 147.228 17.8469 149.333 21.3614C146.628 22.9988 143.678 24.7978 140.484 26.7585C138.244 22.8424 136 19.0671 133.75 15.4325H133.757ZM155.628 17.7791C155.772 17.7165 155.772 17.7165 155.837 17.7243C154.254 14.9945 152.391 12.5541 150.312 10.4344C150.312 10.4344 150.312 10.4344 150.304 10.4344C150.218 10.3484 150.204 10.3484 150.103 10.2702C152.045 12.6011 153.89 15.1066 155.635 17.7869L155.628 17.7791ZM144.391 10.7942C146.573 13.8708 148.695 17.1064 150.758 20.501C152.599 19.4216 154.093 18.5717 155.24 17.9511C153.441 15.151 151.542 12.5124 149.542 10.0355C149.268 10.0355 149.031 10.0355 148.815 10.0355C147.391 10.0355 147.045 10.1215 144.398 10.7942H144.391ZM126.002 4.95917C127.93 7.31613 129.964 9.97554 132.103 12.9374C135.34 11.4721 138.367 10.2154 141.182 9.16729C138.985 6.70604 136.822 4.54983 134.693 2.69868C131.973 3.2097 129.079 3.96581 126.009 4.96699L126.002 4.95917ZM142.714 8.72145C140.503 6.3697 138.331 4.32561 136.196 2.58917C138.391 2.74561 138.463 2.75343 140.153 3.26185C141.758 3.99709 143.311 4.86531 144.808 5.85868C146.247 6.91462 146.34 7.00066 147.973 8.43204C146.544 8.27039 144.791 8.36686 142.714 8.72145Z" fill="#2B8C8D"/>
<path fill-rule="evenodd" clip-rule="evenodd" d="M116.002 46.8957C118.251 50.8639 120.501 54.6992 122.75 58.4015C126.405 56.3626 130.108 54.209 133.858 51.9407C131.71 48.009 129.513 43.9703 127.268 39.8248C123.427 42.2443 119.671 44.5987 116.002 46.8879V46.8957ZM150.01 44.4709C151.348 47.9386 152.489 51.1612 153.434 54.1386C155.746 51.7348 157.777 49.3752 159.528 47.0599C159.082 44.1346 158.41 41.0346 157.513 37.7598C155.288 39.8926 152.789 42.127 150.017 44.4631L150.01 44.4709ZM158.614 36.5396C159.919 34.7511 160.859 33.145 161.434 31.7214C161.787 33.9663 161.801 34.0914 161.938 35.9608C162.01 37.8615 161.938 39.7622 161.744 41.6473C161.326 43.4854 161.298 43.5558 160.341 45.6989C159.991 42.8362 159.415 39.7857 158.614 36.5475V36.5396ZM129.671 38.323C133.503 35.8774 137.24 33.4865 140.88 31.1504C142.976 35.223 144.964 39.2303 146.844 43.1725C143.415 45.6077 139.866 48.0429 136.196 50.4781C134.081 46.5202 131.909 42.4686 129.678 38.323H129.671ZM143.017 29.7816C146.168 27.7375 149.065 25.8447 151.707 24.103C153.492 27.8001 155.125 31.4711 156.607 35.1161C154.281 37.2019 151.684 39.3894 148.815 41.6786C146.993 37.7729 145.06 33.8072 143.017 29.7816ZM153.082 23.1644C154.803 26.7781 156.367 30.3709 157.772 33.9428C159.187 32.2794 160.233 30.7854 160.909 29.4609C159.902 26.3583 158.712 23.2687 157.341 20.1921C156.276 20.9691 154.856 21.9598 153.082 23.1644ZM157.664 19.9184C157.787 19.801 157.787 19.801 157.808 19.7463C159.233 22.5778 160.276 25.5266 160.967 28.538V28.5536C160.988 28.6788 160.988 28.6944 160.995 28.8274C160.075 25.8499 158.964 22.8828 157.664 19.9262V19.9184Z" fill="#C6E6EF"/>
<path fill-rule="evenodd" clip-rule="evenodd" d="M103.469 19.3086C104.505 22.2913 105.735 25.5165 107.16 28.9842C110.508 26.5542 113.983 24.132 117.585 21.7177C115.805 18.3231 114.172 15.2074 112.685 12.3707C109.472 14.6234 106.402 16.9386 103.476 19.3164L103.469 19.3086ZM93.7856 43.9394C93.7856 43.9394 93.7856 43.9394 93.7856 43.9316C93.7856 43.9316 93.7856 43.9238 93.7856 43.9159C93.7856 43.9159 93.7856 43.9316 93.7856 43.9394ZM95.7137 27.9047C97.4739 25.5739 99.5123 23.2065 101.829 20.8026C102.764 23.7957 103.901 27.0209 105.239 30.4781C102.467 32.809 99.9656 35.0513 97.7353 37.2048C96.8384 33.8988 96.1646 30.7988 95.7137 27.9047ZM135.585 1.7096C137.06 1.86604 137.182 1.88168 138.319 2.18673C136.628 1.58446 134.887 1.13079 133.124 0.810099C134.182 1.09168 134.29 1.13861 135.592 1.7096H135.585ZM93.3252 35.4528V39.3558C93.4403 40.9045 93.4835 41.1627 93.8 43.2198C94.3804 41.791 95.3228 40.198 96.6274 38.4407C95.8216 35.2025 95.2485 32.1389 94.9079 29.2501C93.9511 31.3933 93.9151 31.4558 93.4979 33.3174C93.4259 34.0292 93.3612 34.741 93.3252 35.4528ZM111.059 4.90871C111.059 4.90871 111.095 4.90089 111.117 4.94C113.505 3.69373 115.899 2.61432 118.297 1.70178C115.829 2.45267 113.397 3.51644 111.059 4.90871ZM111.325 5.21376C114.126 3.7537 116.925 2.49439 119.721 1.43584C120.844 2.00422 122.143 2.97152 123.621 4.33772C120.359 5.82386 117.079 7.4899 113.779 9.33584C112.762 7.56812 111.944 6.19409 111.325 5.21376ZM93.9511 30.1809C94.3036 28.2802 94.7928 26.4186 95.4116 24.5961C95.1166 25.7303 95.1022 25.8476 94.9295 27.3572C94.318 28.859 94.2605 28.992 93.9511 30.1809ZM125.93 0.364258H129.175C129.714 0.387723 130.254 0.434654 130.793 0.489406C132.304 0.849208 132.369 0.880495 134.096 1.72525C131.414 2.10069 128.57 2.72644 125.563 3.60248C124.014 2.33013 122.633 1.4567 121.419 0.982179C122.88 0.684951 122.995 0.669307 124.175 0.505049C124.757 0.442475 125.347 0.395545 125.937 0.364258H125.93ZM99.5123 16.1095C98.2533 18.0571 97.1814 20.1221 96.2893 22.2731C95.8432 23.8452 95.8432 23.9235 95.649 25.9962C97.2749 23.6653 99.1814 21.2953 101.368 18.8862C101.105 16.8004 101.081 15.0718 101.297 13.7004C100.34 14.9284 100.275 15.0066 99.5123 16.1173V16.1095ZM103.404 11.1036C105.337 9.27327 107.383 7.54726 109.541 5.92554C109.551 5.88904 109.551 5.86818 109.541 5.86297C107.268 7.38039 105.225 9.14812 103.397 11.1036H103.404ZM114.75 11.0645C118.141 9.14551 121.522 7.38822 124.894 5.79257C126.784 8.23818 128.769 10.9836 130.851 14.0289C127.235 15.9844 123.575 18.0649 119.872 20.2707C118.026 16.923 116.318 13.8542 114.75 11.0645ZM102.498 12.3159C104.738 10.178 107.126 8.15997 109.664 6.26188C110.167 7.31521 110.872 8.75963 111.779 10.5951C108.69 12.7852 105.745 15.051 102.944 17.3923C102.56 15.3482 102.414 13.6561 102.505 12.3159H102.498Z" fill="#00424B"/>
<path fill-rule="evenodd" clip-rule="evenodd" d="M247.711 57.675L269.754 4.22874L270.057 3.50131H284.927L284.215 5.22993L262.172 58.6762L261.869 59.4036H247.006L247.718 57.675H247.711ZM218.847 59.4036H207.552V56.5408C206.315 57.5107 204.897 58.332 203.336 58.9656C200.919 59.9433 198.178 60.483 195.278 60.483C187.804 60.483 181.048 57.3543 176.199 52.0902C171.451 46.9435 168.537 39.7631 168.537 31.4642C168.537 23.1653 171.451 15.9849 176.199 10.8381C181.048 5.57409 187.804 2.44537 195.278 2.44537C200.235 2.44537 204.905 3.86112 208.912 6.40319C212.977 8.96874 216.365 12.7076 218.71 17.2833L219.408 18.6599L217.998 19.0588L205.941 22.4926L205.243 22.6881L204.782 22.078C203.753 20.7249 202.293 19.6064 200.653 18.8242C198.962 18.0107 197.091 17.5571 195.286 17.5571C191.581 17.5571 188.588 18.9493 186.509 21.3193C184.35 23.7754 183.156 27.3108 183.156 31.4485C183.156 35.5863 184.458 39.2156 186.66 41.6325C188.933 44.112 192.185 45.4886 195.991 45.4886C199.228 45.4886 201.638 44.7143 203.43 43.5332C205.106 42.4381 206.243 40.9755 207.02 39.4737H194.645V26.7085H219.991V59.4036H218.854H218.847ZM218.415 16.7123V17.9403H233.229V59.3958H247.351V17.9403H262.38V3.50131H218.415V16.7123ZM285.229 4.22874L284.927 3.50131H270.057L270.769 5.22993L292.812 58.6762L293.114 59.4036H307.985L307.266 57.675L285.222 4.22874H285.229ZM320.748 47.8586V59.4036H306.625V3.50131H327.597C334.82 3.50131 340.64 5.57409 344.683 9.37547C348.763 13.216 351 18.7694 351 25.6761C351 32.5827 348.77 38.144 344.683 41.9845C340.647 45.7937 334.82 47.8586 327.597 47.8586H320.755H320.748Z" fill="white"/>
<path fill-rule="evenodd" clip-rule="evenodd" d="M277.495 21.5151L261.861 59.4038H293.121L277.495 21.5151Z" fill="#DACF6D"/>
<path fill-rule="evenodd" clip-rule="evenodd" d="M320.64 18.9576V32.6849H328.302C331.028 32.6849 333.172 32.02 334.618 30.7998C335.964 29.65 336.705 27.9605 336.705 25.8174C336.705 23.6742 335.964 21.9925 334.618 20.8349C333.172 19.6147 331.028 18.9498 328.302 18.9498H320.64V18.9576Z" fill="#DACF6D"/>
<path fill-rule="evenodd" clip-rule="evenodd" d="M277.28 20.9674L270.747 5.1439L270.057 3.46222H271.754H283.783H284.496L283.805 5.1439L277.28 20.9674Z" fill="#A67F26"/>
<path d="M24.1972 60.4476L-0.743258 2.63862H13.709L35.5112 53.8408H27.005L49.1376 2.63862H62.4337L37.4106 60.4476H24.1972ZM64.7828 60.4476V2.63862H78.1614V60.4476H64.7828Z" fill="white"/>
<path d="M52.2178 79.2396C51.4048 81.5549 49.3832 83.0019 47.0019 83.0019C43.7285 83.0019 41.3184 80.4989 41.3184 76.7679C41.3184 73.0369 43.7285 70.6044 47.0019 70.6044C49.5271 70.6044 51.3761 72.1218 52.1099 74.046L49.5127 74.8125C48.9516 73.8582 48.0595 73.2951 46.8796 73.2951C45.0954 73.2951 43.9659 74.7264 43.9659 76.807C43.9659 78.8876 45.1745 80.2956 46.8652 80.2956C48.3041 80.2956 49.1962 79.4743 49.635 78.4887L52.2178 79.2396Z" fill="white"/>
<path d="M58.8278 70.6044C62.1804 70.6044 64.6049 73.1621 64.6049 76.807C64.6049 80.452 62.1732 83.0097 58.8278 83.0097C55.4825 83.0097 53.0508 80.452 53.0508 76.807C53.0508 73.1621 55.4825 70.6044 58.8278 70.6044ZM58.8278 80.2956C60.648 80.2956 61.9574 78.9346 61.9574 76.807C61.9574 74.6795 60.6408 73.2951 58.8278 73.2951C57.0149 73.2951 55.6983 74.6561 55.6983 76.807C55.6983 78.958 57.0149 80.2956 58.8278 80.2956Z" fill="white"/>
<path d="M68.5698 75.6492H68.5194C68.5194 75.6492 68.5482 77.1276 68.5482 78.6841V82.7749H65.915V70.8545H68.577L73.2461 77.8393H73.2964C73.2964 77.8393 73.2821 76.2906 73.2821 74.9922V70.8545H75.9152V82.7749H73.2389L68.5698 75.6571V75.6492Z" fill="white"/>
<path d="M85.9726 82.7672C85.9726 82.0867 85.987 82.0163 85.987 81.9303H85.9582C85.3323 82.5091 84.138 83.0019 82.8718 83.0019C79.8142 83.0019 77.2314 80.4989 77.2314 76.7836C77.2314 73.0682 79.6416 70.6044 82.915 70.6044C85.4042 70.6044 87.3179 72.1062 88.023 74.046L85.4258 74.8125C85.0013 74.046 84.1884 73.2951 82.7927 73.2951C81.0229 73.2951 79.879 74.7264 79.879 76.807C79.879 78.8876 81.1452 80.2956 83.0876 80.2956C84.5913 80.2956 85.5337 79.5838 85.879 79.0675V78.5044H83.1236V75.845H88.3251V82.7594H85.9726V82.7672Z" fill="white"/>
<path d="M93.6994 78.8328H92.5267V82.7671H89.8936V70.8467H94.0591C96.8145 70.8467 98.4332 72.4111 98.4332 74.8828C98.4332 76.5175 97.6994 77.7299 96.3685 78.2696L98.8721 82.7671H95.7569L93.7066 78.8328H93.6994ZM94.2317 76.5488C95.203 76.5488 95.7354 76.0248 95.7354 75.0158C95.7354 74.0067 95.2318 73.4357 94.2174 73.4357H92.5267V76.5488H94.2317Z" fill="white"/>
<path d="M99.9941 70.8394H107.98V73.4988H102.62V75.5402H106.57V77.9259H102.62V80.1082H108.059V82.7676H99.9941V70.8472V70.8394Z" fill="white"/>
<path d="M111.65 79.0519C111.866 79.9514 112.636 80.4833 113.83 80.4833C114.83 80.4833 115.442 80.1078 115.442 79.3413C115.442 78.1993 114.125 78.2697 112.78 77.9099C111.29 77.5188 109.441 76.7679 109.441 74.2493C109.441 71.7307 111.132 70.6044 113.593 70.6044C115.83 70.6044 117.427 71.5899 118.039 73.7174L115.535 74.4527C115.269 73.5845 114.643 73.1073 113.542 73.1073C112.542 73.1073 112.118 73.5297 112.118 74.1633C112.118 75.1645 113.168 75.3209 114.701 75.6651C116.312 76.0092 118.103 76.7523 118.103 79.3257C118.103 81.899 116.521 83.0019 113.844 83.0019C111.931 83.0019 109.772 82.3683 109.146 79.7793L111.65 79.0441V79.0519Z" fill="white"/>
<path d="M121.469 79.0519C121.685 79.9514 122.455 80.4833 123.649 80.4833C124.649 80.4833 125.261 80.1078 125.261 79.3413C125.261 78.1993 123.944 78.2697 122.599 77.9099C121.11 77.5188 119.261 76.7679 119.261 74.2493C119.261 71.7307 120.951 70.6044 123.412 70.6044C125.649 70.6044 127.247 71.5899 127.858 73.7174L125.354 74.4527C125.088 73.5845 124.462 73.1073 123.362 73.1073C122.362 73.1073 121.937 73.5297 121.937 74.1633C121.937 75.1645 122.987 75.3209 124.52 75.6651C126.131 76.0092 127.923 76.7523 127.923 79.3257C127.923 81.899 126.34 83.0019 123.664 83.0019C121.75 83.0019 119.592 82.3683 118.966 79.7793L121.469 79.0441V79.0519Z" fill="white"/>
<path d="M134.586 70.6044C137.938 70.6044 140.363 73.1621 140.363 76.807C140.363 80.452 137.931 83.0097 134.586 83.0097C131.24 83.0097 128.809 80.452 128.809 76.807C128.809 73.1621 131.24 70.6044 134.586 70.6044ZM134.586 80.2956C136.406 80.2956 137.715 78.9346 137.715 76.807C137.715 74.6795 136.399 73.2951 134.586 73.2951C132.773 73.2951 131.456 74.6561 131.456 76.807C131.456 78.958 132.773 80.2956 134.586 80.2956Z" fill="white"/>
<path d="M152.254 76.4159C153.319 76.76 154.247 77.7064 154.247 79.2943C154.247 81.1324 153.039 82.7671 150.312 82.7671H145.6V70.8467H150.333C152.305 70.8467 153.672 72.2938 153.672 73.9442C153.672 75.2739 152.859 76.1108 152.262 76.3455V76.4159H152.254ZM149.823 75.5633C150.542 75.5633 151.01 75.0861 151.01 74.39C151.01 73.6939 150.557 73.2167 149.801 73.2167H148.218V75.5633H149.815H149.823ZM150.074 80.3971C150.981 80.3971 151.47 79.834 151.47 79.0361C151.47 78.1836 150.938 77.6752 150.074 77.6752H148.226V80.3971H150.074Z" fill="white"/>
<path d="M159.305 78.8328H158.132V82.7671H155.499V70.8467H159.665C162.42 70.8467 164.039 72.4111 164.039 74.8828C164.039 76.5175 163.305 77.7299 161.974 78.2696L164.478 82.7671H161.362L159.312 78.8328H159.305ZM159.837 76.5488C160.808 76.5488 161.341 76.0248 161.341 75.0158C161.341 74.0067 160.837 73.4357 159.823 73.4357H158.132V76.5488H159.837Z" fill="white"/>
<path d="M168.558 80.7882L167.904 82.7671H165.134L169.364 70.8467H172.357L176.602 82.7671H173.781L173.127 80.7882H168.565H168.558ZM171.472 75.8136C171.127 74.828 170.875 74.0771 170.86 74.0615H170.81C170.81 74.0615 170.544 74.8124 170.199 75.7979L169.414 78.1836H172.249L171.465 75.8136H171.472Z" fill="white"/>
<path d="M179.729 79.0519C179.945 79.9514 180.715 80.4833 181.909 80.4833C182.909 80.4833 183.521 80.1078 183.521 79.3413C183.521 78.1993 182.204 78.2697 180.859 77.9099C179.37 77.5188 177.521 76.7679 177.521 74.2493C177.521 71.7307 179.211 70.6044 181.672 70.6044C183.909 70.6044 185.506 71.5899 186.118 73.7174L183.614 74.4527C183.348 73.5845 182.722 73.1073 181.621 73.1073C180.621 73.1073 180.197 73.5297 180.197 74.1633C180.197 75.1645 181.247 75.3209 182.78 75.6651C184.391 76.0092 186.183 76.7523 186.183 79.3257C186.183 81.899 184.6 83.0019 181.923 83.0019C180.01 83.0019 177.851 82.3683 177.226 79.7793L179.729 79.0441V79.0519Z" fill="white"/>
<path d="M187.5 70.8394H190.133V82.7598H187.5V70.8394Z" fill="white"/>
<path d="M191.881 70.8394H194.514V80.1082H199.435V82.7676H191.881V70.8472V70.8394Z" fill="white"/>
<path d="M200.796 70.8394H208.782V73.4988H203.422V75.5402H207.372V77.9259H203.422V80.1082H208.861V82.7676H200.796V70.8472V70.8394Z" fill="white"/>
<path d="M210.398 70.8394H213.032V82.7598H210.398V70.8394Z" fill="white"/>
<path d="M218.592 78.8328H217.419V82.7671H214.786V70.8467H218.952C221.707 70.8467 223.319 72.4111 223.319 74.8828C223.319 76.5175 222.585 77.7299 221.254 78.2696L223.757 82.7671H220.642L218.592 78.8328ZM219.124 76.5488C220.096 76.5488 220.628 76.0248 220.628 75.0158C220.628 74.0067 220.124 73.4357 219.11 73.4357H217.419V76.5488H219.124Z" fill="white"/>
<path d="M230.089 70.6044C233.442 70.6044 235.866 73.1621 235.866 76.807C235.866 80.452 233.434 83.0097 230.089 83.0097C226.744 83.0097 224.305 80.452 224.305 76.807C224.305 73.1621 226.736 70.6044 230.089 70.6044ZM230.089 80.2956C231.909 80.2956 233.218 78.9346 233.218 76.807C233.218 74.6795 231.902 73.2951 230.089 73.2951C228.276 73.2951 226.952 74.6561 226.952 76.807C226.952 78.958 228.269 80.2956 230.089 80.2956Z" fill="white"/>
<path d="M245.765 70.8394C249.039 70.8394 251.55 73.2563 251.55 76.8543C251.55 80.4523 249.024 82.7676 245.787 82.7676H241.104V70.8472H245.773L245.765 70.8394ZM245.629 80.1082C247.255 80.1082 248.902 79.2087 248.902 76.8543C248.902 74.5 247.255 73.4988 245.629 73.4988H243.737V80.1082H245.629Z" fill="white"/>
<path d="M252.868 70.8394H260.854V73.4988H255.494V75.5402H259.444V77.9259H255.494V80.1082H260.933V82.7676H252.868V70.8472V70.8394Z" fill="white"/>
<path d="M274.686 82.7672C274.686 82.0867 274.701 82.0163 274.701 81.9303H274.672C274.046 82.5091 272.852 83.0019 271.586 83.0019C268.528 83.0019 265.945 80.4989 265.945 76.7836C265.945 73.0682 268.355 70.6044 271.629 70.6044C274.118 70.6044 276.032 72.1062 276.737 74.046L274.14 74.8125C273.715 74.046 272.902 73.2951 271.507 73.2951C269.737 73.2951 268.593 74.7264 268.593 76.807C268.593 78.8876 269.859 80.2956 271.801 80.2956C273.305 80.2956 274.248 79.5838 274.593 79.0675V78.5044H271.837V75.845H277.039V82.7594H274.686V82.7672Z" fill="white"/>
<path d="M278.601 70.8394H286.586V73.4988H281.227V75.5402H285.176V77.9259H281.227V80.1082H286.665V82.7676H278.601V70.8472V70.8394Z" fill="white"/>
<path d="M290.256 79.0519C290.471 79.9514 291.241 80.4833 292.435 80.4833C293.435 80.4833 294.047 80.1078 294.047 79.3413C294.047 78.1993 292.73 78.2697 291.385 77.9099C289.896 77.5188 288.047 76.7679 288.047 74.2493C288.047 71.7307 289.738 70.6044 292.198 70.6044C294.435 70.6044 296.033 71.5899 296.644 73.7174L294.141 74.4527C293.874 73.5845 293.248 73.1073 292.148 73.1073C291.148 73.1073 290.723 73.5297 290.723 74.1633C290.723 75.1645 291.774 75.3209 293.306 75.6651C294.918 76.0092 296.709 76.7523 296.709 79.3257C296.709 81.899 295.126 83.0019 292.45 83.0019C290.536 83.0019 288.378 82.3683 287.752 79.7793L290.256 79.0441V79.0519Z" fill="white"/>
<path d="M303.559 73.4988V82.7676H300.926V73.4988H297.573V70.8394H306.912V73.4988H303.559Z" fill="white"/>
<path d="M309.307 80.7882L308.645 82.7671H305.875L310.105 70.8467H313.098L317.343 82.7671H314.523L313.861 80.7882H309.3H309.307ZM308.947 69.7204L308.573 67.6632C308.717 67.4755 309.278 67.1157 310.091 67.1157C311.112 67.1157 311.738 67.6241 312.789 67.6241C313.386 67.6241 313.882 67.366 314.148 67.147L314.523 69.2041C314.379 69.3919 313.803 69.7517 313.019 69.7517C311.997 69.7517 311.357 69.2432 310.343 69.2432C309.746 69.2432 309.199 69.4779 308.947 69.7204ZM312.22 75.8135C311.875 74.828 311.623 74.0771 311.609 74.0615H311.559C311.559 74.0615 311.292 74.8124 310.947 75.7979L310.163 78.1835H312.997L312.213 75.8135H312.22Z" fill="white"/>
<path d="M323.293 70.6044C326.646 70.6044 329.07 73.1621 329.07 76.807C329.07 80.452 326.638 83.0097 323.293 83.0097C319.948 83.0097 317.509 80.452 317.509 76.807C317.509 73.1621 319.94 70.6044 323.293 70.6044ZM323.293 80.2956C325.113 80.2956 326.423 78.9346 326.423 76.807C326.423 74.6795 325.106 73.2951 323.293 73.2951C321.48 73.2951 320.156 74.6561 320.156 76.807C320.156 78.958 321.473 80.2956 323.293 80.2956Z" fill="white"/>
<path d="M16.9203 93.9364V103.205H14.2871V93.9364H10.9346V91.277H20.2728V93.9364H16.9203Z" fill="white"/>
<path d="M25.4386 99.2713H24.2659V103.206H21.6328V91.2853H25.7983C28.5538 91.2853 30.1725 92.8496 30.1725 95.3213C30.1725 96.9561 29.4387 98.1684 28.1077 98.7082L30.6114 103.206H27.4962L25.4458 99.2713H25.4386ZM25.971 96.9874C26.9422 96.9874 27.4746 96.4633 27.4746 95.4543C27.4746 94.4453 26.971 93.8743 25.9566 93.8743H24.2659V96.9874H25.971Z" fill="white"/>
<path d="M31.7344 91.277H34.3675V103.197H31.7344V91.277Z" fill="white"/>
<path d="M42.7788 96.8461C43.8436 97.1903 44.7716 98.1367 44.7716 99.7246C44.7716 101.563 43.563 103.197 40.8363 103.197H36.124V91.277H40.8579C42.8292 91.277 44.1961 92.7241 44.1961 94.3745C44.1961 95.7042 43.3831 96.5411 42.786 96.7757V96.8461H42.7788ZM40.3543 95.9936C41.0737 95.9936 41.5414 95.5164 41.5414 94.8203C41.5414 94.1242 41.0881 93.647 40.3327 93.647H38.75V95.9936H40.3471H40.3543ZM40.6061 100.835C41.5126 100.835 42.0018 100.272 42.0018 99.4743C42.0018 98.6217 41.4694 98.1133 40.6061 98.1133H38.7572V100.835H40.6061Z" fill="white"/>
<path d="M55.4828 97.8864C55.4828 101.477 53.5691 103.44 50.7058 103.44C47.8424 103.44 45.9287 101.484 45.9287 97.8864V91.277H48.5906V97.8004C48.5906 99.8419 49.3101 100.734 50.7345 100.734C52.159 100.734 52.8784 99.8497 52.8784 97.8004V91.277H55.4756V97.8864H55.4828Z" fill="white"/>
<path d="M62.7347 93.9364V103.205H60.1016V93.9364H56.749V91.277H66.0873V93.9364H62.7347Z" fill="white"/>
<path d="M68.4831 101.227L67.8284 103.206H65.0586L69.2889 91.2851H72.2817L76.5264 103.206H73.7062L73.0515 101.227H68.4903H68.4831ZM71.3968 96.252C71.0515 95.2664 70.7997 94.5155 70.7853 94.4999H70.7349C70.7349 94.4999 70.4687 95.2508 70.1234 96.2363L69.3392 98.622H72.1738L71.3896 96.252H71.3968ZM69.5479 90.3622L71.3033 87.2804L73.3537 87.9765L71.8788 90.3622H69.5479Z" fill="white"/>
<path d="M81.4132 99.2713H80.2406V103.206H77.6074V91.2853H81.7729C84.5284 91.2853 86.1471 92.8496 86.1471 95.3213C86.1471 96.9561 85.4133 98.1684 84.0823 98.7082L86.586 103.206H83.4708L81.4204 99.2713H81.4132ZM81.9456 96.9874C82.9169 96.9874 83.4492 96.4633 83.4492 95.4543C83.4492 94.4453 82.9456 93.8743 81.9312 93.8743H80.2406V96.9874H81.9456Z" fill="white"/>
<path d="M87.7051 91.277H90.3382V103.197H87.7051V91.277Z" fill="white"/>
<path d="M94.8513 101.227L94.1966 103.206H91.4268L95.657 91.2853H98.6499L102.895 103.206H100.074L99.4197 101.227H94.8585H94.8513ZM97.765 96.2521C97.4196 95.2666 97.1678 94.5157 97.1535 94.5H97.1031C97.1031 94.5 96.8369 95.2509 96.4916 96.2365L95.7074 98.6221H98.542L97.7578 96.2521H97.765Z" fill="white"/>
<path d="M110.527 96.08H110.476C110.476 96.08 110.505 97.5584 110.505 99.1149V103.206H107.872V91.2853H110.534L115.203 98.2701H115.253C115.253 98.2701 115.239 96.7214 115.239 95.423V91.2853H117.872V103.206H115.196L110.527 96.0879V96.08Z" fill="white"/>
<path d="M122.39 101.227L121.736 103.206H118.966L123.196 91.2853H126.189L130.434 103.206H127.613L126.959 101.227H122.398H122.39ZM125.304 96.2521C124.959 95.2666 124.707 94.5157 124.693 94.5H124.642C124.642 94.5 124.376 95.2509 124.031 96.2365L123.246 98.6221H126.081L125.297 96.2521H125.304Z" fill="white"/>
<path d="M138.175 101.227L137.521 103.206H134.751L138.981 91.2853H141.974L146.219 103.206H143.399L142.744 101.227H138.183H138.175ZM141.089 96.2521C140.744 95.2666 140.492 94.5157 140.478 94.5H140.427C140.427 94.5 140.161 95.2509 139.816 96.2365L139.032 98.6221H141.866L141.082 96.2521H141.089Z" fill="white"/>
<path d="M151.96 91.277C155.234 91.277 157.737 93.694 157.737 97.292C157.737 100.89 155.212 103.205 151.975 103.205H147.291V91.2849H151.96V91.277ZM151.823 100.546C153.449 100.546 155.097 99.6463 155.097 97.292C155.097 94.9376 153.449 93.9364 151.823 93.9364H149.931V100.546H151.823Z" fill="white"/>
<path d="M167.469 100.288C167.469 97.4645 167.498 96.0644 167.498 96.0487H167.469C167.469 96.0487 166.922 97.136 166.39 98.1606L165.325 100.257H163.85L162.786 98.1997C162.239 97.1438 161.721 96.0722 161.706 96.0566H161.656C161.656 96.0566 161.685 97.4723 161.685 100.296V103.206H159.052V91.2853H161.843L164.599 96.6197H164.649L167.419 91.2853H170.095V103.206H167.462V100.296L167.469 100.288Z" fill="white"/>
<path d="M171.858 91.277H174.492V103.197H171.858V91.277Z" fill="white"/>
<path d="M178.888 96.08H178.838C178.838 96.08 178.867 97.5584 178.867 99.1149V103.206H176.233V91.2853H178.895L183.564 98.2701H183.608C183.608 98.2701 183.593 96.7214 183.593 95.423V91.2853H186.226V103.206H183.55L178.881 96.0879L178.888 96.08Z" fill="white"/>
<path d="M187.988 91.277H190.621V103.197H187.988V91.277Z" fill="white"/>
<path d="M194.428 99.4905C194.644 100.39 195.414 100.922 196.608 100.922C197.608 100.922 198.22 100.546 198.22 99.7799C198.22 98.6379 196.903 98.7083 195.558 98.3485C194.069 97.9574 192.22 97.2065 192.22 94.6879C192.22 92.1693 193.91 91.043 196.371 91.043C198.608 91.043 200.206 92.0285 200.817 94.156L198.313 94.8913C198.047 94.0231 197.421 93.5459 196.321 93.5459C195.321 93.5459 194.896 93.9683 194.896 94.6019C194.896 95.6031 195.946 95.7595 197.479 96.1037C199.09 96.4478 200.882 97.1909 200.882 99.7642C200.882 102.338 199.299 103.44 196.623 103.44C194.709 103.44 192.551 102.807 191.925 100.218L194.428 99.4827V99.4905Z" fill="white"/>
<path d="M207.729 93.9364V103.205H205.096V93.9364H201.743V91.277H211.081V93.9364H207.729Z" fill="white"/>
<path d="M216.248 99.2713H215.076V103.206H212.442V91.2853H216.608C219.363 91.2853 220.975 92.8496 220.975 95.3213C220.975 96.9561 220.241 98.1684 218.91 98.7082L221.414 103.206H218.299L216.248 99.2713ZM216.781 96.9874C217.752 96.9874 218.284 96.4633 218.284 95.4543C218.284 94.4453 217.781 93.8743 216.766 93.8743H215.076V96.9874H216.781Z" fill="white"/>
<path d="M225.508 101.227L224.846 103.206H222.076L226.306 91.2853H229.299L233.544 103.206H230.724L230.062 101.227H225.501H225.508ZM228.422 96.2521C228.076 95.2666 227.824 94.5157 227.81 94.5H227.76C227.76 94.5 227.494 95.2509 227.148 96.2365L226.364 98.6221H229.199L228.414 96.2521H228.422Z" fill="white"/>
<path d="M244.616 99.6782C244.004 101.415 242.702 102.658 241.105 103.167C241.436 103.456 241.637 103.863 241.637 104.442C241.637 105.552 240.904 106.233 239.227 106.233C238.681 106.233 238.069 106.147 237.788 106.03V104.293C237.961 104.363 238.321 104.426 238.824 104.426C239.573 104.426 239.86 104.293 239.86 104.035C239.86 103.691 239.328 103.527 237.889 103.542V103.237C235.414 102.588 233.724 100.327 233.724 97.2065C233.724 93.5772 236.134 91.043 239.407 91.043C241.932 91.043 243.781 92.5604 244.515 94.4845L241.918 95.2511C241.357 94.2968 240.458 93.7337 239.285 93.7337C237.501 93.7337 236.371 95.1651 236.371 97.2456C236.371 99.3262 237.58 100.734 239.27 100.734C240.709 100.734 241.609 99.9129 242.04 98.9273L244.623 99.6782H244.616Z" fill="white"/>
<path d="M248.379 101.226L247.717 103.205H244.947L249.178 91.2849H252.17L256.415 103.205H253.595L252.933 101.226H248.372H248.379ZM248.019 90.1586L247.645 88.1015C247.789 87.9138 248.35 87.554 249.163 87.554C250.185 87.554 250.811 88.0624 251.861 88.0624C252.458 88.0624 252.955 87.8043 253.221 87.5852L253.595 89.6424C253.451 89.8301 252.875 90.1899 252.091 90.1899C251.07 90.1899 250.429 89.6815 249.415 89.6815C248.818 89.6815 248.271 89.9161 248.019 90.1586ZM251.293 96.2518C250.947 95.2662 250.696 94.5153 250.681 94.4997H250.631C250.631 94.4997 250.365 95.2506 250.019 96.2361L249.235 98.6218H252.07L251.285 96.2518H251.293Z" fill="white"/>
<path d="M262.362 91.043C265.715 91.043 268.139 93.6007 268.139 97.2456C268.139 100.891 265.708 103.448 262.362 103.448C259.017 103.448 256.578 100.891 256.578 97.2456C256.578 93.6007 259.01 91.043 262.362 91.043ZM262.362 100.734C264.183 100.734 265.492 99.3732 265.492 97.2456C265.492 95.1181 264.175 93.7337 262.362 93.7337C260.549 93.7337 259.226 95.0947 259.226 97.2456C259.226 99.3966 260.542 100.734 262.362 100.734Z" fill="white"/>
<path d="M277.466 91.277C280.164 91.277 281.789 92.8258 281.789 95.3835C281.789 97.9412 280.164 99.4899 277.466 99.4899H276.005V103.205H273.372V91.2849H277.458L277.466 91.277ZM277.545 97.0026C278.66 97.0026 279.156 96.369 279.156 95.4382C279.156 94.5074 278.653 93.8895 277.545 93.8895H276.012V97.0026H277.545Z" fill="white"/>
<path d="M292.457 97.8867C292.457 101.477 290.544 103.44 287.68 103.44C284.817 103.44 282.903 101.485 282.903 97.8867V91.2773H285.565V97.8007C285.565 99.8422 286.285 100.734 287.709 100.734C289.134 100.734 289.853 99.85 289.853 97.8007V91.2773H292.45V97.8867H292.457ZM286.551 90.3622L288.306 87.2804L290.342 87.9765L288.882 90.3622H286.551Z" fill="white"/>
<path d="M300.774 96.8461C301.839 97.1903 302.76 98.1367 302.76 99.7246C302.76 101.563 301.551 103.197 298.831 103.197H294.119V91.277H298.853C300.824 91.277 302.191 92.7241 302.191 94.3745C302.191 95.7042 301.378 96.5411 300.781 96.7757V96.8461H300.774ZM298.349 95.9936C299.069 95.9936 299.536 95.5164 299.536 94.8203C299.536 94.1242 299.083 93.647 298.328 93.647H296.745V95.9936H298.342H298.349ZM298.601 100.835C299.508 100.835 299.997 100.272 299.997 99.4743C299.997 98.6217 299.465 98.1133 298.601 98.1133H296.752V100.835H298.601Z" fill="white"/>
<path d="M304.019 91.277H306.652V100.546H311.573V103.205H304.019V91.2849V91.277Z" fill="white"/>
<path d="M312.934 91.277H315.567V103.197H312.934V91.277Z" fill="white"/>
<path d="M327.782 99.6782C326.969 101.993 324.948 103.44 322.566 103.44C319.293 103.44 316.883 100.938 316.883 97.2065C316.883 93.4755 319.293 91.043 322.566 91.043C325.092 91.043 326.941 92.5604 327.674 94.4845L325.077 95.2511C324.516 94.2968 323.617 93.7337 322.444 93.7337C320.66 93.7337 319.53 95.1651 319.53 97.2456C319.53 99.3262 320.739 100.734 322.43 100.734C323.869 100.734 324.768 99.9129 325.199 98.9273L327.782 99.6782Z" fill="white"/>
<path d="M331.536 101.227L330.874 103.206H328.104L332.335 91.2853H335.328L339.572 103.206H336.752L336.09 101.227H331.529H331.536ZM334.45 96.2521C334.105 95.2666 333.853 94.5157 333.838 94.5H333.788C333.788 94.5 333.522 95.2509 333.176 96.2365L332.392 98.6221H335.227L334.443 96.2521H334.45Z" fill="white"/>
<path d="M25.219 83.1893L20.1588 71.4602H23.091L27.5145 81.8488H25.7887L30.2792 71.4602H32.9769L27.8999 83.1893H25.219ZM33.9562 83.1893V71.4602H36.6706V83.1893H33.9562Z" fill="white"/>
</g>
<defs>
<clipPath id="clip0_544_2925">
<rect width="351" height="105.868" fill="white" transform="translate(0 0.364502)"/>
</clipPath>
</defs>
</svg>
