<svg width="349" height="100" viewBox="0 0 349 100" fill="none" xmlns="http://www.w3.org/2000/svg">
<g clip-path="url(#clip0_544_2773)">
<path fill-rule="evenodd" clip-rule="evenodd" d="M105.811 43.444C105.811 43.444 105.811 43.444 105.811 43.4588C105.811 43.4588 105.811 43.4661 105.811 43.4735C106.456 46.3085 107.441 49.0919 108.786 51.7645C108.799 51.73 108.844 51.6784 108.921 51.6095C107.695 48.8138 106.649 46.0108 105.784 43.2004C105.784 43.3332 105.784 43.3406 105.805 43.4514L105.811 43.444ZM105.866 42.558C106.513 41.3325 107.504 39.9347 108.84 38.3646C110.162 41.7312 111.635 45.1224 113.261 48.5382C111.581 49.6751 110.241 50.6103 109.241 51.3437C107.941 48.42 106.816 45.494 105.866 42.5654V42.558ZM109.947 37.2498C111.337 40.6951 112.874 44.1626 114.558 47.6522C117.057 46.0034 119.796 44.2167 122.774 42.2923C120.846 38.4925 119.024 34.742 117.308 31.0407C114.596 33.2113 112.142 35.281 109.947 37.2498ZM119.162 29.6528C122.408 27.3444 125.76 25.0458 129.219 22.7572C131.215 26.4978 133.266 30.3295 135.371 34.2523C131.749 36.5459 128.218 38.7928 124.778 40.9929C122.813 37.1538 120.941 33.3737 119.162 29.6528ZM131.412 21.3766C133.44 25.0926 135.514 28.9071 137.632 32.82C141.259 30.5412 144.808 28.3238 148.28 26.168C146.157 22.4175 144.031 18.7925 141.904 15.2931C138.468 17.2126 134.97 19.2404 131.412 21.3766ZM143.948 14.2225C147.012 12.7361 149.876 11.4392 152.538 10.3318C154.625 13.3391 156.662 16.5014 158.649 19.8188C156.096 21.3643 153.312 23.0623 150.297 24.913C148.183 21.2166 146.064 17.6531 143.941 14.2225H143.948ZM164.591 16.4374C164.727 16.3783 164.727 16.3783 164.788 16.3857C163.294 13.8091 161.535 11.5056 159.573 9.50488C159.573 9.50488 159.573 9.50488 159.566 9.50488C159.485 9.42367 159.471 9.42367 159.376 9.34984C161.209 11.5499 162.95 13.9149 164.598 16.4448L164.591 16.4374ZM153.984 9.8445C156.044 12.7484 158.047 15.8025 159.994 19.0066C161.732 17.9878 163.143 17.1855 164.225 16.5998C162.527 13.9568 160.734 11.4663 158.846 9.12836C158.588 9.12836 158.364 9.12836 158.16 9.12836C156.816 9.12836 156.49 9.20957 153.991 9.8445H153.984ZM136.627 4.33687C138.447 6.56157 140.367 9.07175 142.386 11.8674C145.442 10.4843 148.298 9.29816 150.956 8.30886C148.882 5.98571 146.84 3.9505 144.83 2.20321C142.264 2.68556 139.531 3.39924 136.634 4.34425L136.627 4.33687ZM152.402 7.88803C150.315 5.66825 148.264 3.73885 146.25 2.09985C148.321 2.24751 148.389 2.25489 149.985 2.73478C151.499 3.42877 152.966 4.24827 154.378 5.1859C155.736 6.18259 155.824 6.2638 157.366 7.61487C156.017 7.46229 154.362 7.55334 152.402 7.88803Z" fill="#2B8C8D"/>
<path fill-rule="evenodd" clip-rule="evenodd" d="M127.189 43.9204C129.313 47.666 131.436 51.2861 133.559 54.7806C137.009 52.8562 140.504 50.8234 144.044 48.6824C142.016 44.9712 139.942 41.1592 137.824 37.2463C134.197 39.5301 130.653 41.7523 127.189 43.913V43.9204ZM159.289 41.6317C160.552 44.9048 161.629 47.9465 162.521 50.757C164.703 48.488 166.621 46.2608 168.273 44.0755C167.852 41.3143 167.218 38.3882 166.372 35.2972C164.271 37.3103 161.912 39.4193 159.296 41.6243L159.289 41.6317ZM167.41 34.1455C168.642 32.4573 169.529 30.9413 170.072 29.5976C170.405 31.7165 170.419 31.8346 170.548 33.5991C170.616 35.3932 170.548 37.1872 170.364 38.9665C169.971 40.7015 169.943 40.7679 169.04 42.7908C168.71 40.0887 168.167 37.2094 167.41 34.1529V34.1455ZM140.092 35.8288C143.709 33.5204 147.235 31.2637 150.672 29.0587C152.65 32.9027 154.526 36.6852 156.301 40.4062C153.064 42.7047 149.714 45.0032 146.251 47.3018C144.254 43.566 142.204 39.7417 140.098 35.8288H140.092ZM152.688 27.7667C155.663 25.8373 158.397 24.0506 160.891 22.4067C162.576 25.8963 164.117 29.3614 165.516 32.8018C163.32 34.7706 160.869 36.8353 158.162 38.996C156.441 35.3095 154.617 31.5664 152.688 27.7667ZM162.188 21.5208C163.814 24.9316 165.29 28.3228 166.616 31.6944C167.951 30.1243 168.938 28.7141 169.577 27.464C168.626 24.5354 167.503 21.6192 166.209 18.7153C165.204 19.4486 163.864 20.3838 162.188 21.5208ZM166.514 18.4569C166.63 18.3461 166.63 18.3461 166.65 18.2944C167.994 20.967 168.979 23.7504 169.631 26.5928V26.6076C169.651 26.7257 169.651 26.7404 169.658 26.866C168.789 24.0555 167.741 21.255 166.514 18.4642V18.4569Z" fill="#C6E6EF"/>
<path fill-rule="evenodd" clip-rule="evenodd" d="M115.359 17.8813C116.337 20.6967 117.498 23.7409 118.843 27.014C122.003 24.7203 125.282 22.4341 128.682 20.1553C127.003 16.9511 125.461 14.0102 124.058 11.3327C121.025 13.459 118.127 15.6443 115.366 17.8887L115.359 17.8813ZM106.219 41.13C106.219 41.13 106.219 41.13 106.219 41.1226C106.219 41.1226 106.219 41.1153 106.219 41.1079C106.219 41.1079 106.219 41.1226 106.219 41.13ZM108.039 25.9951C109.7 23.795 111.624 21.5605 113.811 19.2915C114.694 22.1167 115.766 25.1609 117.029 28.4241C114.413 30.6242 112.052 32.7406 109.947 34.7734C109.1 31.6529 108.464 28.7268 108.039 25.9951ZM145.672 1.26986C147.065 1.41751 147.18 1.43228 148.253 1.72021C146.657 1.15173 145.014 0.723522 143.35 0.420824C144.348 0.686608 144.45 0.730905 145.679 1.26986H145.672ZM105.784 33.1196V36.8037C105.893 38.2655 105.934 38.5091 106.232 40.4508C106.78 39.1022 107.67 37.5986 108.901 35.9399C108.141 32.8834 107.6 29.9917 107.278 27.265C106.375 29.2879 106.341 29.347 105.947 31.1041C105.879 31.7759 105.818 32.4478 105.784 33.1196ZM122.523 4.28945C122.523 4.28945 122.557 4.28207 122.577 4.31898C124.832 3.14265 127.091 2.12381 129.355 1.26247C127.025 1.97123 124.73 2.9753 122.523 4.28945ZM122.774 4.57739C125.418 3.19925 128.06 2.0106 130.699 1.01145C131.758 1.54794 132.985 2.46096 134.38 3.7505C131.301 5.15325 128.205 6.7258 125.09 8.46816C124.13 6.79963 123.358 5.50271 122.774 4.57739ZM106.375 28.1435C106.708 26.3495 107.169 24.5924 107.753 22.8722C107.475 23.9427 107.461 24.0534 107.298 25.4783C106.721 26.8958 106.667 27.0213 106.375 28.1435ZM136.559 0H139.622C140.131 0.0221486 140.641 0.0664458 141.15 0.118126C142.576 0.457739 142.637 0.48727 144.267 1.28462C141.736 1.639 139.052 2.22963 136.213 3.05651C134.751 1.85556 133.447 1.03114 132.302 0.583248C133.68 0.302698 133.789 0.287932 134.902 0.132891C135.453 0.0738283 136.009 0.0295315 136.566 0H136.559ZM111.624 14.8617C110.436 16.7001 109.424 18.6492 108.582 20.6795C108.161 22.1634 108.161 22.2372 107.978 24.1937C109.512 21.9936 111.312 19.7566 113.376 17.4827C113.127 15.5139 113.105 13.8823 113.308 12.5878C112.405 13.7469 112.344 13.8208 111.624 14.8691V14.8617ZM115.298 10.1367C117.122 8.4091 119.053 6.77995 121.09 5.24923C121.099 5.21478 121.099 5.19509 121.09 5.19017C118.944 6.62244 117.016 8.29098 115.291 10.1367H115.298ZM126.007 10.0998C129.207 8.28851 132.399 6.62983 135.582 5.12372C137.365 7.4321 139.239 10.0235 141.204 12.8979C137.791 14.7436 134.337 16.7075 130.842 18.7894C129.099 15.6296 127.487 12.733 126.007 10.0998ZM114.442 11.281C116.556 9.26305 118.811 7.35827 121.206 5.56669C121.681 6.56092 122.347 7.92429 123.202 9.65681C120.287 11.724 117.507 13.8626 114.863 16.0725C114.501 14.1431 114.363 12.546 114.449 11.281H114.442Z" fill="#00424B"/>
<path fill-rule="evenodd" clip-rule="evenodd" d="M251.507 54.0946L272.313 3.64741L272.598 2.9608H286.635L285.962 4.59242L265.156 55.0396L264.871 55.7262H250.841L251.513 54.0946H251.507ZM224.262 55.7262H213.601V53.0241C212.433 53.9396 211.095 54.7148 209.622 55.3128C207.34 56.2357 204.753 56.7451 202.016 56.7451C194.961 56.7451 188.584 53.7919 184.007 48.8232C179.526 43.9653 176.775 37.1878 176.775 29.3546C176.775 21.5214 179.526 14.7439 184.007 9.88594C188.584 4.91726 194.961 1.96411 202.016 1.96411C206.695 1.96411 211.102 3.30041 214.885 5.69985C218.721 8.12143 221.92 11.6505 224.133 15.9694L224.792 17.2688L223.461 17.6454L212.08 20.8864L211.421 21.071L210.987 20.4951C210.016 19.2179 208.637 18.1622 207.089 17.4239C205.493 16.656 203.727 16.2278 202.023 16.2278C198.526 16.2278 195.701 17.542 193.738 19.779C191.701 22.0972 190.574 25.4343 190.574 29.3398C190.574 33.2454 191.803 36.671 193.881 38.9523C196.027 41.2927 199.096 42.5921 202.689 42.5921C205.744 42.5921 208.019 41.8612 209.71 40.7464C211.292 39.7128 212.365 38.3322 213.099 36.9147H201.419V24.8658H225.342V55.7262H224.269H224.262ZM223.855 15.4305V16.5896H237.837V55.7189H251.167V16.5896H265.353V2.9608H223.855V15.4305ZM286.92 3.64741L286.635 2.9608H272.598L273.271 4.59242L294.077 55.0396L294.362 55.7262H308.399L307.72 54.0946L286.913 3.64741H286.92ZM320.445 44.8291V55.7262H307.115V2.9608H326.91C333.728 2.9608 339.221 4.91726 343.038 8.50534C346.888 12.1303 349 17.3722 349 23.8913C349 30.4104 346.895 35.6596 343.038 39.2846C339.228 42.88 333.728 44.8291 326.91 44.8291H320.452H320.445Z" fill="white"/>
<path fill-rule="evenodd" clip-rule="evenodd" d="M279.619 19.9636L264.863 55.7263H294.369L279.619 19.9636Z" fill="#DACF6D"/>
<path fill-rule="evenodd" clip-rule="evenodd" d="M320.343 17.5496V30.5066H327.575C330.148 30.5066 332.172 29.879 333.537 28.7273C334.807 27.642 335.506 26.0473 335.506 24.0244C335.506 22.0015 334.807 20.4142 333.537 19.3215C332.172 18.1698 330.148 17.5422 327.575 17.5422H320.343V17.5496Z" fill="#DACF6D"/>
<path fill-rule="evenodd" clip-rule="evenodd" d="M279.416 19.4467L273.251 4.51115L272.599 2.92383H274.201H285.555H286.227L285.576 4.51115L279.416 19.4467Z" fill="#A67F26"/>
<path d="M22.8394 56.9661L-0.701552 2.40092H12.9397L33.5186 50.73H25.4897L46.3804 2.40092H58.9304L35.3114 56.9661H22.8394ZM61.1477 56.9661V2.40092H73.7756V56.9661H61.1477ZM78.9301 56.9661V2.40092H91.558V56.9661H78.9301Z" fill="white"/>
<path d="M58.1355 74.4495C57.3681 76.6349 55.46 78.0007 53.2123 78.0007C50.1225 78.0007 47.8477 75.6382 47.8477 72.1165C47.8477 68.5949 50.1225 66.2988 53.2123 66.2988C55.5958 66.2988 57.341 67.7311 58.0336 69.5473L55.5822 70.2708C55.0525 69.3701 54.2105 68.8385 53.0968 68.8385C51.4127 68.8385 50.3466 70.1896 50.3466 72.1535C50.3466 74.1173 51.4874 75.4462 53.0832 75.4462C54.4414 75.4462 55.2834 74.671 55.6976 73.7408L58.1355 74.4495Z" fill="white"/>
<path d="M64.3748 66.2988C67.5392 66.2988 69.8277 68.713 69.8277 72.1535C69.8277 75.5939 67.5324 78.0081 64.3748 78.0081C61.2171 78.0081 58.9219 75.5939 58.9219 72.1535C58.9219 68.713 61.2171 66.2988 64.3748 66.2988ZM64.3748 75.4462C66.0928 75.4462 67.3287 74.1616 67.3287 72.1535C67.3287 70.1453 66.086 68.8385 64.3748 68.8385C62.6635 68.8385 61.4208 70.1232 61.4208 72.1535C61.4208 74.1837 62.6635 75.4462 64.3748 75.4462Z" fill="white"/>
<path d="M73.5702 71.0606H73.5227C73.5227 71.0606 73.5498 72.456 73.5498 73.9252V77.7864H71.0645V66.5349H73.577L77.9841 73.1278H78.0317C78.0317 73.1278 78.0181 71.666 78.0181 70.4405V66.5349H80.5035V77.7864H77.9773L73.5702 71.068V71.0606Z" fill="white"/>
<path d="M89.9967 77.7792C89.9967 77.1369 90.0103 77.0704 90.0103 76.9892H89.9832C89.3924 77.5356 88.2651 78.0007 87.07 78.0007C84.1839 78.0007 81.7461 75.6382 81.7461 72.1313C81.7461 68.6244 84.021 66.2988 87.1107 66.2988C89.4603 66.2988 91.2666 67.7163 91.9321 69.5473L89.4806 70.2708C89.08 69.5473 88.3127 68.8385 86.9953 68.8385C85.3248 68.8385 84.2451 70.1896 84.2451 72.1535C84.2451 74.1173 85.4402 75.4462 87.2737 75.4462C88.6929 75.4462 89.5825 74.7744 89.9085 74.2871V73.7555H87.3076V71.2454H92.2173V77.7718H89.9967V77.7792Z" fill="white"/>
<path d="M97.2905 74.0655H96.1836V77.7791H93.6982V66.5276H97.63C100.231 66.5276 101.759 68.0042 101.759 70.3372C101.759 71.8802 101.066 73.0245 99.8098 73.5339L102.173 77.7791H99.2326L97.2973 74.0655H97.2905ZM97.793 71.9097C98.7097 71.9097 99.2123 71.4151 99.2123 70.4627C99.2123 69.5103 98.7369 68.9713 97.7794 68.9713H96.1836V71.9097H97.793Z" fill="white"/>
<path d="M103.232 66.5205H110.77V69.0307H105.711V70.9576H109.439V73.2094H105.711V75.2692H110.845V77.7794H103.232V66.5279V66.5205Z" fill="white"/>
<path d="M114.233 74.2723C114.437 75.1214 115.164 75.6234 116.291 75.6234C117.235 75.6234 117.812 75.269 117.812 74.5455C117.812 73.4676 116.569 73.534 115.299 73.1944C113.894 72.8253 112.149 72.1165 112.149 69.7392C112.149 67.362 113.744 66.2988 116.067 66.2988C118.179 66.2988 119.686 67.2291 120.263 69.2372L117.9 69.9312C117.649 69.1117 117.058 68.6613 116.019 68.6613C115.075 68.6613 114.675 69.06 114.675 69.658C114.675 70.603 115.666 70.7507 117.113 71.0756C118.634 71.4004 120.324 72.1018 120.324 74.5307C120.324 76.9597 118.831 78.0007 116.304 78.0007C114.498 78.0007 112.461 77.4027 111.87 74.9589L114.233 74.265V74.2723Z" fill="white"/>
<path d="M123.501 74.2723C123.705 75.1214 124.431 75.6234 125.558 75.6234C126.502 75.6234 127.08 75.269 127.08 74.5455C127.08 73.4676 125.837 73.534 124.567 73.1944C123.161 72.8253 121.416 72.1165 121.416 69.7392C121.416 67.362 123.012 66.2988 125.334 66.2988C127.446 66.2988 128.954 67.2291 129.531 69.2372L127.168 69.9312C126.917 69.1117 126.326 68.6613 125.287 68.6613C124.343 68.6613 123.942 69.06 123.942 69.658C123.942 70.603 124.934 70.7507 126.38 71.0756C127.901 71.4004 129.592 72.1018 129.592 74.5307C129.592 76.9597 128.098 78.0007 125.572 78.0007C123.766 78.0007 121.728 77.4027 121.138 74.9589L123.501 74.265V74.2723Z" fill="white"/>
<path d="M135.882 66.2988C139.046 66.2988 141.335 68.713 141.335 72.1535C141.335 75.5939 139.039 78.0081 135.882 78.0081C132.724 78.0081 130.429 75.5939 130.429 72.1535C130.429 68.713 132.724 66.2988 135.882 66.2988ZM135.882 75.4462C137.6 75.4462 138.836 74.1616 138.836 72.1535C138.836 70.1453 137.593 68.8385 135.882 68.8385C134.17 68.8385 132.928 70.1232 132.928 72.1535C132.928 74.1837 134.17 75.4462 135.882 75.4462Z" fill="white"/>
<path d="M152.559 71.7842C153.564 72.109 154.44 73.0024 154.44 74.5011C154.44 76.2361 153.299 77.7791 150.725 77.7791H146.277V66.5276H150.746C152.606 66.5276 153.896 67.8934 153.896 69.4512C153.896 70.7063 153.129 71.4963 152.565 71.7178V71.7842H152.559ZM150.263 70.9795C150.943 70.9795 151.384 70.5291 151.384 69.872C151.384 69.215 150.956 68.7646 150.243 68.7646H148.749V70.9795H150.257H150.263ZM150.501 75.5421C151.357 75.5421 151.819 75.0105 151.819 74.2575C151.819 73.4527 151.316 72.9728 150.501 72.9728H148.756V75.5421H150.501Z" fill="white"/>
<path d="M159.214 74.0655H158.107V77.7791H155.622V66.5276H159.554C162.155 66.5276 163.683 68.0042 163.683 70.3372C163.683 71.8802 162.99 73.0245 161.734 73.5339L164.097 77.7791H161.156L159.221 74.0655H159.214ZM159.717 71.9097C160.634 71.9097 161.136 71.4151 161.136 70.4627C161.136 69.5103 160.661 68.9713 159.703 68.9713H158.107V71.9097H159.717Z" fill="white"/>
<path d="M167.947 75.9112L167.329 77.7791H164.715L168.708 66.5276H171.533L175.539 77.7791H172.877L172.259 75.9112H167.954H167.947ZM170.697 71.2157C170.371 70.2855 170.134 69.5767 170.12 69.562H170.073C170.073 69.562 169.821 70.2707 169.495 71.201L168.755 73.4527H171.431L170.691 71.2157H170.697Z" fill="white"/>
<path d="M178.493 74.2723C178.697 75.1214 179.423 75.6234 180.551 75.6234C181.495 75.6234 182.072 75.269 182.072 74.5455C182.072 73.4676 180.829 73.534 179.559 73.1944C178.153 72.8253 176.408 72.1165 176.408 69.7392C176.408 67.362 178.004 66.2988 180.327 66.2988C182.438 66.2988 183.946 67.2291 184.523 69.2372L182.16 69.9312C181.909 69.1117 181.318 68.6613 180.279 68.6613C179.335 68.6613 178.934 69.06 178.934 69.658C178.934 70.603 179.926 70.7507 181.372 71.0756C182.893 71.4004 184.584 72.1018 184.584 74.5307C184.584 76.9597 183.09 78.0007 180.564 78.0007C178.758 78.0007 176.721 77.4027 176.13 74.9589L178.493 74.265V74.2723Z" fill="white"/>
<path d="M185.827 66.5205H188.313V77.772H185.827V66.5205Z" fill="white"/>
<path d="M189.963 66.5205H192.448V75.2692H197.093V77.7794H189.963V66.5279V66.5205Z" fill="white"/>
<path d="M198.376 66.5205H205.914V69.0307H200.855V70.9576H204.583V73.2094H200.855V75.2692H205.988V77.7794H198.376V66.5279V66.5205Z" fill="white"/>
<path d="M207.441 66.5205H209.927V77.772H207.441V66.5205Z" fill="white"/>
<path d="M215.174 74.0655H214.067V77.7791H211.582V66.5276H215.514C218.115 66.5276 219.636 68.0042 219.636 70.3372C219.636 71.8802 218.943 73.0245 217.687 73.5339L220.05 77.7791H217.11L215.174 74.0655ZM215.677 71.9097C216.594 71.9097 217.096 71.4151 217.096 70.4627C217.096 69.5103 216.621 68.9713 215.663 68.9713H214.067V71.9097H215.677Z" fill="white"/>
<path d="M226.027 66.2988C229.192 66.2988 231.48 68.713 231.48 72.1535C231.48 75.5939 229.185 78.0081 226.027 78.0081C222.869 78.0081 220.567 75.5939 220.567 72.1535C220.567 68.713 222.863 66.2988 226.027 66.2988ZM226.027 75.4462C227.745 75.4462 228.981 74.1616 228.981 72.1535C228.981 70.1453 227.738 68.8385 226.027 68.8385C224.316 68.8385 223.066 70.1232 223.066 72.1535C223.066 74.1837 224.309 75.4462 226.027 75.4462Z" fill="white"/>
<path d="M240.823 66.5205C243.913 66.5205 246.283 68.8018 246.283 72.1979C246.283 75.5941 243.899 77.7794 240.844 77.7794H236.423V66.5279H240.83L240.823 66.5205ZM240.694 75.2692C242.229 75.2692 243.784 74.4202 243.784 72.1979C243.784 69.9757 242.229 69.0307 240.694 69.0307H238.908V75.2692H240.694Z" fill="white"/>
<path d="M247.527 66.5205H255.065V69.0307H250.006V70.9576H253.734V73.2094H250.006V75.2692H255.14V77.7794H247.527V66.5279V66.5205Z" fill="white"/>
<path d="M268.122 77.7792C268.122 77.1369 268.135 77.0704 268.135 76.9892H268.108C267.517 77.5356 266.39 78.0007 265.195 78.0007C262.309 78.0007 259.871 75.6382 259.871 72.1313C259.871 68.6244 262.146 66.2988 265.236 66.2988C267.585 66.2988 269.392 67.7163 270.057 69.5473L267.606 70.2708C267.205 69.5473 266.438 68.8385 265.12 68.8385C263.45 68.8385 262.37 70.1896 262.37 72.1535C262.37 74.1173 263.565 75.4462 265.399 75.4462C266.818 75.4462 267.707 74.7744 268.033 74.2871V73.7555H265.433V71.2454H270.342V77.7718H268.122V77.7792Z" fill="white"/>
<path d="M271.815 66.5205H279.353V69.0307H274.294V70.9576H278.022V73.2094H274.294V75.2692H279.428V77.7794H271.815V66.5279V66.5205Z" fill="white"/>
<path d="M282.816 74.2723C283.02 75.1214 283.747 75.6234 284.874 75.6234C285.818 75.6234 286.395 75.269 286.395 74.5455C286.395 73.4676 285.152 73.534 283.882 73.1944C282.477 72.8253 280.732 72.1165 280.732 69.7392C280.732 67.362 282.327 66.2988 284.65 66.2988C286.762 66.2988 288.269 67.2291 288.846 69.2372L286.483 69.9312C286.232 69.1117 285.641 68.6613 284.602 68.6613C283.658 68.6613 283.258 69.06 283.258 69.658C283.258 70.603 284.249 70.7507 285.696 71.0756C287.217 71.4004 288.907 72.1018 288.907 74.5307C288.907 76.9597 287.414 78.0007 284.887 78.0007C283.081 78.0007 281.044 77.4027 280.453 74.9589L282.816 74.265V74.2723Z" fill="white"/>
<path d="M295.373 69.0307V77.7794H292.888V69.0307H289.724V66.5205H298.538V69.0307H295.373Z" fill="white"/>
<path d="M300.798 75.9111L300.173 77.779H297.559L301.552 66.5275H304.376L308.383 77.779H305.721L305.096 75.9111H300.791H300.798ZM300.458 65.4644L300.105 63.5227C300.241 63.3455 300.771 63.0059 301.538 63.0059C302.502 63.0059 303.093 63.4857 304.084 63.4857C304.648 63.4857 305.117 63.2421 305.368 63.0354L305.721 64.9771C305.585 65.1543 305.042 65.4939 304.302 65.4939C303.337 65.4939 302.733 65.014 301.776 65.014C301.212 65.014 300.696 65.2355 300.458 65.4644ZM303.548 71.2156C303.222 70.2854 302.984 69.5766 302.971 69.5619H302.923C302.923 69.5619 302.672 70.2706 302.346 71.2009L301.606 73.4526H304.281L303.541 71.2156H303.548Z" fill="white"/>
<path d="M314 66.2988C317.164 66.2988 319.453 68.713 319.453 72.1535C319.453 75.5939 317.157 78.0081 314 78.0081C310.842 78.0081 308.54 75.5939 308.54 72.1535C308.54 68.713 310.835 66.2988 314 66.2988ZM314 75.4462C315.718 75.4462 316.954 74.1616 316.954 72.1535C316.954 70.1453 315.711 68.8385 314 68.8385C312.288 68.8385 311.039 70.1232 311.039 72.1535C311.039 74.1837 312.282 75.4462 314 75.4462Z" fill="white"/>
<path d="M24.8197 88.3217V97.0704H22.3344V88.3217H19.1699V85.8115H27.9842V88.3217H24.8197Z" fill="white"/>
<path d="M32.8589 93.3573H31.752V97.0709H29.2666V85.8193H33.1984C35.7992 85.8193 37.3271 87.2959 37.3271 89.6289C37.3271 91.1719 36.6345 92.3163 35.3782 92.8257L37.7413 97.0709H34.801L32.8656 93.3573H32.8589ZM33.3614 91.2015C34.2781 91.2015 34.7806 90.7068 34.7806 89.7544C34.7806 88.802 34.3053 88.2631 33.3478 88.2631H31.752V91.2015H33.3614Z" fill="white"/>
<path d="M38.8008 85.8115H41.2862V97.063H38.8008V85.8115Z" fill="white"/>
<path d="M49.2257 91.0681C50.2307 91.393 51.1067 92.2863 51.1067 93.785C51.1067 95.52 49.9659 97.063 47.3922 97.063H42.9443V85.8115H47.4126C49.2732 85.8115 50.5634 87.1774 50.5634 88.7351C50.5634 89.9902 49.7961 90.7802 49.2325 91.0017V91.0681H49.2257ZM46.9372 90.2634C47.6163 90.2634 48.0577 89.813 48.0577 89.156C48.0577 88.4989 47.6299 88.0485 46.9169 88.0485H45.4229V90.2634H46.9304H46.9372ZM47.1749 94.8334C48.0305 94.8334 48.4923 94.3018 48.4923 93.5488C48.4923 92.744 47.9898 92.2642 47.1749 92.2642H45.4297V94.8334H47.1749Z" fill="white"/>
<path d="M61.2172 92.0501C61.2172 95.4388 59.4109 97.2919 56.7082 97.2919C54.0055 97.2919 52.1992 95.4462 52.1992 92.0501V85.8115H54.7118V91.9688C54.7118 93.8958 55.3908 94.7374 56.7354 94.7374C58.0799 94.7374 58.759 93.9032 58.759 91.9688V85.8115H61.2104V92.0501H61.2172Z" fill="white"/>
<path d="M68.0619 88.3217V97.0704H65.5766V88.3217H62.4121V85.8115H71.2264V88.3217H68.0619Z" fill="white"/>
<path d="M73.4882 95.2027L72.8703 97.0706H70.2559L74.2488 85.8191H77.0737L81.0802 97.0706H78.4182L77.8003 95.2027H73.495H73.4882ZM76.2384 90.5072C75.9125 89.577 75.6748 88.8682 75.6612 88.8535H75.6137C75.6137 88.8535 75.3624 89.5622 75.0365 90.4925L74.2963 92.7442H76.9718L76.2316 90.5072H76.2384ZM74.4932 84.9479L76.1501 82.0391L78.0855 82.6961L76.6934 84.9479H74.4932Z" fill="white"/>
<path d="M85.6919 93.3573H84.585V97.0709H82.0996V85.8193H86.0314C88.6322 85.8193 90.1601 87.2959 90.1601 89.6289C90.1601 91.1719 89.4675 92.3163 88.2112 92.8257L90.5743 97.0709H87.634L85.6987 93.3573H85.6919ZM86.1944 91.2015C87.1111 91.2015 87.6136 90.7068 87.6136 89.7544C87.6136 88.802 87.1383 88.2631 86.1808 88.2631H84.585V91.2015H86.1944Z" fill="white"/>
<path d="M91.6318 85.8115H94.1172V97.063H91.6318V85.8115Z" fill="white"/>
<path d="M98.3779 95.203L97.7599 97.0709H95.1455L99.1384 85.8193H101.963L105.97 97.0709H103.308L102.69 95.203H98.3846H98.3779ZM101.128 90.5075C100.802 89.5772 100.564 88.8685 100.551 88.8537H100.503C100.503 88.8537 100.252 89.5625 99.9261 90.4927L99.1859 92.7445H101.861L101.121 90.5075H101.128Z" fill="white"/>
<path d="M113.173 90.345H113.125C113.125 90.345 113.152 91.7404 113.152 93.2096V97.0709H110.667V85.8193H113.18L117.587 92.4123H117.634C117.634 92.4123 117.621 90.9504 117.621 89.7249V85.8193H120.106V97.0709H117.58L113.173 90.3524V90.345Z" fill="white"/>
<path d="M124.37 95.203L123.752 97.0709H121.138L125.131 85.8193H127.956L131.962 97.0709H129.3L128.682 95.203H124.377H124.37ZM127.12 90.5075C126.794 89.5772 126.557 88.8685 126.543 88.8537H126.496C126.496 88.8537 126.244 89.5625 125.918 90.4927L125.178 92.7445H127.854L127.113 90.5075H127.12Z" fill="white"/>
<path d="M139.269 95.203L138.652 97.0709H136.037L140.03 85.8193H142.855L146.861 97.0709H144.199L143.582 95.203H139.276H139.269ZM142.02 90.5075C141.694 89.5772 141.456 88.8685 141.442 88.8537H141.395C141.395 88.8537 141.144 89.5625 140.818 90.4927L140.078 92.7445H142.753L142.013 90.5075H142.02Z" fill="white"/>
<path d="M152.28 85.8115C155.37 85.8115 157.733 88.0928 157.733 91.489C157.733 94.8851 155.35 97.0704 152.294 97.0704H147.873V85.8189H152.28V85.8115ZM152.151 94.5602C153.686 94.5602 155.241 93.7112 155.241 91.489C155.241 89.2667 153.686 88.3217 152.151 88.3217H150.365V94.5602H152.151Z" fill="white"/>
<path d="M166.92 94.317C166.92 91.6518 166.947 90.3303 166.947 90.3155H166.92C166.92 90.3155 166.404 91.3417 165.901 92.3089L164.896 94.2875H163.504L162.499 92.3458C161.983 91.3491 161.494 90.3377 161.48 90.3229H161.433C161.433 90.3229 161.46 91.6592 161.46 94.3244V97.0709H158.975V85.8193H161.609L164.21 90.8545H164.258L166.872 85.8193H169.398V97.0709H166.913V94.3244L166.92 94.317Z" fill="white"/>
<path d="M171.062 85.8115H173.548V97.063H171.062V85.8115Z" fill="white"/>
<path d="M177.698 90.345H177.651C177.651 90.345 177.678 91.7404 177.678 93.2096V97.0709H175.192V85.8193H177.705L182.112 92.4123H182.153C182.153 92.4123 182.139 90.9504 182.139 89.7249V85.8193H184.625V97.0709H182.098L177.691 90.3524L177.698 90.345Z" fill="white"/>
<path d="M186.288 85.8115H188.773V97.063H186.288V85.8115Z" fill="white"/>
<path d="M192.366 93.5641C192.57 94.4131 193.296 94.9152 194.424 94.9152C195.368 94.9152 195.945 94.5608 195.945 93.8373C195.945 92.7594 194.702 92.8258 193.432 92.4862C192.027 92.117 190.281 91.4083 190.281 89.031C190.281 86.6537 191.877 85.5906 194.2 85.5906C196.311 85.5906 197.819 86.5208 198.396 88.529L196.033 89.223C195.782 88.4035 195.191 87.9531 194.152 87.9531C193.208 87.9531 192.807 88.3518 192.807 88.9498C192.807 89.8948 193.799 90.0425 195.245 90.3673C196.766 90.6921 198.457 91.3935 198.457 93.8225C198.457 96.2515 196.963 97.2924 194.437 97.2924C192.631 97.2924 190.594 96.6944 190.003 94.2507L192.366 93.5567V93.5641Z" fill="white"/>
<path d="M204.92 88.3217V97.0704H202.435V88.3217H199.271V85.8115H208.085V88.3217H204.92Z" fill="white"/>
<path d="M212.961 93.3573H211.855V97.0709H209.369V85.8193H213.301C215.902 85.8193 217.423 87.2959 217.423 89.6289C217.423 91.1719 216.73 92.3163 215.474 92.8257L217.837 97.0709H214.897L212.961 93.3573ZM213.464 91.2015C214.381 91.2015 214.883 90.7068 214.883 89.7544C214.883 88.802 214.408 88.2631 213.45 88.2631H211.855V91.2015H213.464Z" fill="white"/>
<path d="M221.702 95.203L221.077 97.0709H218.463L222.456 85.8193H225.281L229.287 97.0709H226.625L226.001 95.203H221.695H221.702ZM224.452 90.5075C224.126 89.5772 223.889 88.8685 223.875 88.8537H223.828C223.828 88.8537 223.576 89.5625 223.25 90.4927L222.51 92.7445H225.186L224.445 90.5075H224.452Z" fill="white"/>
<path d="M239.737 93.7413C239.16 95.3803 237.931 96.5542 236.423 97.034C236.736 97.3072 236.926 97.6911 236.926 98.2375C236.926 99.2858 236.233 99.9281 234.651 99.9281C234.135 99.9281 233.558 99.8469 233.293 99.7362V98.0972C233.456 98.1636 233.795 98.2227 234.271 98.2227C234.977 98.2227 235.248 98.0972 235.248 97.8535C235.248 97.5287 234.746 97.3737 233.388 97.3884V97.1005C231.052 96.4877 229.456 94.3541 229.456 91.4083C229.456 87.9826 231.731 85.5906 234.821 85.5906C237.204 85.5906 238.949 87.0229 239.642 88.839L237.191 89.5626C236.661 88.6619 235.812 88.1303 234.705 88.1303C233.021 88.1303 231.955 89.4814 231.955 91.4452C231.955 93.4091 233.096 94.738 234.692 94.738C236.05 94.738 236.899 93.9628 237.306 93.0325L239.744 93.7413H239.737Z" fill="white"/>
<path d="M243.29 95.2026L242.665 97.0705H240.051L244.044 85.819H246.869L250.875 97.0705H248.213L247.588 95.2026H243.283H243.29ZM242.95 84.7559L242.597 82.8142C242.733 82.637 243.263 82.2974 244.03 82.2974C244.994 82.2974 245.585 82.7773 246.577 82.7773C247.14 82.7773 247.609 82.5336 247.86 82.3269L248.213 84.2686C248.077 84.4458 247.534 84.7854 246.794 84.7854C245.83 84.7854 245.225 84.3055 244.268 84.3055C243.704 84.3055 243.188 84.527 242.95 84.7559ZM246.04 90.5071C245.714 89.5769 245.477 88.8681 245.463 88.8534H245.415C245.415 88.8534 245.164 89.5621 244.838 90.4924L244.098 92.7441H246.774L246.033 90.5071H246.04Z" fill="white"/>
<path d="M256.49 85.5906C259.654 85.5906 261.943 88.0048 261.943 91.4452C261.943 94.8856 259.648 97.2998 256.49 97.2998C253.332 97.2998 251.03 94.8856 251.03 91.4452C251.03 88.0048 253.326 85.5906 256.49 85.5906ZM256.49 94.738C258.208 94.738 259.444 93.4533 259.444 91.4452C259.444 89.4371 258.201 88.1303 256.49 88.1303C254.779 88.1303 253.529 89.4149 253.529 91.4452C253.529 93.4755 254.772 94.738 256.49 94.738Z" fill="white"/>
<path d="M270.744 85.8115C273.29 85.8115 274.825 87.2733 274.825 89.6875C274.825 92.1017 273.29 93.5635 270.744 93.5635H269.365V97.0704H266.88V85.8189H270.737L270.744 85.8115ZM270.818 91.2158C271.871 91.2158 272.34 90.6178 272.34 89.7392C272.34 88.8606 271.864 88.2774 270.818 88.2774H269.372V91.2158H270.818Z" fill="white"/>
<path d="M284.895 92.0502C284.895 95.439 283.089 97.2921 280.386 97.2921C277.683 97.2921 275.877 95.4464 275.877 92.0502V85.8117H278.389V91.969C278.389 93.896 279.069 94.7376 280.413 94.7376C281.758 94.7376 282.437 93.9033 282.437 91.969V85.8117H284.888V92.0502H284.895ZM279.32 84.9479L280.977 82.0391L282.898 82.6961L281.52 84.9479H279.32Z" fill="white"/>
<path d="M292.744 91.0681C293.749 91.393 294.618 92.2863 294.618 93.785C294.618 95.52 293.478 97.063 290.911 97.063H286.463V85.8115H290.931C292.792 85.8115 294.082 87.1774 294.082 88.7351C294.082 89.9902 293.315 90.7802 292.751 91.0017V91.0681H292.744ZM290.456 90.2634C291.135 90.2634 291.576 89.813 291.576 89.156C291.576 88.4989 291.148 88.0485 290.435 88.0485H288.941V90.2634H290.449H290.456ZM290.693 94.8334C291.549 94.8334 292.011 94.3018 292.011 93.5488C292.011 92.744 291.508 92.2642 290.693 92.2642H288.948V94.8334H290.693Z" fill="white"/>
<path d="M295.809 85.8115H298.294V94.5602H302.939V97.0704H295.809V85.8189V85.8115Z" fill="white"/>
<path d="M304.222 85.8115H306.707V97.063H304.222V85.8115Z" fill="white"/>
<path d="M318.238 93.7413C317.471 95.9266 315.563 97.2924 313.315 97.2924C310.225 97.2924 307.95 94.9299 307.95 91.4083C307.95 87.8867 310.225 85.5906 313.315 85.5906C315.698 85.5906 317.444 87.0229 318.136 88.839L315.685 89.5626C315.155 88.6619 314.306 88.1303 313.199 88.1303C311.515 88.1303 310.449 89.4814 310.449 91.4452C310.449 93.4091 311.59 94.738 313.186 94.738C314.544 94.738 315.393 93.9628 315.8 93.0325L318.238 93.7413Z" fill="white"/>
<path d="M321.781 95.203L321.156 97.0709H318.542L322.535 85.8193H325.36L329.366 97.0709H326.704L326.08 95.203H321.774H321.781ZM324.531 90.5075C324.205 89.5772 323.968 88.8685 323.954 88.8537H323.907C323.907 88.8537 323.655 89.5625 323.329 90.4927L322.589 92.7445H325.265L324.525 90.5075H324.531Z" fill="white"/>
<path d="M27.7365 77.8508L22.9602 66.7799H25.7279L29.9032 76.5856H28.2742L32.5128 66.7799H35.0591L30.267 77.8508H27.7365ZM35.9834 77.8508V66.7799H38.5456V77.8508H35.9834ZM41.1729 77.8508V66.7799H43.735V77.8508H41.1729Z" fill="white"/>
</g>
<defs>
<clipPath id="clip0_544_2773">
<rect width="349" height="99.9278" fill="white"/>
</clipPath>
</defs>
</svg>
