<svg width="360" height="99" viewBox="0 0 360 99" fill="none" xmlns="http://www.w3.org/2000/svg">
<g clip-path="url(#clip0_544_2697)">
<path fill-rule="evenodd" clip-rule="evenodd" d="M121.146 42.6134C121.146 42.6134 121.146 42.6134 121.146 42.6279C121.146 42.6279 121.146 42.6351 121.146 42.6423C121.779 45.4232 122.744 48.1533 124.063 50.7748C124.077 50.741 124.121 50.6903 124.196 50.6227C122.993 47.8805 121.967 45.1311 121.119 42.3744C121.119 42.5047 121.119 42.512 121.139 42.6206L121.146 42.6134ZM121.199 41.7444C121.834 40.5422 122.807 39.1711 124.117 37.6311C125.413 40.9333 126.859 44.2597 128.453 47.6101C126.805 48.7254 125.491 49.6427 124.509 50.362C123.235 47.4943 122.132 44.6242 121.199 41.7516V41.7444ZM125.202 36.5376C126.565 39.917 128.073 43.3182 129.725 46.7411C132.176 45.1238 134.863 43.3713 137.784 41.4837C135.893 37.7566 134.105 34.0778 132.423 30.4473C129.763 32.5764 127.356 34.6065 125.202 36.5376ZM134.241 29.0859C137.425 26.8216 140.713 24.567 144.106 22.3221C146.064 25.9912 148.075 29.7497 150.14 33.5974C146.588 35.8472 143.124 38.0511 139.749 40.2091C137.822 36.4434 135.986 32.7357 134.241 29.0859ZM146.257 20.9679C148.246 24.6129 150.28 28.3545 152.358 32.1926C155.915 29.9573 159.397 27.7824 162.802 25.6678C160.72 21.989 158.635 18.4333 156.548 15.0007C153.178 16.8836 149.747 18.8726 146.257 20.9679ZM158.553 13.9507C161.559 12.4927 164.368 11.2206 166.979 10.1343C169.026 13.0841 171.024 16.186 172.973 19.4399C170.469 20.9558 167.738 22.6214 164.781 24.4367C162.707 20.811 160.629 17.3157 158.546 13.9507H158.553ZM178.802 16.1232C178.935 16.0653 178.935 16.0653 178.995 16.0725C177.529 13.5452 175.804 11.2857 173.879 9.32325C173.879 9.32325 173.879 9.32325 173.873 9.32325C173.793 9.24359 173.779 9.24359 173.686 9.17117C175.485 11.3292 177.192 13.649 178.808 16.1305L178.802 16.1232ZM168.398 9.65636C170.418 12.5048 172.383 15.5004 174.292 18.6433C175.997 17.644 177.381 16.857 178.442 16.2825C176.777 13.69 175.018 11.2471 173.167 8.95392C172.914 8.95392 172.694 8.95392 172.494 8.95392C171.175 8.95392 170.855 9.03358 168.404 9.65636H168.398ZM151.373 4.25405C153.158 6.43622 155.04 8.8984 157.021 11.6406C160.018 10.284 162.82 9.12048 165.427 8.15009C163.393 5.87137 161.39 3.87507 159.419 2.1612C156.901 2.63432 154.221 3.33435 151.379 4.26129L151.373 4.25405ZM166.846 7.73731C164.798 5.55997 162.787 3.66747 160.811 2.05981C162.842 2.20465 162.909 2.21189 164.474 2.6826C165.96 3.36332 167.398 4.16715 168.784 5.08685C170.116 6.06448 170.203 6.14414 171.715 7.46937C170.391 7.31971 168.768 7.40902 166.846 7.73731Z" fill="#2B8C8D"/>
<path fill-rule="evenodd" clip-rule="evenodd" d="M142.114 43.0805C144.197 46.7545 146.279 50.3053 148.362 53.7331C151.746 51.8454 155.174 49.8515 158.646 47.7514C156.657 44.1113 154.623 40.3721 152.545 36.534C148.988 38.7741 145.511 40.9539 142.114 43.0733V43.0805ZM173.6 40.8356C174.839 44.0461 175.896 47.0297 176.77 49.7864C178.911 47.5607 180.791 45.3762 182.412 43.2326C181.999 40.5242 181.377 37.6541 180.547 34.6222C178.487 36.5968 176.173 38.6655 173.607 40.8284L173.6 40.8356ZM181.566 33.4925C182.774 31.8366 183.644 30.3496 184.177 29.0316C184.504 31.11 184.517 31.2259 184.643 32.9566C184.71 34.7164 184.643 36.4761 184.464 38.2214C184.077 39.9232 184.051 39.9883 183.165 41.9726C182.841 39.3221 182.308 36.4978 181.566 33.4998V33.4925ZM154.77 35.1436C158.318 32.8794 161.777 30.6658 165.147 28.503C167.088 32.2735 168.928 35.9837 170.669 39.6335C167.494 41.8881 164.208 44.1427 160.811 46.3972C158.853 42.7329 156.841 38.9817 154.776 35.1436H154.77ZM167.126 27.2357C170.043 25.3432 172.725 23.5907 175.172 21.9782C176.824 25.4011 178.336 28.7999 179.708 32.1745C177.554 34.1057 175.15 36.1309 172.494 38.2503C170.807 34.6343 169.017 30.9628 167.126 27.2357ZM176.444 21.1092C178.038 24.4549 179.486 27.7812 180.787 31.0883C182.097 29.5482 183.065 28.165 183.691 26.9388C182.758 24.0662 181.657 21.2058 180.387 18.3574C179.401 19.0767 178.087 19.994 176.444 21.1092ZM180.687 18.1039C180.8 17.9953 180.8 17.9953 180.82 17.9446C182.139 20.5661 183.105 23.2962 183.744 26.0843V26.0987C183.764 26.2146 183.764 26.2291 183.771 26.3522C182.918 23.5955 181.89 20.8485 180.687 18.1111V18.1039Z" fill="#C6E6EF"/>
<path fill-rule="evenodd" clip-rule="evenodd" d="M130.511 17.5394C131.47 20.3009 132.609 23.2869 133.928 26.4974C137.027 24.2476 140.245 22.0051 143.579 19.7699C141.932 16.627 140.42 13.7423 139.043 11.116C136.068 13.2016 133.226 15.3452 130.518 17.5467L130.511 17.5394ZM121.545 40.3435C121.545 40.3435 121.545 40.3435 121.545 40.3363C121.545 40.3363 121.545 40.3291 121.545 40.3218C121.545 40.3218 121.545 40.3363 121.545 40.3435ZM123.331 25.498C124.96 23.34 126.847 21.1482 128.992 18.9226C129.858 21.6937 130.911 24.6797 132.149 27.8806C129.583 30.0386 127.267 32.1146 125.202 34.1084C124.372 31.0476 123.748 28.1775 123.331 25.498ZM160.245 1.24557C161.61 1.39041 161.723 1.40489 162.776 1.68732C161.211 1.12971 159.599 0.709687 157.967 0.412777C158.946 0.673478 159.046 0.716928 160.251 1.24557H160.245ZM121.119 32.4863V36.0999C121.226 37.5338 121.266 37.7727 121.559 39.6773C122.096 38.3545 122.969 36.8796 124.176 35.2526C123.43 32.2546 122.9 29.4182 122.585 26.7436C121.699 28.7278 121.665 28.7858 121.279 30.5093C121.212 31.1683 121.152 31.8273 121.119 32.4863ZM137.538 4.20743C137.538 4.20743 137.571 4.20019 137.591 4.2364C139.803 3.08255 142.019 2.0832 144.239 1.23833C141.954 1.93354 139.703 2.91841 137.538 4.20743ZM137.784 4.48986C140.378 3.13807 142.969 1.97216 145.558 0.992114C146.597 1.51834 147.8 2.4139 149.168 3.67879C146.148 5.05471 143.111 6.59719 140.056 8.30624C139.114 6.66961 138.357 5.39749 137.784 4.48986ZM121.699 27.6054C122.025 25.8456 122.478 24.1221 123.051 22.4348C122.778 23.4849 122.764 23.5935 122.605 24.9911C122.038 26.3815 121.985 26.5046 121.699 27.6054ZM151.306 0H154.31C154.809 0.0217251 155.309 0.0651753 155.809 0.115867C157.207 0.448986 157.267 0.477952 158.866 1.26006C156.384 1.60766 153.75 2.187 150.966 2.99807C149.532 1.82008 148.253 1.01143 147.13 0.572095C148.482 0.29691 148.588 0.282426 149.681 0.13035C150.22 0.0724166 150.766 0.0289668 151.313 0H151.306ZM126.847 14.5776C125.682 16.3807 124.689 18.2926 123.863 20.284C123.45 21.7396 123.45 21.812 123.271 23.7311C124.776 21.573 126.541 19.3788 128.566 17.1484C128.322 15.2172 128.299 13.6168 128.499 12.3471C127.613 13.4841 127.553 13.5565 126.847 14.5848V14.5776ZM130.451 9.94286C132.24 8.2483 134.134 6.6503 136.133 5.14885C136.141 5.11506 136.141 5.09575 136.133 5.09092C134.028 6.49581 132.136 8.13244 130.444 9.94286H130.451ZM140.955 9.90665C144.094 8.13002 147.225 6.50305 150.347 5.02574C152.096 7.28998 153.935 9.83182 155.862 12.6513C152.514 14.4617 149.126 16.388 145.698 18.4301C143.988 15.3307 142.407 12.4895 140.955 9.90665ZM129.612 11.0653C131.685 9.08593 133.897 7.21757 136.246 5.46025C136.712 6.43546 137.365 7.77276 138.204 9.47215C135.344 11.4998 132.618 13.5975 130.025 15.7652C129.669 13.8727 129.534 12.3061 129.618 11.0653H129.612Z" fill="#00424B"/>
<path fill-rule="evenodd" clip-rule="evenodd" d="M264.054 53.0602L284.463 3.57762L284.743 2.90414H298.51L297.851 4.50456L277.442 53.9871L277.163 54.6606H263.401L264.061 53.0602H264.054ZM237.331 54.6606H226.873V52.0102C225.728 52.9081 224.416 53.6685 222.97 54.2551C220.732 55.1603 218.194 55.66 215.51 55.66C208.59 55.66 202.335 52.7633 197.846 47.8896C193.45 43.1246 190.752 36.4767 190.752 28.7932C190.752 21.1098 193.45 14.4619 197.846 9.69686C202.335 4.8232 208.59 1.92651 215.51 1.92651C220.099 1.92651 224.422 3.23726 228.132 5.59082C231.896 7.9661 235.033 11.4276 237.204 15.664L237.85 16.9386L236.545 17.3079L225.381 20.487L224.735 20.6681L224.309 20.1032C223.357 18.8504 222.004 17.8148 220.486 17.0906C218.92 16.3375 217.189 15.9175 215.517 15.9175C212.087 15.9175 209.316 17.2065 207.391 19.4008C205.392 21.6746 204.287 24.9479 204.287 28.7788C204.287 32.6096 205.492 35.9698 207.531 38.2075C209.635 40.5031 212.646 41.7776 216.17 41.7776C219.167 41.7776 221.398 41.0607 223.057 39.9672C224.609 38.9534 225.661 37.5992 226.381 36.2088H214.924V24.3903H238.39V54.6606H237.338H237.331ZM236.931 15.1354V16.2723H250.646V54.6534H263.721V16.2723H277.635V2.90414H236.931V15.1354ZM298.79 3.57762L298.51 2.90414H284.743L285.402 4.50456L305.811 53.9871L306.09 54.6606H319.858L319.192 53.0602L298.784 3.57762H298.79ZM331.675 43.9719V54.6606H318.599V2.90414H338.016C344.703 2.90414 350.092 4.8232 353.835 8.34267C357.612 11.8983 359.683 17.04 359.683 23.4344C359.683 29.8288 357.618 34.9777 353.835 38.5333C350.098 42.0601 344.703 43.9719 338.016 43.9719H331.681H331.675Z" fill="white"/>
<path fill-rule="evenodd" clip-rule="evenodd" d="M291.628 19.582L277.154 54.6609H306.095L291.628 19.582Z" fill="#DACF6D"/>
<path fill-rule="evenodd" clip-rule="evenodd" d="M331.575 17.214V29.9232H338.669C341.193 29.9232 343.178 29.3077 344.517 28.178C345.763 27.1134 346.449 25.5492 346.449 23.565C346.449 21.5808 345.763 20.0238 344.517 18.952C343.178 17.8223 341.193 17.2068 338.669 17.2068H331.575V17.214Z" fill="#DACF6D"/>
<path fill-rule="evenodd" clip-rule="evenodd" d="M291.432 19.0749L285.384 4.42489L284.744 2.86792H286.316H297.453H298.112L297.473 4.42489L291.432 19.0749Z" fill="#A67F26"/>
<path d="M22.4027 55.9285L-0.688137 2.40671H12.6923L32.8776 49.8117H25.0023L45.4935 2.40671H57.8035L34.6362 55.9285H22.4027ZM59.9784 55.9285V2.40671H72.3649V55.9285H59.9784ZM77.4208 55.9285V2.40671H89.8072V55.9285H77.4208ZM94.8631 55.9285V2.40671H107.25V55.9285H94.8631Z" fill="white"/>
<path d="M66.6673 73.0258C65.9146 75.1694 64.0429 76.5091 61.8382 76.5091C58.8075 76.5091 56.5762 74.1918 56.5762 70.7375C56.5762 67.2832 58.8075 65.031 61.8382 65.031C64.1761 65.031 65.888 66.4359 66.5674 68.2174L64.1628 68.927C63.6433 68.0436 62.8173 67.5221 61.725 67.5221C60.0731 67.5221 59.0273 68.8474 59.0273 70.7737C59.0273 72.7 60.1464 74.0035 61.7116 74.0035C63.0438 74.0035 63.8697 73.2431 64.2761 72.3306L66.6673 73.0258Z" fill="white"/>
<path d="M72.7881 65.031C75.892 65.031 78.1367 67.399 78.1367 70.7737C78.1367 74.1483 75.8854 76.5164 72.7881 76.5164C69.6908 76.5164 67.4395 74.1483 67.4395 70.7737C67.4395 67.399 69.6908 65.031 72.7881 65.031ZM72.7881 74.0035C74.4733 74.0035 75.6855 72.7434 75.6855 70.7737C75.6855 68.8039 74.4666 67.5221 72.7881 67.5221C71.1096 67.5221 69.8906 68.7822 69.8906 70.7737C69.8906 72.7651 71.1096 74.0035 72.7881 74.0035Z" fill="white"/>
<path d="M81.8074 69.7016H81.7608C81.7608 69.7016 81.7875 71.0703 81.7875 72.5114V76.2988H79.3496V65.2625H81.8141L86.137 71.7293H86.1836C86.1836 71.7293 86.1703 70.2954 86.1703 69.0933V65.2625H88.6081V76.2988H86.1303L81.8074 69.7089V69.7016Z" fill="white"/>
<path d="M97.9171 76.2919C97.9171 75.6618 97.9304 75.5967 97.9304 75.517H97.9038C97.3243 76.0529 96.2186 76.5091 95.0463 76.5091C92.2154 76.5091 89.8242 74.1918 89.8242 70.752C89.8242 67.3121 92.0556 65.031 95.0863 65.031C97.3909 65.031 99.1627 66.4214 99.8154 68.2174L97.4109 68.927C97.0179 68.2174 96.2652 67.5221 94.973 67.5221C93.3345 67.5221 92.2754 68.8474 92.2754 70.7737C92.2754 72.7 93.4477 74.0035 95.2461 74.0035C96.6382 74.0035 97.5108 73.3445 97.8305 72.8665V72.3451H95.2794V69.8829H100.095V76.2846H97.9171V76.2919Z" fill="white"/>
<path d="M105.073 72.6492H103.988V76.2917H101.55V65.2554H105.406C107.957 65.2554 109.456 66.7037 109.456 68.9921C109.456 70.5056 108.777 71.6281 107.545 72.1277L109.862 76.2917H106.978L105.08 72.6492H105.073ZM105.566 70.5346C106.465 70.5346 106.958 70.0494 106.958 69.1152C106.958 68.181 106.492 67.6524 105.553 67.6524H103.988V70.5346H105.566Z" fill="white"/>
<path d="M110.903 65.2483H118.297V67.7105H113.335V69.6006H116.991V71.8093H113.335V73.8297H118.37V76.2919H110.903V65.2555V65.2483Z" fill="white"/>
<path d="M121.691 72.852C121.891 73.6848 122.604 74.1773 123.709 74.1773C124.635 74.1773 125.201 73.8297 125.201 73.12C125.201 72.0627 123.982 72.1279 122.737 71.7948C121.358 71.4327 119.646 70.7375 119.646 68.4056C119.646 66.0738 121.211 65.031 123.489 65.031C125.561 65.031 127.04 65.9435 127.606 67.9132L125.288 68.5939C125.041 67.7901 124.462 67.3483 123.443 67.3483C122.517 67.3483 122.124 67.7394 122.124 68.326C122.124 69.2529 123.096 69.3978 124.515 69.7164C126.007 70.035 127.666 70.723 127.666 73.1055C127.666 75.488 126.2 76.5091 123.723 76.5091C121.951 76.5091 119.953 75.9225 119.373 73.5255L121.691 72.8448V72.852Z" fill="white"/>
<path d="M130.782 72.852C130.982 73.6848 131.694 74.1773 132.8 74.1773C133.726 74.1773 134.292 73.8297 134.292 73.12C134.292 72.0627 133.073 72.1279 131.828 71.7948C130.449 71.4327 128.737 70.7375 128.737 68.4056C128.737 66.0738 130.302 65.031 132.58 65.031C134.652 65.031 136.13 65.9435 136.697 67.9132L134.379 68.5939C134.132 67.7901 133.553 67.3483 132.534 67.3483C131.608 67.3483 131.215 67.7394 131.215 68.326C131.215 69.2529 132.187 69.3978 133.606 69.7164C135.098 70.035 136.757 70.723 136.757 73.1055C136.757 75.488 135.291 76.5091 132.813 76.5091C131.042 76.5091 129.043 75.9225 128.464 73.5255L130.782 72.8448V72.852Z" fill="white"/>
<path d="M142.927 65.031C146.031 65.031 148.275 67.399 148.275 70.7737C148.275 74.1483 146.024 76.5164 142.927 76.5164C139.829 76.5164 137.578 74.1483 137.578 70.7737C137.578 67.399 139.829 65.031 142.927 65.031ZM142.927 74.0035C144.612 74.0035 145.824 72.7434 145.824 70.7737C145.824 68.8039 144.605 67.5221 142.927 67.5221C141.248 67.5221 140.029 68.7822 140.029 70.7737C140.029 72.7651 141.248 74.0035 142.927 74.0035Z" fill="white"/>
<path d="M159.284 70.4115C160.27 70.7301 161.129 71.6063 161.129 73.0764C161.129 74.7782 160.01 76.2917 157.486 76.2917H153.123V65.2554H157.506C159.331 65.2554 160.596 66.5951 160.596 68.1231C160.596 69.3542 159.844 70.129 159.291 70.3463V70.4115H159.284ZM157.033 69.6221C157.699 69.6221 158.132 69.1804 158.132 68.5359C158.132 67.8914 157.712 67.4496 157.013 67.4496H155.548V69.6221H157.026H157.033ZM157.266 74.0975C158.105 74.0975 158.558 73.5761 158.558 72.8374C158.558 72.0481 158.065 71.5774 157.266 71.5774H155.554V74.0975H157.266Z" fill="white"/>
<path d="M165.811 72.6492H164.725V76.2917H162.287V65.2554H166.144C168.695 65.2554 170.193 66.7037 170.193 68.9921C170.193 70.5056 169.514 71.6281 168.282 72.1277L170.6 76.2917H167.716L165.817 72.6492H165.811ZM166.304 70.5346C167.203 70.5346 167.696 70.0494 167.696 69.1152C167.696 68.181 167.229 67.6524 166.29 67.6524H164.725V70.5346H166.304Z" fill="white"/>
<path d="M174.38 74.4596L173.773 76.2917H171.209L175.126 65.2554H177.896L181.826 76.2917H179.215L178.609 74.4596H174.386H174.38ZM177.077 69.8539C176.757 68.9414 176.524 68.2462 176.511 68.2317H176.464C176.464 68.2317 176.218 68.9269 175.898 69.8394L175.172 72.0481H177.797L177.07 69.8539H177.077Z" fill="white"/>
<path d="M184.724 72.852C184.924 73.6848 185.637 74.1773 186.742 74.1773C187.668 74.1773 188.234 73.8297 188.234 73.12C188.234 72.0627 187.016 72.1279 185.77 71.7948C184.391 71.4327 182.679 70.7375 182.679 68.4056C182.679 66.0738 184.245 65.031 186.523 65.031C188.594 65.031 190.073 65.9435 190.639 67.9132L188.321 68.5939C188.075 67.7901 187.495 67.3483 186.476 67.3483C185.55 67.3483 185.157 67.7394 185.157 68.326C185.157 69.2529 186.13 69.3978 187.548 69.7164C189.04 70.035 190.699 70.723 190.699 73.1055C190.699 75.488 189.234 76.5091 186.756 76.5091C184.984 76.5091 182.986 75.9225 182.406 73.5255L184.724 72.8448V72.852Z" fill="white"/>
<path d="M191.917 65.2483H194.355V76.2847H191.917V65.2483Z" fill="white"/>
<path d="M195.973 65.2483H198.411V73.8297H202.966V76.2919H195.973V65.2555V65.2483Z" fill="white"/>
<path d="M204.227 65.2483H211.62V67.7105H206.658V69.6006H210.315V71.8093H206.658V73.8297H211.693V76.2919H204.227V65.2555V65.2483Z" fill="white"/>
<path d="M213.116 65.2483H215.554V76.2847H213.116V65.2483Z" fill="white"/>
<path d="M220.704 72.6492H219.619V76.2917H217.181V65.2554H221.037C223.588 65.2554 225.08 66.7037 225.08 68.9921C225.08 70.5056 224.401 71.6281 223.169 72.1277L225.487 76.2917H222.603L220.704 72.6492ZM221.197 70.5346C222.096 70.5346 222.589 70.0494 222.589 69.1152C222.589 68.181 222.123 67.6524 221.184 67.6524H219.619V70.5346H221.197Z" fill="white"/>
<path d="M231.347 65.031C234.451 65.031 236.696 67.399 236.696 70.7737C236.696 74.1483 234.445 76.5164 231.347 76.5164C228.25 76.5164 225.992 74.1483 225.992 70.7737C225.992 67.399 228.244 65.031 231.347 65.031ZM231.347 74.0035C233.033 74.0035 234.245 72.7434 234.245 70.7737C234.245 68.8039 233.026 67.5221 231.347 67.5221C229.669 67.5221 228.443 68.7822 228.443 70.7737C228.443 72.7651 229.662 74.0035 231.347 74.0035Z" fill="white"/>
<path d="M245.86 65.2483C248.891 65.2483 251.215 67.486 251.215 70.8172C251.215 74.1483 248.877 76.2919 245.88 76.2919H241.544V65.2555H245.867L245.86 65.2483ZM245.734 73.8297C247.239 73.8297 248.764 72.9969 248.764 70.8172C248.764 68.6374 247.239 67.7105 245.734 67.7105H243.982V73.8297H245.734Z" fill="white"/>
<path d="M252.437 65.2483H259.83V67.7105H254.868V69.6006H258.524V71.8093H254.868V73.8297H259.903V76.2919H252.437V65.2555V65.2483Z" fill="white"/>
<path d="M272.638 76.2919C272.638 75.6618 272.651 75.5967 272.651 75.517H272.624C272.045 76.0529 270.939 76.5091 269.767 76.5091C266.936 76.5091 264.545 74.1918 264.545 70.752C264.545 67.3121 266.776 65.031 269.807 65.031C272.112 65.031 273.883 66.4214 274.536 68.2174L272.132 68.927C271.739 68.2174 270.986 67.5221 269.694 67.5221C268.055 67.5221 266.996 68.8474 266.996 70.7737C266.996 72.7 268.168 74.0035 269.967 74.0035C271.359 74.0035 272.231 73.3445 272.551 72.8665V72.3451H270V69.8829H274.816V76.2846H272.638V76.2919Z" fill="white"/>
<path d="M276.26 65.2483H283.653V67.7105H278.691V69.6006H282.348V71.8093H278.691V73.8297H283.727V76.2919H276.26V65.2555V65.2483Z" fill="white"/>
<path d="M287.051 72.852C287.251 73.6848 287.964 74.1773 289.07 74.1773C289.995 74.1773 290.562 73.8297 290.562 73.12C290.562 72.0627 289.343 72.1279 288.097 71.7948C286.718 71.4327 285.006 70.7375 285.006 68.4056C285.006 66.0738 286.572 65.031 288.85 65.031C290.921 65.031 292.4 65.9435 292.966 67.9132L290.648 68.5939C290.402 67.7901 289.822 67.3483 288.803 67.3483C287.877 67.3483 287.484 67.7394 287.484 68.326C287.484 69.2529 288.457 69.3978 289.876 69.7164C291.368 70.035 293.026 70.723 293.026 73.1055C293.026 75.488 291.561 76.5091 289.083 76.5091C287.311 76.5091 285.313 75.9225 284.733 73.5255L287.051 72.8448V72.852Z" fill="white"/>
<path d="M299.369 67.7105V76.2919H296.931V67.7105H293.827V65.2483H302.473V67.7105H299.369Z" fill="white"/>
<path d="M304.691 74.4595L304.078 76.2917H301.514L305.43 65.2553H308.201L312.131 76.2917H309.52L308.907 74.4595H304.684H304.691ZM304.358 64.2125L304.011 62.3079C304.145 62.1341 304.664 61.801 305.417 61.801C306.363 61.801 306.942 62.2717 307.915 62.2717C308.468 62.2717 308.927 62.0328 309.174 61.83L309.52 63.7346C309.387 63.9084 308.854 64.2415 308.128 64.2415C307.182 64.2415 306.589 63.7708 305.65 63.7708C305.097 63.7708 304.591 63.988 304.358 64.2125ZM307.389 69.8538C307.069 68.9413 306.836 68.2461 306.822 68.2317H306.776C306.776 68.2317 306.529 68.9269 306.21 69.8393L305.484 72.048H308.108L307.382 69.8538H307.389Z" fill="white"/>
<path d="M317.638 65.031C320.741 65.031 322.986 67.399 322.986 70.7737C322.986 74.1483 320.735 76.5164 317.638 76.5164C314.54 76.5164 312.282 74.1483 312.282 70.7737C312.282 67.399 314.534 65.031 317.638 65.031ZM317.638 74.0035C319.323 74.0035 320.535 72.7434 320.535 70.7737C320.535 68.8039 319.316 67.5221 317.638 67.5221C315.959 67.5221 314.733 68.7822 314.733 70.7737C314.733 72.7651 315.952 74.0035 317.638 74.0035Z" fill="white"/>
<path d="M33.99 86.6326V95.214H31.5522V86.6326H28.4482V84.1704H37.094V86.6326H33.99Z" fill="white"/>
<path d="M41.8741 91.5718H40.7884V95.2143H38.3506V84.178H42.2072C44.7583 84.178 46.257 85.6263 46.257 87.9147C46.257 89.4282 45.5776 90.5507 44.3453 91.0504L46.6633 95.2143H43.7791L41.8808 91.5718H41.8741ZM42.367 89.4572C43.2663 89.4572 43.7592 88.972 43.7592 88.0378C43.7592 87.1036 43.2929 86.575 42.3537 86.575H40.7884V89.4572H42.367Z" fill="white"/>
<path d="M47.7012 84.1704H50.139V95.2068H47.7012V84.1704Z" fill="white"/>
<path d="M57.9269 89.3265C58.9127 89.6451 59.7719 90.5214 59.7719 91.9915C59.7719 93.6933 58.6529 95.2068 56.1284 95.2068H51.7656V84.1704H56.1484C57.9735 84.1704 59.239 85.5101 59.239 87.0381C59.239 88.2692 58.4864 89.0441 57.9335 89.2613V89.3265H57.9269ZM55.6822 88.5372C56.3483 88.5372 56.7812 88.0954 56.7812 87.4509C56.7812 86.8064 56.3616 86.3646 55.6622 86.3646H54.1968V88.5372H55.6755H55.6822ZM55.9153 93.0198C56.7546 93.0198 57.2075 92.4984 57.2075 91.7597C57.2075 90.9704 56.7146 90.4997 55.9153 90.4997H54.2035V93.0198H55.9153Z" fill="white"/>
<path d="M69.6903 90.2897C69.6903 93.6136 67.9185 95.4313 65.2675 95.4313C62.6165 95.4313 60.8447 93.6208 60.8447 90.2897V84.1704H63.3092V90.21C63.3092 92.1001 63.9753 92.9256 65.2941 92.9256C66.613 92.9256 67.2791 92.1073 67.2791 90.21V84.1704H69.6836V90.2897H69.6903Z" fill="white"/>
<path d="M76.4041 86.6326V95.214H73.9662V86.6326H70.8623V84.1704H79.508V86.6326H76.4041Z" fill="white"/>
<path d="M81.7262 93.3822L81.1201 95.2143H78.5557L82.4722 84.178H85.2431L89.173 95.2143H86.5619L85.9558 93.3822H81.7329H81.7262ZM84.4238 88.7765C84.1041 87.864 83.871 87.1688 83.8577 87.1543H83.811C83.811 87.1543 83.5646 87.8495 83.2449 88.762L82.5188 90.9707H85.1432L84.4172 88.7765H84.4238ZM82.712 83.3234L84.3372 80.4702L86.2356 81.1147L84.8701 83.3234H82.712Z" fill="white"/>
<path d="M93.6974 91.5718H92.6117V95.2143H90.1738V84.178H94.0304C96.5815 84.178 98.0802 85.6263 98.0802 87.9147C98.0802 89.4282 97.4008 90.5507 96.1686 91.0504L98.4865 95.2143H95.6024L93.7041 91.5718H93.6974ZM94.1903 89.4572C95.0895 89.4572 95.5824 88.972 95.5824 88.0378C95.5824 87.1036 95.1161 86.575 94.177 86.575H92.6117V89.4572H94.1903Z" fill="white"/>
<path d="M99.5234 84.1704H101.961V95.2068H99.5234V84.1704Z" fill="white"/>
<path d="M106.139 93.3822L105.533 95.2143H102.969L106.885 84.178H109.656L113.586 95.2143H110.975L110.369 93.3822H106.146H106.139ZM108.837 88.7765C108.517 87.864 108.284 87.1688 108.271 87.1543H108.224C108.224 87.1543 107.978 87.8495 107.658 88.762L106.932 90.9707H109.556L108.83 88.7765H108.837Z" fill="white"/>
<path d="M120.65 88.6171H120.604C120.604 88.6171 120.63 89.9858 120.63 91.4269V95.2143H118.192V84.178H120.657L124.98 90.6448H125.026C125.026 90.6448 125.013 89.211 125.013 88.0088V84.178H127.451V95.2143H124.973L120.65 88.6244V88.6171Z" fill="white"/>
<path d="M131.634 93.3822L131.028 95.2143H128.464L132.38 84.178H135.151L139.081 95.2143H136.47L135.864 93.3822H131.641H131.634ZM134.332 88.7765C134.012 87.864 133.779 87.1688 133.766 87.1543H133.719C133.719 87.1543 133.473 87.8495 133.153 88.762L132.427 90.9707H135.051L134.325 88.7765H134.332Z" fill="white"/>
<path d="M146.249 93.3822L145.643 95.2143H143.078L146.995 84.178H149.766L153.695 95.2143H151.084L150.478 93.3822H146.255H146.249ZM148.946 88.7765C148.627 87.864 148.393 87.1688 148.38 87.1543H148.333C148.333 87.1543 148.087 87.8495 147.767 88.762L147.041 90.9707H149.666L148.94 88.7765H148.946Z" fill="white"/>
<path d="M159.01 84.1704C162.041 84.1704 164.359 86.4081 164.359 89.7393C164.359 93.0705 162.021 95.214 159.024 95.214H154.688V84.1776H159.01V84.1704ZM158.884 92.7518C160.389 92.7518 161.914 91.919 161.914 89.7393C161.914 87.5595 160.389 86.6326 158.884 86.6326H157.132V92.7518H158.884Z" fill="white"/>
<path d="M173.374 92.5132C173.374 89.8989 173.401 88.6027 173.401 88.5882H173.374C173.374 88.5882 172.868 89.5948 172.375 90.5434L171.389 92.4842H170.024L169.038 90.5796C168.532 89.602 168.052 88.6099 168.039 88.5954H167.992C167.992 88.5954 168.019 89.9062 168.019 92.5204V95.2143H165.581V84.178H168.165L170.717 89.1168H170.763L173.328 84.178H175.805V95.2143H173.368V92.5204L173.374 92.5132Z" fill="white"/>
<path d="M177.436 84.1704H179.873V95.2068H177.436V84.1704Z" fill="white"/>
<path d="M183.943 88.6171H183.897C183.897 88.6171 183.923 89.9858 183.923 91.4269V95.2143H181.485V84.178H183.95L188.273 90.6448H188.313C188.313 90.6448 188.299 89.211 188.299 88.0088V84.178H190.737V95.2143H188.259L183.937 88.6244L183.943 88.6171Z" fill="white"/>
<path d="M192.368 84.1704H194.806V95.2068H192.368V84.1704Z" fill="white"/>
<path d="M198.331 91.7747C198.53 92.6075 199.243 93.0999 200.349 93.0999C201.275 93.0999 201.841 92.7523 201.841 92.0426C201.841 90.9853 200.622 91.0505 199.376 90.7174C197.998 90.3553 196.286 89.6601 196.286 87.3283C196.286 84.9964 197.851 83.9536 200.129 83.9536C202.201 83.9536 203.679 84.8661 204.245 86.8358L201.927 87.5165C201.681 86.7127 201.102 86.271 200.082 86.271C199.157 86.271 198.764 86.662 198.764 87.2486C198.764 88.1755 199.736 88.3204 201.155 88.639C202.647 88.9576 204.305 89.6456 204.305 92.0281C204.305 94.4106 202.84 95.4317 200.362 95.4317C198.59 95.4317 196.592 94.8451 196.013 92.4481L198.331 91.7674V91.7747Z" fill="white"/>
<path d="M210.645 86.6326V95.214H208.207V86.6326H205.104V84.1704H213.749V86.6326H210.645Z" fill="white"/>
<path d="M218.533 91.5718H217.448V95.2143H215.01V84.178H218.866C221.417 84.178 222.909 85.6263 222.909 87.9147C222.909 89.4282 222.23 90.5507 220.998 91.0504L223.316 95.2143H220.432L218.533 91.5718ZM219.026 89.4572C219.925 89.4572 220.418 88.972 220.418 88.0378C220.418 87.1036 219.952 86.575 219.013 86.575H217.448V89.4572H219.026Z" fill="white"/>
<path d="M227.105 93.3822L226.492 95.2143H223.928L227.844 84.178H230.615L234.545 95.2143H231.934L231.321 93.3822H227.098H227.105ZM229.803 88.7765C229.483 87.864 229.25 87.1688 229.236 87.1543H229.19C229.19 87.1543 228.943 87.8495 228.624 88.762L227.898 90.9707H230.522L229.796 88.7765H229.803Z" fill="white"/>
<path d="M244.796 91.9485C244.23 93.5561 243.025 94.7075 241.546 95.1783C241.852 95.4462 242.039 95.8228 242.039 96.3587C242.039 97.387 241.359 98.017 239.807 98.017C239.301 98.017 238.735 97.9374 238.475 97.8287V96.2211C238.635 96.2862 238.968 96.3442 239.434 96.3442C240.127 96.3442 240.394 96.2211 240.394 95.9821C240.394 95.6635 239.901 95.5114 238.569 95.5259V95.2434C236.277 94.6424 234.712 92.5495 234.712 89.6601C234.712 86.2999 236.943 83.9536 239.974 83.9536C242.312 83.9536 244.024 85.3585 244.703 87.14L242.299 87.8497C241.779 86.9662 240.946 86.4448 239.861 86.4448C238.209 86.4448 237.163 87.77 237.163 89.6963C237.163 91.6226 238.282 92.9261 239.847 92.9261C241.18 92.9261 242.012 92.1657 242.412 91.2533L244.803 91.9485H244.796Z" fill="white"/>
<path d="M248.282 93.3821L247.669 95.2143H245.104L249.021 84.1779H251.792L255.722 95.2143H253.111L252.498 93.3821H248.275H248.282ZM247.949 83.1351L247.602 81.2306C247.736 81.0567 248.255 80.7236 249.008 80.7236C249.954 80.7236 250.533 81.1943 251.506 81.1943C252.058 81.1943 252.518 80.9554 252.764 80.7526L253.111 82.6572C252.978 82.831 252.445 83.1641 251.719 83.1641C250.773 83.1641 250.18 82.6934 249.241 82.6934C248.688 82.6934 248.182 82.9106 247.949 83.1351ZM250.979 88.7764C250.66 87.864 250.426 87.1687 250.413 87.1543H250.367C250.367 87.1543 250.12 87.8495 249.8 88.7619L249.074 90.9706H251.699L250.973 88.7764H250.979Z" fill="white"/>
<path d="M261.226 83.9536C264.33 83.9536 266.575 86.3217 266.575 89.6963C266.575 93.0709 264.324 95.439 261.226 95.439C258.129 95.439 255.871 93.0709 255.871 89.6963C255.871 86.3217 258.122 83.9536 261.226 83.9536ZM261.226 92.9261C262.912 92.9261 264.124 91.666 264.124 89.6963C264.124 87.7265 262.905 86.4448 261.226 86.4448C259.548 86.4448 258.322 87.7048 258.322 89.6963C258.322 91.6878 259.541 92.9261 261.226 92.9261Z" fill="white"/>
<path d="M275.211 84.1704C277.709 84.1704 279.214 85.6043 279.214 87.9723C279.214 90.3403 277.709 91.7742 275.211 91.7742H273.859V95.214H271.421V84.1776H275.204L275.211 84.1704ZM275.284 89.4713C276.317 89.4713 276.776 88.8848 276.776 88.023C276.776 87.1612 276.31 86.5891 275.284 86.5891H273.865V89.4713H275.284Z" fill="white"/>
<path d="M289.091 90.29C289.091 93.6139 287.319 95.4316 284.668 95.4316C282.017 95.4316 280.245 93.6212 280.245 90.29V84.1707H282.71V90.2103C282.71 92.1004 283.376 92.9259 284.695 92.9259C286.013 92.9259 286.679 92.1076 286.679 90.2103V84.1707H289.084V90.29H289.091ZM283.622 83.3234L285.247 80.4702L287.132 81.1147L285.78 83.3234H283.622Z" fill="white"/>
<path d="M296.79 89.3265C297.776 89.6451 298.629 90.5214 298.629 91.9915C298.629 93.6933 297.51 95.2068 294.992 95.2068H290.629V84.1704H295.012C296.837 84.1704 298.102 85.5101 298.102 87.0381C298.102 88.2692 297.35 89.0441 296.797 89.2613V89.3265H296.79ZM294.545 88.5372C295.212 88.5372 295.644 88.0954 295.644 87.4509C295.644 86.8064 295.225 86.3646 294.525 86.3646H293.06V88.5372H294.539H294.545ZM294.779 93.0198C295.618 93.0198 296.071 92.4984 296.071 91.7597C296.071 90.9704 295.578 90.4997 294.779 90.4997H293.067V93.0198H294.779Z" fill="white"/>
<path d="M299.795 84.1704H302.233V92.7518H306.789V95.214H299.795V84.1776V84.1704Z" fill="white"/>
<path d="M308.048 84.1704H310.486V95.2068H308.048V84.1704Z" fill="white"/>
<path d="M321.794 91.9485C321.042 94.092 319.17 95.4317 316.965 95.4317C313.934 95.4317 311.703 93.1144 311.703 89.6601C311.703 86.2058 313.934 83.9536 316.965 83.9536C319.303 83.9536 321.015 85.3585 321.694 87.14L319.29 87.8497C318.77 86.9662 317.938 86.4448 316.852 86.4448C315.2 86.4448 314.154 87.77 314.154 89.6963C314.154 91.6226 315.273 92.9261 316.839 92.9261C318.171 92.9261 319.003 92.1657 319.403 91.2533L321.794 91.9485Z" fill="white"/>
<path d="M325.272 93.3822L324.659 95.2143H322.095L326.011 84.178H328.782L332.712 95.2143H330.101L329.488 93.3822H325.265H325.272ZM327.97 88.7765C327.65 87.864 327.417 87.1688 327.403 87.1543H327.357C327.357 87.1543 327.11 87.8495 326.791 88.762L326.065 90.9707H328.689L327.963 88.7765H327.97Z" fill="white"/>
<path d="M31.5453 76.5725L26.8604 65.7133H29.5752L33.6706 75.3315H32.0728L36.2303 65.7133H38.7279L34.0274 76.5725H31.5453ZM39.6346 76.5725V65.7133H42.1477V76.5725H39.6346ZM44.7248 76.5725V65.7133H47.238V76.5725H44.7248ZM49.8151 76.5725V65.7133H52.3282V76.5725H49.8151Z" fill="white"/>
</g>
<defs>
<clipPath id="clip0_544_2697">
<rect width="359.683" height="98.017" fill="white"/>
</clipPath>
</defs>
</svg>
