<svg width="353" height="332" viewBox="0 0 353 332" fill="none" xmlns="http://www.w3.org/2000/svg">
<g filter="url(#filter0_d_4_2)">
<path d="M48.05 135.428H298.817L336.133 172.744V46.2273C336.133 31.7466 324.386 20 309.905 20H42.2273C27.7466 20 16 31.7466 16 46.2273V167.465L48.05 135.415V135.428Z" fill="url(#paint0_linear_4_2)"/>
</g>
<g filter="url(#filter1_d_4_2)">
<path d="M57.7141 320L294.507 320C306.377 320 316 310.377 316 298.507L316 61.7141C316 49.8437 306.377 40.2208 294.507 40.2208L57.7141 40.2208C45.8437 40.2208 36.2208 49.8437 36.2208 61.7141L36.2208 298.507C36.2208 310.377 45.8437 320 57.7141 320Z" fill="white"/>
</g>
<defs>
<filter id="filter0_d_4_2" x="0" y="0" width="352.133" height="184.744" filterUnits="userSpaceOnUse" color-interpolation-filters="sRGB">
<feFlood flood-opacity="0" result="BackgroundImageFix"/>
<feColorMatrix in="SourceAlpha" type="matrix" values="0 0 0 0 0 0 0 0 0 0 0 0 0 0 0 0 0 0 127 0" result="hardAlpha"/>
<feOffset dy="-4"/>
<feGaussianBlur stdDeviation="8"/>
<feComposite in2="hardAlpha" operator="out"/>
<feColorMatrix type="matrix" values="0 0 0 0 0 0 0 0 0 0 0 0 0 0 0 0 0 0 0.16 0"/>
<feBlend mode="normal" in2="BackgroundImageFix" result="effect1_dropShadow_4_2"/>
<feBlend mode="normal" in="SourceGraphic" in2="effect1_dropShadow_4_2" result="shape"/>
</filter>
<filter id="filter1_d_4_2" x="20.2208" y="20.2207" width="311.779" height="311.779" filterUnits="userSpaceOnUse" color-interpolation-filters="sRGB">
<feFlood flood-opacity="0" result="BackgroundImageFix"/>
<feColorMatrix in="SourceAlpha" type="matrix" values="0 0 0 0 0 0 0 0 0 0 0 0 0 0 0 0 0 0 127 0" result="hardAlpha"/>
<feOffset dy="-4"/>
<feGaussianBlur stdDeviation="8"/>
<feComposite in2="hardAlpha" operator="out"/>
<feColorMatrix type="matrix" values="0 0 0 0 0 0 0 0 0 0 0 0 0 0 0 0 0 0 0.16 0"/>
<feBlend mode="normal" in2="BackgroundImageFix" result="effect1_dropShadow_4_2"/>
<feBlend mode="normal" in="SourceGraphic" in2="effect1_dropShadow_4_2" result="shape"/>
</filter>
<linearGradient id="paint0_linear_4_2" x1="336.133" y1="96.3719" x2="16" y2="96.3719" gradientUnits="userSpaceOnUse">
<stop stop-color="#DDA92E"/>
<stop offset="1" stop-color="#FFDF92"/>
</linearGradient>
</defs>
</svg>
