<svg width="31" height="37" viewBox="0 0 31 37" fill="none" xmlns="http://www.w3.org/2000/svg">
<path fill-rule="evenodd" clip-rule="evenodd" d="M6.32678 0.745178L7.8326 4.48233C3.40961 7.46657 0.5 12.5234 0.5 18.2595C0.5 27.4314 7.93746 34.8689 17.1093 34.8689C19.8366 34.8689 22.4109 34.2104 24.6809 33.0447L26.9812 36.2547L24.544 30.9768C22.3618 32.2559 19.8206 32.9899 17.1093 32.9899C8.97566 32.9899 2.37897 26.3932 2.37897 18.2605C2.37897 12.8947 5.25079 8.19869 9.53963 5.6235L6.32678 0.745178Z" fill="white"/>
<path d="M13.7311 5.28142C12.8097 5.60261 11.8906 5.98489 10.9736 6.42826C10.9686 6.42071 10.9616 6.41756 10.9528 6.41882C11.8512 5.92569 12.7817 5.54782 13.7311 5.28142ZM4.9456 13.4066C4.83224 13.8081 4.82846 13.8506 4.7595 14.3862C4.52427 14.919 4.50443 14.9653 4.38541 15.3876C4.52049 14.714 4.70848 14.0518 4.9456 13.4066ZM6.52038 10.394C6.81323 9.9982 6.83685 9.97175 7.20338 9.53626C7.12151 10.0243 7.13127 10.6381 7.23267 11.3774C6.39316 12.2308 5.66135 13.0716 5.03723 13.8997C5.10997 13.1638 5.11186 13.1383 5.28191 12.58C5.62294 11.8177 6.0367 11.0846 6.52038 10.394ZM7.66438 9.04786C8.52467 8.29086 9.44133 7.5751 10.4143 6.9006C10.6077 7.27407 10.8779 7.78671 11.2249 8.43854C10.039 9.21444 8.90821 10.0184 7.83254 10.8503C7.68454 10.1235 7.62817 9.52272 7.66344 9.04786H7.66438ZM11.0567 6.52651C12.1311 6.00757 13.2049 5.56136 14.2781 5.1879C14.7095 5.39006 15.2086 5.73361 15.7754 6.21854C14.5228 6.74568 13.2635 7.33578 11.9976 7.98887C11.6072 7.36224 11.2935 6.87478 11.0567 6.52651ZM14.929 5.02636C15.4901 4.9215 15.5345 4.913 15.9851 4.85632C16.8344 4.77224 17.6855 4.7713 18.5291 4.85159C19.1073 4.97818 19.1328 4.98952 19.7959 5.28709C18.7675 5.4225 17.6755 5.64544 16.5198 5.95592C15.9259 5.50437 15.396 5.1942 14.9299 5.02542L14.929 5.02636ZM21.418 5.45335C20.9834 5.34661 20.9352 5.34188 20.3675 5.2852C19.8677 5.08115 19.8262 5.06604 19.4219 4.9659C20.0992 5.07737 20.7661 5.2408 21.418 5.45335ZM4.31739 20.2612C4.31739 20.2612 4.31739 20.264 4.31739 20.265C4.31739 20.265 4.31739 20.2659 4.31739 20.2678C4.31739 20.2678 4.3155 20.2631 4.3155 20.2612H4.31739ZM4.2097 16.4976C4.37312 15.8401 4.38446 15.8174 4.75194 15.0541C4.88294 16.0788 5.10273 17.1655 5.41133 18.3142C4.91002 18.9383 4.54852 19.5036 4.32684 20.0099C4.19458 19.222 4.18797 19.1814 4.13223 18.4956C4.10672 17.8258 4.13223 17.1579 4.2097 16.4976ZM5.06274 14.578C5.7385 13.7505 6.52069 12.911 7.40932 12.0595C7.76956 13.1213 8.206 14.2653 8.71865 15.4915C7.65305 16.3178 6.69263 17.1135 5.83738 17.8787C5.49351 16.7061 5.2353 15.6058 5.06274 14.578ZM8.04037 11.5295C9.1639 10.6862 10.3422 9.86563 11.5754 9.0677C12.1459 10.0747 12.7738 11.18 13.459 12.3835C12.0748 13.24 10.7403 14.0994 9.4555 14.9615C8.90947 13.7328 8.43776 12.5888 8.04037 11.5295ZM12.3717 8.60291C13.6729 7.92149 14.9705 7.29831 16.2647 6.73339C16.9903 7.60187 17.7536 8.57615 18.5546 9.65623C17.166 10.3503 15.7606 11.088 14.3385 11.8696C13.6294 10.6812 12.9738 9.59231 12.3717 8.60291ZM17.0384 6.44621C18.2168 6.09227 19.3286 5.8243 20.3741 5.64229C21.1922 6.30042 22.0229 7.06624 22.8662 7.93975C21.7867 8.31195 20.6247 8.75784 19.3803 9.27741C18.5603 8.2263 17.7797 7.28288 17.0384 6.44716V6.44621ZM20.9522 5.61017C21.7958 5.66496 21.8223 5.66685 22.4703 5.84729C23.0863 6.10896 23.6852 6.41693 24.2577 6.77024C24.8113 7.14433 24.8462 7.17362 25.4735 7.68185C24.9237 7.62517 24.2504 7.65918 23.4537 7.78388C22.6048 6.95004 21.7706 6.22547 20.9513 5.61017H20.9522ZM4.50443 21.1568C4.50443 21.1568 4.50443 21.153 4.50443 21.1511C4.50443 21.1492 4.50443 21.1483 4.50443 21.1464C4.49688 21.1039 4.49688 21.101 4.49499 21.05C4.84704 22.1068 5.27277 23.1604 5.77219 24.2109C5.74196 24.238 5.72307 24.2581 5.71551 24.2714C5.16949 23.2672 4.76895 22.2205 4.50538 21.1558L4.50443 21.1568ZM4.52616 20.8138C4.78878 20.3528 5.19153 19.8273 5.73441 19.2372C6.27224 20.503 6.87148 21.7774 7.53213 23.0603C6.8507 23.4873 6.30594 23.8381 5.89784 24.1127C5.36819 23.0143 4.91065 21.9147 4.52522 20.8138H4.52616ZM6.18313 18.8177C7.07743 18.0771 8.07595 17.2993 9.17871 16.4844C9.87525 17.8756 10.6162 19.2853 11.4015 20.7137C10.1917 21.438 9.07794 22.1093 8.06021 22.7278C7.37563 21.4153 6.74994 20.1119 6.18313 18.8177ZM9.9335 15.9639C11.2529 15.0966 12.6164 14.2335 14.024 13.3745C14.8364 14.7795 15.6705 16.2192 16.5264 17.6936C15.0546 18.5557 13.6184 19.4003 12.2177 20.2272C11.4166 18.785 10.6556 17.3642 9.93445 15.9648L9.9335 15.9639ZM14.9176 12.853C16.363 12.05 17.785 11.2874 19.1838 10.565C20.0485 11.88 20.9129 13.2425 21.7769 14.6526C20.3662 15.4638 18.9231 16.2976 17.4475 17.1541C16.5853 15.683 15.742 14.2493 14.9176 12.853ZM20.0161 10.1664C21.263 9.60585 22.4288 9.11808 23.5133 8.70305C24.3616 9.83352 25.1904 11.0219 25.9997 12.2683C24.9605 12.8489 23.8282 13.4872 22.6026 14.1831C21.7423 12.7938 20.8801 11.4546 20.0161 10.1654V10.1664ZM24.099 8.51789C24.8799 8.33525 25.539 8.24614 26.0762 8.25055C26.8451 9.12784 27.5748 10.064 28.265 11.0591C27.8241 11.2795 27.2501 11.5815 26.5428 11.965C25.7518 10.7584 24.9372 9.60963 24.099 8.51884V8.51789ZM26.2887 8.32896C26.3284 8.35446 26.3331 8.3573 26.3671 8.38658C26.3671 8.38753 26.37 8.38847 26.37 8.38942C27.1701 9.14233 27.8852 10.0067 28.4917 10.9759C28.47 10.975 28.4681 10.9759 28.4124 10.9948C27.7423 10.0439 27.0344 9.15492 26.2887 8.32801V8.32896ZM6.13495 24.9931C6.1507 24.9931 6.17998 24.9903 6.22281 24.9846C6.88786 25.928 7.59385 26.8129 8.34078 27.6391C8.29827 27.6117 8.29543 27.6099 8.26237 27.5825C8.26237 27.5825 8.26048 27.5806 8.25859 27.5796C8.25859 27.5787 8.2567 27.5777 8.25481 27.5758C7.45656 26.8239 6.74238 25.9604 6.1359 24.9931H6.13495ZM6.36451 24.91C6.8041 24.6883 7.37972 24.3891 8.09138 24.0125C8.87798 25.2123 9.6945 26.3597 10.5409 27.4549C9.75433 27.6325 9.09526 27.7229 8.56372 27.726C7.79349 26.8494 7.06042 25.9107 6.36451 24.91ZM8.63363 23.7064C9.67151 23.1251 10.8029 22.4853 12.0279 21.7869C12.8869 23.1724 13.751 24.51 14.6201 25.7999C13.3687 26.3597 12.2007 26.8472 11.1162 27.2622C10.2679 26.1324 9.44038 24.9471 8.63363 23.7064ZM12.8526 21.3164C14.2608 20.5021 15.7027 19.6667 17.1782 18.8102C18.0404 20.2795 18.884 21.7122 19.709 23.1085C18.2687 23.9121 16.8473 24.6757 15.4448 25.3993C14.5788 24.0843 13.7144 22.7237 12.8516 21.3173L12.8526 21.3164ZM18.0993 18.2717C19.5705 17.407 21.0055 16.559 22.4042 15.7277C23.2078 17.173 23.9702 18.5954 24.6913 19.9948C23.375 20.8582 22.0122 21.7223 20.6027 22.587C19.7909 21.1826 18.9564 19.7441 18.0993 18.2717ZM23.2223 15.245C24.4315 14.5201 25.5443 13.8484 26.5608 13.23C27.2454 14.5412 27.8717 15.8439 28.4398 17.1381C27.5467 17.8787 26.5498 18.6543 25.4489 19.4648C24.7505 18.0793 24.0086 16.6727 23.2232 15.245H23.2223ZM27.0879 12.8965C27.7681 12.4689 28.3129 12.1171 28.7222 11.8413C29.2494 12.9321 29.7066 14.0276 30.0939 15.1278C29.8332 15.5983 29.4317 16.1285 28.8894 16.7187C28.351 15.4515 27.7508 14.1775 27.0889 12.8965H27.0879ZM28.8488 11.744C28.8797 11.7175 28.8986 11.6974 28.9055 11.6835C29.4525 12.6877 29.853 13.7363 30.1166 14.8019C30.1166 14.8028 30.1166 14.8057 30.1166 14.8066C30.1175 14.8066 30.1175 14.8066 30.1175 14.8066C30.126 14.8501 30.126 14.8557 30.1288 14.903C29.7755 13.8462 29.3489 12.7926 28.8488 11.7421V11.744ZM9.16643 28.2938C9.71623 28.3499 10.3863 28.3127 11.1767 28.1823C12.0257 29.0162 12.8642 29.741 13.6924 30.357C12.8478 30.3041 12.8214 30.3022 12.1677 30.1218C11.5555 29.8639 10.9623 29.5578 10.3917 29.2083C9.81825 28.8228 9.78802 28.7973 9.16643 28.2929V28.2938ZM11.7643 28.0274C12.85 27.6577 14.0145 27.2115 15.2577 26.6888C16.0739 27.738 16.8561 28.6802 17.6043 29.5153C16.426 29.8717 15.3103 30.141 14.2573 30.323C13.4461 29.668 12.6148 28.9028 11.7633 28.0274H11.7643ZM16.0834 26.3071C17.4657 25.6119 18.8695 24.8719 20.2947 24.0871C21.0064 25.2743 21.6607 26.3641 22.2578 27.3567C20.9573 28.0381 19.6634 28.6613 18.3761 29.2262C17.6493 28.3596 16.8851 27.3866 16.0834 26.3071ZM21.1742 23.5732C22.5541 22.7186 23.8874 21.8571 25.174 20.9886C25.7213 22.2167 26.1946 23.3601 26.5939 24.4187C25.4665 25.2683 24.2866 26.0924 23.0541 26.891C22.488 25.8814 21.8613 24.7755 21.1742 23.5732ZM25.9099 20.4567C26.9743 19.6279 27.9337 18.8347 28.7883 18.0771C29.1335 19.2403 29.392 20.3402 29.5639 21.3769C28.8913 22.1975 28.1113 23.0341 27.224 23.8869C26.8606 22.8307 26.4229 21.6873 25.9109 20.4567H25.9099ZM29.2125 17.6407C29.7126 17.0077 30.0731 16.4378 30.2942 15.9308C30.4283 16.7262 30.434 16.7725 30.4897 17.4347C30.5162 18.1092 30.4916 18.7828 30.4151 19.4497C30.2545 20.1015 30.2432 20.1271 29.8757 20.8875C29.7428 19.871 29.5217 18.7884 29.2125 17.6397V17.6407ZM13.22 30.5138C13.648 30.6177 13.6971 30.6224 14.2771 30.681C14.7778 30.8841 14.8156 30.8992 15.2209 30.9984C14.5416 30.8898 13.8728 30.7254 13.22 30.5138ZM14.8364 30.6772C15.8648 30.5412 16.9566 30.317 18.1116 30.0046C18.7067 30.4562 19.2367 30.7663 19.7015 30.9351C19.1479 31.04 19.1073 31.0466 18.6453 31.1052C17.7951 31.1902 16.943 31.1892 16.1013 31.1118C15.5364 30.9861 15.5109 30.9757 14.8354 30.6772H14.8364ZM18.8664 29.741C20.119 29.212 21.3745 28.6219 22.6328 27.9707C23.0296 28.593 23.3429 29.0801 23.5728 29.4321C22.5078 29.9486 21.435 30.3954 20.3543 30.7726C19.9222 30.5692 19.4263 30.225 18.8664 29.7401V29.741ZM23.4056 27.5201C24.5952 26.7379 25.7276 25.9302 26.8026 25.097C26.9462 25.8295 27.0004 26.4337 26.9651 26.9098C26.113 27.6612 25.1964 28.3769 24.2152 29.0571C24.0287 28.6799 23.7589 28.1675 23.4056 27.5201ZM27.3959 24.5793C28.2348 23.7253 28.966 22.8839 29.5894 22.0551C29.5224 22.7769 29.5195 22.8043 29.3467 23.3673C29.0028 24.1382 28.5852 24.8778 28.0978 25.576C27.8134 25.9586 27.7879 25.9907 27.4252 26.4205C27.5064 25.9324 27.4967 25.3187 27.3959 24.5793ZM29.8719 21.5573C30.1015 21.0349 30.1213 20.9895 30.2384 20.5701C30.1043 21.2371 29.9191 21.8955 29.6858 22.535C29.7973 22.1336 29.8039 22.091 29.8728 21.5564L29.8719 21.5573ZM20.9126 30.6753C21.8327 30.3523 22.7478 29.9709 23.6578 29.5313C23.6691 29.5345 23.6757 29.537 23.6776 29.5389C22.784 30.0311 21.8563 30.408 20.9116 30.6753H20.9126ZM24.2614 29.179C25.0902 28.6027 25.8737 27.9902 26.6118 27.3416C25.9137 28.035 25.1277 28.6613 24.2586 29.2007C24.2649 29.1938 24.2662 29.1868 24.2624 29.1799L24.2614 29.179ZM10.3728 6.75796C10.3728 6.75796 10.3756 6.76174 10.369 6.77968C9.53957 7.35531 8.75454 7.96778 8.01392 8.61708C8.71298 7.92275 9.49895 7.29642 10.3718 6.75796H10.3728Z" fill="white"/>
</svg>
